<?xml version="1.0" encoding="UTF-8"?>
<svg id="Layer_2" data-name="Layer 2" xmlns="http://www.w3.org/2000/svg" xmlns:xlink="http://www.w3.org/1999/xlink" viewBox="0 0 1600 725.79">
  <defs>
    <style>
      .cls-1 {
        fill: none;
      }

      .cls-1, .cls-2, .cls-3 {
        stroke-width: 0px;
      }

      .cls-2 {
        fill: url(#linkups);
        opacity: .02;
      }

      .cls-3 {
        fill: #fff;
      }
    </style>
    <pattern id="linkups" x="0" y="0" width="1626.02" height="1471.26" patternTransform="translate(-1.34 -1230.1)" patternUnits="userSpaceOnUse" viewBox="0 0 1626.02 1471.26">
      <g>
        <rect class="cls-1" width="1626.02" height="1471.26"/>
        <g>
          <path class="cls-3" d="m881.01,1533.16c8.92,0,16.61-1.51,23.05-4.53,6.44-3.02,11.4-7.17,14.87-12.46,3.47-5.29,5.21-11.31,5.21-18.07,0-5.82-1.28-10.9-3.84-15.25-2.56-4.35-6-7.75-10.33-10.22-4.32-2.46-9.13-3.78-14.42-3.95v-1.33c4.79-.94,8.96-2.67,12.52-5.19,3.55-2.52,6.32-5.66,8.3-9.43,1.98-3.77,2.97-7.92,2.97-12.46,0-6.26-1.63-11.7-4.87-16.33-3.25-4.62-8.07-8.21-14.46-10.76-6.39-2.55-14.27-3.82-23.63-3.82h-53.37v123.8h58Zm-24.62-97.38h14.21c4.13,0,7.56,1.03,10.29,3.07,2.73,2.05,4.09,4.96,4.09,8.72,0,2.55-.63,4.69-1.9,6.44-1.27,1.74-3.02,3.07-5.25,3.99-2.23.91-4.81,1.37-7.73,1.37h-13.72v-23.6Zm0,44.37h16.19c3.36,0,6.26.53,8.72,1.58,2.45,1.05,4.34,2.59,5.66,4.61,1.32,2.02,1.98,4.5,1.98,7.44,0,4.1-1.42,7.23-4.26,9.39-2.84,2.16-7.04,3.24-12.6,3.24h-15.7v-26.26Z"/>
          <path class="cls-3" d="m966.61,1533.16v-96.88h11.73c3.97,0,7.35.53,10.16,1.58,2.81,1.05,4.96,2.69,6.44,4.9,1.49,2.22,2.23,5.1,2.23,8.64s-.74,6.4-2.23,8.56c-1.49,2.16-3.64,3.74-6.44,4.74-2.81,1-6.2,1.5-10.16,1.5h-24.95v26.09h31.73c9.36,0,17.57-1.55,24.62-4.65,7.05-3.1,12.53-7.7,16.44-13.79,3.91-6.09,5.87-13.57,5.87-22.43s-1.91-16.27-5.74-22.56c-3.83-6.29-9.17-11.11-16.03-14.46-6.86-3.35-14.86-5.03-24-5.03h-53.04v123.8h33.38Zm69.57,0l-30.9-56.83h-35.53l30.07,56.83h36.35Z"/>
          <path class="cls-3" d="m1043.92,1409.36v123.8h33.38v-123.8h-33.38Z"/>
          <path class="cls-3" d="m1124.76,1533.16v-45.2c0-3.38-.12-7.53-.37-12.46-.25-4.93-.58-10.27-.99-16.04-.41-5.76-.84-11.55-1.28-17.37h-3.47c2.81,6.54,5.3,12.3,7.48,17.28,2.17,4.99,4.43,9.71,6.77,14.17,2.34,4.46,5.05,9.26,8.14,14.42l27.35,45.2h36.35v-123.8h-34.37v45.37c0,3.93.17,8.77.5,14.5s.7,11.55,1.12,17.45c.41,5.9.76,11.09,1.03,15.58h2.89c-2.15-6.76-4.26-12.67-6.32-17.74-2.07-5.07-4.2-9.71-6.4-13.92-2.2-4.21-4.57-8.42-7.11-12.63l-29.33-48.61h-36.35v123.8h34.37Z"/>
          <path class="cls-3" d="m1304.28,1528.46c8.34-4.24,14.89-10.36,19.62-18.36,4.74-8,7.11-17.66,7.11-28.96v-17.12h-54.53v23.93h28.09l-5.78-.66c0,3.71-.84,6.94-2.52,9.68-1.68,2.74-4.21,4.86-7.6,6.36s-7.62,2.24-12.68,2.24c-5.78,0-10.62-1.37-14.5-4.11-3.88-2.74-6.82-6.69-8.8-11.84-1.98-5.15-2.97-11.36-2.97-18.61s1.03-13.27,3.1-18.36c2.07-5.1,5.08-8.99,9.05-11.67,3.97-2.69,8.73-4.03,14.29-4.03,2.64,0,5.05.29,7.23.87,2.18.58,4.1,1.44,5.78,2.58,1.68,1.14,3.08,2.53,4.21,4.2,1.13,1.66,1.94,3.55,2.44,5.65h33.71c-.66-6.2-2.47-11.89-5.41-17.07-2.95-5.18-6.84-9.68-11.69-13.5-4.85-3.82-10.4-6.77-16.65-8.85-6.25-2.08-13.01-3.12-20.28-3.12-11.07,0-21.15,2.48-30.24,7.44-9.09,4.96-16.35,12.19-21.77,21.69-5.43,9.5-8.14,21.06-8.14,34.69s2.53,24.26,7.6,33.73c5.07,9.47,12.13,16.77,21.19,21.89,9.06,5.12,19.57,7.69,31.52,7.69,10.74,0,20.28-2.12,28.63-6.36Z"/>
          <path class="cls-3" d="m1342.33,1409.36v123.8h33.38v-123.8h-33.38Z"/>
          <path class="cls-3" d="m1423.17,1533.16v-45.2c0-3.38-.12-7.53-.37-12.46-.25-4.93-.58-10.27-.99-16.04-.41-5.76-.84-11.55-1.28-17.37h-3.47c2.81,6.54,5.3,12.3,7.48,17.28,2.17,4.99,4.43,9.71,6.77,14.17,2.34,4.46,5.05,9.26,8.14,14.42l27.35,45.2h36.35v-123.8h-34.37v45.37c0,3.93.17,8.77.5,14.5s.7,11.55,1.12,17.45c.41,5.9.76,11.09,1.03,15.58h2.89c-2.15-6.76-4.26-12.67-6.32-17.74-2.07-5.07-4.2-9.71-6.4-13.92-2.2-4.21-4.57-8.42-7.11-12.63l-29.33-48.61h-36.35v123.8h34.37Z"/>
          <path class="cls-3" d="m1602.69,1528.46c8.34-4.24,14.89-10.36,19.62-18.36,4.74-8,7.11-17.66,7.11-28.96v-17.12h-54.53v23.93h28.09l-5.78-.66c0,3.71-.84,6.94-2.52,9.68-1.68,2.74-4.21,4.86-7.6,6.36s-7.62,2.24-12.68,2.24c-5.78,0-10.62-1.37-14.5-4.11-3.88-2.74-6.82-6.69-8.8-11.84-1.98-5.15-2.97-11.36-2.97-18.61s1.03-13.27,3.1-18.36c2.07-5.1,5.08-8.99,9.05-11.67,3.97-2.69,8.73-4.03,14.29-4.03,2.64,0,5.05.29,7.23.87,2.18.58,4.1,1.44,5.78,2.58,1.68,1.14,3.08,2.53,4.21,4.2,1.13,1.66,1.94,3.55,2.44,5.65h33.71c-.66-6.2-2.47-11.89-5.41-17.07-2.95-5.18-6.84-9.68-11.69-13.5-4.85-3.82-10.4-6.77-16.65-8.85-6.25-2.08-13.01-3.12-20.28-3.12-11.07,0-21.15,2.48-30.24,7.44-9.09,4.96-16.35,12.19-21.77,21.69-5.43,9.5-8.14,21.06-8.14,34.69s2.53,24.26,7.6,33.73c5.07,9.47,12.13,16.77,21.19,21.89,9.06,5.12,19.57,7.69,31.52,7.69,10.74,0,20.28-2.12,28.63-6.36Z"/>
        </g>
        <g>
          <path class="cls-3" d="m-23.33,1528.46c8.34-4.24,14.89-10.36,19.62-18.36,4.74-8,7.11-17.66,7.11-28.96v-17.12h-54.53v23.93h28.09l-5.78-.66c0,3.71-.84,6.94-2.52,9.68-1.68,2.74-4.21,4.86-7.6,6.36s-7.62,2.24-12.68,2.24c-5.78,0-10.62-1.37-14.5-4.11-3.88-2.74-6.82-6.69-8.8-11.84-1.98-5.15-2.97-11.36-2.97-18.61s1.03-13.27,3.1-18.36c2.07-5.1,5.08-8.99,9.05-11.67,3.97-2.69,8.73-4.03,14.29-4.03,2.64,0,5.05.29,7.23.87,2.18.58,4.1,1.44,5.78,2.58,1.68,1.14,3.08,2.53,4.21,4.2,1.13,1.66,1.94,3.55,2.44,5.65H1.91c-.66-6.2-2.47-11.89-5.41-17.07-2.95-5.18-6.84-9.68-11.69-13.5-4.85-3.82-10.4-6.77-16.65-8.85-6.25-2.08-13.01-3.12-20.28-3.12-11.07,0-21.15,2.48-30.24,7.44-9.09,4.96-16.35,12.19-21.77,21.69-5.43,9.5-8.14,21.06-8.14,34.69s2.53,24.26,7.6,33.73c5.07,9.47,12.13,16.77,21.19,21.89,9.06,5.12,19.57,7.69,31.52,7.69,10.74,0,20.28-2.12,28.63-6.36Z"/>
          <path class="cls-3" d="m134.36,1533.16v-27.09h-49.74v-96.72h-33.38v123.8h83.12Z"/>
          <path class="cls-3" d="m141.64,1409.36v123.8h33.38v-123.8h-33.38Z"/>
          <path class="cls-3" d="m222.47,1533.16v-45.2c0-3.38-.12-7.53-.37-12.46-.25-4.93-.58-10.27-.99-16.04-.41-5.76-.84-11.55-1.28-17.37h-3.47c2.81,6.54,5.3,12.3,7.48,17.28,2.17,4.99,4.43,9.71,6.77,14.17,2.34,4.46,5.05,9.26,8.14,14.42l27.35,45.2h36.35v-123.8h-34.37v45.37c0,3.93.17,8.77.5,14.5s.7,11.55,1.12,17.45c.41,5.9.76,11.09,1.03,15.58h2.89c-2.15-6.76-4.26-12.67-6.32-17.74-2.07-5.07-4.2-9.71-6.4-13.92-2.2-4.21-4.57-8.42-7.11-12.63l-29.33-48.61h-36.35v123.8h34.37Z"/>
          <path class="cls-3" d="m348.99,1533.16v-45.2l-.66-16.37.66-35.64v-26.59h-33.38v123.8h33.38Zm26.44-61.4l3.14,1.33,51.47-63.73h-39.58l-24.46,31.82c-4.35,5.71-7.97,10.72-10.87,15.04-2.89,4.32-5.41,8.57-7.56,12.75-2.15,4.18-4.35,8.88-6.61,14.08v28.42l34.45-39.72Zm56.93,61.4l-47.84-74.36-21.15,24.59,29.66,49.77h39.33Z"/>
          <path class="cls-3" d="m558.68,1529.04c7.99-3.74,14.21-9.06,18.67-15.95,4.46-6.9,6.69-15.05,6.69-24.47v-79.27h-33.38v76.44c0,3.88-.85,7.3-2.56,10.26-1.71,2.96-4.05,5.29-7.02,6.98-2.97,1.69-6.39,2.53-10.24,2.53s-7.18-.84-10.12-2.53c-2.95-1.69-5.27-4.02-6.98-6.98-1.71-2.96-2.56-6.38-2.56-10.26v-76.44h-33.38v79.27c0,9.42,2.22,17.57,6.65,24.47,4.43,6.9,10.63,12.21,18.59,15.95,7.96,3.74,17.23,5.61,27.8,5.61s19.86-1.87,27.84-5.61Z"/>
          <path class="cls-3" d="m630.28,1533.16v-96.88h11.73c3.97,0,7.35.66,10.16,1.99,2.81,1.33,4.96,3.25,6.44,5.77,1.49,2.52,2.23,5.58,2.23,9.18s-.74,6.51-2.23,9.06c-1.49,2.55-3.64,4.53-6.44,5.94-2.81,1.41-6.2,2.12-10.16,2.12h-24.95v26.09h31.73c9.36,0,17.57-1.76,24.62-5.28,7.05-3.52,12.53-8.5,16.44-14.96,3.91-6.45,5.87-14.11,5.87-22.97s-1.91-16.51-5.74-23.1c-3.83-6.59-9.17-11.7-16.03-15.33-6.86-3.63-14.86-5.44-24-5.44h-53.04v123.8h33.38Z"/>
          <path class="cls-3" d="m779.88,1530.25c7.44-2.94,13.15-7.24,17.14-12.92,3.99-5.68,5.99-12.59,5.99-20.73,0-4.71-.73-9.06-2.19-13.04-1.46-3.99-3.75-7.57-6.86-10.76-3.11-3.18-7.11-5.97-11.98-8.35-4.87-2.38-10.7-4.29-17.47-5.73l-10.08-2.16c-3.86-.83-7.01-1.79-9.46-2.87-2.45-1.08-4.24-2.35-5.37-3.82-1.13-1.47-1.69-3.17-1.69-5.11,0-1.83.52-3.46,1.57-4.9,1.05-1.44,2.67-2.56,4.87-3.37,2.2-.8,5.01-1.2,8.43-1.2,5.4,0,9.43,1.12,12.1,3.37,2.67,2.24,4.14,5.39,4.42,9.43h32.06c-.06-8.09-2.05-15.16-5.99-21.23-3.94-6.07-9.53-10.77-16.77-14.12-7.24-3.35-15.85-5.03-25.82-5.03s-18.36,1.65-25.82,4.94c-7.46,3.3-13.32,7.89-17.56,13.79-4.24,5.9-6.36,12.78-6.36,20.65,0,9.69,3.13,17.35,9.38,22.97,6.25,5.62,14.8,9.6,25.65,11.92l12.39,2.66c4.57.94,8.21,1.99,10.91,3.16,2.7,1.16,4.64,2.45,5.83,3.86,1.18,1.41,1.78,3.06,1.78,4.94,0,2.05-.62,3.86-1.86,5.44s-3.07,2.81-5.49,3.7c-2.42.89-5.43,1.33-9.01,1.33-4.3,0-7.97-.66-11.03-1.99-3.06-1.33-5.43-3.29-7.11-5.9-1.68-2.6-2.63-5.79-2.85-9.55h-31.73c.05,10.36,2.28,18.86,6.69,25.51,4.41,6.65,10.59,11.56,18.55,14.75,7.96,3.19,17.28,4.78,27.97,4.78s19.33-1.47,26.77-4.4Z"/>
        </g>
        <g>
          <path class="cls-3" d="m68,1386.03c8.92,0,16.61-1.51,23.05-4.53,6.44-3.02,11.4-7.17,14.87-12.46,3.47-5.29,5.21-11.31,5.21-18.07,0-5.82-1.28-10.9-3.84-15.25-2.56-4.35-6-7.75-10.33-10.22-4.32-2.46-9.13-3.78-14.42-3.95v-1.33c4.79-.94,8.96-2.67,12.52-5.19,3.55-2.52,6.32-5.66,8.3-9.43,1.98-3.77,2.97-7.92,2.97-12.46,0-6.26-1.63-11.7-4.87-16.33-3.25-4.62-8.07-8.21-14.46-10.76-6.39-2.55-14.27-3.82-23.63-3.82H10v123.8h58Zm-24.62-97.38h14.21c4.13,0,7.56,1.03,10.29,3.07,2.73,2.05,4.09,4.96,4.09,8.72,0,2.55-.63,4.69-1.9,6.44-1.27,1.74-3.02,3.07-5.25,3.99-2.23.91-4.81,1.37-7.73,1.37h-13.72v-23.6Zm0,44.37h16.19c3.36,0,6.26.53,8.72,1.58,2.45,1.05,4.34,2.59,5.66,4.61,1.32,2.02,1.98,4.5,1.98,7.44,0,4.1-1.42,7.23-4.26,9.39-2.84,2.16-7.04,3.24-12.6,3.24h-15.7v-26.26Z"/>
          <path class="cls-3" d="m153.6,1386.03v-96.88h11.73c3.97,0,7.35.53,10.16,1.58,2.81,1.05,4.96,2.69,6.44,4.9,1.49,2.22,2.23,5.1,2.23,8.64s-.74,6.4-2.23,8.56c-1.49,2.16-3.64,3.74-6.44,4.74-2.81,1-6.2,1.5-10.16,1.5h-24.95v26.09h31.73c9.36,0,17.57-1.55,24.62-4.65,7.05-3.1,12.53-7.7,16.44-13.79,3.91-6.09,5.87-13.57,5.87-22.43s-1.91-16.27-5.74-22.56c-3.83-6.29-9.17-11.11-16.03-14.46-6.86-3.35-14.86-5.03-24-5.03h-53.04v123.8h33.38Zm69.57,0l-30.9-56.83h-35.53l30.07,56.83h36.35Z"/>
          <path class="cls-3" d="m230.91,1262.23v123.8h33.38v-123.8h-33.38Z"/>
          <path class="cls-3" d="m311.75,1386.03v-45.2c0-3.38-.12-7.53-.37-12.46-.25-4.93-.58-10.27-.99-16.04-.41-5.76-.84-11.55-1.28-17.37h-3.47c2.81,6.54,5.3,12.3,7.48,17.28,2.17,4.99,4.43,9.71,6.77,14.17,2.34,4.46,5.05,9.26,8.14,14.42l27.35,45.2h36.35v-123.8h-34.37v45.37c0,3.93.17,8.77.5,14.5s.7,11.55,1.12,17.45c.41,5.9.76,11.09,1.03,15.58h2.89c-2.15-6.76-4.26-12.67-6.32-17.74-2.07-5.07-4.2-9.71-6.4-13.92-2.2-4.21-4.57-8.42-7.11-12.63l-29.33-48.61h-36.35v123.8h34.37Z"/>
          <path class="cls-3" d="m491.27,1381.34c8.34-4.24,14.89-10.36,19.62-18.36,4.74-8,7.11-17.66,7.11-28.96v-17.12h-54.53v23.93h28.09l-5.78-.66c0,3.71-.84,6.94-2.52,9.68-1.68,2.74-4.21,4.86-7.6,6.36s-7.62,2.24-12.68,2.24c-5.78,0-10.62-1.37-14.5-4.11-3.88-2.74-6.82-6.69-8.8-11.84-1.98-5.15-2.97-11.36-2.97-18.61s1.03-13.27,3.1-18.36c2.07-5.1,5.08-8.99,9.05-11.67,3.97-2.69,8.73-4.03,14.29-4.03,2.64,0,5.05.29,7.23.87,2.18.58,4.1,1.44,5.78,2.58,1.68,1.14,3.08,2.53,4.21,4.2,1.13,1.66,1.94,3.55,2.44,5.65h33.71c-.66-6.2-2.47-11.89-5.41-17.07-2.95-5.18-6.84-9.68-11.69-13.5-4.85-3.82-10.4-6.77-16.65-8.85-6.25-2.08-13.01-3.12-20.28-3.12-11.07,0-21.15,2.48-30.24,7.44-9.09,4.96-16.35,12.19-21.77,21.69-5.43,9.5-8.14,21.06-8.14,34.69s2.53,24.26,7.6,33.73c5.07,9.47,12.13,16.77,21.19,21.89,9.06,5.12,19.57,7.69,31.52,7.69,10.74,0,20.28-2.12,28.63-6.36Z"/>
          <path class="cls-3" d="m529.32,1262.23v123.8h33.38v-123.8h-33.38Z"/>
          <path class="cls-3" d="m610.16,1386.03v-45.2c0-3.38-.12-7.53-.37-12.46-.25-4.93-.58-10.27-.99-16.04-.41-5.76-.84-11.55-1.28-17.37h-3.47c2.81,6.54,5.3,12.3,7.48,17.28,2.17,4.99,4.43,9.71,6.77,14.17,2.34,4.46,5.05,9.26,8.14,14.42l27.35,45.2h36.35v-123.8h-34.37v45.37c0,3.93.17,8.77.5,14.5.33,5.73.7,11.55,1.12,17.45.41,5.9.76,11.09,1.03,15.58h2.89c-2.15-6.76-4.26-12.67-6.32-17.74s-4.2-9.71-6.4-13.92c-2.2-4.21-4.57-8.42-7.11-12.63l-29.33-48.61h-36.35v123.8h34.37Z"/>
          <path class="cls-3" d="m789.68,1381.34c8.34-4.24,14.89-10.36,19.62-18.36,4.74-8,7.11-17.66,7.11-28.96v-17.12h-54.53v23.93h28.09l-5.78-.66c0,3.71-.84,6.94-2.52,9.68-1.68,2.74-4.21,4.86-7.6,6.36s-7.62,2.24-12.68,2.24c-5.78,0-10.62-1.37-14.5-4.11-3.88-2.74-6.82-6.69-8.8-11.84-1.98-5.15-2.97-11.36-2.97-18.61s1.03-13.27,3.1-18.36c2.07-5.1,5.08-8.99,9.05-11.67,3.97-2.69,8.73-4.03,14.29-4.03,2.64,0,5.05.29,7.23.87,2.18.58,4.1,1.44,5.78,2.58,1.68,1.14,3.08,2.53,4.21,4.2,1.13,1.66,1.94,3.55,2.44,5.65h33.71c-.66-6.2-2.47-11.89-5.41-17.07-2.95-5.18-6.84-9.68-11.69-13.5-4.85-3.82-10.4-6.77-16.65-8.85-6.25-2.08-13.01-3.12-20.28-3.12-11.07,0-21.15,2.48-30.24,7.44-9.09,4.96-16.35,12.19-21.77,21.69-5.43,9.5-8.14,21.06-8.14,34.69s2.53,24.26,7.6,33.73c5.07,9.47,12.13,16.77,21.19,21.89,9.06,5.12,19.57,7.69,31.52,7.69,10.74,0,20.28-2.12,28.63-6.36Z"/>
          <path class="cls-3" d="m947.37,1386.03v-27.09h-49.74v-96.72h-33.38v123.8h83.12Z"/>
          <path class="cls-3" d="m954.65,1262.23v123.8h33.38v-123.8h-33.38Z"/>
          <path class="cls-3" d="m1035.49,1386.03v-45.2c0-3.38-.12-7.53-.37-12.46-.25-4.93-.58-10.27-.99-16.04-.41-5.76-.84-11.55-1.28-17.37h-3.47c2.81,6.54,5.3,12.3,7.48,17.28,2.17,4.99,4.43,9.71,6.77,14.17,2.34,4.46,5.05,9.26,8.14,14.42l27.35,45.2h36.35v-123.8h-34.37v45.37c0,3.93.17,8.77.5,14.5.33,5.73.7,11.55,1.12,17.45.41,5.9.76,11.09,1.03,15.58h2.89c-2.15-6.76-4.26-12.67-6.32-17.74s-4.2-9.71-6.4-13.92c-2.2-4.21-4.57-8.42-7.11-12.63l-29.33-48.61h-36.35v123.8h34.37Z"/>
          <path class="cls-3" d="m1162,1386.03v-45.2l-.66-16.37.66-35.64v-26.59h-33.38v123.8h33.38Zm26.44-61.4l3.14,1.33,51.47-63.73h-39.58l-24.46,31.82c-4.35,5.71-7.97,10.72-10.87,15.04-2.89,4.32-5.41,8.57-7.56,12.75-2.15,4.18-4.35,8.88-6.61,14.08v28.42l34.45-39.72Zm56.93,61.4l-47.84-74.36-21.15,24.59,29.66,49.77h39.33Z"/>
          <path class="cls-3" d="m1371.69,1381.92c7.99-3.74,14.21-9.06,18.67-15.95,4.46-6.9,6.69-15.05,6.69-24.47v-79.27h-33.38v76.44c0,3.88-.85,7.3-2.56,10.26-1.71,2.96-4.05,5.29-7.02,6.98-2.97,1.69-6.39,2.53-10.24,2.53s-7.18-.84-10.12-2.53c-2.95-1.69-5.27-4.02-6.98-6.98-1.71-2.96-2.56-6.38-2.56-10.26v-76.44h-33.38v79.27c0,9.42,2.22,17.57,6.65,24.47,4.43,6.9,10.63,12.21,18.59,15.95,7.96,3.74,17.23,5.61,27.8,5.61s19.86-1.87,27.84-5.61Z"/>
          <path class="cls-3" d="m1443.29,1386.03v-96.88h11.73c3.97,0,7.35.66,10.16,1.99,2.81,1.33,4.96,3.25,6.44,5.77,1.49,2.52,2.23,5.58,2.23,9.18s-.74,6.51-2.23,9.06c-1.49,2.55-3.64,4.53-6.44,5.94-2.81,1.41-6.2,2.12-10.16,2.12h-24.95v26.09h31.73c9.36,0,17.57-1.76,24.62-5.28,7.05-3.52,12.53-8.5,16.44-14.96,3.91-6.45,5.87-14.11,5.87-22.97s-1.91-16.51-5.74-23.1c-3.83-6.59-9.17-11.7-16.03-15.33-6.86-3.63-14.86-5.44-24-5.44h-53.04v123.8h33.38Z"/>
          <path class="cls-3" d="m1592.89,1383.12c7.44-2.94,13.15-7.24,17.14-12.92,3.99-5.68,5.99-12.59,5.99-20.73,0-4.71-.73-9.06-2.19-13.04-1.46-3.99-3.75-7.57-6.86-10.76-3.11-3.18-7.11-5.97-11.98-8.35-4.87-2.38-10.7-4.29-17.47-5.73l-10.08-2.16c-3.86-.83-7.01-1.79-9.46-2.87-2.45-1.08-4.24-2.35-5.37-3.82-1.13-1.47-1.69-3.17-1.69-5.11,0-1.83.52-3.46,1.57-4.9,1.05-1.44,2.67-2.56,4.87-3.37,2.2-.8,5.01-1.2,8.43-1.2,5.4,0,9.43,1.12,12.1,3.37,2.67,2.24,4.14,5.39,4.42,9.43h32.06c-.06-8.09-2.05-15.16-5.99-21.23-3.94-6.07-9.53-10.77-16.77-14.12-7.24-3.35-15.85-5.03-25.82-5.03s-18.36,1.65-25.82,4.94c-7.46,3.3-13.32,7.89-17.56,13.79-4.24,5.9-6.36,12.78-6.36,20.65,0,9.69,3.13,17.35,9.38,22.97,6.25,5.62,14.8,9.6,25.65,11.92l12.39,2.66c4.57.94,8.21,1.99,10.91,3.16,2.7,1.16,4.64,2.45,5.83,3.86,1.18,1.41,1.78,3.06,1.78,4.94,0,2.05-.62,3.86-1.86,5.44s-3.07,2.81-5.49,3.7c-2.42.89-5.43,1.33-9.01,1.33-4.3,0-7.97-.66-11.03-1.99-3.06-1.33-5.43-3.29-7.11-5.9-1.68-2.6-2.63-5.79-2.85-9.55h-31.73c.05,10.36,2.28,18.86,6.69,25.51,4.41,6.65,10.59,11.56,18.55,14.75,7.96,3.19,17.28,4.78,27.97,4.78s19.33-1.47,26.77-4.4Z"/>
        </g>
        <g>
          <path class="cls-3" d="m881.01,1238.91c8.92,0,16.61-1.51,23.05-4.53,6.44-3.02,11.4-7.17,14.87-12.46,3.47-5.29,5.21-11.31,5.21-18.07,0-5.82-1.28-10.9-3.84-15.25-2.56-4.35-6-7.75-10.33-10.22-4.32-2.46-9.13-3.78-14.42-3.95v-1.33c4.79-.94,8.96-2.67,12.52-5.19,3.55-2.52,6.32-5.66,8.3-9.43,1.98-3.77,2.97-7.92,2.97-12.46,0-6.26-1.63-11.7-4.87-16.33-3.25-4.62-8.07-8.21-14.46-10.76-6.39-2.55-14.27-3.82-23.63-3.82h-53.37v123.8h58Zm-24.62-97.38h14.21c4.13,0,7.56,1.03,10.29,3.07,2.73,2.05,4.09,4.96,4.09,8.72,0,2.55-.63,4.69-1.9,6.44-1.27,1.74-3.02,3.07-5.25,3.99-2.23.91-4.81,1.37-7.73,1.37h-13.72v-23.6Zm0,44.37h16.19c3.36,0,6.26.53,8.72,1.58,2.45,1.05,4.34,2.59,5.66,4.61,1.32,2.02,1.98,4.5,1.98,7.44,0,4.1-1.42,7.23-4.26,9.39-2.84,2.16-7.04,3.24-12.6,3.24h-15.7v-26.26Z"/>
          <path class="cls-3" d="m966.61,1238.91v-96.88h11.73c3.97,0,7.35.53,10.16,1.58,2.81,1.05,4.96,2.69,6.44,4.9,1.49,2.22,2.23,5.1,2.23,8.64s-.74,6.4-2.23,8.56c-1.49,2.16-3.64,3.74-6.44,4.74-2.81,1-6.2,1.5-10.16,1.5h-24.95v26.09h31.73c9.36,0,17.57-1.55,24.62-4.65,7.05-3.1,12.53-7.7,16.44-13.79,3.91-6.09,5.87-13.57,5.87-22.43s-1.91-16.27-5.74-22.56c-3.83-6.29-9.17-11.11-16.03-14.46-6.86-3.35-14.86-5.03-24-5.03h-53.04v123.8h33.38Zm69.57,0l-30.9-56.83h-35.53l30.07,56.83h36.35Z"/>
          <path class="cls-3" d="m1043.92,1115.1v123.8h33.38v-123.8h-33.38Z"/>
          <path class="cls-3" d="m1124.76,1238.91v-45.2c0-3.38-.12-7.53-.37-12.46-.25-4.93-.58-10.27-.99-16.04-.41-5.76-.84-11.55-1.28-17.37h-3.47c2.81,6.54,5.3,12.3,7.48,17.28,2.17,4.99,4.43,9.71,6.77,14.17,2.34,4.46,5.05,9.26,8.14,14.42l27.35,45.2h36.35v-123.8h-34.37v45.37c0,3.93.17,8.77.5,14.5s.7,11.55,1.12,17.45c.41,5.9.76,11.09,1.03,15.58h2.89c-2.15-6.76-4.26-12.67-6.32-17.74-2.07-5.07-4.2-9.71-6.4-13.92-2.2-4.21-4.57-8.42-7.11-12.63l-29.33-48.61h-36.35v123.8h34.37Z"/>
          <path class="cls-3" d="m1304.28,1234.21c8.34-4.24,14.89-10.36,19.62-18.36,4.74-8,7.11-17.66,7.11-28.96v-17.12h-54.53v23.93h28.09l-5.78-.66c0,3.71-.84,6.94-2.52,9.68-1.68,2.74-4.21,4.86-7.6,6.36s-7.62,2.24-12.68,2.24c-5.78,0-10.62-1.37-14.5-4.11-3.88-2.74-6.82-6.69-8.8-11.84-1.98-5.15-2.97-11.36-2.97-18.61s1.03-13.27,3.1-18.36c2.07-5.1,5.08-8.99,9.05-11.67,3.97-2.69,8.73-4.03,14.29-4.03,2.64,0,5.05.29,7.23.87,2.18.58,4.1,1.44,5.78,2.58,1.68,1.14,3.08,2.53,4.21,4.2,1.13,1.66,1.94,3.55,2.44,5.65h33.71c-.66-6.2-2.47-11.89-5.41-17.07-2.95-5.18-6.84-9.68-11.69-13.5-4.85-3.82-10.4-6.77-16.65-8.85-6.25-2.08-13.01-3.12-20.28-3.12-11.07,0-21.15,2.48-30.24,7.44-9.09,4.96-16.35,12.19-21.77,21.69-5.43,9.5-8.14,21.06-8.14,34.69s2.53,24.26,7.6,33.73c5.07,9.47,12.13,16.77,21.19,21.89,9.06,5.12,19.57,7.69,31.52,7.69,10.74,0,20.28-2.12,28.63-6.36Z"/>
          <path class="cls-3" d="m1342.33,1115.1v123.8h33.38v-123.8h-33.38Z"/>
          <path class="cls-3" d="m1423.17,1238.91v-45.2c0-3.38-.12-7.53-.37-12.46-.25-4.93-.58-10.27-.99-16.04-.41-5.76-.84-11.55-1.28-17.37h-3.47c2.81,6.54,5.3,12.3,7.48,17.28,2.17,4.99,4.43,9.71,6.77,14.17,2.34,4.46,5.05,9.26,8.14,14.42l27.35,45.2h36.35v-123.8h-34.37v45.37c0,3.93.17,8.77.5,14.5s.7,11.55,1.12,17.45c.41,5.9.76,11.09,1.03,15.58h2.89c-2.15-6.76-4.26-12.67-6.32-17.74-2.07-5.07-4.2-9.71-6.4-13.92-2.2-4.21-4.57-8.42-7.11-12.63l-29.33-48.61h-36.35v123.8h34.37Z"/>
          <path class="cls-3" d="m1602.69,1234.21c8.34-4.24,14.89-10.36,19.62-18.36,4.74-8,7.11-17.66,7.11-28.96v-17.12h-54.53v23.93h28.09l-5.78-.66c0,3.71-.84,6.94-2.52,9.68-1.68,2.74-4.21,4.86-7.6,6.36s-7.62,2.24-12.68,2.24c-5.78,0-10.62-1.37-14.5-4.11-3.88-2.74-6.82-6.69-8.8-11.84-1.98-5.15-2.97-11.36-2.97-18.61s1.03-13.27,3.1-18.36c2.07-5.1,5.08-8.99,9.05-11.67,3.97-2.69,8.73-4.03,14.29-4.03,2.64,0,5.05.29,7.23.87,2.18.58,4.1,1.44,5.78,2.58,1.68,1.14,3.08,2.53,4.21,4.2,1.13,1.66,1.94,3.55,2.44,5.65h33.71c-.66-6.2-2.47-11.89-5.41-17.07-2.95-5.18-6.84-9.68-11.69-13.5-4.85-3.82-10.4-6.77-16.65-8.85-6.25-2.08-13.01-3.12-20.28-3.12-11.07,0-21.15,2.48-30.24,7.44-9.09,4.96-16.35,12.19-21.77,21.69-5.43,9.5-8.14,21.06-8.14,34.69s2.53,24.26,7.6,33.73c5.07,9.47,12.13,16.77,21.19,21.89,9.06,5.12,19.57,7.69,31.52,7.69,10.74,0,20.28-2.12,28.63-6.36Z"/>
        </g>
        <g>
          <path class="cls-3" d="m-23.33,1234.21c8.34-4.24,14.89-10.36,19.62-18.36,4.74-8,7.11-17.66,7.11-28.96v-17.12h-54.53v23.93h28.09l-5.78-.66c0,3.71-.84,6.94-2.52,9.68-1.68,2.74-4.21,4.86-7.6,6.36s-7.62,2.24-12.68,2.24c-5.78,0-10.62-1.37-14.5-4.11-3.88-2.74-6.82-6.69-8.8-11.84-1.98-5.15-2.97-11.36-2.97-18.61s1.03-13.27,3.1-18.36c2.07-5.1,5.08-8.99,9.05-11.67,3.97-2.69,8.73-4.03,14.29-4.03,2.64,0,5.05.29,7.23.87,2.18.58,4.1,1.44,5.78,2.58,1.68,1.14,3.08,2.53,4.21,4.2,1.13,1.66,1.94,3.55,2.44,5.65H1.91c-.66-6.2-2.47-11.89-5.41-17.07-2.95-5.18-6.84-9.68-11.69-13.5-4.85-3.82-10.4-6.77-16.65-8.85-6.25-2.08-13.01-3.12-20.28-3.12-11.07,0-21.15,2.48-30.24,7.44-9.09,4.96-16.35,12.19-21.77,21.69-5.43,9.5-8.14,21.06-8.14,34.69s2.53,24.26,7.6,33.73c5.07,9.47,12.13,16.77,21.19,21.89,9.06,5.12,19.57,7.69,31.52,7.69,10.74,0,20.28-2.12,28.63-6.36Z"/>
          <path class="cls-3" d="m134.36,1238.91v-27.09h-49.74v-96.72h-33.38v123.8h83.12Z"/>
          <path class="cls-3" d="m141.64,1115.1v123.8h33.38v-123.8h-33.38Z"/>
          <path class="cls-3" d="m222.47,1238.91v-45.2c0-3.38-.12-7.53-.37-12.46-.25-4.93-.58-10.27-.99-16.04-.41-5.76-.84-11.55-1.28-17.37h-3.47c2.81,6.54,5.3,12.3,7.48,17.28,2.17,4.99,4.43,9.71,6.77,14.17,2.34,4.46,5.05,9.26,8.14,14.42l27.35,45.2h36.35v-123.8h-34.37v45.37c0,3.93.17,8.77.5,14.5s.7,11.55,1.12,17.45c.41,5.9.76,11.09,1.03,15.58h2.89c-2.15-6.76-4.26-12.67-6.32-17.74-2.07-5.07-4.2-9.71-6.4-13.92-2.2-4.21-4.57-8.42-7.11-12.63l-29.33-48.61h-36.35v123.8h34.37Z"/>
          <path class="cls-3" d="m348.99,1238.91v-45.2l-.66-16.37.66-35.64v-26.59h-33.38v123.8h33.38Zm26.44-61.4l3.14,1.33,51.47-63.73h-39.58l-24.46,31.82c-4.35,5.71-7.97,10.72-10.87,15.04-2.89,4.32-5.41,8.57-7.56,12.75-2.15,4.18-4.35,8.88-6.61,14.08v28.42l34.45-39.72Zm56.93,61.4l-47.84-74.36-21.15,24.59,29.66,49.77h39.33Z"/>
          <path class="cls-3" d="m558.68,1234.79c7.99-3.74,14.21-9.06,18.67-15.95,4.46-6.9,6.69-15.05,6.69-24.47v-79.27h-33.38v76.44c0,3.88-.85,7.3-2.56,10.26-1.71,2.96-4.05,5.29-7.02,6.98-2.97,1.69-6.39,2.53-10.24,2.53s-7.18-.84-10.12-2.53c-2.95-1.69-5.27-4.02-6.98-6.98-1.71-2.96-2.56-6.38-2.56-10.26v-76.44h-33.38v79.27c0,9.42,2.22,17.57,6.65,24.47,4.43,6.9,10.63,12.21,18.59,15.95,7.96,3.74,17.23,5.61,27.8,5.61s19.86-1.87,27.84-5.61Z"/>
          <path class="cls-3" d="m630.28,1238.91v-96.88h11.73c3.97,0,7.35.66,10.16,1.99,2.81,1.33,4.96,3.25,6.44,5.77,1.49,2.52,2.23,5.58,2.23,9.18s-.74,6.51-2.23,9.06c-1.49,2.55-3.64,4.53-6.44,5.94-2.81,1.41-6.2,2.12-10.16,2.12h-24.95v26.09h31.73c9.36,0,17.57-1.76,24.62-5.28,7.05-3.52,12.53-8.5,16.44-14.96,3.91-6.45,5.87-14.11,5.87-22.97s-1.91-16.51-5.74-23.1c-3.83-6.59-9.17-11.7-16.03-15.33-6.86-3.63-14.86-5.44-24-5.44h-53.04v123.8h33.38Z"/>
          <path class="cls-3" d="m779.88,1236c7.44-2.94,13.15-7.24,17.14-12.92,3.99-5.68,5.99-12.59,5.99-20.73,0-4.71-.73-9.06-2.19-13.04-1.46-3.99-3.75-7.57-6.86-10.76-3.11-3.18-7.11-5.97-11.98-8.35-4.87-2.38-10.7-4.29-17.47-5.73l-10.08-2.16c-3.86-.83-7.01-1.79-9.46-2.87-2.45-1.08-4.24-2.35-5.37-3.82-1.13-1.47-1.69-3.17-1.69-5.11,0-1.83.52-3.46,1.57-4.9,1.05-1.44,2.67-2.56,4.87-3.37,2.2-.8,5.01-1.2,8.43-1.2,5.4,0,9.43,1.12,12.1,3.37,2.67,2.24,4.14,5.39,4.42,9.43h32.06c-.06-8.09-2.05-15.16-5.99-21.23-3.94-6.07-9.53-10.77-16.77-14.12-7.24-3.35-15.85-5.03-25.82-5.03s-18.36,1.65-25.82,4.94c-7.46,3.3-13.32,7.89-17.56,13.79-4.24,5.9-6.36,12.78-6.36,20.65,0,9.69,3.13,17.35,9.38,22.97,6.25,5.62,14.8,9.6,25.65,11.92l12.39,2.66c4.57.94,8.21,1.99,10.91,3.16,2.7,1.16,4.64,2.45,5.83,3.86,1.18,1.41,1.78,3.06,1.78,4.94,0,2.05-.62,3.86-1.86,5.44s-3.07,2.81-5.49,3.7c-2.42.89-5.43,1.33-9.01,1.33-4.3,0-7.97-.66-11.03-1.99-3.06-1.33-5.43-3.29-7.11-5.9-1.68-2.6-2.63-5.79-2.85-9.55h-31.73c.05,10.36,2.28,18.86,6.69,25.51,4.41,6.65,10.59,11.56,18.55,14.75,7.96,3.19,17.28,4.78,27.97,4.78s19.33-1.47,26.77-4.4Z"/>
        </g>
        <g>
          <path class="cls-3" d="m68,1091.78c8.92,0,16.61-1.51,23.05-4.53,6.44-3.02,11.4-7.17,14.87-12.46,3.47-5.29,5.21-11.31,5.21-18.07,0-5.82-1.28-10.9-3.84-15.25-2.56-4.35-6-7.75-10.33-10.22-4.32-2.46-9.13-3.78-14.42-3.95v-1.33c4.79-.94,8.96-2.67,12.52-5.19,3.55-2.52,6.32-5.66,8.3-9.43,1.98-3.77,2.97-7.92,2.97-12.46,0-6.26-1.63-11.7-4.87-16.33-3.25-4.62-8.07-8.21-14.46-10.76-6.39-2.55-14.27-3.82-23.63-3.82H10v123.8h58Zm-24.62-97.38h14.21c4.13,0,7.56,1.03,10.29,3.07,2.73,2.05,4.09,4.96,4.09,8.72,0,2.55-.63,4.69-1.9,6.44-1.27,1.74-3.02,3.07-5.25,3.99-2.23.91-4.81,1.37-7.73,1.37h-13.72v-23.6Zm0,44.37h16.19c3.36,0,6.26.53,8.72,1.58,2.45,1.05,4.34,2.59,5.66,4.61,1.32,2.02,1.98,4.5,1.98,7.44,0,4.1-1.42,7.23-4.26,9.39-2.84,2.16-7.04,3.24-12.6,3.24h-15.7v-26.26Z"/>
          <path class="cls-3" d="m153.6,1091.78v-96.88h11.73c3.97,0,7.35.53,10.16,1.58,2.81,1.05,4.96,2.69,6.44,4.9,1.49,2.22,2.23,5.1,2.23,8.64s-.74,6.4-2.23,8.56c-1.49,2.16-3.64,3.74-6.44,4.74-2.81,1-6.2,1.5-10.16,1.5h-24.95v26.09h31.73c9.36,0,17.57-1.55,24.62-4.65,7.05-3.1,12.53-7.7,16.44-13.79,3.91-6.09,5.87-13.57,5.87-22.43s-1.91-16.27-5.74-22.56c-3.83-6.29-9.17-11.11-16.03-14.46-6.86-3.35-14.86-5.03-24-5.03h-53.04v123.8h33.38Zm69.57,0l-30.9-56.83h-35.53l30.07,56.83h36.35Z"/>
          <path class="cls-3" d="m230.91,967.98v123.8h33.38v-123.8h-33.38Z"/>
          <path class="cls-3" d="m311.75,1091.78v-45.2c0-3.38-.12-7.53-.37-12.46-.25-4.93-.58-10.27-.99-16.04-.41-5.76-.84-11.55-1.28-17.37h-3.47c2.81,6.54,5.3,12.3,7.48,17.28,2.17,4.99,4.43,9.71,6.77,14.17,2.34,4.46,5.05,9.26,8.14,14.42l27.35,45.2h36.35v-123.8h-34.37v45.37c0,3.93.17,8.77.5,14.5s.7,11.55,1.12,17.45c.41,5.9.76,11.09,1.03,15.58h2.89c-2.15-6.76-4.26-12.67-6.32-17.74-2.07-5.07-4.2-9.71-6.4-13.92-2.2-4.21-4.57-8.42-7.11-12.63l-29.33-48.61h-36.35v123.8h34.37Z"/>
          <path class="cls-3" d="m491.27,1087.09c8.34-4.24,14.89-10.36,19.62-18.36,4.74-8,7.11-17.66,7.11-28.96v-17.12h-54.53v23.93h28.09l-5.78-.66c0,3.71-.84,6.94-2.52,9.68-1.68,2.74-4.21,4.86-7.6,6.36s-7.62,2.24-12.68,2.24c-5.78,0-10.62-1.37-14.5-4.11-3.88-2.74-6.82-6.69-8.8-11.84-1.98-5.15-2.97-11.36-2.97-18.61s1.03-13.27,3.1-18.36c2.07-5.1,5.08-8.99,9.05-11.67,3.97-2.69,8.73-4.03,14.29-4.03,2.64,0,5.05.29,7.23.87,2.18.58,4.1,1.44,5.78,2.58,1.68,1.14,3.08,2.53,4.21,4.2,1.13,1.66,1.94,3.55,2.44,5.65h33.71c-.66-6.2-2.47-11.89-5.41-17.07-2.95-5.18-6.84-9.68-11.69-13.5-4.85-3.82-10.4-6.77-16.65-8.85-6.25-2.08-13.01-3.12-20.28-3.12-11.07,0-21.15,2.48-30.24,7.44-9.09,4.96-16.35,12.19-21.77,21.69-5.43,9.5-8.14,21.06-8.14,34.69s2.53,24.26,7.6,33.73c5.07,9.47,12.13,16.77,21.19,21.89,9.06,5.12,19.57,7.69,31.52,7.69,10.74,0,20.28-2.12,28.63-6.36Z"/>
          <path class="cls-3" d="m529.32,967.98v123.8h33.38v-123.8h-33.38Z"/>
          <path class="cls-3" d="m610.16,1091.78v-45.2c0-3.38-.12-7.53-.37-12.46-.25-4.93-.58-10.27-.99-16.04-.41-5.76-.84-11.55-1.28-17.37h-3.47c2.81,6.54,5.3,12.3,7.48,17.28,2.17,4.99,4.43,9.71,6.77,14.17,2.34,4.46,5.05,9.26,8.14,14.42l27.35,45.2h36.35v-123.8h-34.37v45.37c0,3.93.17,8.77.5,14.5.33,5.73.7,11.55,1.12,17.45.41,5.9.76,11.09,1.03,15.58h2.89c-2.15-6.76-4.26-12.67-6.32-17.74s-4.2-9.71-6.4-13.92c-2.2-4.21-4.57-8.42-7.11-12.63l-29.33-48.61h-36.35v123.8h34.37Z"/>
          <path class="cls-3" d="m789.68,1087.09c8.34-4.24,14.89-10.36,19.62-18.36,4.74-8,7.11-17.66,7.11-28.96v-17.12h-54.53v23.93h28.09l-5.78-.66c0,3.71-.84,6.94-2.52,9.68-1.68,2.74-4.21,4.86-7.6,6.36s-7.62,2.24-12.68,2.24c-5.78,0-10.62-1.37-14.5-4.11-3.88-2.74-6.82-6.69-8.8-11.84-1.98-5.15-2.97-11.36-2.97-18.61s1.03-13.27,3.1-18.36c2.07-5.1,5.08-8.99,9.05-11.67,3.97-2.69,8.73-4.03,14.29-4.03,2.64,0,5.05.29,7.23.87,2.18.58,4.1,1.44,5.78,2.58,1.68,1.14,3.08,2.53,4.21,4.2,1.13,1.66,1.94,3.55,2.44,5.65h33.71c-.66-6.2-2.47-11.89-5.41-17.07-2.95-5.18-6.84-9.68-11.69-13.5-4.85-3.82-10.4-6.77-16.65-8.85-6.25-2.08-13.01-3.12-20.28-3.12-11.07,0-21.15,2.48-30.24,7.44-9.09,4.96-16.35,12.19-21.77,21.69-5.43,9.5-8.14,21.06-8.14,34.69s2.53,24.26,7.6,33.73c5.07,9.47,12.13,16.77,21.19,21.89,9.06,5.12,19.57,7.69,31.52,7.69,10.74,0,20.28-2.12,28.63-6.36Z"/>
          <path class="cls-3" d="m947.37,1091.78v-27.09h-49.74v-96.72h-33.38v123.8h83.12Z"/>
          <path class="cls-3" d="m954.65,967.98v123.8h33.38v-123.8h-33.38Z"/>
          <path class="cls-3" d="m1035.49,1091.78v-45.2c0-3.38-.12-7.53-.37-12.46-.25-4.93-.58-10.27-.99-16.04-.41-5.76-.84-11.55-1.28-17.37h-3.47c2.81,6.54,5.3,12.3,7.48,17.28,2.17,4.99,4.43,9.71,6.77,14.17,2.34,4.46,5.05,9.26,8.14,14.42l27.35,45.2h36.35v-123.8h-34.37v45.37c0,3.93.17,8.77.5,14.5.33,5.73.7,11.55,1.12,17.45.41,5.9.76,11.09,1.03,15.58h2.89c-2.15-6.76-4.26-12.67-6.32-17.74s-4.2-9.71-6.4-13.92c-2.2-4.21-4.57-8.42-7.11-12.63l-29.33-48.61h-36.35v123.8h34.37Z"/>
          <path class="cls-3" d="m1162,1091.78v-45.2l-.66-16.37.66-35.64v-26.59h-33.38v123.8h33.38Zm26.44-61.4l3.14,1.33,51.47-63.73h-39.58l-24.46,31.82c-4.35,5.71-7.97,10.72-10.87,15.04-2.89,4.32-5.41,8.57-7.56,12.75-2.15,4.18-4.35,8.88-6.61,14.08v28.42l34.45-39.72Zm56.93,61.4l-47.84-74.36-21.15,24.59,29.66,49.77h39.33Z"/>
          <path class="cls-3" d="m1371.69,1087.67c7.99-3.74,14.21-9.06,18.67-15.95,4.46-6.9,6.69-15.05,6.69-24.47v-79.27h-33.38v76.44c0,3.88-.85,7.3-2.56,10.26-1.71,2.96-4.05,5.29-7.02,6.98-2.97,1.69-6.39,2.53-10.24,2.53s-7.18-.84-10.12-2.53c-2.95-1.69-5.27-4.02-6.98-6.98-1.71-2.96-2.56-6.38-2.56-10.26v-76.44h-33.38v79.27c0,9.42,2.22,17.57,6.65,24.47,4.43,6.9,10.63,12.21,18.59,15.95,7.96,3.74,17.23,5.61,27.8,5.61s19.86-1.87,27.84-5.61Z"/>
          <path class="cls-3" d="m1443.29,1091.78v-96.88h11.73c3.97,0,7.35.66,10.16,1.99,2.81,1.33,4.96,3.25,6.44,5.77,1.49,2.52,2.23,5.58,2.23,9.18s-.74,6.51-2.23,9.06c-1.49,2.55-3.64,4.53-6.44,5.94-2.81,1.41-6.2,2.12-10.16,2.12h-24.95v26.09h31.73c9.36,0,17.57-1.76,24.62-5.28,7.05-3.52,12.53-8.5,16.44-14.96,3.91-6.45,5.87-14.11,5.87-22.97s-1.91-16.51-5.74-23.1c-3.83-6.59-9.17-11.7-16.03-15.33-6.86-3.63-14.86-5.44-24-5.44h-53.04v123.8h33.38Z"/>
          <path class="cls-3" d="m1592.89,1088.87c7.44-2.94,13.15-7.24,17.14-12.92,3.99-5.68,5.99-12.59,5.99-20.73,0-4.71-.73-9.06-2.19-13.04-1.46-3.99-3.75-7.57-6.86-10.76-3.11-3.18-7.11-5.97-11.98-8.35-4.87-2.38-10.7-4.29-17.47-5.73l-10.08-2.16c-3.86-.83-7.01-1.79-9.46-2.87-2.45-1.08-4.24-2.35-5.37-3.82-1.13-1.47-1.69-3.17-1.69-5.11,0-1.83.52-3.46,1.57-4.9,1.05-1.44,2.67-2.56,4.87-3.37,2.2-.8,5.01-1.2,8.43-1.2,5.4,0,9.43,1.12,12.1,3.37,2.67,2.24,4.14,5.39,4.42,9.43h32.06c-.06-8.09-2.05-15.16-5.99-21.23-3.94-6.07-9.53-10.77-16.77-14.12-7.24-3.35-15.85-5.03-25.82-5.03s-18.36,1.65-25.82,4.94c-7.46,3.3-13.32,7.89-17.56,13.79-4.24,5.9-6.36,12.78-6.36,20.65,0,9.69,3.13,17.35,9.38,22.97,6.25,5.62,14.8,9.6,25.65,11.92l12.39,2.66c4.57.94,8.21,1.99,10.91,3.16,2.7,1.16,4.64,2.45,5.83,3.86,1.18,1.41,1.78,3.06,1.78,4.94,0,2.05-.62,3.86-1.86,5.44s-3.07,2.81-5.49,3.7c-2.42.89-5.43,1.33-9.01,1.33-4.3,0-7.97-.66-11.03-1.99-3.06-1.33-5.43-3.29-7.11-5.9-1.68-2.6-2.63-5.79-2.85-9.55h-31.73c.05,10.36,2.28,18.86,6.69,25.51,4.41,6.65,10.59,11.56,18.55,14.75,7.96,3.19,17.28,4.78,27.97,4.78s19.33-1.47,26.77-4.4Z"/>
        </g>
        <g>
          <path class="cls-3" d="m881.01,944.66c8.92,0,16.61-1.51,23.05-4.53,6.44-3.02,11.4-7.17,14.87-12.46,3.47-5.29,5.21-11.31,5.21-18.07,0-5.82-1.28-10.9-3.84-15.25-2.56-4.35-6-7.75-10.33-10.22-4.32-2.46-9.13-3.78-14.42-3.95v-1.33c4.79-.94,8.96-2.67,12.52-5.19,3.55-2.52,6.32-5.66,8.3-9.43,1.98-3.77,2.97-7.92,2.97-12.46,0-6.26-1.63-11.7-4.87-16.33-3.25-4.62-8.07-8.21-14.46-10.76-6.39-2.55-14.27-3.82-23.63-3.82h-53.37v123.8h58Zm-24.62-97.38h14.21c4.13,0,7.56,1.03,10.29,3.07,2.73,2.05,4.09,4.96,4.09,8.72,0,2.55-.63,4.69-1.9,6.44-1.27,1.74-3.02,3.07-5.25,3.99-2.23.91-4.81,1.37-7.73,1.37h-13.72v-23.6Zm0,44.37h16.19c3.36,0,6.26.53,8.72,1.58,2.45,1.05,4.34,2.59,5.66,4.61,1.32,2.02,1.98,4.5,1.98,7.44,0,4.1-1.42,7.23-4.26,9.39-2.84,2.16-7.04,3.24-12.6,3.24h-15.7v-26.26Z"/>
          <path class="cls-3" d="m966.61,944.66v-96.88h11.73c3.97,0,7.35.53,10.16,1.58,2.81,1.05,4.96,2.69,6.44,4.9,1.49,2.22,2.23,5.1,2.23,8.64s-.74,6.4-2.23,8.56c-1.49,2.16-3.64,3.74-6.44,4.74-2.81,1-6.2,1.5-10.16,1.5h-24.95v26.09h31.73c9.36,0,17.57-1.55,24.62-4.65,7.05-3.1,12.53-7.7,16.44-13.79,3.91-6.09,5.87-13.57,5.87-22.43s-1.91-16.27-5.74-22.56c-3.83-6.29-9.17-11.11-16.03-14.46-6.86-3.35-14.86-5.03-24-5.03h-53.04v123.8h33.38Zm69.57,0l-30.9-56.83h-35.53l30.07,56.83h36.35Z"/>
          <path class="cls-3" d="m1043.92,820.85v123.8h33.38v-123.8h-33.38Z"/>
          <path class="cls-3" d="m1124.76,944.66v-45.2c0-3.38-.12-7.53-.37-12.46-.25-4.93-.58-10.27-.99-16.04-.41-5.76-.84-11.55-1.28-17.37h-3.47c2.81,6.54,5.3,12.3,7.48,17.28,2.17,4.99,4.43,9.71,6.77,14.17,2.34,4.46,5.05,9.26,8.14,14.42l27.35,45.2h36.35v-123.8h-34.37v45.37c0,3.93.17,8.77.5,14.5s.7,11.55,1.12,17.45c.41,5.9.76,11.09,1.03,15.58h2.89c-2.15-6.76-4.26-12.67-6.32-17.74-2.07-5.07-4.2-9.71-6.4-13.92-2.2-4.21-4.57-8.42-7.11-12.63l-29.33-48.61h-36.35v123.8h34.37Z"/>
          <path class="cls-3" d="m1304.28,939.96c8.34-4.24,14.89-10.36,19.62-18.36,4.74-8,7.11-17.66,7.11-28.96v-17.12h-54.53v23.93h28.09l-5.78-.66c0,3.71-.84,6.94-2.52,9.68-1.68,2.74-4.21,4.86-7.6,6.36s-7.62,2.24-12.68,2.24c-5.78,0-10.62-1.37-14.5-4.11-3.88-2.74-6.82-6.69-8.8-11.84-1.98-5.15-2.97-11.36-2.97-18.61s1.03-13.27,3.1-18.36c2.07-5.1,5.08-8.99,9.05-11.67,3.97-2.69,8.73-4.03,14.29-4.03,2.64,0,5.05.29,7.23.87,2.18.58,4.1,1.44,5.78,2.58,1.68,1.14,3.08,2.53,4.21,4.2,1.13,1.66,1.94,3.55,2.44,5.65h33.71c-.66-6.2-2.47-11.89-5.41-17.07-2.95-5.18-6.84-9.68-11.69-13.5-4.85-3.82-10.4-6.77-16.65-8.85-6.25-2.08-13.01-3.12-20.28-3.12-11.07,0-21.15,2.48-30.24,7.44-9.09,4.96-16.35,12.19-21.77,21.69-5.43,9.5-8.14,21.06-8.14,34.69s2.53,24.26,7.6,33.73c5.07,9.47,12.13,16.77,21.19,21.89,9.06,5.12,19.57,7.69,31.52,7.69,10.74,0,20.28-2.12,28.63-6.36Z"/>
          <path class="cls-3" d="m1342.33,820.85v123.8h33.38v-123.8h-33.38Z"/>
          <path class="cls-3" d="m1423.17,944.66v-45.2c0-3.38-.12-7.53-.37-12.46-.25-4.93-.58-10.27-.99-16.04-.41-5.76-.84-11.55-1.28-17.37h-3.47c2.81,6.54,5.3,12.3,7.48,17.28,2.17,4.99,4.43,9.71,6.77,14.17,2.34,4.46,5.05,9.26,8.14,14.42l27.35,45.2h36.35v-123.8h-34.37v45.37c0,3.93.17,8.77.5,14.5s.7,11.55,1.12,17.45c.41,5.9.76,11.09,1.03,15.58h2.89c-2.15-6.76-4.26-12.67-6.32-17.74-2.07-5.07-4.2-9.71-6.4-13.92-2.2-4.21-4.57-8.42-7.11-12.63l-29.33-48.61h-36.35v123.8h34.37Z"/>
          <path class="cls-3" d="m1602.69,939.96c8.34-4.24,14.89-10.36,19.62-18.36,4.74-8,7.11-17.66,7.11-28.96v-17.12h-54.53v23.93h28.09l-5.78-.66c0,3.71-.84,6.94-2.52,9.68-1.68,2.74-4.21,4.86-7.6,6.36s-7.62,2.24-12.68,2.24c-5.78,0-10.62-1.37-14.5-4.11-3.88-2.74-6.82-6.69-8.8-11.84-1.98-5.15-2.97-11.36-2.97-18.61s1.03-13.27,3.1-18.36c2.07-5.1,5.08-8.99,9.05-11.67,3.97-2.69,8.73-4.03,14.29-4.03,2.64,0,5.05.29,7.23.87,2.18.58,4.1,1.44,5.78,2.58,1.68,1.14,3.08,2.53,4.21,4.2,1.13,1.66,1.94,3.55,2.44,5.65h33.71c-.66-6.2-2.47-11.89-5.41-17.07-2.95-5.18-6.84-9.68-11.69-13.5-4.85-3.82-10.4-6.77-16.65-8.85-6.25-2.08-13.01-3.12-20.28-3.12-11.07,0-21.15,2.48-30.24,7.44-9.09,4.96-16.35,12.19-21.77,21.69-5.43,9.5-8.14,21.06-8.14,34.69s2.53,24.26,7.6,33.73c5.07,9.47,12.13,16.77,21.19,21.89,9.06,5.12,19.57,7.69,31.52,7.69,10.74,0,20.28-2.12,28.63-6.36Z"/>
        </g>
        <g>
          <path class="cls-3" d="m-23.33,939.96c8.34-4.24,14.89-10.36,19.62-18.36,4.74-8,7.11-17.66,7.11-28.96v-17.12h-54.53v23.93h28.09l-5.78-.66c0,3.71-.84,6.94-2.52,9.68-1.68,2.74-4.21,4.86-7.6,6.36s-7.62,2.24-12.68,2.24c-5.78,0-10.62-1.37-14.5-4.11-3.88-2.74-6.82-6.69-8.8-11.84-1.98-5.15-2.97-11.36-2.97-18.61s1.03-13.27,3.1-18.36c2.07-5.1,5.08-8.99,9.05-11.67,3.97-2.69,8.73-4.03,14.29-4.03,2.64,0,5.05.29,7.23.87,2.18.58,4.1,1.44,5.78,2.58,1.68,1.14,3.08,2.53,4.21,4.2,1.13,1.66,1.94,3.55,2.44,5.65H1.91c-.66-6.2-2.47-11.89-5.41-17.07-2.95-5.18-6.84-9.68-11.69-13.5-4.85-3.82-10.4-6.77-16.65-8.85-6.25-2.08-13.01-3.12-20.28-3.12-11.07,0-21.15,2.48-30.24,7.44-9.09,4.96-16.35,12.19-21.77,21.69-5.43,9.5-8.14,21.06-8.14,34.69s2.53,24.26,7.6,33.73c5.07,9.47,12.13,16.77,21.19,21.89,9.06,5.12,19.57,7.69,31.52,7.69,10.74,0,20.28-2.12,28.63-6.36Z"/>
          <path class="cls-3" d="m134.36,944.66v-27.09h-49.74v-96.72h-33.38v123.8h83.12Z"/>
          <path class="cls-3" d="m141.64,820.85v123.8h33.38v-123.8h-33.38Z"/>
          <path class="cls-3" d="m222.47,944.66v-45.2c0-3.38-.12-7.53-.37-12.46-.25-4.93-.58-10.27-.99-16.04-.41-5.76-.84-11.55-1.28-17.37h-3.47c2.81,6.54,5.3,12.3,7.48,17.28,2.17,4.99,4.43,9.71,6.77,14.17,2.34,4.46,5.05,9.26,8.14,14.42l27.35,45.2h36.35v-123.8h-34.37v45.37c0,3.93.17,8.77.5,14.5s.7,11.55,1.12,17.45c.41,5.9.76,11.09,1.03,15.58h2.89c-2.15-6.76-4.26-12.67-6.32-17.74-2.07-5.07-4.2-9.71-6.4-13.92-2.2-4.21-4.57-8.42-7.11-12.63l-29.33-48.61h-36.35v123.8h34.37Z"/>
          <path class="cls-3" d="m348.99,944.66v-45.2l-.66-16.37.66-35.64v-26.59h-33.38v123.8h33.38Zm26.44-61.4l3.14,1.33,51.47-63.73h-39.58l-24.46,31.82c-4.35,5.71-7.97,10.72-10.87,15.04-2.89,4.32-5.41,8.57-7.56,12.75-2.15,4.18-4.35,8.88-6.61,14.08v28.42l34.45-39.72Zm56.93,61.4l-47.84-74.36-21.15,24.59,29.66,49.77h39.33Z"/>
          <path class="cls-3" d="m558.68,940.54c7.99-3.74,14.21-9.06,18.67-15.95,4.46-6.9,6.69-15.05,6.69-24.47v-79.27h-33.38v76.44c0,3.88-.85,7.3-2.56,10.26-1.71,2.96-4.05,5.29-7.02,6.98-2.97,1.69-6.39,2.53-10.24,2.53s-7.18-.84-10.12-2.53c-2.95-1.69-5.27-4.02-6.98-6.98-1.71-2.96-2.56-6.38-2.56-10.26v-76.44h-33.38v79.27c0,9.42,2.22,17.57,6.65,24.47,4.43,6.9,10.63,12.21,18.59,15.95,7.96,3.74,17.23,5.61,27.8,5.61s19.86-1.87,27.84-5.61Z"/>
          <path class="cls-3" d="m630.28,944.66v-96.88h11.73c3.97,0,7.35.66,10.16,1.99,2.81,1.33,4.96,3.25,6.44,5.77,1.49,2.52,2.23,5.58,2.23,9.18s-.74,6.51-2.23,9.06c-1.49,2.55-3.64,4.53-6.44,5.94-2.81,1.41-6.2,2.12-10.16,2.12h-24.95v26.09h31.73c9.36,0,17.57-1.76,24.62-5.28,7.05-3.52,12.53-8.5,16.44-14.96,3.91-6.45,5.87-14.11,5.87-22.97s-1.91-16.51-5.74-23.1c-3.83-6.59-9.17-11.7-16.03-15.33-6.86-3.63-14.86-5.44-24-5.44h-53.04v123.8h33.38Z"/>
          <path class="cls-3" d="m779.88,941.75c7.44-2.94,13.15-7.24,17.14-12.92,3.99-5.68,5.99-12.59,5.99-20.73,0-4.71-.73-9.06-2.19-13.04-1.46-3.99-3.75-7.57-6.86-10.76-3.11-3.18-7.11-5.97-11.98-8.35-4.87-2.38-10.7-4.29-17.47-5.73l-10.08-2.16c-3.86-.83-7.01-1.79-9.46-2.87-2.45-1.08-4.24-2.35-5.37-3.82-1.13-1.47-1.69-3.17-1.69-5.11,0-1.83.52-3.46,1.57-4.9,1.05-1.44,2.67-2.56,4.87-3.37,2.2-.8,5.01-1.2,8.43-1.2,5.4,0,9.43,1.12,12.1,3.37,2.67,2.24,4.14,5.39,4.42,9.43h32.06c-.06-8.09-2.05-15.16-5.99-21.23-3.94-6.07-9.53-10.77-16.77-14.12-7.24-3.35-15.85-5.03-25.82-5.03s-18.36,1.65-25.82,4.94c-7.46,3.3-13.32,7.89-17.56,13.79-4.24,5.9-6.36,12.78-6.36,20.65,0,9.69,3.13,17.35,9.38,22.97,6.25,5.62,14.8,9.6,25.65,11.92l12.39,2.66c4.57.94,8.21,1.99,10.91,3.16,2.7,1.16,4.64,2.45,5.83,3.86,1.18,1.41,1.78,3.06,1.78,4.94,0,2.05-.62,3.86-1.86,5.44s-3.07,2.81-5.49,3.7c-2.42.89-5.43,1.33-9.01,1.33-4.3,0-7.97-.66-11.03-1.99-3.06-1.33-5.43-3.29-7.11-5.9-1.68-2.6-2.63-5.79-2.85-9.55h-31.73c.05,10.36,2.28,18.86,6.69,25.51,4.41,6.65,10.59,11.56,18.55,14.75,7.96,3.19,17.28,4.78,27.97,4.78s19.33-1.47,26.77-4.4Z"/>
        </g>
        <g>
          <path class="cls-3" d="m68,797.53c8.92,0,16.61-1.51,23.05-4.53,6.44-3.02,11.4-7.17,14.87-12.46,3.47-5.29,5.21-11.31,5.21-18.07,0-5.82-1.28-10.9-3.84-15.25-2.56-4.35-6-7.75-10.33-10.22-4.32-2.46-9.13-3.78-14.42-3.95v-1.33c4.79-.94,8.96-2.67,12.52-5.19,3.55-2.52,6.32-5.66,8.3-9.43,1.98-3.77,2.97-7.92,2.97-12.46,0-6.26-1.63-11.7-4.87-16.33-3.25-4.62-8.07-8.21-14.46-10.76-6.39-2.55-14.27-3.82-23.63-3.82H10v123.8h58Zm-24.62-97.38h14.21c4.13,0,7.56,1.03,10.29,3.07,2.73,2.05,4.09,4.96,4.09,8.72,0,2.55-.63,4.69-1.9,6.44-1.27,1.74-3.02,3.07-5.25,3.99-2.23.91-4.81,1.37-7.73,1.37h-13.72v-23.6Zm0,44.37h16.19c3.36,0,6.26.53,8.72,1.58,2.45,1.05,4.34,2.59,5.66,4.61,1.32,2.02,1.98,4.5,1.98,7.44,0,4.1-1.42,7.23-4.26,9.39-2.84,2.16-7.04,3.24-12.6,3.24h-15.7v-26.26Z"/>
          <path class="cls-3" d="m153.6,797.53v-96.88h11.73c3.97,0,7.35.53,10.16,1.58,2.81,1.05,4.96,2.69,6.44,4.9,1.49,2.22,2.23,5.1,2.23,8.64s-.74,6.4-2.23,8.56c-1.49,2.16-3.64,3.74-6.44,4.74-2.81,1-6.2,1.5-10.16,1.5h-24.95v26.09h31.73c9.36,0,17.57-1.55,24.62-4.65,7.05-3.1,12.53-7.7,16.44-13.79,3.91-6.09,5.87-13.57,5.87-22.43s-1.91-16.27-5.74-22.56c-3.83-6.29-9.17-11.11-16.03-14.46-6.86-3.35-14.86-5.03-24-5.03h-53.04v123.8h33.38Zm69.57,0l-30.9-56.83h-35.53l30.07,56.83h36.35Z"/>
          <path class="cls-3" d="m230.91,673.73v123.8h33.38v-123.8h-33.38Z"/>
          <path class="cls-3" d="m311.75,797.53v-45.2c0-3.38-.12-7.53-.37-12.46-.25-4.93-.58-10.27-.99-16.04-.41-5.76-.84-11.55-1.28-17.37h-3.47c2.81,6.54,5.3,12.3,7.48,17.28,2.17,4.99,4.43,9.71,6.77,14.17,2.34,4.46,5.05,9.26,8.14,14.42l27.35,45.2h36.35v-123.8h-34.37v45.37c0,3.93.17,8.77.5,14.5s.7,11.55,1.12,17.45c.41,5.9.76,11.09,1.03,15.58h2.89c-2.15-6.76-4.26-12.67-6.32-17.74-2.07-5.07-4.2-9.71-6.4-13.92-2.2-4.21-4.57-8.42-7.11-12.63l-29.33-48.61h-36.35v123.8h34.37Z"/>
          <path class="cls-3" d="m491.27,792.83c8.34-4.24,14.89-10.36,19.62-18.36,4.74-8,7.11-17.66,7.11-28.96v-17.12h-54.53v23.93h28.09l-5.78-.66c0,3.71-.84,6.94-2.52,9.68-1.68,2.74-4.21,4.86-7.6,6.36s-7.62,2.24-12.68,2.24c-5.78,0-10.62-1.37-14.5-4.11-3.88-2.74-6.82-6.69-8.8-11.84-1.98-5.15-2.97-11.36-2.97-18.61s1.03-13.27,3.1-18.36c2.07-5.1,5.08-8.99,9.05-11.67,3.97-2.69,8.73-4.03,14.29-4.03,2.64,0,5.05.29,7.23.87,2.18.58,4.1,1.44,5.78,2.58,1.68,1.14,3.08,2.53,4.21,4.2,1.13,1.66,1.94,3.55,2.44,5.65h33.71c-.66-6.2-2.47-11.89-5.41-17.07-2.95-5.18-6.84-9.68-11.69-13.5-4.85-3.82-10.4-6.77-16.65-8.85-6.25-2.08-13.01-3.12-20.28-3.12-11.07,0-21.15,2.48-30.24,7.44-9.09,4.96-16.35,12.19-21.77,21.69-5.43,9.5-8.14,21.06-8.14,34.69s2.53,24.26,7.6,33.73c5.07,9.47,12.13,16.77,21.19,21.89,9.06,5.12,19.57,7.69,31.52,7.69,10.74,0,20.28-2.12,28.63-6.36Z"/>
          <path class="cls-3" d="m529.32,673.73v123.8h33.38v-123.8h-33.38Z"/>
          <path class="cls-3" d="m610.16,797.53v-45.2c0-3.38-.12-7.53-.37-12.46-.25-4.93-.58-10.27-.99-16.04-.41-5.76-.84-11.55-1.28-17.37h-3.47c2.81,6.54,5.3,12.3,7.48,17.28,2.17,4.99,4.43,9.71,6.77,14.17,2.34,4.46,5.05,9.26,8.14,14.42l27.35,45.2h36.35v-123.8h-34.37v45.37c0,3.93.17,8.77.5,14.5.33,5.73.7,11.55,1.12,17.45.41,5.9.76,11.09,1.03,15.58h2.89c-2.15-6.76-4.26-12.67-6.32-17.74s-4.2-9.71-6.4-13.92c-2.2-4.21-4.57-8.42-7.11-12.63l-29.33-48.61h-36.35v123.8h34.37Z"/>
          <path class="cls-3" d="m789.68,792.83c8.34-4.24,14.89-10.36,19.62-18.36,4.74-8,7.11-17.66,7.11-28.96v-17.12h-54.53v23.93h28.09l-5.78-.66c0,3.71-.84,6.94-2.52,9.68-1.68,2.74-4.21,4.86-7.6,6.36s-7.62,2.24-12.68,2.24c-5.78,0-10.62-1.37-14.5-4.11-3.88-2.74-6.82-6.69-8.8-11.84-1.98-5.15-2.97-11.36-2.97-18.61s1.03-13.27,3.1-18.36c2.07-5.1,5.08-8.99,9.05-11.67,3.97-2.69,8.73-4.03,14.29-4.03,2.64,0,5.05.29,7.23.87,2.18.58,4.1,1.44,5.78,2.58,1.68,1.14,3.08,2.53,4.21,4.2,1.13,1.66,1.94,3.55,2.44,5.65h33.71c-.66-6.2-2.47-11.89-5.41-17.07-2.95-5.18-6.84-9.68-11.69-13.5-4.85-3.82-10.4-6.77-16.65-8.85-6.25-2.08-13.01-3.12-20.28-3.12-11.07,0-21.15,2.48-30.24,7.44-9.09,4.96-16.35,12.19-21.77,21.69-5.43,9.5-8.14,21.06-8.14,34.69s2.53,24.26,7.6,33.73c5.07,9.47,12.13,16.77,21.19,21.89,9.06,5.12,19.57,7.69,31.52,7.69,10.74,0,20.28-2.12,28.63-6.36Z"/>
          <path class="cls-3" d="m947.37,797.53v-27.09h-49.74v-96.72h-33.38v123.8h83.12Z"/>
          <path class="cls-3" d="m954.65,673.73v123.8h33.38v-123.8h-33.38Z"/>
          <path class="cls-3" d="m1035.49,797.53v-45.2c0-3.38-.12-7.53-.37-12.46-.25-4.93-.58-10.27-.99-16.04-.41-5.76-.84-11.55-1.28-17.37h-3.47c2.81,6.54,5.3,12.3,7.48,17.28,2.17,4.99,4.43,9.71,6.77,14.17,2.34,4.46,5.05,9.26,8.14,14.42l27.35,45.2h36.35v-123.8h-34.37v45.37c0,3.93.17,8.77.5,14.5.33,5.73.7,11.55,1.12,17.45.41,5.9.76,11.09,1.03,15.58h2.89c-2.15-6.76-4.26-12.67-6.32-17.74s-4.2-9.71-6.4-13.92c-2.2-4.21-4.57-8.42-7.11-12.63l-29.33-48.61h-36.35v123.8h34.37Z"/>
          <path class="cls-3" d="m1162,797.53v-45.2l-.66-16.37.66-35.64v-26.59h-33.38v123.8h33.38Zm26.44-61.4l3.14,1.33,51.47-63.73h-39.58l-24.46,31.82c-4.35,5.71-7.97,10.72-10.87,15.04-2.89,4.32-5.41,8.57-7.56,12.75-2.15,4.18-4.35,8.88-6.61,14.08v28.42l34.45-39.72Zm56.93,61.4l-47.84-74.36-21.15,24.59,29.66,49.77h39.33Z"/>
          <path class="cls-3" d="m1371.69,793.42c7.99-3.74,14.21-9.06,18.67-15.95,4.46-6.9,6.69-15.05,6.69-24.47v-79.27h-33.38v76.44c0,3.88-.85,7.3-2.56,10.26-1.71,2.96-4.05,5.29-7.02,6.98-2.97,1.69-6.39,2.53-10.24,2.53s-7.18-.84-10.12-2.53c-2.95-1.69-5.27-4.02-6.98-6.98-1.71-2.96-2.56-6.38-2.56-10.26v-76.44h-33.38v79.27c0,9.42,2.22,17.57,6.65,24.47,4.43,6.9,10.63,12.21,18.59,15.95,7.96,3.74,17.23,5.61,27.8,5.61s19.86-1.87,27.84-5.61Z"/>
          <path class="cls-3" d="m1443.29,797.53v-96.88h11.73c3.97,0,7.35.66,10.16,1.99,2.81,1.33,4.96,3.25,6.44,5.77,1.49,2.52,2.23,5.58,2.23,9.18s-.74,6.51-2.23,9.06c-1.49,2.55-3.64,4.53-6.44,5.94-2.81,1.41-6.2,2.12-10.16,2.12h-24.95v26.09h31.73c9.36,0,17.57-1.76,24.62-5.28,7.05-3.52,12.53-8.5,16.44-14.96,3.91-6.45,5.87-14.11,5.87-22.97s-1.91-16.51-5.74-23.1c-3.83-6.59-9.17-11.7-16.03-15.33-6.86-3.63-14.86-5.44-24-5.44h-53.04v123.8h33.38Z"/>
          <path class="cls-3" d="m1592.89,794.62c7.44-2.94,13.15-7.24,17.14-12.92,3.99-5.68,5.99-12.59,5.99-20.73,0-4.71-.73-9.06-2.19-13.04-1.46-3.99-3.75-7.57-6.86-10.76-3.11-3.18-7.11-5.97-11.98-8.35-4.87-2.38-10.7-4.29-17.47-5.73l-10.08-2.16c-3.86-.83-7.01-1.79-9.46-2.87-2.45-1.08-4.24-2.35-5.37-3.82-1.13-1.47-1.69-3.17-1.69-5.11,0-1.83.52-3.46,1.57-4.9,1.05-1.44,2.67-2.56,4.87-3.37,2.2-.8,5.01-1.2,8.43-1.2,5.4,0,9.43,1.12,12.1,3.37,2.67,2.24,4.14,5.39,4.42,9.43h32.06c-.06-8.09-2.05-15.16-5.99-21.23-3.94-6.07-9.53-10.77-16.77-14.12-7.24-3.35-15.85-5.03-25.82-5.03s-18.36,1.65-25.82,4.94c-7.46,3.3-13.32,7.89-17.56,13.79-4.24,5.9-6.36,12.78-6.36,20.65,0,9.69,3.13,17.35,9.38,22.97,6.25,5.62,14.8,9.6,25.65,11.92l12.39,2.66c4.57.94,8.21,1.99,10.91,3.16,2.7,1.16,4.64,2.45,5.83,3.86,1.18,1.41,1.78,3.06,1.78,4.94,0,2.05-.62,3.86-1.86,5.44s-3.07,2.81-5.49,3.7c-2.42.89-5.43,1.33-9.01,1.33-4.3,0-7.97-.66-11.03-1.99-3.06-1.33-5.43-3.29-7.11-5.9-1.68-2.6-2.63-5.79-2.85-9.55h-31.73c.05,10.36,2.28,18.86,6.69,25.51,4.41,6.65,10.59,11.56,18.55,14.75,7.96,3.19,17.28,4.78,27.97,4.78s19.33-1.47,26.77-4.4Z"/>
        </g>
        <g>
          <path class="cls-3" d="m881.01,650.4c8.92,0,16.61-1.51,23.05-4.53,6.44-3.02,11.4-7.17,14.87-12.46,3.47-5.29,5.21-11.31,5.21-18.07,0-5.82-1.28-10.9-3.84-15.25-2.56-4.35-6-7.75-10.33-10.22-4.32-2.46-9.13-3.78-14.42-3.95v-1.33c4.79-.94,8.96-2.67,12.52-5.19,3.55-2.52,6.32-5.66,8.3-9.43,1.98-3.77,2.97-7.92,2.97-12.46,0-6.26-1.63-11.7-4.87-16.33-3.25-4.62-8.07-8.21-14.46-10.76-6.39-2.55-14.27-3.82-23.63-3.82h-53.37v123.8h58Zm-24.62-97.38h14.21c4.13,0,7.56,1.03,10.29,3.07,2.73,2.05,4.09,4.96,4.09,8.72,0,2.55-.63,4.69-1.9,6.44-1.27,1.74-3.02,3.07-5.25,3.99-2.23.91-4.81,1.37-7.73,1.37h-13.72v-23.6Zm0,44.37h16.19c3.36,0,6.26.53,8.72,1.58,2.45,1.05,4.34,2.59,5.66,4.61,1.32,2.02,1.98,4.5,1.98,7.44,0,4.1-1.42,7.23-4.26,9.39-2.84,2.16-7.04,3.24-12.6,3.24h-15.7v-26.26Z"/>
          <path class="cls-3" d="m966.61,650.4v-96.88h11.73c3.97,0,7.35.53,10.16,1.58,2.81,1.05,4.96,2.69,6.44,4.9,1.49,2.22,2.23,5.1,2.23,8.64s-.74,6.4-2.23,8.56c-1.49,2.16-3.64,3.74-6.44,4.74-2.81,1-6.2,1.5-10.16,1.5h-24.95v26.09h31.73c9.36,0,17.57-1.55,24.62-4.65,7.05-3.1,12.53-7.7,16.44-13.79,3.91-6.09,5.87-13.57,5.87-22.43s-1.91-16.27-5.74-22.56c-3.83-6.29-9.17-11.11-16.03-14.46-6.86-3.35-14.86-5.03-24-5.03h-53.04v123.8h33.38Zm69.57,0l-30.9-56.83h-35.53l30.07,56.83h36.35Z"/>
          <path class="cls-3" d="m1043.92,526.6v123.8h33.38v-123.8h-33.38Z"/>
          <path class="cls-3" d="m1124.76,650.4v-45.2c0-3.38-.12-7.53-.37-12.46-.25-4.93-.58-10.27-.99-16.04-.41-5.76-.84-11.55-1.28-17.37h-3.47c2.81,6.54,5.3,12.3,7.48,17.28,2.17,4.99,4.43,9.71,6.77,14.17,2.34,4.46,5.05,9.26,8.14,14.42l27.35,45.2h36.35v-123.8h-34.37v45.37c0,3.93.17,8.77.5,14.5s.7,11.55,1.12,17.45c.41,5.9.76,11.09,1.03,15.58h2.89c-2.15-6.76-4.26-12.67-6.32-17.74-2.07-5.07-4.2-9.71-6.4-13.92-2.2-4.21-4.57-8.42-7.11-12.63l-29.33-48.61h-36.35v123.8h34.37Z"/>
          <path class="cls-3" d="m1304.28,645.71c8.34-4.24,14.89-10.36,19.62-18.36,4.74-8,7.11-17.66,7.11-28.96v-17.12h-54.53v23.93h28.09l-5.78-.66c0,3.71-.84,6.94-2.52,9.68-1.68,2.74-4.21,4.86-7.6,6.36s-7.62,2.24-12.68,2.24c-5.78,0-10.62-1.37-14.5-4.11-3.88-2.74-6.82-6.69-8.8-11.84-1.98-5.15-2.97-11.36-2.97-18.61s1.03-13.27,3.1-18.36c2.07-5.1,5.08-8.99,9.05-11.67,3.97-2.69,8.73-4.03,14.29-4.03,2.64,0,5.05.29,7.23.87,2.18.58,4.1,1.44,5.78,2.58,1.68,1.14,3.08,2.53,4.21,4.2,1.13,1.66,1.94,3.55,2.44,5.65h33.71c-.66-6.2-2.47-11.89-5.41-17.07-2.95-5.18-6.84-9.68-11.69-13.5-4.85-3.82-10.4-6.77-16.65-8.85-6.25-2.08-13.01-3.12-20.28-3.12-11.07,0-21.15,2.48-30.24,7.44-9.09,4.96-16.35,12.19-21.77,21.69-5.43,9.5-8.14,21.06-8.14,34.69s2.53,24.26,7.6,33.73c5.07,9.47,12.13,16.77,21.19,21.89,9.06,5.12,19.57,7.69,31.52,7.69,10.74,0,20.28-2.12,28.63-6.36Z"/>
          <path class="cls-3" d="m1342.33,526.6v123.8h33.38v-123.8h-33.38Z"/>
          <path class="cls-3" d="m1423.17,650.4v-45.2c0-3.38-.12-7.53-.37-12.46-.25-4.93-.58-10.27-.99-16.04-.41-5.76-.84-11.55-1.28-17.37h-3.47c2.81,6.54,5.3,12.3,7.48,17.28,2.17,4.99,4.43,9.71,6.77,14.17,2.34,4.46,5.05,9.26,8.14,14.42l27.35,45.2h36.35v-123.8h-34.37v45.37c0,3.93.17,8.77.5,14.5s.7,11.55,1.12,17.45c.41,5.9.76,11.09,1.03,15.58h2.89c-2.15-6.76-4.26-12.67-6.32-17.74-2.07-5.07-4.2-9.71-6.4-13.92-2.2-4.21-4.57-8.42-7.11-12.63l-29.33-48.61h-36.35v123.8h34.37Z"/>
          <path class="cls-3" d="m1602.69,645.71c8.34-4.24,14.89-10.36,19.62-18.36,4.74-8,7.11-17.66,7.11-28.96v-17.12h-54.53v23.93h28.09l-5.78-.66c0,3.71-.84,6.94-2.52,9.68-1.68,2.74-4.21,4.86-7.6,6.36s-7.62,2.24-12.68,2.24c-5.78,0-10.62-1.37-14.5-4.11-3.88-2.74-6.82-6.69-8.8-11.84-1.98-5.15-2.97-11.36-2.97-18.61s1.03-13.27,3.1-18.36c2.07-5.1,5.08-8.99,9.05-11.67,3.97-2.69,8.73-4.03,14.29-4.03,2.64,0,5.05.29,7.23.87,2.18.58,4.1,1.44,5.78,2.58,1.68,1.14,3.08,2.53,4.21,4.2,1.13,1.66,1.94,3.55,2.44,5.65h33.71c-.66-6.2-2.47-11.89-5.41-17.07-2.95-5.18-6.84-9.68-11.69-13.5-4.85-3.82-10.4-6.77-16.65-8.85-6.25-2.08-13.01-3.12-20.28-3.12-11.07,0-21.15,2.48-30.24,7.44-9.09,4.96-16.35,12.19-21.77,21.69-5.43,9.5-8.14,21.06-8.14,34.69s2.53,24.26,7.6,33.73c5.07,9.47,12.13,16.77,21.19,21.89,9.06,5.12,19.57,7.69,31.52,7.69,10.74,0,20.28-2.12,28.63-6.36Z"/>
        </g>
        <g>
          <path class="cls-3" d="m-23.33,645.71c8.34-4.24,14.89-10.36,19.62-18.36,4.74-8,7.11-17.66,7.11-28.96v-17.12h-54.53v23.93h28.09l-5.78-.66c0,3.71-.84,6.94-2.52,9.68-1.68,2.74-4.21,4.86-7.6,6.36s-7.62,2.24-12.68,2.24c-5.78,0-10.62-1.37-14.5-4.11-3.88-2.74-6.82-6.69-8.8-11.84-1.98-5.15-2.97-11.36-2.97-18.61s1.03-13.27,3.1-18.36c2.07-5.1,5.08-8.99,9.05-11.67,3.97-2.69,8.73-4.03,14.29-4.03,2.64,0,5.05.29,7.23.87,2.18.58,4.1,1.44,5.78,2.58,1.68,1.14,3.08,2.53,4.21,4.2,1.13,1.66,1.94,3.55,2.44,5.65H1.91c-.66-6.2-2.47-11.89-5.41-17.07-2.95-5.18-6.84-9.68-11.69-13.5-4.85-3.82-10.4-6.77-16.65-8.85-6.25-2.08-13.01-3.12-20.28-3.12-11.07,0-21.15,2.48-30.24,7.44-9.09,4.96-16.35,12.19-21.77,21.69-5.43,9.5-8.14,21.06-8.14,34.69s2.53,24.26,7.6,33.73c5.07,9.47,12.13,16.77,21.19,21.89,9.06,5.12,19.57,7.69,31.52,7.69,10.74,0,20.28-2.12,28.63-6.36Z"/>
          <path class="cls-3" d="m134.36,650.4v-27.09h-49.74v-96.72h-33.38v123.8h83.12Z"/>
          <path class="cls-3" d="m141.64,526.6v123.8h33.38v-123.8h-33.38Z"/>
          <path class="cls-3" d="m222.47,650.4v-45.2c0-3.38-.12-7.53-.37-12.46-.25-4.93-.58-10.27-.99-16.04-.41-5.76-.84-11.55-1.28-17.37h-3.47c2.81,6.54,5.3,12.3,7.48,17.28,2.17,4.99,4.43,9.71,6.77,14.17,2.34,4.46,5.05,9.26,8.14,14.42l27.35,45.2h36.35v-123.8h-34.37v45.37c0,3.93.17,8.77.5,14.5s.7,11.55,1.12,17.45c.41,5.9.76,11.09,1.03,15.58h2.89c-2.15-6.76-4.26-12.67-6.32-17.74-2.07-5.07-4.2-9.71-6.4-13.92-2.2-4.21-4.57-8.42-7.11-12.63l-29.33-48.61h-36.35v123.8h34.37Z"/>
          <path class="cls-3" d="m348.99,650.4v-45.2l-.66-16.37.66-35.64v-26.59h-33.38v123.8h33.38Zm26.44-61.4l3.14,1.33,51.47-63.73h-39.58l-24.46,31.82c-4.35,5.71-7.97,10.72-10.87,15.04-2.89,4.32-5.41,8.57-7.56,12.75-2.15,4.18-4.35,8.88-6.61,14.08v28.42l34.45-39.72Zm56.93,61.4l-47.84-74.36-21.15,24.59,29.66,49.77h39.33Z"/>
          <path class="cls-3" d="m558.68,646.29c7.99-3.74,14.21-9.06,18.67-15.95,4.46-6.9,6.69-15.05,6.69-24.47v-79.27h-33.38v76.44c0,3.88-.85,7.3-2.56,10.26-1.71,2.96-4.05,5.29-7.02,6.98-2.97,1.69-6.39,2.53-10.24,2.53s-7.18-.84-10.12-2.53c-2.95-1.69-5.27-4.02-6.98-6.98-1.71-2.96-2.56-6.38-2.56-10.26v-76.44h-33.38v79.27c0,9.42,2.22,17.57,6.65,24.47,4.43,6.9,10.63,12.21,18.59,15.95,7.96,3.74,17.23,5.61,27.8,5.61s19.86-1.87,27.84-5.61Z"/>
          <path class="cls-3" d="m630.28,650.4v-96.88h11.73c3.97,0,7.35.66,10.16,1.99,2.81,1.33,4.96,3.25,6.44,5.77,1.49,2.52,2.23,5.58,2.23,9.18s-.74,6.51-2.23,9.06c-1.49,2.55-3.64,4.53-6.44,5.94-2.81,1.41-6.2,2.12-10.16,2.12h-24.95v26.09h31.73c9.36,0,17.57-1.76,24.62-5.28,7.05-3.52,12.53-8.5,16.44-14.96,3.91-6.45,5.87-14.11,5.87-22.97s-1.91-16.51-5.74-23.1c-3.83-6.59-9.17-11.7-16.03-15.33-6.86-3.63-14.86-5.44-24-5.44h-53.04v123.8h33.38Z"/>
          <path class="cls-3" d="m779.88,647.5c7.44-2.94,13.15-7.24,17.14-12.92,3.99-5.68,5.99-12.59,5.99-20.73,0-4.71-.73-9.06-2.19-13.04-1.46-3.99-3.75-7.57-6.86-10.76-3.11-3.18-7.11-5.97-11.98-8.35-4.87-2.38-10.7-4.29-17.47-5.73l-10.08-2.16c-3.86-.83-7.01-1.79-9.46-2.87-2.45-1.08-4.24-2.35-5.37-3.82-1.13-1.47-1.69-3.17-1.69-5.11,0-1.83.52-3.46,1.57-4.9,1.05-1.44,2.67-2.56,4.87-3.37,2.2-.8,5.01-1.2,8.43-1.2,5.4,0,9.43,1.12,12.1,3.37,2.67,2.24,4.14,5.39,4.42,9.43h32.06c-.06-8.09-2.05-15.16-5.99-21.23-3.94-6.07-9.53-10.77-16.77-14.12-7.24-3.35-15.85-5.03-25.82-5.03s-18.36,1.65-25.82,4.94c-7.46,3.3-13.32,7.89-17.56,13.79-4.24,5.9-6.36,12.78-6.36,20.65,0,9.69,3.13,17.35,9.38,22.97,6.25,5.62,14.8,9.6,25.65,11.92l12.39,2.66c4.57.94,8.21,1.99,10.91,3.16,2.7,1.16,4.64,2.45,5.83,3.86,1.18,1.41,1.78,3.06,1.78,4.94,0,2.05-.62,3.86-1.86,5.44s-3.07,2.81-5.49,3.7c-2.42.89-5.43,1.33-9.01,1.33-4.3,0-7.97-.66-11.03-1.99-3.06-1.33-5.43-3.29-7.11-5.9-1.68-2.6-2.63-5.79-2.85-9.55h-31.73c.05,10.36,2.28,18.86,6.69,25.51,4.41,6.65,10.59,11.56,18.55,14.75,7.96,3.19,17.28,4.78,27.97,4.78s19.33-1.47,26.77-4.4Z"/>
        </g>
        <g>
          <path class="cls-3" d="m68,503.28c8.92,0,16.61-1.51,23.05-4.53,6.44-3.02,11.4-7.17,14.87-12.46,3.47-5.29,5.21-11.31,5.21-18.07,0-5.82-1.28-10.9-3.84-15.25-2.56-4.35-6-7.75-10.33-10.22-4.32-2.46-9.13-3.78-14.42-3.95v-1.33c4.79-.94,8.96-2.67,12.52-5.19,3.55-2.52,6.32-5.66,8.3-9.43,1.98-3.77,2.97-7.92,2.97-12.46,0-6.26-1.63-11.7-4.87-16.33-3.25-4.62-8.07-8.21-14.46-10.76-6.39-2.55-14.27-3.82-23.63-3.82H10v123.8h58Zm-24.62-97.38h14.21c4.13,0,7.56,1.03,10.29,3.07,2.73,2.05,4.09,4.96,4.09,8.72,0,2.55-.63,4.69-1.9,6.44-1.27,1.74-3.02,3.07-5.25,3.99-2.23.91-4.81,1.37-7.73,1.37h-13.72v-23.6Zm0,44.37h16.19c3.36,0,6.26.53,8.72,1.58,2.45,1.05,4.34,2.59,5.66,4.61,1.32,2.02,1.98,4.5,1.98,7.44,0,4.1-1.42,7.23-4.26,9.39-2.84,2.16-7.04,3.24-12.6,3.24h-15.7v-26.26Z"/>
          <path class="cls-3" d="m153.6,503.28v-96.88h11.73c3.97,0,7.35.53,10.16,1.58,2.81,1.05,4.96,2.69,6.44,4.9,1.49,2.22,2.23,5.1,2.23,8.64s-.74,6.4-2.23,8.56c-1.49,2.16-3.64,3.74-6.44,4.74-2.81,1-6.2,1.5-10.16,1.5h-24.95v26.09h31.73c9.36,0,17.57-1.55,24.62-4.65,7.05-3.1,12.53-7.7,16.44-13.79,3.91-6.09,5.87-13.57,5.87-22.43s-1.91-16.27-5.74-22.56c-3.83-6.29-9.17-11.11-16.03-14.46-6.86-3.35-14.86-5.03-24-5.03h-53.04v123.8h33.38Zm69.57,0l-30.9-56.83h-35.53l30.07,56.83h36.35Z"/>
          <path class="cls-3" d="m230.91,379.48v123.8h33.38v-123.8h-33.38Z"/>
          <path class="cls-3" d="m311.75,503.28v-45.2c0-3.38-.12-7.53-.37-12.46-.25-4.93-.58-10.27-.99-16.04-.41-5.76-.84-11.55-1.28-17.37h-3.47c2.81,6.54,5.3,12.3,7.48,17.28,2.17,4.99,4.43,9.71,6.77,14.17,2.34,4.46,5.05,9.26,8.14,14.42l27.35,45.2h36.35v-123.8h-34.37v45.37c0,3.93.17,8.77.5,14.5s.7,11.55,1.12,17.45c.41,5.9.76,11.09,1.03,15.58h2.89c-2.15-6.76-4.26-12.67-6.32-17.74-2.07-5.07-4.2-9.71-6.4-13.92-2.2-4.21-4.57-8.42-7.11-12.63l-29.33-48.61h-36.35v123.8h34.37Z"/>
          <path class="cls-3" d="m491.27,498.58c8.34-4.24,14.89-10.36,19.62-18.36,4.74-8,7.11-17.66,7.11-28.96v-17.12h-54.53v23.93h28.09l-5.78-.66c0,3.71-.84,6.94-2.52,9.68-1.68,2.74-4.21,4.86-7.6,6.36-3.39,1.5-7.62,2.24-12.68,2.24-5.78,0-10.62-1.37-14.5-4.11-3.88-2.74-6.82-6.69-8.8-11.84-1.98-5.15-2.97-11.36-2.97-18.61s1.03-13.27,3.1-18.36c2.07-5.1,5.08-8.99,9.05-11.67,3.97-2.69,8.73-4.03,14.29-4.03,2.64,0,5.05.29,7.23.87,2.18.58,4.1,1.44,5.78,2.58,1.68,1.14,3.08,2.53,4.21,4.2,1.13,1.66,1.94,3.55,2.44,5.65h33.71c-.66-6.2-2.47-11.89-5.41-17.07-2.95-5.18-6.84-9.68-11.69-13.5-4.85-3.82-10.4-6.77-16.65-8.85-6.25-2.08-13.01-3.12-20.28-3.12-11.07,0-21.15,2.48-30.24,7.44-9.09,4.96-16.35,12.19-21.77,21.69-5.43,9.5-8.14,21.06-8.14,34.69s2.53,24.26,7.6,33.73c5.07,9.47,12.13,16.77,21.19,21.89,9.06,5.12,19.57,7.69,31.52,7.69,10.74,0,20.28-2.12,28.63-6.36Z"/>
          <path class="cls-3" d="m529.32,379.48v123.8h33.38v-123.8h-33.38Z"/>
          <path class="cls-3" d="m610.16,503.28v-45.2c0-3.38-.12-7.53-.37-12.46-.25-4.93-.58-10.27-.99-16.04-.41-5.76-.84-11.55-1.28-17.37h-3.47c2.81,6.54,5.3,12.3,7.48,17.28,2.17,4.99,4.43,9.71,6.77,14.17,2.34,4.46,5.05,9.26,8.14,14.42l27.35,45.2h36.35v-123.8h-34.37v45.37c0,3.93.17,8.77.5,14.5.33,5.73.7,11.55,1.12,17.45.41,5.9.76,11.09,1.03,15.58h2.89c-2.15-6.76-4.26-12.67-6.32-17.74s-4.2-9.71-6.4-13.92c-2.2-4.21-4.57-8.42-7.11-12.63l-29.33-48.61h-36.35v123.8h34.37Z"/>
          <path class="cls-3" d="m789.68,498.58c8.34-4.24,14.89-10.36,19.62-18.36,4.74-8,7.11-17.66,7.11-28.96v-17.12h-54.53v23.93h28.09l-5.78-.66c0,3.71-.84,6.94-2.52,9.68-1.68,2.74-4.21,4.86-7.6,6.36-3.39,1.5-7.62,2.24-12.68,2.24-5.78,0-10.62-1.37-14.5-4.11-3.88-2.74-6.82-6.69-8.8-11.84-1.98-5.15-2.97-11.36-2.97-18.61s1.03-13.27,3.1-18.36c2.07-5.1,5.08-8.99,9.05-11.67,3.97-2.69,8.73-4.03,14.29-4.03,2.64,0,5.05.29,7.23.87,2.18.58,4.1,1.44,5.78,2.58,1.68,1.14,3.08,2.53,4.21,4.2,1.13,1.66,1.94,3.55,2.44,5.65h33.71c-.66-6.2-2.47-11.89-5.41-17.07-2.95-5.18-6.84-9.68-11.69-13.5-4.85-3.82-10.4-6.77-16.65-8.85-6.25-2.08-13.01-3.12-20.28-3.12-11.07,0-21.15,2.48-30.24,7.44-9.09,4.96-16.35,12.19-21.77,21.69-5.43,9.5-8.14,21.06-8.14,34.69s2.53,24.26,7.6,33.73c5.07,9.47,12.13,16.77,21.19,21.89,9.06,5.12,19.57,7.69,31.52,7.69,10.74,0,20.28-2.12,28.63-6.36Z"/>
          <path class="cls-3" d="m947.37,503.28v-27.09h-49.74v-96.72h-33.38v123.8h83.12Z"/>
          <path class="cls-3" d="m954.65,379.48v123.8h33.38v-123.8h-33.38Z"/>
          <path class="cls-3" d="m1035.49,503.28v-45.2c0-3.38-.12-7.53-.37-12.46-.25-4.93-.58-10.27-.99-16.04-.41-5.76-.84-11.55-1.28-17.37h-3.47c2.81,6.54,5.3,12.3,7.48,17.28,2.17,4.99,4.43,9.71,6.77,14.17,2.34,4.46,5.05,9.26,8.14,14.42l27.35,45.2h36.35v-123.8h-34.37v45.37c0,3.93.17,8.77.5,14.5.33,5.73.7,11.55,1.12,17.45.41,5.9.76,11.09,1.03,15.58h2.89c-2.15-6.76-4.26-12.67-6.32-17.74s-4.2-9.71-6.4-13.92c-2.2-4.21-4.57-8.42-7.11-12.63l-29.33-48.61h-36.35v123.8h34.37Z"/>
          <path class="cls-3" d="m1162,503.28v-45.2l-.66-16.37.66-35.64v-26.59h-33.38v123.8h33.38Zm26.44-61.4l3.14,1.33,51.47-63.73h-39.58l-24.46,31.82c-4.35,5.71-7.97,10.72-10.87,15.04-2.89,4.32-5.41,8.57-7.56,12.75-2.15,4.18-4.35,8.88-6.61,14.08v28.42l34.45-39.72Zm56.93,61.4l-47.84-74.36-21.15,24.59,29.66,49.77h39.33Z"/>
          <path class="cls-3" d="m1371.69,499.17c7.99-3.74,14.21-9.06,18.67-15.95,4.46-6.9,6.69-15.05,6.69-24.47v-79.27h-33.38v76.44c0,3.88-.85,7.3-2.56,10.26-1.71,2.96-4.05,5.29-7.02,6.98-2.97,1.69-6.39,2.53-10.24,2.53s-7.18-.84-10.12-2.53c-2.95-1.69-5.27-4.02-6.98-6.98-1.71-2.96-2.56-6.38-2.56-10.26v-76.44h-33.38v79.27c0,9.42,2.22,17.57,6.65,24.47,4.43,6.9,10.63,12.21,18.59,15.95,7.96,3.74,17.23,5.61,27.8,5.61s19.86-1.87,27.84-5.61Z"/>
          <path class="cls-3" d="m1443.29,503.28v-96.88h11.73c3.97,0,7.35.66,10.16,1.99,2.81,1.33,4.96,3.25,6.44,5.77,1.49,2.52,2.23,5.58,2.23,9.18s-.74,6.51-2.23,9.06c-1.49,2.55-3.64,4.53-6.44,5.94-2.81,1.41-6.2,2.12-10.16,2.12h-24.95v26.09h31.73c9.36,0,17.57-1.76,24.62-5.28,7.05-3.52,12.53-8.5,16.44-14.96,3.91-6.45,5.87-14.11,5.87-22.97s-1.91-16.51-5.74-23.1c-3.83-6.59-9.17-11.7-16.03-15.33-6.86-3.63-14.86-5.44-24-5.44h-53.04v123.8h33.38Z"/>
          <path class="cls-3" d="m1592.89,500.37c7.44-2.94,13.15-7.24,17.14-12.92,3.99-5.68,5.99-12.59,5.99-20.73,0-4.71-.73-9.06-2.19-13.04-1.46-3.99-3.75-7.57-6.86-10.76-3.11-3.18-7.11-5.97-11.98-8.35-4.87-2.38-10.7-4.29-17.47-5.73l-10.08-2.16c-3.86-.83-7.01-1.79-9.46-2.87-2.45-1.08-4.24-2.35-5.37-3.82-1.13-1.47-1.69-3.17-1.69-5.11,0-1.83.52-3.46,1.57-4.9,1.05-1.44,2.67-2.56,4.87-3.37,2.2-.8,5.01-1.2,8.43-1.2,5.4,0,9.43,1.12,12.1,3.37,2.67,2.24,4.14,5.39,4.42,9.43h32.06c-.06-8.09-2.05-15.16-5.99-21.23-3.94-6.07-9.53-10.77-16.77-14.12-7.24-3.35-15.85-5.03-25.82-5.03s-18.36,1.65-25.82,4.94c-7.46,3.3-13.32,7.89-17.56,13.79-4.24,5.9-6.36,12.78-6.36,20.65,0,9.69,3.13,17.35,9.38,22.97,6.25,5.62,14.8,9.6,25.65,11.92l12.39,2.66c4.57.94,8.21,1.99,10.91,3.16,2.7,1.16,4.64,2.45,5.83,3.86,1.18,1.41,1.78,3.06,1.78,4.94,0,2.05-.62,3.86-1.86,5.44-1.24,1.58-3.07,2.81-5.49,3.7-2.42.89-5.43,1.33-9.01,1.33-4.3,0-7.97-.66-11.03-1.99-3.06-1.33-5.43-3.29-7.11-5.9-1.68-2.6-2.63-5.79-2.85-9.55h-31.73c.05,10.36,2.28,18.86,6.69,25.51,4.41,6.65,10.59,11.56,18.55,14.75,7.96,3.19,17.28,4.78,27.97,4.78s19.33-1.47,26.77-4.4Z"/>
        </g>
        <g>
          <path class="cls-3" d="m881.01,356.15c8.92,0,16.61-1.51,23.05-4.53,6.44-3.02,11.4-7.17,14.87-12.46,3.47-5.29,5.21-11.31,5.21-18.07,0-5.82-1.28-10.9-3.84-15.25-2.56-4.35-6-7.75-10.33-10.22-4.32-2.46-9.13-3.78-14.42-3.95v-1.33c4.79-.94,8.96-2.67,12.52-5.19,3.55-2.52,6.32-5.66,8.3-9.43,1.98-3.77,2.97-7.92,2.97-12.46,0-6.26-1.63-11.7-4.87-16.33-3.25-4.62-8.07-8.21-14.46-10.76-6.39-2.55-14.27-3.82-23.63-3.82h-53.37v123.8h58Zm-24.62-97.38h14.21c4.13,0,7.56,1.03,10.29,3.07,2.73,2.05,4.09,4.96,4.09,8.72,0,2.55-.63,4.69-1.9,6.44-1.27,1.74-3.02,3.07-5.25,3.99-2.23.91-4.81,1.37-7.73,1.37h-13.72v-23.6Zm0,44.37h16.19c3.36,0,6.26.53,8.72,1.58,2.45,1.05,4.34,2.59,5.66,4.61,1.32,2.02,1.98,4.5,1.98,7.44,0,4.1-1.42,7.23-4.26,9.39-2.84,2.16-7.04,3.24-12.6,3.24h-15.7v-26.26Z"/>
          <path class="cls-3" d="m966.61,356.15v-96.88h11.73c3.97,0,7.35.53,10.16,1.58,2.81,1.05,4.96,2.69,6.44,4.9,1.49,2.22,2.23,5.1,2.23,8.64s-.74,6.4-2.23,8.56c-1.49,2.16-3.64,3.74-6.44,4.74-2.81,1-6.2,1.5-10.16,1.5h-24.95v26.09h31.73c9.36,0,17.57-1.55,24.62-4.65,7.05-3.1,12.53-7.7,16.44-13.79,3.91-6.09,5.87-13.57,5.87-22.43s-1.91-16.27-5.74-22.56c-3.83-6.29-9.17-11.11-16.03-14.46-6.86-3.35-14.86-5.03-24-5.03h-53.04v123.8h33.38Zm69.57,0l-30.9-56.83h-35.53l30.07,56.83h36.35Z"/>
          <path class="cls-3" d="m1043.92,232.35v123.8h33.38v-123.8h-33.38Z"/>
          <path class="cls-3" d="m1124.76,356.15v-45.2c0-3.38-.12-7.53-.37-12.46-.25-4.93-.58-10.27-.99-16.04-.41-5.76-.84-11.55-1.28-17.37h-3.47c2.81,6.54,5.3,12.3,7.48,17.28,2.17,4.99,4.43,9.71,6.77,14.17,2.34,4.46,5.05,9.26,8.14,14.42l27.35,45.2h36.35v-123.8h-34.37v45.37c0,3.93.17,8.77.5,14.5s.7,11.55,1.12,17.45c.41,5.9.76,11.09,1.03,15.58h2.89c-2.15-6.76-4.26-12.67-6.32-17.74-2.07-5.07-4.2-9.71-6.4-13.92-2.2-4.21-4.57-8.42-7.11-12.63l-29.33-48.61h-36.35v123.8h34.37Z"/>
          <path class="cls-3" d="m1304.28,351.46c8.34-4.24,14.89-10.36,19.62-18.36,4.74-8,7.11-17.66,7.11-28.96v-17.12h-54.53v23.93h28.09l-5.78-.66c0,3.71-.84,6.94-2.52,9.68-1.68,2.74-4.21,4.86-7.6,6.36-3.39,1.5-7.62,2.24-12.68,2.24-5.78,0-10.62-1.37-14.5-4.11-3.88-2.74-6.82-6.69-8.8-11.84-1.98-5.15-2.97-11.36-2.97-18.61s1.03-13.27,3.1-18.36c2.07-5.1,5.08-8.99,9.05-11.67,3.97-2.69,8.73-4.03,14.29-4.03,2.64,0,5.05.29,7.23.87,2.18.58,4.1,1.44,5.78,2.58,1.68,1.14,3.08,2.53,4.21,4.2,1.13,1.66,1.94,3.55,2.44,5.65h33.71c-.66-6.2-2.47-11.89-5.41-17.07-2.95-5.18-6.84-9.68-11.69-13.5-4.85-3.82-10.4-6.77-16.65-8.85-6.25-2.08-13.01-3.12-20.28-3.12-11.07,0-21.15,2.48-30.24,7.44-9.09,4.96-16.35,12.19-21.77,21.69-5.43,9.5-8.14,21.06-8.14,34.69s2.53,24.26,7.6,33.73c5.07,9.47,12.13,16.77,21.19,21.89,9.06,5.12,19.57,7.69,31.52,7.69,10.74,0,20.28-2.12,28.63-6.36Z"/>
          <path class="cls-3" d="m1342.33,232.35v123.8h33.38v-123.8h-33.38Z"/>
          <path class="cls-3" d="m1423.17,356.15v-45.2c0-3.38-.12-7.53-.37-12.46-.25-4.93-.58-10.27-.99-16.04-.41-5.76-.84-11.55-1.28-17.37h-3.47c2.81,6.54,5.3,12.3,7.48,17.28,2.17,4.99,4.43,9.71,6.77,14.17,2.34,4.46,5.05,9.26,8.14,14.42l27.35,45.2h36.35v-123.8h-34.37v45.37c0,3.93.17,8.77.5,14.5s.7,11.55,1.12,17.45c.41,5.9.76,11.09,1.03,15.58h2.89c-2.15-6.76-4.26-12.67-6.32-17.74-2.07-5.07-4.2-9.71-6.4-13.92-2.2-4.21-4.57-8.42-7.11-12.63l-29.33-48.61h-36.35v123.8h34.37Z"/>
          <path class="cls-3" d="m1602.69,351.46c8.34-4.24,14.89-10.36,19.62-18.36,4.74-8,7.11-17.66,7.11-28.96v-17.12h-54.53v23.93h28.09l-5.78-.66c0,3.71-.84,6.94-2.52,9.68-1.68,2.74-4.21,4.86-7.6,6.36-3.39,1.5-7.62,2.24-12.68,2.24-5.78,0-10.62-1.37-14.5-4.11-3.88-2.74-6.82-6.69-8.8-11.84-1.98-5.15-2.97-11.36-2.97-18.61s1.03-13.27,3.1-18.36c2.07-5.1,5.08-8.99,9.05-11.67,3.97-2.69,8.73-4.03,14.29-4.03,2.64,0,5.05.29,7.23.87,2.18.58,4.1,1.44,5.78,2.58,1.68,1.14,3.08,2.53,4.21,4.2,1.13,1.66,1.94,3.55,2.44,5.65h33.71c-.66-6.2-2.47-11.89-5.41-17.07-2.95-5.18-6.84-9.68-11.69-13.5-4.85-3.82-10.4-6.77-16.65-8.85-6.25-2.08-13.01-3.12-20.28-3.12-11.07,0-21.15,2.48-30.24,7.44-9.09,4.96-16.35,12.19-21.77,21.69-5.43,9.5-8.14,21.06-8.14,34.69s2.53,24.26,7.6,33.73c5.07,9.47,12.13,16.77,21.19,21.89,9.06,5.12,19.57,7.69,31.52,7.69,10.74,0,20.28-2.12,28.63-6.36Z"/>
        </g>
        <g>
          <path class="cls-3" d="m-23.33,351.46c8.34-4.24,14.89-10.36,19.62-18.36,4.74-8,7.11-17.66,7.11-28.96v-17.12h-54.53v23.93h28.09l-5.78-.66c0,3.71-.84,6.94-2.52,9.68-1.68,2.74-4.21,4.86-7.6,6.36-3.39,1.5-7.62,2.24-12.68,2.24-5.78,0-10.62-1.37-14.5-4.11-3.88-2.74-6.82-6.69-8.8-11.84-1.98-5.15-2.97-11.36-2.97-18.61s1.03-13.27,3.1-18.36c2.07-5.1,5.08-8.99,9.05-11.67,3.97-2.69,8.73-4.03,14.29-4.03,2.64,0,5.05.29,7.23.87,2.18.58,4.1,1.44,5.78,2.58,1.68,1.14,3.08,2.53,4.21,4.2,1.13,1.66,1.94,3.55,2.44,5.65H1.91c-.66-6.2-2.47-11.89-5.41-17.07-2.95-5.18-6.84-9.68-11.69-13.5-4.85-3.82-10.4-6.77-16.65-8.85-6.25-2.08-13.01-3.12-20.28-3.12-11.07,0-21.15,2.48-30.24,7.44-9.09,4.96-16.35,12.19-21.77,21.69-5.43,9.5-8.14,21.06-8.14,34.69s2.53,24.26,7.6,33.73c5.07,9.47,12.13,16.77,21.19,21.89,9.06,5.12,19.57,7.69,31.52,7.69,10.74,0,20.28-2.12,28.63-6.36Z"/>
          <path class="cls-3" d="m134.36,356.15v-27.09h-49.74v-96.72h-33.38v123.8h83.12Z"/>
          <path class="cls-3" d="m141.64,232.35v123.8h33.38v-123.8h-33.38Z"/>
          <path class="cls-3" d="m222.47,356.15v-45.2c0-3.38-.12-7.53-.37-12.46-.25-4.93-.58-10.27-.99-16.04-.41-5.76-.84-11.55-1.28-17.37h-3.47c2.81,6.54,5.3,12.3,7.48,17.28,2.17,4.99,4.43,9.71,6.77,14.17,2.34,4.46,5.05,9.26,8.14,14.42l27.35,45.2h36.35v-123.8h-34.37v45.37c0,3.93.17,8.77.5,14.5s.7,11.55,1.12,17.45c.41,5.9.76,11.09,1.03,15.58h2.89c-2.15-6.76-4.26-12.67-6.32-17.74s-4.2-9.71-6.4-13.92c-2.2-4.21-4.57-8.42-7.11-12.63l-29.33-48.61h-36.35v123.8h34.37Z"/>
          <path class="cls-3" d="m348.99,356.15v-45.2l-.66-16.37.66-35.64v-26.59h-33.38v123.8h33.38Zm26.44-61.4l3.14,1.33,51.47-63.73h-39.58l-24.46,31.82c-4.35,5.71-7.97,10.72-10.87,15.04-2.89,4.32-5.41,8.57-7.56,12.75-2.15,4.18-4.35,8.88-6.61,14.08v28.42l34.45-39.72Zm56.93,61.4l-47.84-74.36-21.15,24.59,29.66,49.77h39.33Z"/>
          <path class="cls-3" d="m558.68,352.04c7.99-3.74,14.21-9.06,18.67-15.95,4.46-6.9,6.69-15.05,6.69-24.47v-79.27h-33.38v76.44c0,3.88-.85,7.3-2.56,10.26-1.71,2.96-4.05,5.29-7.02,6.98-2.97,1.69-6.39,2.53-10.24,2.53s-7.18-.84-10.12-2.53c-2.95-1.69-5.27-4.02-6.98-6.98-1.71-2.96-2.56-6.38-2.56-10.26v-76.44h-33.38v79.27c0,9.42,2.22,17.57,6.65,24.47,4.43,6.9,10.63,12.21,18.59,15.95,7.96,3.74,17.23,5.61,27.8,5.61s19.86-1.87,27.84-5.61Z"/>
          <path class="cls-3" d="m630.28,356.15v-96.88h11.73c3.97,0,7.35.66,10.16,1.99,2.81,1.33,4.96,3.25,6.44,5.77,1.49,2.52,2.23,5.58,2.23,9.18s-.74,6.51-2.23,9.06c-1.49,2.55-3.64,4.53-6.44,5.94-2.81,1.41-6.2,2.12-10.16,2.12h-24.95v26.09h31.73c9.36,0,17.57-1.76,24.62-5.28,7.05-3.52,12.53-8.5,16.44-14.96,3.91-6.45,5.87-14.11,5.87-22.97s-1.91-16.51-5.74-23.1c-3.83-6.59-9.17-11.7-16.03-15.33-6.86-3.63-14.86-5.44-24-5.44h-53.04v123.8h33.38Z"/>
          <path class="cls-3" d="m779.88,353.24c7.44-2.94,13.15-7.24,17.14-12.92,3.99-5.68,5.99-12.59,5.99-20.73,0-4.71-.73-9.06-2.19-13.04-1.46-3.99-3.75-7.57-6.86-10.76-3.11-3.18-7.11-5.97-11.98-8.35-4.87-2.38-10.7-4.29-17.47-5.73l-10.08-2.16c-3.86-.83-7.01-1.79-9.46-2.87-2.45-1.08-4.24-2.35-5.37-3.82-1.13-1.47-1.69-3.17-1.69-5.11,0-1.83.52-3.46,1.57-4.9,1.05-1.44,2.67-2.56,4.87-3.37,2.2-.8,5.01-1.2,8.43-1.2,5.4,0,9.43,1.12,12.1,3.37,2.67,2.24,4.14,5.39,4.42,9.43h32.06c-.06-8.09-2.05-15.16-5.99-21.23-3.94-6.07-9.53-10.77-16.77-14.12-7.24-3.35-15.85-5.03-25.82-5.03s-18.36,1.65-25.82,4.94c-7.46,3.3-13.32,7.89-17.56,13.79-4.24,5.9-6.36,12.78-6.36,20.65,0,9.69,3.13,17.35,9.38,22.97,6.25,5.62,14.8,9.6,25.65,11.92l12.39,2.66c4.57.94,8.21,1.99,10.91,3.16,2.7,1.16,4.64,2.45,5.83,3.86,1.18,1.41,1.78,3.06,1.78,4.94,0,2.05-.62,3.86-1.86,5.44-1.24,1.58-3.07,2.81-5.49,3.7-2.42.89-5.43,1.33-9.01,1.33-4.3,0-7.97-.66-11.03-1.99-3.06-1.33-5.43-3.29-7.11-5.9-1.68-2.6-2.63-5.79-2.85-9.55h-31.73c.05,10.36,2.28,18.86,6.69,25.51,4.41,6.65,10.59,11.56,18.55,14.75,7.96,3.19,17.28,4.78,27.97,4.78s19.33-1.47,26.77-4.4Z"/>
        </g>
        <g>
          <path class="cls-3" d="m68,209.03c8.92,0,16.61-1.51,23.05-4.53,6.44-3.02,11.4-7.17,14.87-12.46,3.47-5.29,5.21-11.31,5.21-18.07,0-5.82-1.28-10.9-3.84-15.25-2.56-4.35-6-7.75-10.33-10.22-4.32-2.46-9.13-3.78-14.42-3.95v-1.33c4.79-.94,8.96-2.67,12.52-5.19,3.55-2.52,6.32-5.66,8.3-9.43,1.98-3.77,2.97-7.92,2.97-12.46,0-6.26-1.63-11.7-4.87-16.33-3.25-4.62-8.07-8.21-14.46-10.76-6.39-2.55-14.27-3.82-23.63-3.82H10v123.8h58Zm-24.62-97.38h14.21c4.13,0,7.56,1.03,10.29,3.07,2.73,2.05,4.09,4.96,4.09,8.72,0,2.55-.63,4.69-1.9,6.44-1.27,1.74-3.02,3.07-5.25,3.99-2.23.91-4.81,1.37-7.73,1.37h-13.72v-23.6Zm0,44.37h16.19c3.36,0,6.26.53,8.72,1.58,2.45,1.05,4.34,2.59,5.66,4.61,1.32,2.02,1.98,4.5,1.98,7.44,0,4.1-1.42,7.23-4.26,9.39-2.84,2.16-7.04,3.24-12.6,3.24h-15.7v-26.26Z"/>
          <path class="cls-3" d="m153.6,209.03v-96.88h11.73c3.97,0,7.35.53,10.16,1.58,2.81,1.05,4.96,2.69,6.44,4.9,1.49,2.22,2.23,5.1,2.23,8.64s-.74,6.4-2.23,8.56c-1.49,2.16-3.64,3.74-6.44,4.74-2.81,1-6.2,1.5-10.16,1.5h-24.95v26.09h31.73c9.36,0,17.57-1.55,24.62-4.65,7.05-3.1,12.53-7.7,16.44-13.79,3.91-6.09,5.87-13.57,5.87-22.43s-1.91-16.27-5.74-22.56c-3.83-6.29-9.17-11.11-16.03-14.46-6.86-3.35-14.86-5.03-24-5.03h-53.04v123.8h33.38Zm69.57,0l-30.9-56.83h-35.53l30.07,56.83h36.35Z"/>
          <path class="cls-3" d="m230.91,85.22v123.8h33.38v-123.8h-33.38Z"/>
          <path class="cls-3" d="m311.75,209.03v-45.2c0-3.38-.12-7.53-.37-12.46-.25-4.93-.58-10.27-.99-16.04-.41-5.76-.84-11.55-1.28-17.37h-3.47c2.81,6.54,5.3,12.3,7.48,17.28,2.17,4.99,4.43,9.71,6.77,14.17,2.34,4.46,5.05,9.26,8.14,14.42l27.35,45.2h36.35v-123.8h-34.37v45.37c0,3.93.17,8.77.5,14.5s.7,11.55,1.12,17.45c.41,5.9.76,11.09,1.03,15.58h2.89c-2.15-6.76-4.26-12.67-6.32-17.74s-4.2-9.71-6.4-13.92c-2.2-4.21-4.57-8.42-7.11-12.63l-29.33-48.61h-36.35v123.8h34.37Z"/>
          <path class="cls-3" d="m491.27,204.33c8.34-4.24,14.89-10.36,19.62-18.36,4.74-8,7.11-17.66,7.11-28.96v-17.12h-54.53v23.93h28.09l-5.78-.66c0,3.71-.84,6.94-2.52,9.68-1.68,2.74-4.21,4.86-7.6,6.36-3.39,1.5-7.62,2.24-12.68,2.24-5.78,0-10.62-1.37-14.5-4.11-3.88-2.74-6.82-6.69-8.8-11.84-1.98-5.15-2.97-11.36-2.97-18.61s1.03-13.27,3.1-18.36c2.07-5.1,5.08-8.99,9.05-11.67,3.97-2.69,8.73-4.03,14.29-4.03,2.64,0,5.05.29,7.23.87,2.18.58,4.1,1.44,5.78,2.58,1.68,1.14,3.08,2.53,4.21,4.2,1.13,1.66,1.94,3.55,2.44,5.65h33.71c-.66-6.2-2.47-11.89-5.41-17.07-2.95-5.18-6.84-9.68-11.69-13.5-4.85-3.82-10.4-6.77-16.65-8.85-6.25-2.08-13.01-3.12-20.28-3.12-11.07,0-21.15,2.48-30.24,7.44-9.09,4.96-16.35,12.19-21.77,21.69-5.43,9.5-8.14,21.06-8.14,34.69s2.53,24.26,7.6,33.73c5.07,9.47,12.13,16.77,21.19,21.89,9.06,5.12,19.57,7.69,31.52,7.69,10.74,0,20.28-2.12,28.63-6.36Z"/>
          <path class="cls-3" d="m529.32,85.22v123.8h33.38v-123.8h-33.38Z"/>
          <path class="cls-3" d="m610.16,209.03v-45.2c0-3.38-.12-7.53-.37-12.46-.25-4.93-.58-10.27-.99-16.04-.41-5.76-.84-11.55-1.28-17.37h-3.47c2.81,6.54,5.3,12.3,7.48,17.28,2.17,4.99,4.43,9.71,6.77,14.17,2.34,4.46,5.05,9.26,8.14,14.42l27.35,45.2h36.35v-123.8h-34.37v45.37c0,3.93.17,8.77.5,14.5.33,5.73.7,11.55,1.12,17.45.41,5.9.76,11.09,1.03,15.58h2.89c-2.15-6.76-4.26-12.67-6.32-17.74s-4.2-9.71-6.4-13.92c-2.2-4.21-4.57-8.42-7.11-12.63l-29.33-48.61h-36.35v123.8h34.37Z"/>
          <path class="cls-3" d="m789.68,204.33c8.34-4.24,14.89-10.36,19.62-18.36,4.74-8,7.11-17.66,7.11-28.96v-17.12h-54.53v23.93h28.09l-5.78-.66c0,3.71-.84,6.94-2.52,9.68-1.68,2.74-4.21,4.86-7.6,6.36-3.39,1.5-7.62,2.24-12.68,2.24-5.78,0-10.62-1.37-14.5-4.11-3.88-2.74-6.82-6.69-8.8-11.84-1.98-5.15-2.97-11.36-2.97-18.61s1.03-13.27,3.1-18.36c2.07-5.1,5.08-8.99,9.05-11.67,3.97-2.69,8.73-4.03,14.29-4.03,2.64,0,5.05.29,7.23.87,2.18.58,4.1,1.44,5.78,2.58,1.68,1.14,3.08,2.53,4.21,4.2,1.13,1.66,1.94,3.55,2.44,5.65h33.71c-.66-6.2-2.47-11.89-5.41-17.07-2.95-5.18-6.84-9.68-11.69-13.5-4.85-3.82-10.4-6.77-16.65-8.85-6.25-2.08-13.01-3.12-20.28-3.12-11.07,0-21.15,2.48-30.24,7.44-9.09,4.96-16.35,12.19-21.77,21.69-5.43,9.5-8.14,21.06-8.14,34.69s2.53,24.26,7.6,33.73c5.07,9.47,12.13,16.77,21.19,21.89,9.06,5.12,19.57,7.69,31.52,7.69,10.74,0,20.28-2.12,28.63-6.36Z"/>
          <path class="cls-3" d="m947.37,209.03v-27.09h-49.74v-96.72h-33.38v123.8h83.12Z"/>
          <path class="cls-3" d="m954.65,85.22v123.8h33.38v-123.8h-33.38Z"/>
          <path class="cls-3" d="m1035.49,209.03v-45.2c0-3.38-.12-7.53-.37-12.46-.25-4.93-.58-10.27-.99-16.04-.41-5.76-.84-11.55-1.28-17.37h-3.47c2.81,6.54,5.3,12.3,7.48,17.28,2.17,4.99,4.43,9.71,6.77,14.17,2.34,4.46,5.05,9.26,8.14,14.42l27.35,45.2h36.35v-123.8h-34.37v45.37c0,3.93.17,8.77.5,14.5.33,5.73.7,11.55,1.12,17.45.41,5.9.76,11.09,1.03,15.58h2.89c-2.15-6.76-4.26-12.67-6.32-17.74s-4.2-9.71-6.4-13.92c-2.2-4.21-4.57-8.42-7.11-12.63l-29.33-48.61h-36.35v123.8h34.37Z"/>
          <path class="cls-3" d="m1162,209.03v-45.2l-.66-16.37.66-35.64v-26.59h-33.38v123.8h33.38Zm26.44-61.4l3.14,1.33,51.47-63.73h-39.58l-24.46,31.82c-4.35,5.71-7.97,10.72-10.87,15.04-2.89,4.32-5.41,8.57-7.56,12.75-2.15,4.18-4.35,8.88-6.61,14.08v28.42l34.45-39.72Zm56.93,61.4l-47.84-74.36-21.15,24.59,29.66,49.77h39.33Z"/>
          <path class="cls-3" d="m1371.69,204.91c7.99-3.74,14.21-9.06,18.67-15.95,4.46-6.9,6.69-15.05,6.69-24.47v-79.27h-33.38v76.44c0,3.88-.85,7.3-2.56,10.26-1.71,2.96-4.05,5.29-7.02,6.98-2.97,1.69-6.39,2.53-10.24,2.53s-7.18-.84-10.12-2.53c-2.95-1.69-5.27-4.02-6.98-6.98-1.71-2.96-2.56-6.38-2.56-10.26v-76.44h-33.38v79.27c0,9.42,2.22,17.57,6.65,24.47,4.43,6.9,10.63,12.21,18.59,15.95,7.96,3.74,17.23,5.61,27.8,5.61s19.86-1.87,27.84-5.61Z"/>
          <path class="cls-3" d="m1443.29,209.03v-96.88h11.73c3.97,0,7.35.66,10.16,1.99,2.81,1.33,4.96,3.25,6.44,5.77,1.49,2.52,2.23,5.58,2.23,9.18s-.74,6.51-2.23,9.06c-1.49,2.55-3.64,4.53-6.44,5.94-2.81,1.41-6.2,2.12-10.16,2.12h-24.95v26.09h31.73c9.36,0,17.57-1.76,24.62-5.28,7.05-3.52,12.53-8.5,16.44-14.96,3.91-6.45,5.87-14.11,5.87-22.97s-1.91-16.51-5.74-23.1c-3.83-6.59-9.17-11.7-16.03-15.33-6.86-3.63-14.86-5.44-24-5.44h-53.04v123.8h33.38Z"/>
          <path class="cls-3" d="m1592.89,206.12c7.44-2.94,13.15-7.24,17.14-12.92,3.99-5.68,5.99-12.59,5.99-20.73,0-4.71-.73-9.06-2.19-13.04-1.46-3.99-3.75-7.57-6.86-10.76-3.11-3.18-7.11-5.97-11.98-8.35-4.87-2.38-10.7-4.29-17.47-5.73l-10.08-2.16c-3.86-.83-7.01-1.79-9.46-2.87-2.45-1.08-4.24-2.35-5.37-3.82-1.13-1.47-1.69-3.17-1.69-5.11,0-1.83.52-3.46,1.57-4.9,1.05-1.44,2.67-2.56,4.87-3.37,2.2-.8,5.01-1.2,8.43-1.2,5.4,0,9.43,1.12,12.1,3.37,2.67,2.24,4.14,5.39,4.42,9.43h32.06c-.06-8.09-2.05-15.16-5.99-21.23-3.94-6.07-9.53-10.77-16.77-14.12-7.24-3.35-15.85-5.03-25.82-5.03s-18.36,1.65-25.82,4.94c-7.46,3.3-13.32,7.89-17.56,13.79-4.24,5.9-6.36,12.78-6.36,20.65,0,9.69,3.13,17.35,9.38,22.97,6.25,5.62,14.8,9.6,25.65,11.92l12.39,2.66c4.57.94,8.21,1.99,10.91,3.16,2.7,1.16,4.64,2.45,5.83,3.86,1.18,1.41,1.78,3.06,1.78,4.94,0,2.05-.62,3.86-1.86,5.44-1.24,1.58-3.07,2.81-5.49,3.7-2.42.89-5.43,1.33-9.01,1.33-4.3,0-7.97-.66-11.03-1.99-3.06-1.33-5.43-3.29-7.11-5.9-1.68-2.6-2.63-5.79-2.85-9.55h-31.73c.05,10.36,2.28,18.86,6.69,25.51,4.41,6.65,10.59,11.56,18.55,14.75,7.96,3.19,17.28,4.78,27.97,4.78s19.33-1.47,26.77-4.4Z"/>
        </g>
        <g>
          <path class="cls-3" d="m881.01,61.9c8.92,0,16.61-1.51,23.05-4.53,6.44-3.02,11.4-7.17,14.87-12.46,3.47-5.29,5.21-11.31,5.21-18.07,0-5.82-1.28-10.9-3.84-15.25-2.56-4.35-6-7.75-10.33-10.22-4.32-2.46-9.13-3.78-14.42-3.95v-1.33c4.79-.94,8.96-2.67,12.52-5.19,3.55-2.52,6.32-5.66,8.3-9.43,1.98-3.77,2.97-7.92,2.97-12.46,0-6.26-1.63-11.7-4.87-16.33-3.25-4.62-8.07-8.21-14.46-10.76-6.39-2.55-14.27-3.82-23.63-3.82h-53.37V61.9h58Zm-24.62-97.38h14.21c4.13,0,7.56,1.03,10.29,3.07,2.73,2.05,4.09,4.96,4.09,8.72,0,2.55-.63,4.69-1.9,6.44-1.27,1.74-3.02,3.07-5.25,3.99-2.23.91-4.81,1.37-7.73,1.37h-13.72v-23.6Zm0,44.37h16.19c3.36,0,6.26.53,8.72,1.58,2.45,1.05,4.34,2.59,5.66,4.61,1.32,2.02,1.98,4.5,1.98,7.44,0,4.1-1.42,7.23-4.26,9.39-2.84,2.16-7.04,3.24-12.6,3.24h-15.7V8.89Z"/>
          <path class="cls-3" d="m966.61,61.9V-34.98h11.73c3.97,0,7.35.53,10.16,1.58,2.81,1.05,4.96,2.69,6.44,4.9,1.49,2.22,2.23,5.1,2.23,8.64s-.74,6.4-2.23,8.56c-1.49,2.16-3.64,3.74-6.44,4.74-2.81,1-6.2,1.5-10.16,1.5h-24.95v26.09h31.73c9.36,0,17.57-1.55,24.62-4.65,7.05-3.1,12.53-7.7,16.44-13.79,3.91-6.09,5.87-13.57,5.87-22.43s-1.91-16.27-5.74-22.56c-3.83-6.29-9.17-11.11-16.03-14.46-6.86-3.35-14.86-5.03-24-5.03h-53.04V61.9h33.38Zm69.57,0l-30.9-56.83h-35.53l30.07,56.83h36.35Z"/>
          <path class="cls-3" d="m1043.92-61.9V61.9h33.38V-61.9h-33.38Z"/>
          <path class="cls-3" d="m1124.76,61.9V16.7c0-3.38-.12-7.53-.37-12.46-.25-4.93-.58-10.27-.99-16.04-.41-5.76-.84-11.55-1.28-17.37h-3.47c2.81,6.54,5.3,12.3,7.48,17.28,2.17,4.99,4.43,9.71,6.77,14.17,2.34,4.46,5.05,9.26,8.14,14.42l27.35,45.2h36.35V-61.9h-34.37V-16.53c0,3.93.17,8.77.5,14.5s.7,11.55,1.12,17.45c.41,5.9.76,11.09,1.03,15.58h2.89c-2.15-6.76-4.26-12.67-6.32-17.74-2.07-5.07-4.2-9.71-6.4-13.92-2.2-4.21-4.57-8.42-7.11-12.63l-29.33-48.61h-36.35V61.9h34.37Z"/>
          <path class="cls-3" d="m1304.28,57.21c8.34-4.24,14.89-10.36,19.62-18.36,4.74-8,7.11-17.66,7.11-28.96V-7.23h-54.53v23.93h28.09l-5.78-.66c0,3.71-.84,6.94-2.52,9.68-1.68,2.74-4.21,4.86-7.6,6.36-3.39,1.5-7.62,2.24-12.68,2.24-5.78,0-10.62-1.37-14.5-4.11-3.88-2.74-6.82-6.69-8.8-11.84-1.98-5.15-2.97-11.36-2.97-18.61s1.03-13.27,3.1-18.36c2.07-5.1,5.08-8.99,9.05-11.67,3.97-2.69,8.73-4.03,14.29-4.03,2.64,0,5.05.29,7.23.87,2.18.58,4.1,1.44,5.78,2.58,1.68,1.14,3.08,2.53,4.21,4.2,1.13,1.66,1.94,3.55,2.44,5.65h33.71c-.66-6.2-2.47-11.89-5.41-17.07-2.95-5.18-6.84-9.68-11.69-13.5-4.85-3.82-10.4-6.77-16.65-8.85-6.25-2.08-13.01-3.12-20.28-3.12-11.07,0-21.15,2.48-30.24,7.44-9.09,4.96-16.35,12.19-21.77,21.69-5.43,9.5-8.14,21.06-8.14,34.69s2.53,24.26,7.6,33.73c5.07,9.47,12.13,16.77,21.19,21.89,9.06,5.12,19.57,7.69,31.52,7.69,10.74,0,20.28-2.12,28.63-6.36Z"/>
          <path class="cls-3" d="m1342.33-61.9V61.9h33.38V-61.9h-33.38Z"/>
          <path class="cls-3" d="m1423.17,61.9V16.7c0-3.38-.12-7.53-.37-12.46-.25-4.93-.58-10.27-.99-16.04-.41-5.76-.84-11.55-1.28-17.37h-3.47c2.81,6.54,5.3,12.3,7.48,17.28,2.17,4.99,4.43,9.71,6.77,14.17,2.34,4.46,5.05,9.26,8.14,14.42l27.35,45.2h36.35V-61.9h-34.37V-16.53c0,3.93.17,8.77.5,14.5s.7,11.55,1.12,17.45c.41,5.9.76,11.09,1.03,15.58h2.89c-2.15-6.76-4.26-12.67-6.32-17.74-2.07-5.07-4.2-9.71-6.4-13.92-2.2-4.21-4.57-8.42-7.11-12.63l-29.33-48.61h-36.35V61.9h34.37Z"/>
          <path class="cls-3" d="m1602.69,57.21c8.34-4.24,14.89-10.36,19.62-18.36,4.74-8,7.11-17.66,7.11-28.96V-7.23h-54.53v23.93h28.09l-5.78-.66c0,3.71-.84,6.94-2.52,9.68-1.68,2.74-4.21,4.86-7.6,6.36-3.39,1.5-7.62,2.24-12.68,2.24-5.78,0-10.62-1.37-14.5-4.11-3.88-2.74-6.82-6.69-8.8-11.84-1.98-5.15-2.97-11.36-2.97-18.61s1.03-13.27,3.1-18.36c2.07-5.1,5.08-8.99,9.05-11.67,3.97-2.69,8.73-4.03,14.29-4.03,2.64,0,5.05.29,7.23.87,2.18.58,4.1,1.44,5.78,2.58,1.68,1.14,3.08,2.53,4.21,4.2,1.13,1.66,1.94,3.55,2.44,5.65h33.71c-.66-6.2-2.47-11.89-5.41-17.07-2.95-5.18-6.84-9.68-11.69-13.5-4.85-3.82-10.4-6.77-16.65-8.85-6.25-2.08-13.01-3.12-20.28-3.12-11.07,0-21.15,2.48-30.24,7.44-9.09,4.96-16.35,12.19-21.77,21.69-5.43,9.5-8.14,21.06-8.14,34.69s2.53,24.26,7.6,33.73c5.07,9.47,12.13,16.77,21.19,21.89,9.06,5.12,19.57,7.69,31.52,7.69,10.74,0,20.28-2.12,28.63-6.36Z"/>
        </g>
        <g>
          <path class="cls-3" d="m-23.33,57.21c8.34-4.24,14.89-10.36,19.62-18.36C1.03,30.84,3.4,21.19,3.4,9.89V-7.23h-54.53v23.93h28.09l-5.78-.66c0,3.71-.84,6.94-2.52,9.68-1.68,2.74-4.21,4.86-7.6,6.36-3.39,1.5-7.62,2.24-12.68,2.24-5.78,0-10.62-1.37-14.5-4.11-3.88-2.74-6.82-6.69-8.8-11.84-1.98-5.15-2.97-11.36-2.97-18.61s1.03-13.27,3.1-18.36c2.07-5.1,5.08-8.99,9.05-11.67,3.97-2.69,8.73-4.03,14.29-4.03,2.64,0,5.05.29,7.23.87,2.18.58,4.1,1.44,5.78,2.58,1.68,1.14,3.08,2.53,4.21,4.2,1.13,1.66,1.94,3.55,2.44,5.65H1.91c-.66-6.2-2.47-11.89-5.41-17.07-2.95-5.18-6.84-9.68-11.69-13.5-4.85-3.82-10.4-6.77-16.65-8.85-6.25-2.08-13.01-3.12-20.28-3.12-11.07,0-21.15,2.48-30.24,7.44-9.09,4.96-16.35,12.19-21.77,21.69-5.43,9.5-8.14,21.06-8.14,34.69s2.53,24.26,7.6,33.73c5.07,9.47,12.13,16.77,21.19,21.89,9.06,5.12,19.57,7.69,31.52,7.69,10.74,0,20.28-2.12,28.63-6.36Z"/>
          <path class="cls-3" d="m134.36,61.9v-27.09h-49.74V-61.9h-33.38V61.9h83.12Z"/>
          <path class="cls-3" d="m141.64-61.9V61.9h33.38V-61.9h-33.38Z"/>
          <path class="cls-3" d="m222.47,61.9V16.7c0-3.38-.12-7.53-.37-12.46-.25-4.93-.58-10.27-.99-16.04-.41-5.76-.84-11.55-1.28-17.37h-3.47c2.81,6.54,5.3,12.3,7.48,17.28,2.17,4.99,4.43,9.71,6.77,14.17,2.34,4.46,5.05,9.26,8.14,14.42l27.35,45.2h36.35V-61.9h-34.37V-16.53c0,3.93.17,8.77.5,14.5s.7,11.55,1.12,17.45c.41,5.9.76,11.09,1.03,15.58h2.89c-2.15-6.76-4.26-12.67-6.32-17.74-2.07-5.07-4.2-9.71-6.4-13.92-2.2-4.21-4.57-8.42-7.11-12.63l-29.33-48.61h-36.35V61.9h34.37Z"/>
          <path class="cls-3" d="m348.99,61.9V16.7l-.66-16.37.66-35.64v-26.59h-33.38V61.9h33.38ZM375.43.5l3.14,1.33,51.47-63.73h-39.58l-24.46,31.82c-4.35,5.71-7.97,10.72-10.87,15.04-2.89,4.32-5.41,8.57-7.56,12.75-2.15,4.18-4.35,8.88-6.61,14.08v28.42L375.43.5Zm56.93,61.4l-47.84-74.36-21.15,24.59,29.66,49.77h39.33Z"/>
          <path class="cls-3" d="m558.68,57.79c7.99-3.74,14.21-9.06,18.67-15.95,4.46-6.9,6.69-15.05,6.69-24.47V-61.9h-33.38V14.54c0,3.88-.85,7.3-2.56,10.26-1.71,2.96-4.05,5.29-7.02,6.98-2.97,1.69-6.39,2.53-10.24,2.53s-7.18-.84-10.12-2.53c-2.95-1.69-5.27-4.02-6.98-6.98-1.71-2.96-2.56-6.38-2.56-10.26V-61.9h-33.38V17.37c0,9.42,2.22,17.57,6.65,24.47,4.43,6.9,10.63,12.21,18.59,15.95,7.96,3.74,17.23,5.61,27.8,5.61s19.86-1.87,27.84-5.61Z"/>
          <path class="cls-3" d="m630.28,61.9V-34.98h11.73c3.97,0,7.35.66,10.16,1.99,2.81,1.33,4.96,3.25,6.44,5.77,1.49,2.52,2.23,5.58,2.23,9.18s-.74,6.51-2.23,9.06c-1.49,2.55-3.64,4.53-6.44,5.94-2.81,1.41-6.2,2.12-10.16,2.12h-24.95v26.09h31.73c9.36,0,17.57-1.76,24.62-5.28,7.05-3.52,12.53-8.5,16.44-14.96,3.91-6.45,5.87-14.11,5.87-22.97s-1.91-16.51-5.74-23.1c-3.83-6.59-9.17-11.7-16.03-15.33-6.86-3.63-14.86-5.44-24-5.44h-53.04V61.9h33.38Z"/>
          <path class="cls-3" d="m779.88,58.99c7.44-2.94,13.15-7.24,17.14-12.92,3.99-5.68,5.99-12.59,5.99-20.73,0-4.71-.73-9.06-2.19-13.04-1.46-3.99-3.75-7.57-6.86-10.76-3.11-3.18-7.11-5.97-11.98-8.35-4.87-2.38-10.7-4.29-17.47-5.73l-10.08-2.16c-3.86-.83-7.01-1.79-9.46-2.87-2.45-1.08-4.24-2.35-5.37-3.82-1.13-1.47-1.69-3.17-1.69-5.11,0-1.83.52-3.46,1.57-4.9,1.05-1.44,2.67-2.56,4.87-3.37,2.2-.8,5.01-1.2,8.43-1.2,5.4,0,9.43,1.12,12.1,3.37,2.67,2.24,4.14,5.39,4.42,9.43h32.06c-.06-8.09-2.05-15.16-5.99-21.23-3.94-6.07-9.53-10.77-16.77-14.12-7.24-3.35-15.85-5.03-25.82-5.03s-18.36,1.65-25.82,4.94c-7.46,3.3-13.32,7.89-17.56,13.79-4.24,5.9-6.36,12.78-6.36,20.65,0,9.69,3.13,17.35,9.38,22.97,6.25,5.62,14.8,9.6,25.65,11.92l12.39,2.66c4.57.94,8.21,1.99,10.91,3.16,2.7,1.16,4.64,2.45,5.83,3.86,1.18,1.41,1.78,3.06,1.78,4.94,0,2.05-.62,3.86-1.86,5.44-1.24,1.58-3.07,2.81-5.49,3.7-2.42.89-5.43,1.33-9.01,1.33-4.3,0-7.97-.66-11.03-1.99-3.06-1.33-5.43-3.29-7.11-5.9-1.68-2.6-2.63-5.79-2.85-9.55h-31.73c.05,10.36,2.28,18.86,6.69,25.51,4.41,6.65,10.59,11.56,18.55,14.75,7.96,3.19,17.28,4.78,27.97,4.78s19.33-1.47,26.77-4.4Z"/>
        </g>
      </g>
    </pattern>
  </defs>
  <g id="Layer_1-2" data-name="Layer 1">
    <rect class="cls-2" width="1600" height="725.79"/>
  </g>
</svg>