<?xml version="1.0" encoding="UTF-8"?>
<svg id="Layer_2" data-name="Layer 2" xmlns="http://www.w3.org/2000/svg" viewBox="0 0 54.9 75.33">
  <defs>
    <style>
      .cls-1 {
        fill: #dcff00;
        stroke-width: 0px;
      }
    </style>
  </defs>
  <g id="Layer_1-2" data-name="Layer 1">
    <g>
      <path class="cls-1" d="m12.58,6.37c0,3.44-2.78,6.21-6.21,6.21S.17,9.8.17,6.37,2.94.16,6.37.16s6.21,2.78,6.21,6.21Z"/>
      <path class="cls-1" d="m54.74,23.53v28.93c-.13,6.49-2.67,11.91-7.65,16.23-5.01,4.31-11.43,6.48-19.28,6.48s-14.83-2.16-19.84-6.48C2.96,64.36.39,58.95.26,52.45v-28.93c0-3.24,2.64-5.88,5.88-5.88h13.02c.43,0,.55.57.17.75-11.31,5.26-17.89,21.94,6.15,47.26,1.53,1.62,1.65,1.62,3.11,0,24.73-27.56,16.72-42.44,6.56-47.26-.38-.19-.25-.75.17-.75h13.54c3.25,0,5.88,2.63,5.88,5.88Z"/>
      <path class="cls-1" d="m34.24,31.68c0,3.99-3.24,7.23-7.24,7.23s-7.24-3.24-7.24-7.23,3.24-7.25,7.24-7.25,7.24,3.24,7.24,7.25Z"/>
      <path class="cls-1" d="m48.38,12.58c3.42,0,6.2-2.77,6.2-6.21S51.8.16,48.38.16s-6.21,2.78-6.21,6.21,2.78,6.21,6.21,6.21Z"/>
    </g>
  </g>
</svg>