<?xml version="1.0" encoding="UTF-8"?>
<svg id="Layer_2" data-name="Layer 2" xmlns="http://www.w3.org/2000/svg" viewBox="0 0 309.04 302.25">
  <defs>
    <style>
      .cls-1 {
        fill: #fff;
        stroke-width: 0px;
      }
    </style>
  </defs>
  <g id="Layer_1-2" data-name="Layer 1">
    <g>
      <path class="cls-1" d="m308.91,93.32c-.01-18.08-.11-36.15.08-54.23.08-7.23-4.08-13.7-12.65-14.95-4.54-.67-9.25-.21-13.88-.12-1.71.03-2.59,1.05-2.78,2.74-.1.95-.07,1.92-.06,2.88,0,4.8.01,9.59.03,14.39.01,3.09-.55,6.02-2.12,8.75-3.38,5.87-8.88,8.36-15.19,8.56-10.73.34-19.72-7.15-19.19-18.06.2-4.15.04-8.31.04-12.47,0-.96.05-1.93-.05-2.88-.22-2.26-1.31-3.51-3.56-3.86-1.42-.22-2.87-.19-4.31-.19-8.95-.01-17.91-.01-26.86,0-10.24,0-20.47-.03-30.7.03-4.21.02-5.07.93-5.11,5.07-.04,4.8.02,9.6-.03,14.4-.05,4.48-1.55,8.46-4.5,11.84-5.38,6.17-14.57,7.97-22.38,4.18-6.22-3.03-9.97-7.85-9.86-15.11.07-4.64-.03-9.28.14-13.92.17-4.92-.51-6.51-6.22-6.48-19.83.1-39.66.05-59.48.07-.96,0-1.93,0-2.87.17-1.22.21-1.98,1.02-2.06,2.3-.06,1.11-.05,2.23-.05,3.35,0,4.48.02,8.96,0,13.44-.02,3.43-.75,6.74-2.68,9.57-6.75,9.97-20.47,11.75-29.26,3.54-3.21-2.99-4.97-6.61-4.99-11.03-.01-2.56.03-5.12.01-7.68-.01-3.19.05-6.4-.13-9.59-.15-2.73-1.25-3.82-3.87-3.92-3.51-.13-7.04-.23-10.54-.03-6.74.38-12.02,5.06-13.31,11.74-.4,2.02-.44,4.13-.44,6.19-.02,64.15-.02,128.3-.03,192.45,0,15.52-.11,31.04-.01,46.55.05,9,4.18,15.54,12.49,19.3,3.59,1.63,7.37,1.94,11.24,1.94,43.65-.02,87.31-.01,130.96-.01h0s119.92.01,119.92.01c4.48,0,8.96,0,13.43-.01,10.51-.01,21.01-9.35,20.96-21.75-.26-62.39-.13-124.78-.13-187.17Zm-9.21,183.15c-.6,7.78-5.65,12.57-13.4,12.9-.96.04-1.92.01-2.88.01-85.87-.01-171.74-.02-257.6-.01-4.15,0-7.92-.78-11.07-3.68-2.98-2.74-4.66-6.02-4.63-10.13.04-5.6.03-11.2.03-16.8-.01-57.75-.03-115.5-.04-173.26,0-1.74.1-3.48.15-5.39,1.09-.36,1.53-.64,1.97-.64,94.98-.02,189.96-.02,284.94-.01.61,0,1.23.19,1.78.29,1.16,1.56.77,3.21.78,4.75.05,12.32.05,24.64.05,36.96.02,48.79.03,97.58.04,146.38,0,2.87.1,5.77-.12,8.63Z"/>
      <path class="cls-1" d="m271.03,26.63c0,4.94,0,9.89,0,14.83,0,1.11.03,2.24-.12,3.34-.61,4.46-2.96,6.8-7.45,7.37-1.25.16-2.56.16-3.82.03-4.83-.52-7.46-3.18-7.95-7.99-.1-.95-.06-1.91-.06-2.87-.02-10.05-.06-20.1,0-30.14.01-1.89.24-3.82.72-5.64.65-2.47,2.37-4.17,4.87-4.81,1.68-.43,3.45-.8,5.16-.73,5.08.21,8.22,3.35,8.68,8.43.1,1.11.04,2.23.04,3.35,0,4.94,0,9.89,0,14.83h-.04Z"/>
      <path class="cls-1" d="m163.6,26.57c0,4.63,0,9.26,0,13.88,0,.96.04,1.92-.04,2.87-.43,5.65-3.1,8.43-8.69,8.87-1.56.12-3.19-.06-4.73-.38-3.12-.65-5.02-2.69-5.66-5.78-.29-1.39-.33-2.85-.33-4.27-.03-10.05-.06-20.11-.01-30.16,0-1.9.21-3.83.62-5.68.56-2.51,2.24-4.25,4.71-4.97,1.66-.49,3.47-1.05,5.14-.86,6.2.7,8.56,3.72,8.93,8.76.21,2.86.08,5.74.09,8.61,0,3.03,0,6.06,0,9.1h-.03Z"/>
      <path class="cls-1" d="m36.54,26.38c0-5.43.27-10.88-.07-16.29-.46-7.24,4.61-10.63,11.38-10.02,4.89.44,7.5,3.24,7.7,8.15.15,3.67.03,7.35.04,11.02,0,7.51.01,15.01.01,22.52,0,1.12.05,2.24-.06,3.35-.41,4.09-3.04,6.85-7.08,7.12-2.04.14-4.19.06-6.16-.42-3.83-.93-5.65-3.28-5.72-7.24-.11-6.07-.03-12.14-.03-18.21,0,0,0,0-.01,0Z"/>
      <path class="cls-1" d="m286.64,207.26c-.12,7.53-1.21,14.98-4.45,21.94-6.31,13.55-16.14,23.36-30.57,27.88-16.66,5.21-33.22,4.47-49.07-2.94-11.43-5.35-19.58-14.2-24.14-26.12-2.59-6.79-3.99-13.79-3.97-21.08.05-16.16.02-32.32.02-48.48,0-.95.02-1.92.13-2.87,1.03-8.34,6.74-12.59,13.67-12.89,4.15-.17,8.31-.08,12.47-.1,4.64-.02,9.27-.06,13.91-.05,1.41,0,2.81.16,4.7.28-.44,1.06-.53,1.92-1,2.31-2.59,2.13-5.36,4.04-7.91,6.2-6.71,5.67-9.83,13.23-11.05,21.7-1.28,8.93.55,17.53,3.38,25.88,3.87,11.44,9.8,21.87,16.92,31.58,2.26,3.08,5,5.81,7.56,8.67.5.57,1.18.98,1.95,1.61,1.07-.97,2.09-1.72,2.89-2.66,9.12-10.61,16.73-22.19,22.27-35.08,3.37-7.83,5.5-16.01,6.14-24.52.16-2.2-.22-4.47-.61-6.66-1.33-7.55-3.99-14.51-9.74-19.88-1.73-1.62-3.78-2.92-5.72-4.32-1.03-.74-2.2-1.31-3.17-2.12-.41-.35-.74-1.18-.61-1.66.12-.47.83-.96,1.37-1.08.92-.21,1.9-.17,2.86-.16,8.79.02,17.59.07,26.38.09,3.44,0,6.62.68,9.53,2.66,2.5,1.71,4.28,3.89,4.97,6.8.55,2.32,1.06,4.71,1.07,7.08.03,15.99.07,31.99-.18,47.99Z"/>
      <path class="cls-1" d="m78.63,190.92v13.43c0,.96.04,1.93-.07,2.88-.4,3.32-2.5,5.55-5.8,6.1-.94.16-1.91.15-2.87.15-8.95.03-17.9.09-26.86.04-1.56-.01-3.19-.25-4.66-.75-3.03-1.04-4.62-3.3-4.73-6.53-.03-.8-.01-1.6-.01-2.4v-25.91c0-.8-.04-1.6.02-2.4.26-3.41,1.76-5.3,5.06-6.13,1.22-.31,2.52-.39,3.79-.4,9.11-.02,18.22,0,27.33.02.32,0,.64,0,.96.01,5.63.23,7.82,2.42,7.85,7.97.03,4.64.01,9.28.01,13.92h-.02Z"/>
      <path class="cls-1" d="m143.11,202.77c.01,1.74-.25,3.51-.63,5.21-.77,3.39-2.89,5.14-6.37,5.46-.95.09-1.91.04-2.87.04h-12.93c-3.99-.01-7.98,0-11.97-.01-1.12,0-2.25.07-3.35-.1-4.01-.59-6.56-3.34-6.92-7.4-.06-.63-.02-1.27-.02-1.91.01-8.95.01-17.89.03-26.83,0-.95.02-1.93.21-2.85.5-2.36,1.79-4.12,4.22-4.72,1.38-.34,2.81-.63,4.23-.64,9.41-.05,18.83-.02,28.25-.02.48,0,.96-.01,1.43.05,4.12.44,5.98,2.3,6.31,6.42.14,1.75.12,3.51.14,5.27.1,7.34.23,14.68.24,22.03Z"/>
      <path class="cls-1" d="m78.62,141.41c0,.96.01,1.92-.12,2.87-.52,3.73-2.52,5.7-6.24,6.1-1.1.11-2.23.07-3.35.07-4.14.01-8.29,0-12.44,0v-.04c-4.31,0-8.62,0-12.93-.01-1.12,0-2.25.06-3.35-.09-4.05-.57-6.2-2.91-6.52-7.01-.06-.79-.04-1.6-.04-2.39,0-8.63-.01-17.25.02-25.87.02-6.79,2.01-8.82,8.88-8.88,9.25-.09,18.5-.1,27.76-.03,6.21.05,8.28,2.22,8.31,8.45.04,8.95.03,17.89.02,26.83Z"/>
      <path class="cls-1" d="m78.65,266.95c0,.96.05,1.92-.05,2.87-.37,3.66-2.49,5.83-6.08,6.26-.94.11-1.91.07-2.87.08-8.77.03-17.54.06-26.31.06-1.27,0-2.58.01-3.8-.26-3.67-.83-5.67-3.34-5.87-7.14-.05-.96-.01-1.92-.01-2.88.01-7.97.01-15.95.02-23.93,0-.64.04-1.28-.02-1.91-.38-4.43,1.43-8.02,7.68-8.04,9.89-.04,19.77-.02,29.66-.03.48,0,.96.02,1.44.07,3.88.48,6.05,2.68,6.2,6.61.13,3.5.02,7.02.01,10.53v17.71Z"/>
      <path class="cls-1" d="m142.95,139.78c0,1.75-.17,3.53-.53,5.24-.69,3.26-2.61,4.92-5.92,5.36-.78.11-1.59.08-2.39.08-8.79-.02-17.57-.02-26.36-.1-1.57-.01-3.18-.23-4.71-.63-2.75-.72-4.26-2.7-4.72-5.46-.18-1.09-.2-2.23-.2-3.34,0-8.63.01-17.26.05-25.9.01-1.27.11-2.56.36-3.8.52-2.61,2.17-4.2,4.76-4.79.77-.17,1.58-.31,2.37-.32,5.11-.03,10.22-.01,15.33-.01v-.04h12.93c.8,0,1.6-.03,2.4.02,3.87.27,5.78,2.03,6.34,5.89.11.78.12,1.59.12,2.39.07,8.47.16,16.94.17,25.41Z"/>
      <path class="cls-1" d="m143.03,265.63c.01,1.59-.07,3.2-.35,4.76-.67,3.77-2.7,5.49-6.52,5.73-.96.06-1.92.02-2.87.03-8.3.01-16.59.02-24.89.03-1.11,0-2.24.06-3.34-.08-4.12-.53-6.59-3.14-6.94-7.28-.07-.8-.02-1.6-.01-2.4.03-8.45.07-16.91.11-25.37,0-.48-.03-.96-.01-1.44.22-5.29,2.32-7.38,7.74-7.6,1.91-.08,3.83-.03,5.75-.04h9.09v.03c4.62,0,9.25-.01,13.88,0,1.11,0,2.25-.03,3.33.16,2.77.51,4.46,2.39,4.8,5.21.1.79.07,1.6.07,2.39.06,8.62.14,17.24.16,25.86Z"/>
      <path class="cls-1" d="m281.98,121.12c-.1,7.77-5.24,13.98-11.88,15.76-9.21,2.46-18.91-3.43-20.4-13.65-.64-4.36.94-8.33,3.77-11.51,4.85-5.45,11.21-7.4,18.68-4.77,2.18.76,3.84,2.31,5.3,4.01,2.78,3.24,4.46,6.96,4.53,10.16Z"/>
      <path class="cls-1" d="m229.58,190.77c-7.39.26-14.57-5.78-15.65-14.04-1.04-7.86,3.49-14.88,10.72-17.1,6.02-1.84,14.99-.12,19.28,8.48,5.31,10.65-3.37,23-14.35,22.66Z"/>
      <path class="cls-1" d="m209.19,121.41c.04,9.14-7.33,16.47-16.56,16.06-9.8-.43-15.76-9.22-15.41-15.91-.15-7.47,6.26-15.43,16.15-15.7,8.22-.22,15.78,7.54,15.82,15.55Z"/>
    </g>
  </g>
</svg>