<?xml version="1.0" encoding="utf-8"?>
<!-- Generator: Adobe Illustrator 28.0.0, SVG Export Plug-In . SVG Version: 6.00 Build 0)  -->
<svg version="1.1" xmlns="http://www.w3.org/2000/svg" xmlns:xlink="http://www.w3.org/1999/xlink" x="0px" y="0px"
	 viewBox="0 0 750 500" style="enable-background:new 0 0 750 500;" xml:space="preserve">
<style type="text/css">
	.st0{display:none;}
	.st1{fill:#161616;}
	.st2{opacity:6.000000e-02;}
	.st3{clip-path:url(#SVGID_00000116931057235249677360000004182958932192178876_);}
	.st4{fill:#444444;}
	.st5{fill:none;stroke:#444444;stroke-miterlimit:10;}
</style>
<g id="BACKGROUND" class="st0">
	<rect class="st1" width="750" height="500"/>
</g>
<g id="OBJECTS">
	<g class="st2">
		<g>
			<defs>
				<rect id="SVGID_1_" width="750" height="500"/>
			</defs>
			<clipPath id="SVGID_00000165950851390651732250000006232736032865852600_">
				<use xlink:href="#SVGID_1_"  style="overflow:visible;"/>
			</clipPath>
			<g style="clip-path:url(#SVGID_00000165950851390651732250000006232736032865852600_);">
				<g>
					<path class="st4" d="M264,464c-0.8,0-1.6-0.1-2.3-0.4c-2.9-1.1-4-4-5-6.5c-0.4-1-0.7-1.9-1.2-2.7c-2.6-4.8-9.1-6.2-13.9-5.9
						c-2.8,0.2-5.6,0.8-8.5,1.4c-2.9,0.6-5.9,1.2-8.9,1.4c-17.3,1.1-31-10.8-44.2-22.3c-2.8-2.5-5.8-5-8.6-7.3
						c-12.9-10.4-28.2-18.4-44.1-23l-0.2-0.1c-3.4-1-7.3-2.1-9.6-5.2c-2.4-3.2-2.2-7.1-2.1-10.8c0-1.4,0.1-2.7,0-4
						c-0.5-7.4-6.2-14.2-13.4-15.9c-2.7-0.6-5.4-0.7-8.3-0.7c-1.3,0-2.6,0-3.9-0.1c-6.1-0.3-12.4-1.8-18.4-3.3
						c-12-2.9-23.3-5.6-32.7,0.5c-1.1,0.7-2.1,1.5-3.3,2.4c-2.7,2.1-5.4,4.2-8.9,4.8c-3.9,0.6-7.8-1-10.8-2.2L-28,345.7l1.2-2.8
						l43.5,18.2c3.5,1.4,6.3,2.5,9.2,2c2.8-0.4,5.1-2.3,7.5-4.2c1.1-0.9,2.3-1.8,3.5-2.6c10.5-6.8,23-3.8,35-0.9
						c5.9,1.4,12.1,2.9,17.9,3.2c1.2,0.1,2.5,0.1,3.8,0.1c3,0,6,0,9,0.8c8.5,2.1,15.1,9.9,15.7,18.7c0.1,1.4,0,2.9,0,4.3
						c-0.1,3.4-0.2,6.6,1.5,8.9c1.7,2.3,4.9,3.2,8.1,4.1l0.2,0.1c16.3,4.7,31.9,12.8,45.2,23.5c2.9,2.4,5.9,4.9,8.7,7.4
						c12.8,11.1,26,22.6,42.1,21.6c2.8-0.2,5.6-0.8,8.5-1.4c2.9-0.6,5.9-1.2,8.9-1.4c6-0.4,13.5,1.4,16.7,7.4c0.5,1,0.9,2,1.3,3.1
						c0.9,2.2,1.6,4.1,3.3,4.8c1.3,0.5,2.9,0.1,4.6-0.5c27.9-8.8,54.3-21.6,78.5-38c4.3-2.9,8.4-5.9,10.7-10.2
						c2.1-3.8,2.5-9.4-0.8-12.7c-2.4-2.3-5.8-2.9-9.5-3.5c-2.5-0.4-5.1-0.8-7.5-1.8c-5.8-2.5-9.3-7.8-12.7-13
						c-3.2-4.9-6.2-9.5-11-11.8c-0.7-0.3-1.4-0.6-2.1-0.9c-2-0.8-4.1-1.5-5.7-3.3c-1.7-1.9-2.2-4.4-2.5-6.8c-0.6-4.4,0.1-8,0.7-11.4
						c0.4-2.2,0.8-4.6,0.9-7.1c0.1-2.5-0.5-5.1-1.1-7.7c-0.7-3-1.4-6.1-1.2-9.4c0.5-6.4,4.6-12.7,12.2-18.5c1.6-1.2,3.3-2.4,4.9-3.6
						c4.3-3,8.4-5.9,11.5-9.8c2.9-3.7,4.9-8.2,6.9-12.6c2.6-5.8,5.2-11.8,10.1-16.2c2.5-2.2,5.4-3.9,8.3-5.5
						c4.1-2.3,8.1-4.6,10.4-8.3c0.6-0.9,1-1.8,1.5-2.8c0.5-1,1-2.1,1.7-3.2c4-6.3,10.1-7.7,16-9c5-1.1,9.8-2.1,13.1-6.2
						c10.1-12.4,9.5-27.5,3.2-34.4c-5.6-6.1-12.8-6.9-20.5-7.7c-4.4-0.5-8.9-1-13.2-2.5c-9.9-3.6-8.1-11.2-6.6-17.9
						c1.1-4.7,2.2-9.6-0.2-13.4c-0.4-0.6-0.9-1.1-1.4-1.7c-0.9-1-1.8-2.1-2.4-3.5c-1.3-3.4,0.2-6.6,1.7-9.7c0.8-1.6,1.5-3,1.8-4.5
						c1.2-5.2-2.9-10.4-7.4-12.2c-4.4-1.8-10.1-1.4-16,1.1c-0.5,0.2-1.1,0.5-1.7,0.7c-4.4,1.9-9.5,4.1-14.1,1.7
						c-6.2-3.3-5.7-11.9-5.2-15.9c-4.8-2.6-8.5-6.6-12.1-10.5c-4.3-4.6-8.3-9-13.9-10.9c-2.9-1-6.2-1.4-9.4-1.7
						c-6.2-0.7-12.6-1.4-16.4-6.6c-3.1-4.3-3.1-10.7,0-16.3c2.7-4.8,7.1-8.4,10.9-11.6L296,34.5c2.4-1.9,4.8-4,6.4-6.5
						c1.3-2.1,1.9-4.6,2.5-7.2c0.4-1.6,0.8-3.3,1.4-4.9c3.1-8.5,9.4-11.5,16-14.7c1.7-0.9,3.6-1.7,5.3-2.7c1.8-1,3.5-2.2,5.4-3.4
						c7.2-4.7,14.7-9.6,24.2-6.4l-0.9,2.8c-8.1-2.7-14.7,1.6-21.7,6.1c-1.8,1.2-3.7,2.4-5.6,3.5c-1.8,1-3.7,1.9-5.5,2.8
						c-6.3,3.1-11.8,5.7-14.5,13.1c-0.5,1.5-0.9,3-1.3,4.6c-0.7,2.7-1.4,5.5-2.9,8c-1.8,3-4.6,5.3-7,7.3l-18.4,15.1
						c-3.8,3.2-7.8,6.4-10.2,10.7c-2.1,3.7-2.9,9.2-0.2,13.1c3,4.2,8.5,4.7,14.3,5.4c3.4,0.4,6.9,0.7,10.1,1.9
						c6.2,2.2,10.7,7,15.1,11.7c3.8,4.1,7.5,8.1,12.2,10.3l1,0.5l-0.1,1.1c-1,7.6,0.2,12.2,3.5,13.9c3.3,1.8,7.5,0,11.5-1.8
						c0.6-0.2,1.1-0.5,1.7-0.7c4.7-1.9,11.7-3.7,18.3-1.1c7.4,2.9,10.5,10.2,9.2,15.6c-0.4,1.8-1.2,3.5-2.1,5.1
						c-1.3,2.7-2.5,5-1.6,7.3c0.4,0.9,1.1,1.8,1.8,2.7c0.6,0.6,1.1,1.3,1.6,2.1c3.2,4.9,1.8,10.7,0.6,15.7
						c-1.7,7.5-2.4,11.8,4.7,14.4c3.9,1.4,8.1,1.9,12.5,2.3c7.9,0.8,16.1,1.7,22.4,8.6c5.7,6.2,5.9,14,5.1,19.6
						c-0.9,6.6-4,13.6-8.2,18.7c-4,4.9-9.5,6.1-14.8,7.3c-5.5,1.2-10.7,2.3-14.1,7.6c-0.6,0.9-1,1.8-1.5,2.9c-0.5,1-1,2.1-1.7,3.2
						c-2.7,4.3-7.2,6.9-11.4,9.3c-2.7,1.5-5.5,3.1-7.8,5.1c-4.4,3.9-6.8,9.4-9.3,15.1c-2,4.6-4.1,9.3-7.3,13.3
						c-3.4,4.2-7.8,7.4-12.1,10.4c-1.6,1.1-3.2,2.3-4.8,3.5c-6.9,5.3-10.6,10.8-11.1,16.4c-0.2,2.8,0.4,5.6,1.1,8.5
						c0.6,2.7,1.3,5.6,1.2,8.5c-0.1,2.7-0.5,5.2-1,7.5c-0.6,3.4-1.2,6.6-0.7,10.5c0.3,1.9,0.6,3.9,1.8,5.2c1.1,1.2,2.7,1.8,4.5,2.5
						c0.8,0.3,1.6,0.6,2.3,0.9c5.6,2.6,9,7.8,12.3,12.8c3.3,5,6.3,9.8,11.3,11.9c2.1,0.9,4.4,1.2,6.8,1.6c4,0.6,8.1,1.3,11.1,4.3
						c4.4,4.3,4,11.5,1.3,16.3c-2.7,4.8-7.2,8.2-11.7,11.2c-24.4,16.6-51.1,29.5-79.2,38.4C266.8,463.6,265.4,464,264,464z"/>
				</g>
				<g>
					<path class="st4" d="M683.7,435.3c-9.1,0-18-3.5-25.8-7c-5.2-2.3-10.6-5-13.3-10.1c-1.2-2.2-1.7-4.5-2.2-6.8
						c-0.2-1-0.5-2-0.8-3c-5-17-25.5-23.7-41.5-24.4c-5.9-0.2-12.1,0-18,0.3c-11.8,0.5-23.9,1-35.4-2.4
						c-17.7-5.1-32.1-19.3-37.6-36.8c-5.5-17.6-1.8-37.4,9.8-51.7c7.7-9.6,18.4-16.2,27.8-21.5c24.9-13.9,47.2-20.9,68.2-21.3
						c17.2-0.3,34.2,3.8,50.7,7.8c12.3,3,25.1,6.1,37.8,7.2c3,0.3,6.1,0.5,9.1,0.6c9,0.5,18.4,1.1,27,4.3c3,1.1,5.9,2.6,8.7,4
						c6.4,3.2,12.4,6.1,19,5.7l0.2,3c-7.4,0.5-14.1-2.8-20.5-6c-2.8-1.4-5.6-2.8-8.5-3.9c-8.2-3.1-17.3-3.6-26.1-4.1
						c-3-0.2-6.1-0.4-9.2-0.6c-12.9-1.2-25.8-4.3-38.2-7.3c-16.2-3.9-33-8-49.9-7.7c-20.4,0.4-42.3,7.2-66.8,20.9
						c-9.2,5.1-19.5,11.6-26.9,20.8c-10.8,13.4-14.4,32.6-9.3,49c5.2,16.4,19.1,30.1,35.6,34.8c11.1,3.2,23,2.7,34.5,2.2
						c6-0.3,12.2-0.5,18.3-0.3c17,0.7,38.8,8.1,44.3,26.6c0.3,1.1,0.6,2.1,0.8,3.2c0.5,2.2,1,4.2,2,6c2.3,4.2,7.1,6.6,11.9,8.7
						c9.1,4,19.6,8.1,29.9,6.2c6.1-1.1,11.5-4.2,17.2-7.4c3-1.7,6.2-3.5,9.4-4.9c18.1-8.1,40.8-5.4,56.5,6.8l-1.8,2.4
						c-14.8-11.5-36.3-14.1-53.5-6.5c-3.1,1.4-6.2,3.1-9.2,4.8c-5.7,3.2-11.6,6.6-18.2,7.8C687.6,435.2,685.6,435.3,683.7,435.3z"/>
				</g>
				<g>
					<path class="st4" d="M638,133.4c-8.4,0-16.8-2-25.3-4.2c-7.5-2-14.7-4.1-20.7-8.5c-7-5.2-10.7-13.1-9.6-20.2
						c0.4-2.3,1.2-4.4,1.9-6.4c0.7-1.9,1.4-3.7,1.7-5.5c1.3-7.7-3.3-14.4-8.3-21.4c-2.7-3.8-5.5-7.8-7.3-12c-4.8-11-3.3-25.3,4-38.4
						c5.5-9.9,13.4-18.1,21.1-26.2c1.2-1.3,2.5-2.6,3.7-3.9l2.2,2.1c-1.2,1.3-2.4,2.6-3.7,3.9c-7.5,7.9-15.3,16-20.7,25.6
						c-6.9,12.3-8.3,25.6-3.9,35.7c1.7,3.9,4.4,7.8,7,11.5c5.1,7.3,10.4,14.8,8.8,23.7c-0.4,2.1-1.1,4.2-1.9,6.1
						c-0.8,2-1.5,3.8-1.8,5.8c-0.9,6,2.4,12.8,8.5,17.3c5.5,4.1,12.1,6,19.6,8c11.3,2.9,22.3,5.4,33.1,3.3c10-2,20.8-9.7,22.2-20.6
						c0.4-2.8,0.1-5.7-0.2-8.7c-0.2-2.3-0.5-4.7-0.4-7.2c0.2-5.9,3.1-12.5,9-14c2.2-0.6,4.3-0.3,6.4-0.1c2.3,0.2,4.5,0.5,6.3-0.5
						c2.9-1.5,3.5-5,4.2-9.1c0.4-2.6,0.8-5.3,1.9-7.6c3.9-8.3,15.2-9.9,23.9-6.7c4.2,1.5,8,3.9,11.7,6.1c3.4,2,6.9,4.2,10.5,5.6
						c9.3,3.6,20.4,2.8,29.1-2.1l1.5,2.6c-9.6,5.5-21.4,6.3-31.7,2.3c-3.9-1.5-7.5-3.7-11-5.8c-3.6-2.2-7.2-4.4-11.1-5.8
						c-7.3-2.7-17-1.5-20.2,5.1c-0.9,2-1.3,4.4-1.7,6.8c-0.7,4.5-1.5,9.1-5.8,11.3c-2.6,1.3-5.3,1-8,0.8c-1.9-0.2-3.8-0.4-5.4,0
						c-4.4,1.1-6.6,6.6-6.8,11.2c-0.1,2.2,0.1,4.4,0.4,6.8c0.3,3,0.6,6.2,0.2,9.3c-1.1,9-9.3,20.1-24.6,23.1
						C644.1,133.1,641,133.4,638,133.4z"/>
				</g>
				<g>
					<path class="st4" d="M682.4,414.6c-10.5,0-18.9-2.9-25.1-8.7c-3.7-3.5-6.3-7.9-8.9-12.1c-1.9-3.2-3.9-6.4-6.3-9.3
						c-8.2-9.9-21.4-15.7-41.4-18.3c-3.6-0.5-7.2-0.8-10.8-1.2c-11.8-1.2-24-2.5-35.1-7.2c-6.8-2.9-11.9-6.7-15.1-11.2
						c-5.8-8.2-6.1-20.2-0.8-30.6c4.2-8.2,11.5-15.5,22.3-22.2c14.9-9.2,32-15,49.4-16.8c17.3-1.7,34.8,0.5,51.7,2.6l42.8,5.4
						c18.3,2.3,37.2,4.7,54.5,12.3l-0.4,0.9c-17.1-7.5-36-9.9-54.2-12.2l-42.8-5.4c-16.9-2.1-34.3-4.3-51.5-2.6
						c-17.3,1.7-34.2,7.5-49,16.7c-10.7,6.6-17.9,13.8-22,21.8c-5.1,10.1-4.8,21.7,0.7,29.6c3.1,4.4,8,8.1,14.6,10.9
						c10.9,4.6,23.1,5.9,34.8,7.1c3.6,0.4,7.2,0.7,10.8,1.2c20.3,2.6,33.6,8.6,42,18.6c2.4,2.9,4.4,6.2,6.4,9.4
						c2.5,4.2,5.2,8.5,8.7,11.9c10.6,10.1,28.3,11.2,52.5,3.2l1.9-0.6c17.1-5.6,36.4-12,52.6-3.9l-0.4,0.9c-15.9-8-35-1.6-51.9,3.9
						l-1.9,0.6C700.1,412.9,690.6,414.6,682.4,414.6z"/>
				</g>
				<g>
					<path class="st4" d="M713.2,358.2c-4.9,0-9.2-2.4-13.5-4.7c-2.9-1.6-6-3.3-9.2-4.1c-2.2-0.6-4.6-0.8-6.9-1
						c-1.9-0.2-3.8-0.3-5.8-0.7c-5.2-1-9-3.9-10.2-7.6c-1.3-4.4,1.4-9.1,4.7-11.4c3.9-2.7,8.9-3.1,12.2-3.3l0,0
						c8.8-0.3,27.5,0.6,35.6,6.5c5.4,3.9,7.7,11,5.7,17.2C724.2,354.8,719.4,358.2,713.2,358.2C713.2,358.2,713.2,358.2,713.2,358.2
						z M684.7,326.4L684.7,326.4c-3.3,0.1-8,0.6-11.7,3.1c-3.1,2.1-5.6,6.3-4.4,10.3c1,3.4,4.5,6,9.4,6.9c1.8,0.4,3.8,0.5,5.6,0.7
						c2.3,0.2,4.8,0.4,7.1,1c3.3,0.9,6.4,2.6,9.4,4.2c4.3,2.3,8.4,4.6,13,4.6c0,0,0,0,0,0c5.7,0,10.2-3.1,11.9-8.3
						c1.9-5.8-0.3-12.4-5.3-16.1C711.9,327,693.4,326.1,684.7,326.4z"/>
				</g>
				<g>
					<path class="st4" d="M711,377.8c-5.8,0-11.3-1.1-16.2-3.5c-3.5-1.7-6.8-3.8-9.9-5.8c-4.2-2.7-8.5-5.5-13.5-7.3
						c-1.4-0.5-2.9-1-4.4-1.5c-10-3.4-20.4-6.9-26-16.7c-3.3-5.8-3.7-12-1.1-17.9c3.5-8,12.5-14.9,22.2-17.1
						c14.2-3.2,27.4-2.5,43,2.1l0,0c7.9,2.4,14.3,4.7,19.9,7.4c15.4,7.3,24.5,15.4,27,24c2.1,6.9-1.1,13.5-4.2,17.9
						c-3.5,5-8.8,9.7-14.1,12.5C726.5,375.8,718.6,377.8,711,377.8z M679.4,307.1c-5.7,0-11.3,0.6-17.1,1.9
						c-9.5,2.1-18.1,8.7-21.6,16.5c-2.5,5.6-2.1,11.5,1.1,17c5.4,9.5,15.6,12.9,25.5,16.2c1.5,0.5,2.9,1,4.4,1.5
						c5.1,1.8,9.5,4.6,13.7,7.4c3.1,2,6.3,4.1,9.8,5.7c11,5.2,25.6,4.3,38.1-2.4c9.2-4.9,21.2-17.6,17.8-29.2
						c-2.5-8.3-11.4-16.2-26.5-23.4c-5.6-2.7-11.9-5-19.8-7.3l0,0C695.8,308.5,687.5,307.1,679.4,307.1z"/>
				</g>
				<g>
					<path class="st4" d="M683.3,395c-9,0-16.9-3.1-21.7-8.5c-1.3-1.5-2.5-3.3-3.6-4.9c-0.8-1.2-1.5-2.4-2.4-3.5
						c-6-8-15.8-12.2-22.7-14.7c-2.5-0.9-5.1-1.8-7.6-2.6c-6.2-2-12.5-4.1-18.3-7.3c-9.5-5.2-15.8-12.8-17.4-21
						c-1.7-8.7,1.9-18.4,9.3-25.5c5.8-5.6,13.9-9.7,24.8-12.6c21.3-5.8,45.3-5.6,71.5,0.5c22.1,5.1,42.9,13.7,67.5,24.9l-0.4,0.9
						c-24.5-11.2-45.3-19.7-67.3-24.8c-26-6-49.8-6.2-71-0.5c-10.7,2.9-18.6,6.9-24.3,12.4c-7.2,6.9-10.6,16.3-9,24.6
						c1.5,7.9,7.7,15.3,16.9,20.3c5.7,3.1,12,5.2,18.1,7.2c2.5,0.8,5.1,1.7,7.6,2.6c7,2.5,17,6.8,23.2,15c0.9,1.1,1.7,2.4,2.4,3.5
						c1.1,1.6,2.2,3.3,3.5,4.8c5.2,6,14.5,9,24.7,8c6.8-0.6,13.5-2.7,19.9-4.8c2.1-0.7,4.3-1.4,6.5-2c17.7-5.1,35.9-6.9,54.2-5.3
						l-0.1,1c-18.2-1.6-36.3,0.2-53.8,5.2c-2.2,0.6-4.4,1.3-6.5,2c-6.5,2-13.2,4.2-20.1,4.8C685.8,394.9,684.5,395,683.3,395z"/>
				</g>
				<g>
					<path class="st4" d="M629.2,112.8c-4.8,0-10-1.4-15.9-4.2c-3.6-1.7-7.9-4.3-10.1-8.5c-2.1-4.1-1.7-8.8-1.4-13.3l0-0.3
						c0.6-7.8,0.6-16-2.9-22.7c-1.6-3-3.9-5.6-6-8.1c-1.8-2.1-3.6-4.2-5.2-6.5c-5.5-8.6-6.3-20.6-2-31.3
						c3.7-9.1,10.9-17.5,20.8-24.3l0.6,0.8c-9.8,6.6-16.8,14.9-20.4,23.8c-4.2,10.4-3.4,22.1,1.9,30.4c1.5,2.3,3.3,4.4,5.1,6.4
						c2.2,2.6,4.5,5.2,6.2,8.3c3.7,6.9,3.7,15.2,3.1,23.2l0,0.3c-0.3,4.4-0.7,9,1.3,12.8c2,4,6.2,6.4,9.7,8c6.8,3.3,12.6,4.6,17.9,4
						c7.2-0.8,13.9-5.5,17.1-12c1.7-3.4,2.5-7.3,3.2-11c0.3-1.7,0.7-3.4,1.1-5.1c1.2-4.8,3.9-11.2,9.4-13.8c1.6-0.8,3.3-1.1,5-1.5
						c1.6-0.4,3.2-0.7,4.7-1.4c5.3-2.4,7.6-7.9,10-13.8c2-4.9,4.1-10,8.2-13.3c5.2-4.1,13.4-4.7,22-1.5c3.3,1.2,6.5,2.9,9.5,4.4
						c3.5,1.8,7.2,3.7,10.9,4.9c11.5,3.8,24.8,1.8,34.7-5.2l0.6,0.8c-10.1,7.2-23.8,9.3-35.6,5.4c-3.9-1.3-7.5-3.2-11.1-5
						c-3-1.6-6.2-3.2-9.4-4.4c-8.2-3.1-16.1-2.6-21,1.3c-3.9,3.1-5.9,8.1-7.9,12.9c-2.4,5.8-4.8,11.7-10.5,14.3
						c-1.6,0.7-3.3,1.1-4.9,1.5c-1.6,0.4-3.3,0.7-4.8,1.4c-5.2,2.4-7.7,8.5-8.9,13.1c-0.4,1.7-0.8,3.4-1.1,5
						c-0.8,3.8-1.5,7.7-3.3,11.2c-3.3,6.8-10.4,11.7-17.9,12.5C630.9,112.7,630.1,112.8,629.2,112.8z"/>
				</g>
				<g>
					<path class="st4" d="M626.3,71.8c-0.9,0-1.9-0.1-2.7-0.4c-3.4-1.2-6-4.8-6.8-9.7c-0.3-1.6-0.4-3.3-0.5-4.9
						c-0.2-2.3-0.4-4.7-1-6.9c-1-3.5-3.1-6.5-5.2-9.5c-2.2-3.1-4.4-6.4-5.4-10.1c-3.1-11.2,5.9-21.5,9.9-25.4
						c4.6-4.5,9.9-8.3,15.6-11.3l0.5,0.9c-5.6,3-10.8,6.7-15.4,11.2c-3.9,3.8-12.5,13.7-9.6,24.5c1,3.6,3.2,6.7,5.3,9.8
						c2.1,3,4.3,6.2,5.3,9.8c0.7,2.3,0.9,4.8,1,7.1c0.1,1.6,0.2,3.2,0.5,4.8c0.8,4.6,3.1,7.9,6.2,9c1.3,0.5,2.9,0.5,4.5,0.1
						c4.8-1.1,7.7-5.2,10.9-9.4c1.7-2.3,3.4-4.7,5.5-6.6c2.9-2.7,6.5-4.5,10-6.2c2.4-1.2,5-2.4,7.2-4c7.5-5.2,12.7-14.3,14-24.9
						c1.1-8.5-0.1-17.8-3.6-29.2l1-0.3c3.6,11.5,4.7,21,3.6,29.7c-1.4,10.9-6.7,20.3-14.4,25.6c-2.3,1.6-4.9,2.8-7.3,4.1
						c-3.4,1.7-6.9,3.4-9.7,6c-2,1.8-3.7,4.2-5.3,6.4c-3.1,4.2-6.3,8.6-11.4,9.8C627.8,71.7,627,71.8,626.3,71.8z"/>
				</g>
				<g>
					<path class="st4" d="M745.2,33.9c-2.7,0-5.5-0.1-8.2-0.3c-8.3-0.6-17-1.4-24.7-4.9c-13.4-6-22.6-20.5-22.6-35.1l1,0
						c0,14.3,9,28.3,22,34.2c7.6,3.4,16.2,4.2,24.3,4.8c9,0.6,18.5,0.8,26.2-3.6l0.5,0.9C758.2,33,751.8,33.9,745.2,33.9z"/>
				</g>
				<g>
					<path class="st4" d="M745,13.4c-0.4,0-0.9,0-1.3,0c-8.9-0.2-17-2.5-23.4-6.7c-6-3.9-9.4-9.4-9.1-14.7l1,0.1
						c-0.3,4.9,3,10,8.7,13.8c6.2,4.1,14.1,6.3,22.9,6.5c7,0.1,14.6-1,23.9-3.5l0.3,1C759,12.3,751.7,13.4,745,13.4z"/>
				</g>
				<g>
					<path class="st4" d="M641.7,33.2c-1.8,0-3.5-0.5-4.8-1.5c-3.3-2.4-4.3-7-3.1-13.7c0.6-3.1,1.4-6.8,3.2-10
						c0.8-1.4,1.8-2.8,2.7-4.2c2.2-3.1,4.3-6.1,4.2-9.6l1,0c0.1,3.9-2.2,7.1-4.4,10.2c-0.9,1.3-1.9,2.7-2.7,4.1
						c-1.7,3.1-2.5,6.7-3.1,9.7c-1.2,6.3-0.2,10.6,2.7,12.7c2.2,1.6,5.7,1.7,8.6,0.2c2.3-1.2,4.4-3.3,6.5-6.6
						c6.7-10.5,8.3-24.3,4.2-36l0.9-0.3c4.2,12,2.5,26.2-4.3,36.9c-2.2,3.4-4.4,5.6-6.9,7C645,32.8,643.3,33.2,641.7,33.2z"/>
				</g>
				<g>
					<path class="st5" d="M-13.6,107.1c3.8,5.5,9.2,9.7,14.7,13.4c18.3,12.2,39.4,20.6,61.3,22s44.6-4.2,62-17.6
						c8.2-6.3,15.2-14.2,24.1-19.5C162.7,97,179.9,96,196,93c16.2-3,33.4-9.5,41.1-24.1c3.4-6.4,4.6-13.9,9-19.7
						c6.3-8.1,17.6-10.6,25-17.6c7-6.6,9.8-16.4,15.2-24.3c6.3-9.3,16.2-16,27.2-18.3"/>
					<path class="st5" d="M-13.7,94.7c3.3,4.8,8,8.4,12.8,11.7c15.8,10.7,34.2,18.1,53.2,19.5c19,1.5,38.7-3.3,54.1-14.4
						c2.5-1.8,4.9-3.7,7.3-5.8c4.7-4.1,9-8.4,14-11.8c2-1.4,4.1-2.5,6.3-3.5c9.1-4.3,19.7-5.9,30-7.6c1.9-0.3,3.8-0.6,5.6-1
						c8.3-1.5,16.9-3.8,24.1-8c5.4-3.1,10.1-7.3,13.2-12.7c3.2-5.6,4.6-12.2,8.5-17.3c5.7-7.3,15.4-10,21.7-16.5
						c2.5-2.6,4.4-5.7,6.1-9c2.2-4.4,4-9,6.5-13.1c5.1-8.5,13.4-14.8,22.9-17.4"/>
					<path class="st5" d="M-13.8,82.4c2.8,4,6.8,7.2,10.9,10c13.4,9.2,28.9,15.6,45.1,17c16.2,1.5,32.8-2.4,46.1-11.3
						c2.3-1.5,4.5-3.1,6.6-4.9c4.2-3.6,7.7-7.6,11.8-10.9c1.6-1.3,3.4-2.4,5.2-3.4c7.6-4.3,17-6,26.2-7.5c1.7-0.3,3.3-0.5,5-0.8
						c7.4-1.3,15-3.1,21.5-6.6c4.9-2.6,9.1-6.1,12-10.8c3-4.8,4.5-10.4,8.1-15c5-6.4,13.2-9.3,18.4-15.3c2.1-2.4,3.6-5.2,4.9-8.1
						c1.8-3.9,3.2-8,5.1-11.8c4-7.7,10.5-13.7,18.6-16.4"/>
					<path class="st5" d="M-13.9,70c2.4,3.3,5.6,5.9,8.9,8.2c11,7.7,23.7,13,37,14.5c13.3,1.5,26.9-1.4,38.2-8.1
						c2-1.2,4.1-2.4,5.9-4c3.7-3.1,6.4-6.8,9.7-10c1.3-1.2,2.6-2.4,4.1-3.3c6.2-4.2,14.3-6.1,22.3-7.4c1.5-0.2,2.9-0.5,4.4-0.7
						c6.4-1,13.1-2.4,18.9-5.2c4.3-2.1,8.1-5,10.9-8.9c2.9-3.9,4.5-8.7,7.6-12.6c4.4-5.6,10.9-8.7,15.1-14.2
						c1.6-2.2,2.8-4.7,3.8-7.3c1.3-3.4,2.3-7.1,3.7-10.4c2.9-6.9,7.7-12.5,14.4-15.5"/>
					<path class="st5" d="M-14,57.6c1.9,2.6,4.4,4.6,7,6.5c8.5,6.2,18.4,10.5,28.8,12c10.4,1.5,21-0.4,30.2-4.9
						c1.8-0.9,3.6-1.7,5.2-3c3.2-2.6,5.1-6,7.5-9c0.9-1.2,1.9-2.3,3-3.2c4.7-4.2,11.7-6.2,18.5-7.3c1.2-0.2,2.5-0.4,3.7-0.6
						c5.5-0.8,11.2-1.7,16.2-3.8c3.8-1.6,7.1-3.9,9.7-6.9c2.7-3.1,4.5-6.9,7.2-10.3c3.8-4.8,8.7-8.1,11.7-13c1.2-2,2-4.2,2.7-6.4
						c0.9-3,1.4-6.1,2.3-9.1c1.8-6.1,4.8-11.3,10.1-14.6"/>
					<path class="st5" d="M-14.1,45.3c1.4,1.8,3.2,3.4,5.1,4.8c6.1,4.7,13.2,8,20.7,9.5c7.5,1.4,15.3,0.7,22.3-1.8
						c1.6-0.5,3.2-1.1,4.5-2.1c2.7-2,3.8-5.2,5.3-8.1c0.6-1.1,1.2-2.2,2-3.2c3.2-4.2,9-6.3,14.7-7.2c1-0.2,2.1-0.3,3.1-0.4
						c4.6-0.6,9.3-1,13.6-2.4c3.2-1.1,6.1-2.7,8.6-5c2.5-2.3,4.5-5.2,6.7-7.9c3.1-3.9,6.5-7.4,8.4-11.9c0.8-1.8,1.3-3.7,1.6-5.6
						c0.4-2.5,0.6-5.2,0.9-7.8c0.6-5.3,1.9-10.2,5.8-13.6"/>
					<path class="st5" d="M-14.2,32.9c7.4,8.3,18.9,12.7,30,11.4c1.3-0.2,2.7-0.4,3.8-1.2c3.1-2.1,2.6-6.7,4-10.2
						c1.8-4.2,6.4-6.4,10.8-7.1c4.4-0.8,9-0.4,13.5-1.4c10.9-2.3,19.4-12.9,19.2-24.1c-0.1-6.5-2.7-13.7,0.9-19.1"/>
				</g>
				<g>
					<path class="st5" d="M-32,306.9c9.6,12.3,20.8,25.5,36.3,27.3c12.7,1.5,24.9-5.2,37.7-5.4c12.2-0.3,23.8,5.4,35.9,7.1
						c16.9,2.4,34.3-2.9,48.5-12.5c24.3-16.4,39.6-45.3,39.4-74.6c-0.1-10.4-1.9-21,0-31.2c1.5-7.7,5.1-14.8,7.5-22.2
						c4.6-13.9,5.3-29.1,2-43.3c-0.9-4-2.3-8-5-11c-5.1-5.5-13.8-6-20.8-3.6c-7.1,2.4-13,7.1-19.3,11.1
						c-25.4,16.1-56.6,20.5-86.6,19.5c-9.3-0.3-18.7-1.2-27.6-4.2c-11.9-4.1-22-12-31.9-19.7c-4.3-3.3-9.6-4.6-14.9-3.6
						c-5.3,1-10,4.1-14.2,7.6c-16.2,13.6-25.9,34.6-25.7,55.7c0.1,8.7,1.7,17.2,3.8,25.7C-60.5,256.4-49.1,285.1-32,306.9z"/>
					<path class="st5" d="M25.4,179.8C15.8,177,7.3,171.4-1,165.7c-3.6-2.4-7.9-3.3-12.2-2.5c-4.3,0.8-8.2,3.2-11.7,5.9
						c-13.6,10.6-22.2,26.9-22.7,44c-0.2,7,0.9,14,2.4,20.9c5.5,21.1,14.3,43.7,27.8,60.9c7.6,9.7,16.7,20,28.9,21.6
						c10,1.3,19.8-3.6,29.9-3.9c10-0.3,19.4,3.5,29.1,4.4c13.6,1.2,27.5-3.6,39.2-11.3c19.3-12.8,31.9-34.8,32.6-57.7
						c0.2-8.1-1-16.3,0.7-24.3c1.3-6,4.1-11.6,6-17.4c3.6-11,4-22.8,1.3-34c-0.8-3.1-1.8-6.2-4-8.6c-3.9-4.3-10.7-4.9-16.2-3.3
						c-5.5,1.6-10.2,5-15.2,7.9c-19.9,11.6-44.5,14.8-68,14.1C39.7,182.6,32.3,181.9,25.4,179.8z"/>
					<path class="st5" d="M34.8,195.8c-7.3-1.7-14.1-5-20.8-8.5c-2.8-1.5-6.2-2-9.5-1.3c-3.4,0.7-6.4,2.4-9.2,4.3
						c-11,7.6-18.5,19.3-19.7,32.3c-0.4,5.3,0.1,10.7,1.1,16.2c4.4,15.3,10.7,31.8,20.5,44.4c5.7,7.2,12.5,14.6,21.5,16
						c7.4,1.1,14.7-2.1,22.2-2.4c7.8-0.3,15,1.7,22.4,1.6c10.3,0,20.8-4.3,29.8-10.2c14.2-9.2,24.3-24.4,25.8-40.7
						c0.5-5.8,0-11.6,1.4-17.3c1-4.4,3-8.4,4.4-12.6c2.6-8,2.8-16.6,0.6-24.6c-0.6-2.2-1.4-4.5-3-6.2c-2.8-3.1-7.6-3.8-11.5-2.9
						c-3.9,0.9-7.4,3-11,4.7c-14.5,7.1-32.3,9-49.4,8.8C45.2,197.4,39.8,197,34.8,195.8z"/>
					<path class="st5" d="M44.2,211.8c-5-0.4-10.1-1.5-15.2-2.9c-2.1-0.6-4.5-0.7-6.8-0.2c-2.4,0.5-4.6,1.5-6.7,2.7
						c-8.4,4.6-14.9,11.6-16.6,20.6c-0.7,3.6-0.7,7.4-0.2,11.5c3.4,9.4,7,19.9,13.3,27.9c3.7,4.7,8.3,9.2,14.1,10.3
						c4.8,0.9,9.6-0.5,14.4-0.9c5.5-0.4,10.5-0.2,15.6-1.1c7-1.3,14-5,20.4-9c9.2-5.7,16.6-13.9,19-23.7c0.8-3.5,1-7,2-10.4
						c0.8-2.7,2-5.2,2.8-7.8c1.6-5.1,1.5-10.4-0.1-15.2c-0.4-1.4-1-2.7-1.9-3.8c-1.7-2-4.5-2.6-6.9-2.5c-2.4,0.1-4.5,0.9-6.8,1.5
						c-9.1,2.6-20.2,3.2-30.8,3.4C50.6,212.2,47.4,212.1,44.2,211.8z"/>
					<path class="st5" d="M20.6,248c2.4,3.6,3.4,8,6.1,11.3c3.1,3.9,8.4,6,13.4,5.3c7.7-1.1,13.1-8,19.9-11.7
						c4.1-2.2,8.9-3.4,12.2-6.7c12.9-13.1-6.9-23.3-18.5-18.4C42.3,232.6,20.7,230.7,20.6,248z"/>
				</g>
				<g>
					<path class="st5" d="M293.3,113.4c5.2,6.1,8.3,13.7,13,20.1c4.8,6.4,12.4,11.8,20.2,10.3c2.2-0.4,4.3-1.4,6.5-1.1
						c3.8,0.5,6.2,4.3,7.3,7.9c2.8,9,1.2,18.7,1.7,28.1c0.6,9.4,4.5,19.9,13.5,23c3.9,1.3,8.5,1.1,11.7,3.7
						c5.9,4.7,2.6,14.5-2.6,19.9c-7.5,7.7-17.7,12.1-25.9,19c-11.5,9.7-18.4,23.8-28.9,34.6c-11.9,12.3-28.5,20.1-45.6,21.3
						c-17.1,1.2-34.6-4.1-48.2-14.6c-8.7-6.7-15.6-15.4-22.1-24.2c-2.3-3.1-4.7-6.5-5.4-10.3c-0.6-3.4,0.1-6.9,1-10.2
						c2.5-10.1,5.7-20.1,9.7-29.8c2.2-5.5,4.7-11,5.3-16.9c0.6-6.1-0.8-12.3-2-18.3c-3.3-16.6-4.7-35.1,4.6-49.2
						C223,102.2,272.2,88.8,293.3,113.4z"/>
					<path class="st5" d="M225.9,148.5c10.6-18.8,45.7-28.8,62.2-12.3c4,4,6.6,9.2,10.3,13.6c3.7,4.4,9.3,8.2,15,7.4
						c1.6-0.2,3.2-0.8,4.7-0.5c2.9,0.5,4.9,3.5,5.9,6.3c2.1,5.7,2.1,11.9,2.1,18.2c0,1.4,0,2.7,0.1,4c0.3,7.8,1.9,15.4,6.9,18.1
						c2.2,1.2,4.7,1.5,6.5,3.5c3.4,3.6,1.3,10.1-2.3,14c-5.2,5.5-12.2,8.8-17.8,13.9c-3.7,3.3-6.7,7.3-9.6,11.4
						c-3.3,4.6-6.4,9.3-10.2,13.5c-8.2,8.9-19.5,14.6-31.3,16.1c-12.1,1.5-24.9-1.5-34.9-9c-6.5-4.9-11.5-11.5-15.8-18.2
						c-1.6-2.4-3.1-4.9-3.5-7.7c-0.4-2.5,0.2-5.1,0.7-7.5c0.7-3,1.5-6,2.3-8.9c1.3-4.4,2.7-8.8,4.2-13.1c1.5-4.1,3.1-8.2,3.4-12.5
						c0.4-4.5-0.7-9-1.6-13.5C221,172.6,219.9,159.1,225.9,148.5z"/>
					<path class="st5" d="M244.8,170.4c5.3-13.2,26.3-19.8,38.1-11.4c2.8,2,4.9,4.7,7.6,7.1c2.7,2.4,6.3,4.5,9.8,4.5
						c1,0,2-0.2,3,0.1c2.1,0.6,3.6,2.6,4.6,4.6c2,4,2.5,8.6,2.6,13.2c0,1,0,2,0,3c-0.1,6.2-0.7,10.7,0.3,13.1c0.4,1,1.2,1.5,1.4,3.2
						c1.5,2,0.1,5.7-2,8.1c-2.9,3.3-6.7,5.6-9.7,8.8c-2,2.1-3.6,4.5-5.2,7c-1.8,2.8-3.4,5.6-5.5,8.2c-4.4,5.5-10.5,9.2-17.1,10.9
						c-7.1,1.8-15.3,1.1-21.6-3.4c-4.3-3.1-7.3-7.7-9.5-12.2c-0.8-1.6-1.5-3.3-1.7-5.1c-0.1-1.6,0.2-3.3,0.5-4.9
						c0.4-1.9,0.9-3.9,1.4-5.8c0.7-2.9,1.4-5.7,2.2-8.5c0.7-2.7,1.5-5.3,1.5-8.1c0.1-2.9-0.5-5.8-1.1-8.7
						C242.7,186,241.9,177.5,244.8,170.4z"/>
					<path class="st5" d="M263.7,192.3c0.3,7.5,3.1,14.8,2.4,22.3c-0.2,2.4-0.9,4.9-0.8,7.3c0.1,2.5,1.1,5.1,3.2,6.3
						c2.7,1.5,6.3,0.1,8.3-2.3c2-2.4,2.8-5.5,3.6-8.6c0.8-3,1.8-6.2,4-8.4c4.9-4.9,10.4-5,10.1-13.2c-0.1-4.5-2.5-8.8-6.3-11.2
						C280.5,179.6,263.1,180.4,263.7,192.3z"/>
				</g>
				<g>
					<path class="st5" d="M166.1,319.6c-6.1,8.5-11.4,17.5-16,26.9c-1.8,3.7-3.5,7.5-3.5,11.6c-0.1,9.6,8.7,16.6,16.6,22
						c13.4,9.2,26.8,18.4,40.2,27.6c7.1,4.8,14.5,9.8,23,10.8c8.8,1,18.2-2.4,26.2,1.3c3.4,1.6,6.2,4.3,9.4,6.1
						c11.3,6.3,25.5,0.9,36.4-5.9c4.5-2.8,9.4-6.7,9.5-12.1c0.1-5.8-5.5-10-10.9-12.1c-5.4-2-11.5-3-15.8-6.8
						c-8.2-7.3-6-20.3-7.7-31.1c-2.1-14-11.7-25.9-23.2-34.1c-12-8.5-29-18.3-42.9-23.3C190.5,294.4,175.3,306.6,166.1,319.6z"/>
					<path class="st5" d="M182.4,338.4c-2.8,5-5.7,10-7.7,15.3c-0.8,2.1-1.6,4.2-1.4,6.4c0.5,5.6,6.2,9.3,11.2,12.3
						c8.4,5,16.7,10.3,24.9,15.8c4.3,2.9,8.8,6,13.8,7c5,1,10.3-0.2,14.9,1.9c2,0.9,3.7,2.4,5.6,3.3c6.8,3.4,15,0.4,21.5-3.6
						c3-1.9,5.9-4.3,6.3-7.6c0.5-3.6-2.1-6.5-4.8-8.3c-2.7-1.8-5.8-3.1-8.2-5.8c-4.5-5.1-4.3-13-6.2-19.5c-1.3-4.5-3.8-8.5-6.9-11.8
						c-2.8-3-6.3-5.7-10-7.9c-8.2-4.7-19.3-9.8-28.3-11.8C196.5,321.7,187.5,329.4,182.4,338.4z"/>
					<path class="st5" d="M198.7,357.3c-0.1,1.7,0.3,3.5,1.4,4.8c1.4,1.6,3.7,2.1,5.7,2.6c5.2,1.4,10.1,3.9,14.2,7.2
						c1.2,0.9,2.3,2,3.6,2.6c2.6,1.3,5.9,0.9,8.4-0.7c9.6-6,2.6-20.6-5.8-24.1C217.9,346.3,199.3,344.3,198.7,357.3z"/>
				</g>
				<g>
					<path class="st4" d="M486.8,534c-10.4-12.3-15.7-28.4-20.9-44c-6.7-20.2-13-39.4-29.6-50.8c-16-11-40-11.7-64.1-1.9
						c-12.1,4.9-23.4,11.7-34.4,18.3c-7.9,4.8-16.2,9.7-24.6,13.9c-17.2,8.5-42.5,16.8-65.3,7.7c-3.1-1.2-6.2-2.8-9.1-4.3
						c-5.9-3-12-6.1-18.6-6.7c-3.3-0.3-6.8,0.2-10.1,0.6c-2.9,0.3-5.8,0.7-8.8,0.6c-14.4-0.4-25.5-10.3-36.2-20
						c-6-5.4-12.3-11-19.1-15c-4.7-2.7-9.9-4.8-15-6.8c-7.6-3-15.4-6.1-21.7-11.5c-4.5-3.9-8-8.9-11.4-13.7
						c-4-5.7-8.2-11.7-14.1-15.6c-13.2-9-31.1-5.8-46.9-2.9l-2,0.4c-23.1,4.2-39.1,0.8-47.6-9.9l0.8-0.6c8.3,10.4,24,13.6,46.7,9.6
						l2-0.4c16-2.9,34.1-6.2,47.6,3.1c6,4.1,10.2,10.1,14.3,15.9c3.4,4.8,6.8,9.7,11.2,13.5c6.1,5.3,13.9,8.4,21.4,11.4
						c5.1,2,10.3,4.1,15.1,6.9c6.9,4,13.2,9.7,19.3,15.1c11.1,10,21.6,19.4,35.6,19.7c2.9,0.1,5.8-0.3,8.7-0.6
						c3.4-0.4,6.8-0.8,10.3-0.6c6.8,0.5,13,3.7,19,6.8c2.9,1.5,6,3.1,9.1,4.3c22.5,8.9,47.5,0.7,64.5-7.7
						c8.4-4.2,16.6-9.1,24.5-13.9c11-6.6,22.4-13.5,34.6-18.4c24.4-9.9,48.7-9.2,65,2c16.9,11.6,23.5,31.8,30,51.3
						c5.1,15.5,10.4,31.5,20.7,43.6L486.8,534z"/>
				</g>
				<g>
					<path class="st4" d="M449.7,511l-6.5-16.8c-4-10.3-8.5-22-17.2-30c-9.9-9.1-25.5-13-41.6-10.4c-14.9,2.4-28.6,9.3-41.4,16.2
						c-22.7,12.2-44.9,25.8-66.3,40.2l-0.6-0.8c21.3-14.5,43.7-28,66.3-40.3c12.9-6.9,26.7-13.9,41.7-16.3
						c16.5-2.6,32.4,1.4,42.5,10.6c8.9,8.2,13.5,20,17.5,30.4l6.5,16.8L449.7,511z"/>
				</g>
				<g>
					<path class="st4" d="M318.1,511.2l-0.6-0.8l28-20.3c7.1-5.1,14.4-10.4,22.7-13.8c9.3-3.7,18.6-4.2,26.2-1.4
						c13.5,5,20.6,19.2,26.6,33.2l-0.9,0.4c-6-13.8-12.9-27.8-26.1-32.7c-7.4-2.7-16.4-2.2-25.5,1.4c-8.2,3.3-15.5,8.6-22.5,13.6
						L318.1,511.2z"/>
				</g>
				<g>
					<path class="st5" d="M-14.9,400.7c13.1,5.9,28.3,2.8,42.4,0c14.1-2.8,29.8-4.8,42,2.8c4.2,2.7,7.7,6.3,11.4,9.8
						c7.5,7.1,15.8,13.4,24,19.7c5.2,3.9,10.4,7.9,16.3,10.6c3.6,1.6,7.5,2.8,11.1,4.5c15.2,7.1,24.8,23.5,40.5,29.8
						c15,6,33.4,1.7,47.1,10.3c9.6,6,14.7,17,17.7,27.9"/>
					<path class="st5" d="M-16.4,415.7c11.4,4.9,24.6,2.2,36.9-0.1c7.5-1.4,15.5-2.5,23-1.8c4.8,0.5,9.4,1.8,13.5,4.3
						c3.7,2.2,6.8,5.3,10,8.3c6.6,6,13.9,11.4,21.1,16.7c4.5,3.4,9.1,6.8,14.2,9.1c3.1,1.4,6.5,2.5,9.6,4c4.7,2.2,8.7,5.4,12.6,8.9
						c7.1,6.4,13.6,13.6,22.2,17.4c4.2,1.8,8.8,2.7,13.4,3.4c9.3,1.3,19,1.5,27,6.6c8.3,5.2,12.9,14.7,15.8,23.9"/>
					<path class="st5" d="M-17.8,430.6c9.8,3.8,21,1.7,31.4-0.1c6.4-1.1,13.2-2,19.6-1.3c4.1,0.4,8,1.5,11.6,3.5
						c3.2,1.8,5.9,4.3,8.7,6.7c5.8,4.9,12,9.3,18.2,13.8c3.9,2.8,7.8,5.7,12.1,7.7c2.7,1.2,5.5,2.2,8.1,3.5
						c3.9,1.9,7.4,4.7,10.6,7.7c6,5.5,11.4,11.7,18.5,15.1c3.5,1.7,7.3,2.6,11.1,3.3c7.7,1.4,15.8,2,22.5,6.3
						c7,4.5,11.2,12.3,13.9,19.9"/>
					<path class="st5" d="M-19.3,445.5c8.1,2.7,17.3,1.1,26-0.2c5.3-0.8,10.9-1.4,16.2-0.9c3.4,0.4,6.6,1.2,9.6,2.8
						c2.7,1.4,5,3.3,7.3,5.2c4.9,3.8,10.1,7.2,15.3,10.8c3.3,2.2,6.5,4.5,10.1,6.2c2.2,1,4.5,1.9,6.6,3c3.2,1.7,6,4,8.7,6.5
						c4.9,4.6,9.2,9.8,14.8,12.9c2.8,1.5,5.7,2.5,8.8,3.2c6.1,1.6,12.6,2.4,18.1,6c5.7,3.8,9.4,9.9,12,15.8"/>
					<path class="st5" d="M-20.8,460.5c6.5,1.7,13.6,0.6,20.5-0.2c4.2-0.5,8.6-0.8,12.7-0.4c2.6,0.3,5.2,0.9,7.6,2
						c2.1,1,4,2.3,6,3.6c4,2.7,8.2,5.2,12.4,7.8c2.6,1.7,5.2,3.4,8,4.8c1.7,0.9,3.5,1.6,5.1,2.5c2.5,1.4,4.6,3.2,6.7,5.2
						c3.7,3.7,7,7.9,11.1,10.6c2,1.4,4.2,2.3,6.5,3.2c4.5,1.7,9.4,2.9,13.7,5.8c4.5,3,7.6,7.6,10.2,11.8"/>
					<path class="st5" d="M-22.3,475.4c4.8,0.6,10,0,15-0.3c3.1-0.2,6.2-0.3,9.3,0c1.9,0.2,3.8,0.6,5.6,1.2c1.6,0.6,3.1,1.3,4.6,2.1
						c3.1,1.6,6.4,3.1,9.5,4.9c2,1.1,3.9,2.3,5.9,3.3c1.2,0.7,2.5,1.3,3.6,2c1.7,1.1,3.3,2.5,4.7,4c2.6,2.8,4.8,5.9,7.4,8.4
						c1.3,1.2,2.7,2.2,4.1,3.1c2.9,1.8,6.2,3.3,9.2,5.5c3.2,2.3,5.9,5.2,8.3,7.8"/>
					<path class="st5" d="M-23.8,490.3c5.1-0.8,10.2-0.4,15.3,0.1c8.2,0.9,17.1,2.7,22.3,9.1c2.3,2.8,3.6,6.2,5.6,9.2
						c2.7,4,6.7,7.2,11.2,9"/>
				</g>
				<g>
					<path class="st5" d="M331.7,18.8c-3.8,5.5-5.2,12.5-9.5,17.7c-5.3,6.5-14,9-20.4,14.4c-1.3,1.1-2.5,2.3-3.1,3.8
						c-1.6,3.7,0.7,8.1,3.9,10.6c7.5,6.2,19.3,6.1,25.5,13.6c2.7,3.2,3.9,7.5,6.3,10.9c8.3,11.6,26.2,9.5,38.9,16.2
						c6.8,3.6,12,9.9,14.3,17.2c3.6,11.6,0.6,26.5,10,34.3c2.6,2.2,5.9,3.4,9.2,4.2c10.7,2.8,22.3,2,32.6-2.2
						c6.5-2.7,12.4-6.7,18.3-10.5c11.5-7.5,23.5-14.8,37.1-16.9c18-2.7,37.6,4.1,54.2-3.4c15.4-7,23.6-26.8,17.6-42.7
						C562.5,75.2,553,66.9,550,55.7c-3-10.9,0.8-22.6,6-32.6c5.3-10,12.1-19.2,16-29.8c0.7-1.8,1.3-3.9,0.5-5.7
						c-0.5-1.1-1.3-1.9-2.2-2.7c-20.4-18.2-47.5-28-74.7-29.7c-27.2-1.8-54.6,4.1-80,14.3c-9.1,3.7-17.7,8-24.1,15.5
						c-5.2,6.1-10.1,10.6-17.7,13.8C359.9,4.6,341.1,5.3,331.7,18.8z"/>
					<path class="st5" d="M424.2-16.6c-7.1,2.9-13.9,6.2-19.1,12C400.9,0.1,397,3.5,391,6c-11,4.6-25.7,5.2-33.3,15.6
						c-3.1,4.2-4.4,9.6-7.8,13.6c-4.3,5-11,7.1-16.1,11.3c-1,0.8-1.9,1.8-2.5,3c-1.3,2.8,0.4,6.2,2.7,8.2
						c5.5,4.8,14.3,4.9,18.8,10.7c2,2.5,2.9,5.8,4.7,8.4c6.2,9,19.6,7.7,29.2,13c5.4,3,9.9,7.8,12.1,13.3c1.1,2.7,1.7,5.6,2.3,8.6
						c1.2,6.4,2.2,12.7,7.5,16.7c2.2,1.6,4.8,2.6,7.5,3.3c8.5,2.3,17.5,2.1,25.5-0.7c5.1-1.8,9.6-4.5,14.2-7.1
						c5.9-3.4,12-6.7,18.5-9c3.4-1.2,6.9-2.1,10.6-2.5c14.3-1.8,29.8,3.1,42.7-3.2c11.9-5.7,18.2-21,13.9-33.4
						c-2.9-8.4-10-15-11.9-23.6c-1.9-8.7,1.6-17.7,6-25.6c4.4-7.9,9.8-15.3,12.5-24c0.5-1.5,0.9-3.1,0.3-4.6
						c-0.4-0.9-1.1-1.6-1.7-2.2c-15.5-14.5-36.3-22.6-57.6-24.1c-0.5,0-1-0.1-1.5-0.1C466.1-29.9,444.4-24.7,424.2-16.6z"/>
					<path class="st5" d="M432.8-2.6c-5.2,2.1-10.2,4.5-14.1,8.5c-3.1,3.2-6.1,5.6-10.5,7.4c-8.1,3.3-18.6,4-24.4,11.1
						c-2.4,2.9-3.5,6.6-6.1,9.5c-3.2,3.5-8.1,5.2-11.7,8.2c-0.7,0.6-1.4,1.3-1.8,2.1c-0.9,2,0.1,4.3,1.6,5.7
						c3.5,3.4,9.2,3.7,12.2,7.8c1.3,1.8,1.8,4.1,3,5.9c4,6.4,13,5.9,19.6,9.7c4.1,2.5,7.8,5.8,9.9,9.3c1.1,1.8,1.8,3.6,2.5,5.5
						c1.5,4,2.8,8,7.1,10.7c1.7,1.1,3.8,1.8,5.9,2.4c6.2,1.8,12.7,2.1,18.3,0.8c3.6-0.8,6.8-2.3,10.1-3.7c4.2-1.8,8.6-3.6,13.3-4.8
						c2.5-0.6,5.1-1.1,7.7-1.3c10.5-0.9,22,2,31.3-2.9c8.3-4.4,12.8-15.3,10.2-24.2c-1.8-6.1-6.4-10.9-7.2-17
						c-0.8-6.5,2.4-13,5.9-18.6c3.6-5.8,7.4-11.3,9-18.2c0.3-1.1,0.5-2.3,0-3.4c-0.3-0.7-0.8-1.2-1.3-1.7
						c-11-11.3-26.4-17.8-42.3-18.6c-0.4,0-0.8,0-1.1,0C463.8-13.3,447.7-8.6,432.8-2.6z"/>
					<path class="st5" d="M441.4,11.3c-3.2,1.3-6.4,2.7-9.1,4.9c-2.1,1.7-4.1,3.1-6.8,4.2c-5.2,2-11.6,2.7-15.5,6.7
						c-1.7,1.7-2.7,3.7-4.4,5.4c-2.2,2.1-5.1,3.2-7.4,5.1c-0.5,0.4-0.9,0.8-1.2,1.3c-0.6,1.1-0.2,2.4,0.5,3.2c1.5,2,4.1,2.5,5.5,4.9
						c0.6,1,0.8,2.4,1.4,3.5c1.9,3.8,6.4,4.1,10,6.5c2.8,1.9,5.7,3.7,7.8,5.3c1.1,0.8,1.9,1.6,2.8,2.4c1.8,1.7,3.5,3.3,6.7,4.7
						c1.3,0.5,2.8,1,4.2,1.4c4,1.3,7.8,2.1,11.2,2.3c2.1,0.1,4.1-0.1,6-0.3c2.5-0.3,5.2-0.5,8.1-0.7c1.6-0.1,3.2-0.1,4.9-0.1
						c6.7,0,14.2,1,19.8-2.6c4.8-3,7.4-9.5,6.4-15c-0.6-3.7-2.8-6.8-2.6-10.4c0.3-4.3,3.2-8.2,5.8-11.7c2.7-3.7,5.1-7.3,5.5-12.4
						c0.1-0.7,0.1-1.6-0.2-2.3c-0.2-0.4-0.5-0.8-0.8-1.2c-6.6-8.1-16.5-12.9-27.1-13.1c-0.2,0-0.5,0-0.7,0
						C461.6,3.3,451.1,7.4,441.4,11.3z"/>
					<path class="st5" d="M429.7,33.6c-1.9,1.8-3,4.7-1.8,7.1c2.2,2,5.7,1.6,8.6,0.7c2.9-0.9,6-2,8.8-0.9c4.3,1.7,5.2,7.5,8.9,10.2
						c3.1,2.3,8,1.7,10.5-1.3c2.3-2.8,2.4-6.8,4.8-9.5c4.3-4.9,10.8-5.2,7-13.2c-2.3-4.8-6.6-8.1-11.9-7.6c-5,0.5-10,4.1-14.6,6
						C443.7,27.8,434.7,28.9,429.7,33.6z"/>
				</g>
				<g>
					<path class="st4" d="M497.3,282.4c-4.3,0-8.6-1.4-11.4-4.8c-1-1.2-1.8-2.6-2.5-3.9c-1.5-2.6-2.9-5.1-5.5-5.9
						c-1.7-0.5-3.4-0.2-5.3,0.1c-1.1,0.2-2.2,0.4-3.3,0.4c-0.1,0-0.2,0-0.3,0c-7.6,0-12.8-7.4-16.5-13.9
						c-5.2-9.1-10.5-18.5-13.6-28.7c-2.4-8-4.3-20,0.3-31.4c2.9-7.1,8.2-13.7,16.7-20.8c20.6-17.2,46.6-27.6,73.4-29.3
						c2-0.1,4-0.2,6-0.3c6.8-0.3,13.8-0.5,20.3-2.7c2.2-0.7,4.4-1.7,6.5-2.6c3-1.3,6-2.7,9.3-3.4c9-2.1,18.1,0.6,26.9,3.2
						c1.4,0.4,2.8,0.8,4.2,1.2c14.1,3.9,28.8,5.7,43.4,5.4c22.2-0.6,31.7-8.5,35.7-15c4-6.5,4.7-14.5,5.3-22.2
						c0.1-1.3,0.2-2.5,0.3-3.8c0.2-2.6,0.8-5.5,3-6.9c1.2-0.8,2.6-1,4-1.1l0.3,0c2.7-0.3,11.7-2,13.1-8.6c0.2-0.9,0.2-1.8,0.3-2.8
						c0-1.3,0.1-2.6,0.5-3.9c2.1-5.9,10.3-5.8,16.6-3.9c11,3.3,21.8,7.3,32.2,12l-0.4,0.9c-10.4-4.7-21.1-8.7-32.1-12
						c-5.9-1.8-13.5-2-15.4,3.2c-0.4,1.1-0.4,2.3-0.5,3.6c0,1-0.1,2-0.3,2.9c-1.6,7.3-11.1,9.1-14,9.4l-0.3,0
						c-1.3,0.2-2.6,0.3-3.6,1c-1.8,1.2-2.3,3.7-2.5,6.1c-0.1,1.3-0.2,2.5-0.3,3.8c-0.6,7.8-1.3,15.9-5.4,22.6
						c-4.2,6.7-13.9,14.9-36.5,15.5c-14.8,0.4-29.5-1.4-43.7-5.4c-1.4-0.4-2.8-0.8-4.3-1.2c-8.7-2.5-17.7-5.2-26.4-3.1
						c-3.1,0.7-6.2,2.1-9.1,3.4c-2.1,0.9-4.3,1.9-6.6,2.7c-6.6,2.2-13.7,2.5-20.5,2.7c-2,0.1-4,0.2-5.9,0.3
						c-26.6,1.6-52.4,12-72.8,29.1c-8.4,7-13.6,13.5-16.4,20.4c-4.5,11.1-2.6,22.9-0.3,30.8c3,10.1,8.4,19.4,13.5,28.5
						c3.6,6.3,8.7,13.6,15.8,13.4c1,0,2.1-0.2,3.1-0.4c1.9-0.3,3.9-0.7,5.8-0.1c3,0.9,4.6,3.7,6.1,6.4c0.7,1.3,1.5,2.6,2.4,3.7
						c4.5,5.4,13.1,5.3,19.2,2.5c5-2.3,9.2-6.1,13.2-9.8c1.2-1.1,2.4-2.2,3.6-3.2c30.5-26.6,73.7-30.3,107.8-30.6
						c9.4-0.1,19.3,0.1,28.4,3c2.6,0.8,5.3,1.9,7.8,3c2.8,1.1,5.6,2.3,8.5,3.2c7.5,2.2,15.5,2.4,23.2,2.6c2.2,0,4.4,0.1,6.5,0.2
						c22.1,0.9,44.3,6.6,64.1,16.5l-0.4,0.9c-19.7-9.8-41.7-15.5-63.7-16.4c-2.2-0.1-4.3-0.1-6.5-0.2c-7.8-0.2-15.9-0.4-23.5-2.6
						c-3-0.9-5.8-2.1-8.6-3.2c-2.5-1-5.1-2.1-7.7-2.9c-9-2.9-18.8-3-28.1-3c-34,0.3-76.9,4-107.2,30.3c-1.2,1-2.4,2.1-3.5,3.2
						c-4.1,3.7-8.3,7.6-13.4,10C503.6,281.6,500.4,282.4,497.3,282.4z"/>
				</g>
				<g>
					<path class="st4" d="M497.5,254.4c-0.5,0-1,0-1.5-0.1c-3.6-0.6-6.1-3.5-8.5-6.2c-2.4-2.7-4.6-5.3-7.9-5.9
						c-1.2-0.2-2.5-0.1-3.9,0c-1.6,0.1-3.3,0.3-4.9-0.2c-2.4-0.7-4.1-2.7-5.2-4.1c-7.7-10-8.2-25.4-1.2-38.2
						c5.5-10.2,15.5-19.1,29.5-26.4c13.1-6.8,27.2-11.4,41.8-13.4c2.7-0.4,5.4-0.7,8.1-1c5-0.5,10.2-1.1,15.2-2.2
						c2.7-0.6,5.4-1.4,8.1-2.2c3.3-1,6.8-2,10.3-2.6c11.9-2.2,24.2-0.4,36,1.4c5.1,0.8,10.4,1.6,15.6,2.1c18,1.6,36.5-0.9,53.5-7.2
						c4.6-1.7,9.6-4,12.2-8.3c2.4-3.9,2.4-8.5,2.4-13.3c0-3.7,0-7.5,1.1-11.1c2.1-6.5,8.4-11.4,15.3-11.8c0.3,0,0.6,0,0.9,0
						c1.6-0.1,3.2-0.1,4.3-1.1c0.7-0.6,1-1.4,1.4-2.3c0.1-0.3,0.3-0.6,0.4-0.9c3.2-6.1,11.2-7.6,17.2-6c6.3,1.7,11.5,6.2,16.1,10.1
						l-0.7,0.8c-4.5-3.9-9.6-8.3-15.7-9.9c-5.6-1.5-13.1-0.1-16,5.5c-0.1,0.3-0.3,0.6-0.4,0.8c-0.4,0.9-0.9,1.9-1.7,2.6
						c-1.4,1.2-3.2,1.3-4.9,1.3c-0.3,0-0.6,0-0.9,0c-6.4,0.4-12.4,5-14.4,11.1c-1.1,3.4-1.1,7.1-1.1,10.8c0,4.8,0,9.7-2.5,13.8
						c-2.8,4.5-8,7-12.8,8.7c-17.1,6.3-35.8,8.8-54,7.2c-5.2-0.5-10.5-1.3-15.7-2.1c-11.8-1.8-23.9-3.6-35.7-1.4
						c-3.4,0.6-6.9,1.7-10.2,2.6c-2.6,0.8-5.4,1.6-8.1,2.2c-5.1,1.1-10.3,1.7-15.4,2.3c-2.7,0.3-5.4,0.6-8.1,1
						c-14.5,2-28.5,6.5-41.5,13.3c-13.8,7.2-23.6,16-29.1,26c-6.8,12.5-6.3,27.4,1.1,37.1c1.6,2.1,3.1,3.3,4.7,3.8
						c1.4,0.4,2.9,0.3,4.5,0.2c1.3-0.1,2.7-0.2,4.1,0c3.6,0.6,6,3.5,8.4,6.2c2.4,2.7,4.6,5.3,7.9,5.9c2.9,0.5,5.8-0.8,8.7-2.3
						c3.9-2,7.8-4,11.5-6c16.5-8.7,33.5-17.6,51.9-21.5c11-2.3,22.4-2.7,33.5-3.1c19.4-0.7,39.5-1.5,58.6,3.6
						c2.6,0.7,5.1,1.5,7.6,2.2c3.7,1.2,7.6,2.3,11.5,3.2c8.2,1.7,16.8,1.9,25.2,2c5.4,0.1,11,0.2,16.5,0.7
						c12.8,1.2,25.6,5,37.1,10.9l-0.5,0.9c-11.3-5.9-24-9.6-36.7-10.8c-5.4-0.5-11-0.6-16.4-0.7c-8.4-0.1-17-0.3-25.3-2
						c-3.9-0.8-7.8-2-11.6-3.2c-2.5-0.8-5-1.6-7.6-2.2c-19-5.1-39-4.3-58.4-3.6c-11,0.4-22.4,0.8-33.3,3.1
						c-18.3,3.8-35.3,12.7-51.7,21.4c-3.8,2-7.7,4.1-11.6,6C502.7,253.2,500.1,254.4,497.5,254.4z"/>
				</g>
				<g>
					<path class="st4" d="M509.2,227.6c-2.9,0-6.6-1.5-7.8-4.7c-0.3-0.9-0.4-1.8-0.5-2.7c-0.1-1-0.2-2-0.6-2.9
						c-0.6-1.2-1.7-2.1-2.9-3c-0.8-0.6-1.5-1.2-2.2-1.9c-3.4-3.7-2.6-9.4-0.1-13.2c2.6-3.9,6.9-6.5,10.7-8.5l0,0
						c10.9-5.9,22.6-10.8,34.6-14.4c20.2-6,41-7.9,58.8-9c8.4-0.5,22,4.5,29,12.7c3.7,4.4,5,9.2,3.9,14c-1.5,6.6-9.5,8.8-14.1,9.6
						c-8.2,1.3-16.6,1.4-24.7,1.4c-7.6,0-15.5,0-23.1,1.1c-16,2.3-31,9.3-45.5,16.1c-2.1,1-4.2,1.9-6.3,2.9
						C515.7,226.1,512.6,227.6,509.2,227.6C509.3,227.6,509.3,227.6,509.2,227.6z M506.2,191.5L506.2,191.5c-3.7,2-7.9,4.5-10.3,8.2
						c-2.2,3.4-3,8.7,0,12c0.6,0.6,1.3,1.2,2.1,1.8c1.2,0.9,2.5,1.9,3.2,3.4c0.5,1,0.6,2.1,0.7,3.2c0.1,0.9,0.2,1.7,0.5,2.5
						c1,2.8,4.3,4.1,6.9,4.1c0,0,0,0,0.1,0c3.1,0,6.1-1.4,8.5-2.5c2.1-1,4.2-1.9,6.3-2.9c14.6-6.8,29.7-13.8,45.8-16.1
						c7.7-1.1,15.6-1.1,23.2-1.1c8.1,0,16.5,0,24.6-1.4c4.4-0.7,11.9-2.8,13.3-8.8c1-4.5-0.2-8.9-3.7-13.1c-6.7-8-20-12.8-28.1-12.4
						c-17.7,1-38.5,2.9-58.5,8.9C528.6,180.8,517.1,185.6,506.2,191.5z"/>
				</g>
				<g>
					<path class="st4" d="M756.3,228.9c-7.7-8.9-20.1-14.4-36.8-16.5c-5.7-0.7-11.6-1-17.2-1.4c-8-0.5-16.3-0.9-24.3-2.5
						c-10.4-2-17.1-6.1-19.9-12.3c-3.7-8,0.4-17.2,5.8-22.4c5.8-5.5,13.4-8.4,21.4-11l0.9-0.3c7.3-2.4,14.8-4.9,20.7-9.7
						c5.7-4.7,9.7-11.5,11-18.8c0.1-0.5,0.2-0.9,0.2-1.4c0.4-2.8,0.9-5.6,2.9-7.6c1-1,2.2-1.6,3.4-2.2c0.9-0.5,1.8-0.9,2.6-1.5
						c1-0.8,1.8-1.8,2.7-2.9c0.9-1.2,1.9-2.5,3.3-3.4c3.2-2.1,7.8-1.8,13.2,1.1c0.5,0.2,0.9,0.5,1.4,0.7c3.5,1.9,7.1,3.8,10.9,3.2
						l0.1,1c-4.1,0.6-7.8-1.4-11.5-3.3c-0.5-0.2-0.9-0.5-1.4-0.7c-3.6-1.9-8.6-3.6-12.2-1.1c-1.2,0.8-2.1,2-3,3.2
						c-0.8,1.1-1.7,2.2-2.8,3.1c-0.8,0.7-1.8,1.1-2.7,1.6c-1.2,0.6-2.3,1.2-3.1,2c-1.8,1.8-2.2,4.4-2.6,7c-0.1,0.5-0.1,1-0.2,1.4
						c-1.3,7.5-5.4,14.6-11.3,19.4c-6.1,4.9-13.7,7.5-21,9.9l-0.9,0.3c-7.9,2.6-15.4,5.4-21.1,10.8c-5.2,4.9-9.1,13.7-5.6,21.3
						c2.7,5.8,9.1,9.7,19.2,11.7c7.9,1.5,16.2,2,24.1,2.5c5.7,0.3,11.5,0.7,17.3,1.4c17,2.1,29.6,7.8,37.5,16.8L756.3,228.9z"/>
				</g>
				<g>
					<path class="st4" d="M757.6,208.7c-5.9-5.5-13.5-9.3-21.4-10.7c-4.9-0.9-10-0.9-15-0.8c-3.2,0-6.5,0-9.7-0.2
						c-3.2-0.2-6.8-0.7-10-2.5c-3.4-2-5.5-5.3-5.5-8.6c0.1-5.2,5-8.9,8.6-11.1c5.2-3.2,10.6-6,16.2-8.3l1.3-0.5
						c6.5-2.7,13.3-5.5,16-11.6c0.4-0.9,0.6-1.8,0.9-2.7c0.3-1,0.6-2.1,1.1-3c1.5-3.3,4.5-5.8,7.8-6.3c3.6-0.6,7.4,1,9.2,4l-0.9,0.5
						c-1.6-2.6-5-4.1-8.1-3.5c-3,0.5-5.7,2.8-7.1,5.8c-0.4,0.9-0.7,1.9-1,2.9c-0.3,0.9-0.6,1.9-1,2.8c-2.8,6.5-10.1,9.5-16.5,12.2
						l-1.3,0.5c-5.5,2.3-11,5.1-16.1,8.2c-3.5,2.1-8.1,5.5-8.2,10.3c0,2.9,1.9,6,5,7.8c3,1.7,6.5,2.2,9.6,2.4
						c3.2,0.2,6.5,0.2,9.7,0.2c5,0,10.1,0,15.1,0.9c8.1,1.4,15.9,5.3,21.9,11L757.6,208.7z"/>
				</g>
				<g>
					<path class="st4" d="M761.6,192.1c-3.7-5.8-11.9-6.5-17.7-5.3l-0.5,0.1c-3.3,0.7-7.5,1.5-10-1.1c-1.4-1.5-1.7-3.5-1.7-5
						c0-3.1,1.2-5.9,3.2-7.5c1.4-1.1,3.2-1.7,4.8-2.2l13.8-4.4l0.3,1l-13.8,4.4c-1.6,0.5-3.2,1-4.4,2c-1.8,1.4-2.9,3.9-2.9,6.7
						c0,1.3,0.2,3.1,1.4,4.3c2.1,2.2,5.8,1.5,9.1,0.8l0.5-0.1c6.2-1.2,14.8-0.5,18.8,5.7L761.6,192.1z"/>
				</g>
				<g>
					<path class="st4" d="M539.2,198.1c-0.5,0-1.1-0.1-1.5-0.4c-0.6-0.3-1-0.9-1.1-1.6c-0.2-0.9,0-1.9,0.5-2.7
						c0.8-1.2,2.1-1.9,3.4-2.5l0,0c8.1-3.7,20.2-8.1,32-8.3c4.9-0.1,15.9,1.1,18.8,5.6c0.7,1.1,0.9,2.1,0.4,2.8
						c-1.1,1.9-5.6,1.6-11.3,1c-1.7-0.2-3.2-0.3-4.1-0.3c-11.1,0.5-22.2,3.1-32.9,5.5l-2.5,0.6C540.4,197.9,539.8,198.1,539.2,198.1
						z M573.1,183.5c-0.2,0-0.4,0-0.6,0c-11.6,0.3-23.6,4.6-31.6,8.3l0,0c-1.2,0.6-2.4,1.1-3,2.1c-0.4,0.5-0.5,1.3-0.4,1.9
						c0.1,0.3,0.2,0.7,0.7,1c0.7,0.4,1.6,0.2,2.5,0l2.5-0.6c10.8-2.5,21.9-5.1,33.1-5.6c0.9,0,2.5,0.1,4.2,0.3
						c3.8,0.4,9.4,0.9,10.3-0.6c0.2-0.4,0.1-1-0.4-1.7C587.9,184.8,577.9,183.5,573.1,183.5z"/>
				</g>
				<g>
					<path class="st5" d="M383.3,267.5c-13.7,12.2-21.5,30.2-36,41.5c-7.6,5.9-17.6,10.8-19.8,20.2c-1.2,5.1,0.3,10.4,2.2,15.3
						c1.4,3.6,3.1,7.1,5.4,10.2c10.6,14,32.3,16,42.3,30.5c3.5,5,5.3,11.3,9.8,15.5c4.4,4.1,10.6,5.5,16.6,5.8c6,0.3,12-0.5,18,0
						c14.9,1.2,29.6,9.9,44.1,6.1c8.8-2.4,15.8-9.1,21.4-16.2c5-6.4,9.5-13.8,10.4-21.9c1.7-15.5-9.6-29.8-9.5-45.4
						c0-4.6,1-9.1,1.1-13.7c0.1-4.6-0.8-9.5-4-12.8c-2.9-3-7.4-4.4-9.5-8c-0.6-1-0.9-2.2-1.6-3.1c-3.1-4.5-9.9-2.2-15.4-2.5
						c-18.7-1.2-17.3-26.3-30.3-34.4C415.6,246.4,392.9,259,383.3,267.5z"/>
					<path class="st5" d="M391.9,288.9c-3.3,3.1-6.1,6.6-8.7,10.3c-4.7,6.6-9.2,13.6-15.6,18.7c-5.2,4.1-12,7.5-13.7,14
						c-0.9,3.5,0,7.1,1.2,10.5c0.9,2.5,1.9,4.9,3.4,7c6.8,9.7,21.4,11.2,27.7,21.4c1.7,2.7,3.2,5.7,5.2,8.1c1,1.2,2.1,2.3,3.5,3.2
						c1.2,0.8,2.6,1.4,4.1,1.9c3,0.9,6.3,1.2,9.5,1.3c4.3,0.2,8.6-0.2,12.9,0.2c7.5,0.7,14.8,4,22.1,5c3.2,0.4,6.3,0.4,9.4-0.4
						c6.3-1.6,11.4-6.2,15.6-11.2c3.8-4.5,7-9.7,7.7-15.3c1.4-10.9-6.5-21.1-7.1-32.1c-0.2-3.2,0.4-6.3,0.3-9.5
						c-0.1-3.2-0.9-6.5-3.2-8.8c-2.1-2.1-5.3-3.1-6.8-5.6c-0.4-0.7-0.7-1.5-1.2-2.1c-2.3-3.1-7.2-1.7-11.1-2
						c-13.2-1.1-13.2-18-22.6-23.6c-8-4.6-20.7,0.6-28.7,6.1C394.3,286.8,393,287.9,391.9,288.9z"/>
					<path class="st5" d="M400.5,310.2c-1.7,1.8-3.1,3.8-4.4,5.8c-2.3,3.8-4.7,7.6-8.1,10.5c-2.8,2.3-6.4,4.3-7.5,7.8
						c-0.6,1.9-0.3,3.8,0.2,5.6c0.3,1.3,0.8,2.7,1.4,3.8c3,5.3,10.2,6.5,13.2,12.4c1.1,2.2,2.6,4.4,4.4,5.6c1,0.7,2,1.2,3.1,1.5
						c1,0.3,2.1,0.5,3.2,0.5c2.3,0.1,4.8-0.1,7.3,0c2.6,0.1,5.2,0,7.8,0.3c4.5,0.6,8.9,2.6,13.3,3.2c1.9,0.3,3.8,0.3,5.7-0.1
						c3.9-0.8,7.1-3.3,9.8-6.2c2.5-2.6,4.4-5.5,5-8.8c1.1-6.4-3.5-12.4-4.6-18.7c-0.3-1.8-0.3-3.5-0.6-5.3c-0.3-1.8-1-3.6-2.4-4.9
						c-1.3-1.2-3.2-1.8-4.2-3.1c-0.3-0.4-0.5-0.8-0.8-1.1c-1.5-1.7-4.4-1.1-6.8-1.4c-7.8-1-9-9.9-15-12.8
						c-5.2-2.5-12.7,0.2-17.7,3.3C401.9,309,401.1,309.6,400.5,310.2z"/>
					<path class="st5" d="M409.9,331c-0.3,0.1-0.7,0.3-0.9,0.6c-0.2,0.4-0.1,0.9-0.1,1.4c0.2,3.5-5.2,5.4-4.8,8.9
						c0.2,1.7,1.9,3,3.7,3.2c1.7,0.2,3.5-0.4,5.1-1c1.6-0.6,3.3-1.3,5.1-1.3c2.5,0,4.7,1.5,7.2,2c2,0.4,4.2,0,6-1
						c6.4-3.6-0.7-9-4.8-10.4C421.7,331.7,414.8,329,409.9,331z"/>
				</g>
				<g>
					<path class="st5" d="M498.5,514c-10.6-17.1-19.3-35.5-25.8-54.6c-1.8-5.3-3.5-11.2-1.4-16.4c3.3-8.4,14-10.6,20.8-16.5
						c7.5-6.6,9.9-17.6,17.7-23.8c6-4.8,14.2-5.9,21.9-5.3c7.7,0.6,15.2,2.7,22.8,3.5c12.2,1.3,24.5-0.5,36.7,0.1
						c12.2,0.6,25.3,4.4,32.6,14.2c3.7,4.9,5.6,10.8,8.7,16.1c7.1,11.9,20.3,19.5,34.1,21.7c13.7,2.1,27.9-0.7,40.7-6
						c8.9-3.7,17.4-8.5,26.7-10.8c9.4-2.2,20.2-1.3,27.1,5.4c2.2,2.1,7,4.3,9.1,6.6c9.5,10.6,15.1,24.2,18.1,38.1
						c2.9,13.9,3.2,28.2,3.1,42.4"/>
					<path class="st5" d="M524.8,512.7c-8.4-13.2-15.2-27.4-20.2-42.2c-1.4-4.1-2.7-8.7-1.1-12.7c2.5-6.5,10.5-8.4,15.6-13.1
						c5.7-5.3,7.7-14,13.9-19c4.7-3.9,11.2-4.9,17.3-4.5c2.4,0.1,4.9,0.5,7.3,0.9c3.6,0.6,7.2,1.3,10.9,1.7
						c9.7,1.1,19.4-0.1,29.1,0.5c9.6,0.5,19.8,3.3,25.8,10.6c3,3.6,4.6,8,7.2,11.9c4.1,6.1,10.3,10.7,17.4,13.4
						c3.1,1.2,6.4,2,9.7,2.5c10.8,1.6,22-0.5,32.1-4.3c7-2.6,13.6-6.2,20.9-7.4c7.3-1.3,15.6,0.1,20.7,5.8c1.7,1.8,5.3,3.8,6.8,5.7
						c7.1,8.6,11.5,19.4,14,30.4c2.4,11,3,22.3,3.4,33.4"/>
					<path class="st5" d="M551,511.3c-6.1-9.3-11.1-19.4-14.6-29.9c-1-2.9-1.9-6.2-0.9-9.1c1.6-4.7,7-6.2,10.4-9.7
						c4-4.1,5.6-10.5,10.1-14.2c3.5-2.9,8.2-3.8,12.7-3.7c1.8,0,3.6,0.2,5.4,0.5c2.7,0.4,5.4,0.9,8,1.2c7.1,0.9,14.3,0.4,21.5,0.8
						c7,0.4,14.4,2.2,19,7c2.3,2.4,3.7,5.2,5.7,7.8c3.2,4,7.8,6.9,13,8.6c2.3,0.8,4.7,1.3,7.1,1.6c7.9,1,16.1-0.3,23.4-2.6
						c5.1-1.6,9.9-3.8,15-4.1c5.3-0.3,10.9,1.5,14.3,6.1c1.1,1.5,3.5,3.2,4.6,4.7c4.6,6.7,7.9,14.6,9.9,22.7
						c1.9,8.1,2.8,16.4,3.6,24.4"/>
					<path class="st5" d="M577.3,510c-3.9-5.3-7-11.3-9.1-17.6c-0.6-1.8-1.1-3.7-0.6-5.4c0.7-2.8,3.5-4,5.2-6.3
						c2.2-2.9,3.4-6.9,6.2-9.4c2.2-1.9,5.2-2.8,8.1-2.9c1.2-0.1,2.3,0,3.5,0.1c1.8,0.2,3.5,0.5,5.2,0.7c4.6,0.6,9.3,0.8,13.9,1.2
						c4.4,0.3,9,1.2,12.2,3.4c1.6,1.1,2.7,2.4,4.2,3.6c2.3,1.8,5.3,3.1,8.6,3.8c1.4,0.3,3,0.5,4.5,0.7c5,0.4,10.1-0.2,14.7-0.9
						c3.2-0.5,6.2-1.3,9.2-0.8c3.4,0.7,6.2,2.9,7.9,6.5c0.6,1.2,1.7,2.5,2.3,3.8c2.3,4.7,4.3,9.8,5.8,15.1
						c1.5,5.2,2.6,10.5,3.8,15.4"/>
					<path class="st5" d="M603.5,508.7c-2.8-2.4-4.5-6.3-3.8-9.9s3.8-6.8,7.5-7.1c3-0.2,5.8,1.3,8.8,1.7c4.1,0.6,8.1-1,12.2-1.8
						c4.1-0.8,8.9-0.3,11.3,3.1c1.9,2.7,1.4,6.4,1.6,9.7c0.3,5.1,2.4,10,5.7,13.8"/>
				</g>
			</g>
		</g>
	</g>
</g>
</svg>
