<?xml version="1.0" encoding="UTF-8"?>
<svg id="Layer_2" data-name="Layer 2" xmlns="http://www.w3.org/2000/svg" viewBox="0 0 2854.97 2916.99">
  <defs>
    <style>
      .cls-1 {
        fill: none;
        stroke: #dcff00;
        stroke-miterlimit: 10;
        stroke-width: 26.03px;
      }
    </style>
  </defs>
  <g id="hair">
    <path class="cls-1" d="m2452.17,597.84c7.53,16.7,15.27,33.26,25.78,48.21,44.05,62.64,127.66,85.41,178.18,142.97,49.98,56.95,59.66,138.42,58.79,214.18-.87,75.76-9.75,153.31,11.62,226,27.01,91.88,100.24,167.67,113.24,262.56,13.91,101.52-42.15,193.7-74.92,285.75-17.45,49.01-19.38,93.21-27.41,143.15-6.7,41.63-31.32,80.43-34.49,123.73-2.7,36.82,16.27,72.6,11.99,110.13-8.02,70.38-84.56,107.11-137.5,154.19-67.81,60.3-102.31,148.7-133.25,234-16.85,46.46-36.11,96.58-78.22,122.46-39.48,24.26-89.12,21.07-134.81,28.81-107.11,18.15-182.34,104.87-275.99,151.09-92.69,45.74-202.66,26.39-304.38,8.03-129.1-23.3-265.04-42.9-389.07-.17-48.92,16.85-95.27,43.23-146.6,49.66-107.02,13.42-160.19-71.59-245.31-114.26-87.9-44.07-186.29-68.74-265.21-129.57-113.75-87.68-220.64-225.26-287.51-351.36-44.15-83.26-73.7-173.95-121.92-254.91-68.17-114.46-175.82-216.74-181.9-349.83-4.24-92.86,43.23-179.46,62.59-270.37,22.03-103.44-24.6-212.74-5.14-310.04,20.21-101.06,115.34-167.8,126.76-270.93,13.81-124.69-6.42-201.05,103.3-292.98,62.57-52.42,136.96-88.98,201.06-139.51,64.82-51.11,117.88-115.51,179.84-170.06,61.96-54.55,137.32-100.48,219.86-102.46,55.77-1.33,119.13,24.36,172.51,1.88,37.43-15.76,69.14-59.83,105.68-81.07,94.56-54.98,201.94-75.57,303.2-25.77,87.05,42.81,165.1,108.53,260.31,127.16,84.71,16.57,172.62-20.21,255-4.48,102.38,19.54,156.08,126.44,215.11,200.74,61.75,77.73,167.53,100.43,219.21,192.44,7.36,13.11,13.42,26.94,19.62,40.68Z"/>
  </g>
</svg>