<?xml version="1.0" encoding="UTF-8"?>
<svg id="Layer_2" data-name="Layer 2" xmlns="http://www.w3.org/2000/svg" viewBox="0 0 500 431.47">
  <defs>
    <style>
      .cls-1 {
        fill: #f2f0ea;
        stroke-width: 0px;
      }
    </style>
  </defs>
  <g id="Layer_1-2" data-name="Layer 1">
    <g id="KU9j2N.tif">
      <g>
        <path class="cls-1" d="m440.22,431.47c-.89,0-1.6-.75-1.54-1.64,2.07-32.08,4.15-64.16,6.2-96.24.86-13.51,1.62-27.03,2.47-40.54.09-1.47.31-2.93.53-4.46.11-.76.76-1.33,1.53-1.33h14.83c.81,0,1.48.63,1.54,1.44.69,9.97,1.41,19.77,2.03,29.59,2.17,34.39,4.31,68.78,6.42,103.17.17,2.81.14,5.64.15,8.46,0,.85-.69,1.55-1.54,1.55h-32.61Z"/>
        <path class="cls-1" d="m393.39,204.38c-.74.43-1.68.17-2.11-.57-17.26-29.6-44.15-44.85-75.61-52.85-43.63-11.1-87.57-11-131.24-.04-26.92,6.75-50.9,19.02-68.38,41.6-2.61,3.38-4.71,7.16-7.29,11.31-.44.71-1.36.94-2.08.52-35.06-20.28-70.2-40.61-105.91-61.27-1.03-.6-1.03-2.09,0-2.68,9.84-5.58,19.15-10.87,28.47-16.16C101.26,83.4,173.29,42.57,245.25,1.64c3.18-1.81,5.57-2.38,9.05-.39,80.79,45.99,161.66,91.84,242.51,137.73.79.45,1.56.93,2.46,1.48.98.61.96,2.05-.04,2.64-9.91,5.8-19.38,11.48-29.05,16.79-3.42,1.88-4.47,4.02-4.44,7.83.18,25.86.09,51.72.09,77.58,0,1.3,0,2.6,0,4.11,0,.85.69,1.54,1.54,1.54h14.42c.85,0,1.54.69,1.54,1.54v14.72c0,.85-.69,1.54-1.54,1.54h-50.07c-.85,0-1.54-.69-1.54-1.54v-14.33c0-.85.69-1.54,1.54-1.54h14.15c.85,0,1.54-.69,1.54-1.54v-74c0-1.19-1.29-1.93-2.31-1.33-17.25,9.97-34.31,19.84-51.71,29.9Z"/>
        <path class="cls-1" d="m251.22,321.95c-.58.51-1.44.52-2.02.02-21.43-18.17-45.85-29.84-72.29-37.5-15.05-4.36-30.2-3.11-45.25.38-1.7.39-3.39.86-5.45,1.41-.98.26-1.94-.48-1.94-1.49,0-1.4,0-2.68,0-3.95,0-20.4.13-40.8-.09-61.19-.06-5.23,1.49-9.5,4.36-13.7,11.42-16.7,27.77-26.61,46.23-33.23,34.93-12.53,71.03-13.66,107.49-9.82,21.61,2.27,42.38,7.62,61.52,18.37,11.51,6.46,21.49,14.69,28.41,26.03,2.07,3.39,3.44,7.78,3.51,11.73.34,20.39.16,40.79.16,61.19,0,1.4,0,2.81,0,4.14,0,.96-.87,1.69-1.82,1.52-7.47-1.34-14.46-3.21-21.48-3.29-10.23-.12-20.87-.11-30.65,2.47-23.2,6.12-44.57,16.7-63.9,31.11-2.33,1.73-4.45,3.75-6.77,5.81Z"/>
      </g>
    </g>
  </g>
</svg>