<?xml version="1.0" encoding="UTF-8"?>
<svg id="Layer_2" data-name="Layer 2" xmlns="http://www.w3.org/2000/svg" viewBox="0 0 309.41 500">
  <defs>
    <style>
      .cls-1 {
        fill: #f2f0ea;
        stroke-width: 0px;
      }
    </style>
  </defs>
  <g id="Layer_1-2" data-name="Layer 1">
    <g>
      <path class="cls-1" d="m219.72,24.91h-127.47L25.55,137.58l73.19,336.71c34.94.02,67.69.51,89.54.84,10.3.15,18.89.26,22.81.28l72.79-333.96L219.72,24.91Zm-34.33,117.78h-24.04v55.39h-13.29v-55.39h-24.04v-13.29h24.04v-31.88h13.29v31.88h24.04v13.29Z"/>
      <path class="cls-1" d="m309.28,133.7L232.37.49c-.17-.31-.5-.49-.85-.49H77.89c-.35,0-.68.19-.85.49L.13,133.7c-.12.21-.16.46-.11.7l77.14,364.82c.09.45.49.78.96.78h153.17c.46,0,.86-.33.96-.78l77.14-364.82c.05-.24.01-.48-.11-.7Zm-18.96,8.21v.07s-73.51,337.2-73.51,337.2c-.53,2.59-2.94,2.61-4.89,2.63-.34,0-.74,0-1.18,0-1.02,0-2.33-.01-3.94-.02-4.41-.04-10.68-.14-18.63-.26-22.37-.33-56.17-.84-92.03-.84h-2.58L19.1,138.08c-.21-1.07-.03-2.12.49-3.01L87.38,20.57c.75-1.27,2.13-2.05,3.6-2.05h130.04c1.53,0,2.93.83,3.67,2.17l65.19,118.41c.48.86.63,1.86.44,2.82Z"/>
    </g>
  </g>
</svg>