<?xml version="1.0" encoding="UTF-8"?>
<svg id="Layer_2" data-name="Layer 2" xmlns="http://www.w3.org/2000/svg" viewBox="0 0 499.82 500">
  <defs>
    <style>
      .cls-1 {
        fill: #f2f0ea;
        stroke-width: 0px;
      }
    </style>
  </defs>
  <g id="Layer_1-2" data-name="Layer 1">
    <g id="Ncl5mi.tif">
      <g>
        <path class="cls-1" d="m374.11,462.3v-22.78c-6.11,1.55-12.02,3.47-18.09,4.51-25.63,4.4-53.77-10.26-64.51-33.33-12.31-26.46-6.92-55.93,14.06-73.7,5.64-4.78,12.18-8.76,18.88-11.91,4.21-1.98,5.83-3.73,5.89-8.5.42-33.6,27.8-60.64,61.37-61.02,34.85-.4,62.91,27.06,62.94,61.9,0,3.99,1.07,5.75,4.82,7.18,23.68,9.06,37.15,26.76,39.9,51.56,2.8,25.29-7.55,45.66-28.88,59.14-16.87,10.66-35.61,12.47-54.74,5.41-1.52-.56-3.04-1.14-4.93-1.85v23.25c1.88.41,3.86.73,5.77,1.28,8.45,2.41,13.79,10.53,12.68,19.19-1.09,8.59-8.34,15.26-17.08,15.35-12.54.13-25.09.06-37.63.03-10.49-.03-18.04-6.49-18.93-16.13-.86-9.25,5.38-17,15.34-19.04.97-.2,1.96-.33,3.13-.53Z"/>
        <path class="cls-1" d="m124.85,168.33c0,8.79-.18,16.47.17,24.12.06,1.33,2.16,3.32,3.66,3.72,10.59,2.83,15.89,9.79,14.75,19.93-1.02,9.1-8.68,15.34-18.98,15.37-11.29.04-22.59.02-33.88,0-11.21-.01-18.96-6.14-20.08-15.69-1.1-9.4,6.21-19.68,16.52-19.77.57,0,1.13-.44,1.94-.78v-26.45c-4.93,2.16-9.36,4.38-13.98,6.06-23.89,8.68-51.94-1.3-66.3-23.45-13.32-20.55-10.9-49.37,6.6-67.17C41.07,57.97,67.34,32.18,93.56,6.34c8.76-8.63,18.83-8.39,27.67.33,25.02,24.67,49.59,49.81,75.04,74.02,23.2,22.06,21.28,56.15,6.87,74.8-17.66,22.87-48.11,29.08-74.27,14.79-.9-.49-1.85-.9-4.02-1.95Z"/>
        <path class="cls-1" d="m392.67,47.26c2.91-3.31,5.58-6.51,8.41-9.54,14.89-15.93,33.04-22.42,54.45-17.45,20.97,4.87,34.1,18.71,40.45,38.84,7.64,24.19,2.04,45.79-14.62,64.53-24.44,27.51-49.1,54.81-73.67,82.2-9.53,10.62-20.4,10.81-30.06.15-25.12-27.74-50.33-55.4-75.08-83.47-23.25-26.37-22.36-65.63,1.39-88.58,20.97-20.26,54.94-20.4,76.05-.17,4.34,4.16,8.26,8.77,12.67,13.49Z"/>
        <path class="cls-1" d="m107.59,500c-5.28-3-10.39-4.51-13.5-7.88-29.95-32.4-59.63-65.05-89.21-97.79-6.67-7.38-6.45-16.37.29-23.81,29.33-32.4,58.73-64.74,88.26-96.96,8.03-8.76,19.54-8.82,27.53-.11,29.54,32.21,58.96,64.54,88.27,96.96,7.08,7.84,6.83,16.94-.32,24.83-28.93,31.91-57.86,63.84-87.09,95.48-3.54,3.83-8.95,5.92-14.23,9.29Z"/>
      </g>
    </g>
  </g>
</svg>