<?xml version="1.0" encoding="UTF-8"?>
<svg id="Layer_2" data-name="Layer 2" xmlns="http://www.w3.org/2000/svg" viewBox="0 0 500.31 325.39">
  <defs>
    <style>
      .cls-1 {
        fill: #f2f0ea;
        stroke-width: 0px;
      }
    </style>
  </defs>
  <g id="Layer_1-2" data-name="Layer 1">
    <g>
      <path class="cls-1" d="m499.29,138.59c1.09,14.61.91,29.34.73,44.01-.13,10.25-.41,20.62-2,30.71-2.49,15.84-14.95,26.9-30.88,28.77-3.41.41-6.87.5-10.31.5-69.16.03-138.32.02-207.48.02-69.62,0-139.24-.07-208.86.04-16.55.02-29.8-5.53-36.9-21.23-2.1-4.65-3.11-10.15-3.2-15.3-.36-20.19-.23-40.39-.12-60.59.1-16.61,9.99-26.28,26.76-26.4,4.82-.04,9.65-.09,14.47.02,15.01.34,25.93,11.21,26.09,26.31.18,17.21.01,34.42.06,51.64.03,9.92,3.29,13.34,13.13,13.35,113.27.04,226.55.04,339.82,0,9.85,0,13.21-3.35,13.29-13.31.14-17.21,0-34.42.05-51.64.05-17.86,9.8-27.48,27.81-27.53,4.82-.01,9.66-.1,14.47.06,11.78.39,22.18,8.84,23.06,20.56Z"/>
      <path class="cls-1" d="m459.19,34.22c.12,20.36.03,40.73.03,61.46-18.37.93-31.6,8.61-41.18,23.08-1.34,2.03-5.15,3.4-7.83,3.42-31.91.23-63.83.39-95.75.06-18.86-.2-37.17.93-52.55,13.44-.64-.83-1.11-1.15-1.11-1.47-.06-32.56-.34-65.13-.02-97.69.18-17.84,16.14-34.29,34.07-35.65,9.37-.71,18.81-.6,28.21-.61,33.98-.06,67.96-.06,101.95-.01,20.57.02,34.06,13.4,34.17,33.97Z"/>
      <path class="cls-1" d="m409.37,268.38c5.24,18.48,10.22,37.03,15.6,56.81-7.43,0-13.83.17-20.2-.14-1.41-.06-3.45-1.51-3.99-2.82-7.71-18.8-15.21-37.69-23.15-57.54,9.88,0,18.79-.16,27.69.17,1.43.05,3.63,2.03,4.05,3.52Z"/>
      <path class="cls-1" d="m410.45,144.76v42.23h-148.85c-3.52-15.53,8.19-34.46,25.15-39.95,4.74-1.53,9.88-2.51,14.85-2.54,34.93-.21,69.86-.12,104.78-.1,1.12,0,2.24.19,4.07.36Z"/>
      <path class="cls-1" d="m238.21,37.37c.9,32.95.24,65.94.24,100.31-14.52-11.48-30.07-14.49-46.87-14.31-33.75.37-67.5.02-101.25.21-4.44.02-6.84-1.28-9.24-5.14-8.83-14.23-22.05-21.53-39.05-22.8-.21-.65-.71-1.47-.71-2.29-.04-21.55-.29-43.12.06-64.66.23-14.82,12.96-28.05,28.55-28.21C113.78.03,157.64-.04,201.48.77c20.47.38,36.16,16.03,36.73,36.6Z"/>
      <path class="cls-1" d="m198.75,145.6c24.07.18,41.16,19.15,39.48,43.56H88.7v-43.07c1.9-.2,3.64-.54,5.37-.54,34.89-.03,69.79-.21,104.68.05Z"/>
      <path class="cls-1" d="m121.64,264.69c-8,19.96-15.42,38.65-23.04,57.26-.55,1.36-2.46,3.01-3.8,3.08-6.57.32-13.18.14-20.48.14,5.36-19.72,10.38-38.48,15.68-57.16.4-1.4,2.81-3.13,4.33-3.18,8.68-.31,17.38-.15,27.31-.15Z"/>
    </g>
  </g>
</svg>