<?xml version="1.0" encoding="UTF-8"?>
<svg id="Layer_2" data-name="Layer 2" xmlns="http://www.w3.org/2000/svg" viewBox="0 0 500 426.11">
  <defs>
    <style>
      .cls-1 {
        fill: #f2f0ea;
        stroke-width: 0px;
      }
    </style>
  </defs>
  <g id="Layer_1-2" data-name="Layer 1">
    <g>
      <path class="cls-1" d="m481.2,42.19l-207.48,59c-3.08.88-5.79,2.74-7.73,5.3-1.93,2.56-2.98,5.68-2.98,8.88v200.94c-8.71-5.08-18.71-8.21-29.5-8.21-32.54,0-59,26.46-59,59s26.46,59,59,59,59-26.46,59-59v-152.1l177.98-50.57v92.88c-8.71-5.08-18.71-8.21-29.5-8.21-32.54,0-59,26.46-59,59s26.46,59,59,59,59-26.46,59-59V56.38c0-9.75-9.33-16.86-18.8-14.19Z"/>
      <path class="cls-1" d="m170.71,91.11c-28.9-17.73-52.71-32.73-52.71-76.36,0-8.15-6.6-14.75-14.75-14.75s-14.75,6.6-14.75,14.75v259.94c-8.71-5.08-18.71-8.2-29.5-8.2-32.54,0-59,26.46-59,59s26.46,59,59,59,59-26.46,59-59v-140.76c9.65,7.73,21.53,14.09,31.94,20.13,30.88,17.9,57.55,33.37,57.55,76.39,0,8.15,6.6,14.75,14.75,14.75s14.75-6.6,14.75-14.75v-88.5c0-60.97-35.2-82.57-66.27-101.62Z"/>
    </g>
  </g>
</svg>