<?xml version="1.0" encoding="UTF-8"?>
<svg id="Layer_2" data-name="Layer 2" xmlns="http://www.w3.org/2000/svg" viewBox="0 0 499.63 500">
  <defs>
    <style>
      .cls-1 {
        fill: #f2f0ea;
        stroke-width: 0px;
      }
    </style>
  </defs>
  <g id="Layer_1-2" data-name="Layer 1">
    <g>
      <path class="cls-1" d="m74.78,454.73c-14.57,6.06-29.01,12.07-44.16,18.37-2.63,1.09-5.27-1.54-4.18-4.17,7.85-19,15.42-37.3,22.98-55.58.88-2.12,3.65-2.66,5.24-1.01,7.35,7.61,17.07,24.39,21.92,38.4.55,1.59-.25,3.33-1.8,3.98Z"/>
      <path class="cls-1" d="m151.25,416.17c.02,3.39-.99,5.03-4.2,6.31-16.12,6.49-32.13,13.24-48.18,19.9-.53.22-1.07.42-1.64.62-1.61.58-3.4-.22-4.04-1.8-1.12-2.75-2.2-5.41-3.33-8.05-6.46-15.04-15.29-28.54-26.55-40.42-1.71-1.81-2.79-3.24-1.6-6.08,18.89-45.13,31.72-76.03,36.25-86.67.86-2.02,3.47-2.6,5.09-1.11,13.25,12.15,23.37,26.45,31.28,42.4,11.67,23.58,16.8,48.66,16.92,74.9Z"/>
      <path class="cls-1" d="m275.37,369.97c-33.86,14.25-67.74,28.51-101.45,42.7-1.99.84-4.22-.5-4.47-2.68-1.31-11.28-2.22-22.27-4.32-33.02-7.39-37.84-24.57-70.3-53.33-95.89-3.65-3.25-4.07-5.69-2.24-10.02,6.89-16.26,13.48-32.64,20.09-48.88.89-2.17,3.66-2.73,5.3-1.07,47.23,47.9,94.17,95.5,141.47,143.47,1.64,1.66,1.09,4.49-1.05,5.4Z"/>
      <path class="cls-1" d="m499.63,225.44v4.28c-4.07,6.12-5.89,6.9-12.86,4.85-44.14-12.95-88.37-13.36-132.56-.53-21.27,6.17-41.27,15.36-59.95,27.33-8.38,5.37-16.77,10.75-25.24,15.97-4.66,2.87-9.21,1.97-11.75-1.92-2.48-3.81-1.61-8.11,2.93-11,22.64-14.4,44.92-29.45,70.28-38.97,38.69-14.54,78.53-19.66,119.51-14.05,13.34,1.83,26.54,4.88,39.65,8,3.6.85,6.67,3.98,9.98,6.05Z"/>
      <path class="cls-1" d="m468.21,295.03c-2.54-.76-5.12-1.53-7.49-2.7-12.94-6.39-21.55-16.51-25.71-30.38-1.17-3.91-3.6-7.29-7.83-6.48-2.78.54-6.6,3.03-7.39,5.46-5.73,17.86-17.51,29.12-35.12,35.07-2.38.8-5.31,4.56-5.23,6.84.1,2.64,2.77,6.76,5.16,7.5,18.01,5.49,29.35,17.12,35.09,34.9.85,2.64,4.11,4.52,7.18,7.69,3.23-3.03,5.84-4.76,7.4-7.16,1.6-2.46,1.98-5.68,3.24-8.4,6.28-13.52,16.7-22.27,30.97-26.48,3.99-1.18,6.57-3.75,6.5-8.03-.07-4.3-2.81-6.64-6.79-7.83Zm-41.41,23.45c-4.36-4.51-10.82-11.2-15.1-15.63,4.21-4.21,10.69-10.68,15.32-15.3,4.33,4.4,10.83,11,15.56,15.8-4.27,4.1-10.96,10.52-15.77,15.13Z"/>
      <path class="cls-1" d="m455.27,96.51c-26.7-8.15-44.15-25.54-52.1-52.37-1.18-3.99-3.78-6.55-8.06-6.48-4.1.07-6.41,2.72-7.52,6.46-7.94,26.83-25.26,44.29-52.09,52.3-3.89,1.16-6.73,3.59-6.69,7.94.04,4.3,2.75,6.64,6.75,7.83,26.44,7.86,43.51,25.23,51.76,51.38,1.37,4.32,3.4,7.55,8.4,7.34,4.71-.19,6.65-3.41,7.72-7.52,3.6-13.84,11.04-25.3,21.6-34.84,8.59-7.75,18.44-13.27,29.6-16.31,4.19-1.15,7.07-3.23,7.44-7.93-.38-4.18-2.83-6.57-6.81-7.79Zm-59.87,45.24c-9.03-15.99-21.06-28.25-37.6-37.37,16.71-8.99,28.71-21.26,37.58-37.22,8.82,16.24,21,28.32,37.3,37.27-16.11,9.02-28.55,20.86-37.27,37.31Z"/>
      <path class="cls-1" d="m442.57,303.36c-4.27,4.1-10.96,10.52-15.77,15.13-4.36-4.51-10.82-11.2-15.1-15.63,4.21-4.21,10.69-10.68,15.32-15.3,4.33,4.4,10.83,11,15.56,15.8Z"/>
      <path class="cls-1" d="m432.67,104.43c-16.11,9.02-28.55,20.86-37.27,37.31-9.03-15.99-21.06-28.25-37.6-37.37,16.7-8.99,28.71-21.26,37.58-37.22,8.82,16.24,21,28.32,37.3,37.27Z"/>
      <path class="cls-1" d="m355.61,286.91c5.21.61,8,4.16,7.31,8.69-.76,4.92-4.15,6.71-8.78,6.73h-4.26c-13.4-.18-25.07,4.25-34.97,13.3-1.18,1.07-2.46,2.83-3.72,2.86-3.11.07-7.29.38-9.07-1.39-1.74-1.74-1.12-5.92-1.37-9.04-.05-.54.67-1.24,1.17-1.72,15-14.51,32.61-21.91,53.71-19.43Z"/>
      <path class="cls-1" d="m342.8,165.04c-1.86,3.05-2.83,5.59-4.58,7.37-11.33,11.53-22.8,22.93-34.3,34.29-3.91,3.86-8.5,4.04-11.86.81-3.21-3.1-2.99-7.94.85-11.8,11.65-11.71,23.26-23.48,35.25-34.85,1.92-1.81,5.96-2.75,8.53-2.11,2.29.56,3.9,3.86,6.12,6.29Z"/>
      <path class="cls-1" d="m299.52,361.59c-54.55-54.2-108.78-108.7-163.11-163.1-7.78-7.79-12.79-6.84-16.95,3.23-34.86,84.2-69.72,168.4-104.57,252.6-4.76,11.49-9.61,22.95-14.17,34.51-2.36,5.97,1.23,11.31,8.1,11.16.94-.35,2.79-.95,4.57-1.69,94.03-39.02,188-78.17,282.13-116.93,13.43-5.53,12.63-11.2,4-19.78ZM13.21,482.52l33.47-80.97c.76-1.84,3.01-2.55,4.69-1.46l3.22,2.08c8.71,5.64,23.91,28.76,30.44,50.13l.85,2.77c.48,1.57-.31,3.25-1.83,3.88l-66.66,27.73c-2.63,1.09-5.27-1.54-4.18-4.17Zm138.37-51.34c-12.04,4.84-24.23,9.92-36.03,14.83-4.87,2.03-9.75,4.06-14.63,6.08-1.12.46-2.21.85-3.36,1.25-.52.18-1.07.38-1.65.58l-2.88,1.05c-1.61.58-3.39-.2-4.04-1.79l-1.17-2.83c-.53-1.27-1.04-2.52-1.53-3.74-1.08-2.64-2.09-5.13-3.15-7.61-6.5-15.15-15.48-28.83-26.72-40.68-1.76-1.86-5.89-6.22-2.94-13.27,9.42-22.5,18.9-45.43,28.07-67.59,2.68-6.49,10.79-23.77,14.42-31.46.9-1.91,3.36-2.43,4.96-1.06l2.62,2.24c15.59,13.36,28.01,29.63,37.97,49.74,12.13,24.49,18.35,51.96,18.48,81.65.03,6.28-2.64,10.28-8.42,12.61Zm17.16-7.42c-1.94.81-4.12-.46-4.39-2.55l-.53-4.15c-.53-4.18-1-8.35-1.44-12.38-.97-8.76-1.88-17.03-3.5-25.19-7.57-38.16-25.43-69.78-53.09-93.99-5.79-5.06-7.01-10.47-3.98-17.53,5.69-13.18,11.25-26.66,16.64-39.7,2.01-4.87,4.02-9.73,6.03-14.58l1.83-4.4c.87-2.1,3.6-2.64,5.21-1.04l160.16,159.8c1.61,1.61,1.07,4.34-1.03,5.21l-121.92,50.48Z"/>
      <path class="cls-1" d="m280.37,10.02c19.7,70.74,10.55,137.67-27.2,200.66-5.66,9.46-11.57,18.78-17.44,28.12-2.95,4.69-7.28,6.05-11.26,3.75-4.18-2.41-5.01-7.05-2-12.08,8.96-14.94,18.94-29.36,26.81-44.85,28.07-55.31,32.77-113.05,15.77-172.59-1.56-5.45-1.02-9.71,3.8-13.02h5.34c2.1,3.33,5.16,6.39,6.17,10.02Z"/>
      <path class="cls-1" d="m244.26,72.65c-.59-2.69-2.71-6.44-4.97-7.14-17.84-5.6-29.63-16.9-35.13-34.8-1.14-3.73-3.64-6.16-7.76-6.08-4.07.09-6.49,2.52-7.62,6.28-5.2,17.37-16.56,28.56-33.82,33.86-3.78,1.15-6.39,3.43-6.37,7.53.02,4.19,2.44,6.68,6.46,8.1,4.34,1.52,8.74,3.17,12.64,5.53,10.47,6.32,17.23,15.7,20.79,27.36,1.25,4.09,3.35,7.03,8.03,7.31,4.7-.08,6.44-3.26,8.19-7.07,2.77-6.08,5.61-12.26,9.43-17.67,5.97-8.44,14.96-12.83,24.69-15.78,3.62-1.1,6.25-3.74,5.45-7.43Zm-47.97,15.49c-4.14-4.22-10.67-10.85-15.59-15.87,4.57-4.34,11.31-10.75,15.97-15.19,4.58,4.5,11.11,10.9,15.67,15.38-4.76,4.65-11.42,11.15-16.06,15.67Z"/>
      <path class="cls-1" d="m204.06,136.67c4.62-.55,8.71,2.04,8.66,7.19-.1,8.59-.71,17.34-2.54,25.7-2.24,10.21-8.31,18.72-15.22,26.49-3.99,4.5-9.02,5.18-12.56,1.88-3.4-3.17-3.22-7.8.78-12.21,9.18-10.12,14.59-21.7,14.4-35.04-.11-2.14-.25-3.73-.26-5.33-.03-4.93,2.51-8.18,6.74-8.69Z"/>
      <path class="cls-1" d="m196.68,57.09c4.58,4.5,11.11,10.9,15.67,15.38-4.76,4.65-11.42,11.15-16.06,15.67-4.14-4.22-10.67-10.85-15.59-15.87,4.57-4.34,11.31-10.75,15.97-15.19Z"/>
    </g>
  </g>
</svg>