<?xml version="1.0" encoding="UTF-8"?>
<svg id="Layer_2" data-name="Layer 2" xmlns="http://www.w3.org/2000/svg" viewBox="0 0 500 408.04">
  <defs>
    <style>
      .cls-1 {
        fill: #f2f0ea;
        fill-rule: evenodd;
        stroke-width: 0px;
      }
    </style>
  </defs>
  <g id="Layer_1-2" data-name="Layer 1">
    <path class="cls-1" d="m497.3,0H2.7C1.22,0,0,1.22,0,2.7v352.62c0,1.49,1.22,2.7,2.7,2.7h357.45c.84,0,1.63.33,2.21.93l17.26,17.59,30,30.57c1.67,1.7,4.55.96,5.19-1.34l11.47-41.26,1.17-4.22c.38-1.34,1.59-2.27,2.99-2.27h66.85c1.49,0,2.7-1.22,2.7-2.7V2.7c0-1.49-1.22-2.7-2.7-2.7Zm-178.73,111.17c45.31-34.53,96.93,17.05,62.43,62.37-.16.2-.34.39-.55.55-45.32,34.49-96.89-17.04-62.43-62.37.16-.2.34-.39.55-.55Zm-68.57-64.87c31.66,0,57.41,25.76,57.41,57.41s-25.75,57.4-57.41,57.4-57.41-25.76-57.41-57.4,25.76-57.41,57.41-57.41ZM119.54,111.17c45.31-34.53,96.93,17.05,62.43,62.37-.16.2-.34.39-.55.55-45.32,34.49-96.89-17.04-62.43-62.37.16-.2.34-.39.55-.55Zm25.09,168.43c.95,1.81-.33,3.99-2.38,3.99h-37.7c-10.55,0-19.13-8.59-19.13-19.13.02-17.25,6.88-33.78,19.07-45.98,12.2-12.2,28.74-19.07,45.99-19.08h0c2.07,0,3.35,2.22,2.35,4.03-8.76,15.85-13.84,34.02-13.84,53.37,0,7.97,1.95,15.79,5.62,22.8Zm193.4-7.49c0,3.05-1.21,5.96-3.36,8.12-2.16,2.15-5.07,3.36-8.12,3.36h-161.87c-1.49,0-2.7-1.21-2.7-2.7v-24.09c0-23.34,9.27-45.73,25.78-62.24,16.51-16.51,38.9-25.79,62.25-25.79s45.74,9.27,62.25,25.79c16.51,16.51,25.79,38.9,25.79,62.24v15.31Zm57.4,11.48h-37.71c-2.05,0-3.32-2.17-2.37-3.99,3.58-6.83,5.64-14.56,5.64-22.81-.01-18.7-4.78-37.06-13.83-53.37-1-1.81.28-4.03,2.35-4.03h0c17.25.02,33.79,6.88,45.99,19.08,12.2,12.2,19.06,28.73,19.08,45.98,0,10.55-8.59,19.13-19.14,19.13Z"/>
  </g>
</svg>