<?xml version="1.0" encoding="UTF-8"?>
<svg id="Layer_2" data-name="Layer 2" xmlns="http://www.w3.org/2000/svg" viewBox="0 0 500 500">
  <defs>
    <style>
      .cls-1 {
        fill: #f2f0ea;
        stroke-width: 0px;
      }
    </style>
  </defs>
  <g id="Layer_1-2" data-name="Layer 1">
    <path class="cls-1" d="m195.96,500c2.23,0,4.04-1.81,4.04-4.04v-95.96c0-13.26,5.27-25.98,14.65-35.35,9.38-9.38,22.09-14.65,35.35-14.65s25.98,5.27,35.35,14.65c9.38,9.38,14.65,22.09,14.65,35.35v95.96c0,2.23,1.81,4.04,4.04,4.04h91.93c2.23,0,4.04-1.81,4.04-4.04v-245.96c0-4.31-1.11-8.56-3.24-12.31-2.12-3.75-5.19-6.89-8.89-9.12l-110.92-66.55c-1.22-.73-1.96-2.04-1.96-3.46v-54.53c0-2.23,1.81-4.04,4.04-4.04h41.93c2.23,0,4.04-1.81,4.04-4.04v-41.93c0-2.23-1.81-4.04-4.04-4.04h-41.93c-2.23,0-4.04-1.81-4.04-4.04V4.04c0-2.23-1.81-4.04-4.04-4.04h-41.93c-2.23,0-4.04,1.81-4.04,4.04v41.93c0,2.23-1.81,4.04-4.04,4.04h-41.93c-2.23,0-4.04,1.81-4.04,4.04v41.93c0,2.23,1.81,4.04,4.04,4.04h41.93c2.23,0,4.04,1.81,4.04,4.04v54.53c0,1.42-.74,2.73-1.96,3.46l-110.92,66.55c-3.7,2.22-6.76,5.36-8.88,9.12-2.13,3.75-3.24,7.99-3.24,12.31v245.96c0,2.23,1.81,4.04,4.04,4.04h91.93Zm-173.45,0h48.45c2.23,0,4.04-1.81,4.04-4.04v-192.38c0-3-3.16-4.95-5.84-3.61l-55.33,27.68c-4.16,2.07-7.65,5.26-10.09,9.21C1.29,340.81,0,345.36,0,350v125C0,486.82,8.37,497.78,21.83,499.95c.23.04.46.05.69.05Zm463.66-172.38l-55.33-27.66c-2.68-1.34-5.84.61-5.84,3.61v192.38c0,2.23,1.81,4.04,4.04,4.04h48.45c.23,0,.46-.02.69-.05,13.46-2.17,21.83-13.13,21.83-24.95v-125c0-9.47-5.35-18.13-13.82-22.38Z"/>
  </g>
</svg>