<?xml version="1.0" encoding="UTF-8"?>
<svg id="Layer_2" data-name="Layer 2" xmlns="http://www.w3.org/2000/svg" viewBox="0 0 249.59 500">
  <defs>
    <style>
      .cls-1 {
        opacity: .78;
      }

      .cls-1, .cls-2 {
        fill: #f2f0ea;
        stroke-width: 0px;
      }
    </style>
  </defs>
  <g id="Layer_1-2" data-name="Layer 1">
    <g>
      <path class="cls-2" d="m133.14,241.68c-.09,4.3-4.23,8.29-8.57,8.24-4.52-.05-8.56-4.44-8.3-9.03.25-4.46,4.23-7.96,8.79-7.77,4.5.18,8.18,4.09,8.08,8.56Z"/>
      <path class="cls-2" d="m249.46,160.14c.01,6.68,0,13.36,0,20.33,0,1.32-1.07,2.4-2.39,2.4h-28.54c-1.32,0-2.39-1.07-2.39-2.39v-44.37c0-1.16.83-2.15,1.97-2.36,18.63-3.5,31.31,7.07,31.36,26.4Z"/>
      <path class="cls-2" d="m249.31,411.15c.22,8.41.52,16.86-.08,25.23-.89,12.29-10.09,20.75-22.36,21.33-3.01.15-6.03.06-9.34.04-.78,0-1.41-.63-1.41-1.41v-45.47c0-1.76,1.43-3.19,3.2-3.2,9.17-.01,18.13-.07,27.08.16,1.04.02,2.88,2.14,2.91,3.32Z"/>
      <rect class="cls-2" x="216.09" y="200.06" width="32.98" height="190.7" rx="2.39" ry="2.39"/>
      <path class="cls-2" d="m191.05,53.28c0-.18.02-.37.04-.57h-15.02c-.82,0-1.49.67-1.48,1.49.15,19.91.09,39.83.06,59.74v.14c0,.82.66,1.49,1.48,1.49h13.46c.87,0,1.55-.74,1.48-1.6s-.13-1.68-.13-2.47c-.02-19.41-.09-38.81.11-58.22Z"/>
      <path class="cls-2" d="m74.65,53.53c0-.28,0-.55.02-.82h-14.85c-.82,0-1.49.67-1.48,1.5.22,19.95.14,39.92.12,59.88h0c0,.82.67,1.49,1.48,1.49h13.45c.87,0,1.55-.75,1.48-1.61-.08-.94-.14-1.85-.14-2.75-.02-19.23.04-38.45-.07-57.68Z"/>
      <path class="cls-2" d="m58.16,22.99C59.1,10.18,70.14.19,83.78.07c13.69-.12,27.38-.02,41.08-.02s27.38-.12,41.08.03c13.68.15,23.87,9.69,25.21,23.27.53,5.41-2.21,9.42-6.92,10.13-4.98.76-8.52-1.89-9.77-7.32-1.79-7.74-3.37-9.09-11.03-9.09-25.93-.02-51.85-.02-77.79,0-7.09,0-9.28,1.82-10.5,8.36-1.1,5.9-4.51,8.72-9.72,8.08-4.79-.59-7.68-4.79-7.26-10.52Z"/>
      <path class="cls-1" d="m205.25,471.78c-7.7-.08-13.56,6.03-13.31,13.87.25,7.54,5.95,12.98,13.43,12.81,7.42-.17,13.07-5.99,12.97-13.36-.1-7.42-5.85-13.26-13.09-13.32Zm-154.52,1.55c-7.67-.05-13.58,6.11-13.32,13.87.26,7.51,5.99,12.97,13.44,12.8,7.43-.17,13.05-5.95,12.94-13.36-.09-7.4-5.83-13.24-13.06-13.31Z"/>
      <rect class="cls-2" x="183.04" y="133.57" width="16.04" height="323.94" rx="3.2" ry="3.2"/>
      <path class="cls-2" d="m166.11,410.49v44.91c0,1.27-.99,2.36-2.26,2.37,0,0-.01,0-.02,0-25.86.02-51.72,0-77.95,0-1.32,0-2.4-1.07-2.4-2.39v-44.9c0-1.32,1.07-2.39,2.39-2.39h77.84c1.32,0,2.39,1.07,2.39,2.39Z"/>
      <rect class="cls-2" x="83.22" y="133.75" width="82.81" height="48.97" rx="2.39" ry="2.39"/>
      <path class="cls-2" d="m83.44,202.44v186.13c0,1.32,1.07,2.39,2.39,2.39h77.83c1.32,0,2.39-1.07,2.39-2.39v-186.13c0-1.32-1.07-2.39-2.39-2.39h-77.83c-1.32,0-2.39,1.07-2.39,2.39Zm41.11,63.84c-13.63-.02-24.79-11.55-24.64-25.47.15-13.2,11.33-23.98,24.85-23.97,13.81,0,24.88,11.37,24.68,25.3-.19,13.02-11.68,24.15-24.9,24.13Z"/>
      <path class="cls-2" d="m65.43,33.51c-4.79-.59-7.68-4.79-7.26-10.52C59.1,10.18,70.14.19,83.78.07c13.69-.12,27.38-.02,41.08-.02s27.38-.12,41.08.03c13.68.15,23.87,9.69,25.21,23.27.53,5.41-2.21,9.43-6.92,10.13-4.98.76-8.52-1.89-9.77-7.32-1.79-7.74-3.37-9.09-11.03-9.09-25.93-.02-51.85-.02-77.79,0-7.09,0-9.28,1.82-10.5,8.36-1.1,5.9-4.51,8.72-9.72,8.08Z"/>
      <rect class="cls-2" x="50.39" y="133.68" width="15.95" height="323.9" rx="3.2" ry="3.2"/>
      <path class="cls-2" d="m33.4,135.82v44.46c0,1.32-1.07,2.39-2.39,2.39H3.27c-1.31,0-2.37-1.06-2.39-2.37-.11-10.17-.84-20.47.32-30.56,1-8.67,10.19-15.39,19.14-16.22,3.43-.32,6.91-.15,10.7-.09,1.31.02,2.36,1.09,2.36,2.39Z"/>
      <path class="cls-2" d="m33.24,411.38v43.55c0,1.89-1.62,3.35-3.5,3.18-5.4-.49-10.67-.69-15.48-2.29-8.46-2.81-13.39-9.73-13.95-18.64-.54-8.44-.23-16.95-.15-25.81.01-1.76,1.44-3.18,3.2-3.18h26.69c1.77,0,3.2,1.43,3.2,3.2Z"/>
      <rect class="cls-2" x=".31" y="199.92" width="32.9" height="190.81" rx="2.39" ry="2.39"/>
    </g>
  </g>
</svg>