<?xml version="1.0" encoding="UTF-8"?>
<svg id="Layer_2" data-name="Layer 2" xmlns="http://www.w3.org/2000/svg" viewBox="0 0 500 500">
  <defs>
    <style>
      .cls-1 {
        fill: #f2f0ea;
        stroke-width: 0px;
      }
    </style>
  </defs>
  <g id="Layer_1-2" data-name="Layer 1">
    <g id="l12Q6s.tif">
      <g>
        <path class="cls-1" d="m0,182.98c6.34-15.44,18.19-20.35,34.33-19.99,31.39.7,62.8.35,94.2.12,9.71-.07,17.51,3.22,24.31,10,18.45,18.39,37.09,36.59,55.63,54.89,13.62,13.44,13.87,28.71.42,42.24-19.03,19.13-38.28,38.03-57.35,57.12-6.61,6.61-14.26,9.67-23.74,9.59-31.17-.28-62.35-.64-93.5.12-16.21.39-27.9-4.68-34.29-20.01v-134.07Z"/>
        <path class="cls-1" d="m182.95,500c-.94-.58-1.83-1.28-2.83-1.72-11.4-5.05-17.06-13.76-17.05-26.26.04-33.48.12-66.96-.06-100.43-.05-8.77,3.31-15.75,9.26-21.76,19.62-19.84,39.15-39.76,58.94-59.42,11.22-11.15,26-11.34,37.32-.33,20.17,19.61,40.03,39.53,59.94,59.4,5.68,5.66,8.46,12.58,8.44,20.71-.07,34.18-.08,68.35,0,102.53.03,14.05-8.29,21.81-19.88,27.3h-134.07Z"/>
        <path class="cls-1" d="m250.86.03c19.32,0,38.64-.06,57.96.02,16.64.07,27.85,10.66,27.98,27.25.26,34.21.03,68.43.13,102.65.02,8.73-3.47,15.73-9.47,21.73-18.93,18.93-37.73,37.99-56.83,56.74-13.28,13.04-28.01,12.77-41.1-.38-18.89-18.97-37.57-38.14-56.55-57.01-6.87-6.83-10.06-14.59-9.99-24.3.23-32.58.01-65.17.12-97.76.06-18.51,10.52-28.83,29.11-28.92,19.55-.09,39.1-.02,58.66-.02Z"/>
        <path class="cls-1" d="m499.96,250.75c0,19.08.06,38.17-.02,57.25-.07,17.96-10.72,28.76-28.55,28.81-33.05.09-66.09-.08-99.14.09-8.48.04-15.42-2.97-21.26-8.77-19.82-19.68-39.68-39.31-59.29-59.19-11.78-11.94-11.8-27.19.02-39.12,19.32-19.51,38.96-38.71,58.5-58,5.88-5.8,12.92-8.7,21.33-8.67,33.51.11,67.02-.04,100.53.08,16.84.06,27.72,11.12,27.84,28.17.14,19.78.03,39.56.03,59.34Z"/>
      </g>
    </g>
  </g>
</svg>