<?xml version="1.0" encoding="UTF-8"?>
<svg id="Layer_2" data-name="Layer 2" xmlns="http://www.w3.org/2000/svg" viewBox="0 0 1086.44 1490.74">
  <defs>
    <style>
      .cls-1 {
        stroke-width: 0px;
      }
    </style>
  </defs>
  <g id="hair">
    <g>
      <path class="cls-1" d="m248.86,126.14c0,68-54.97,122.82-122.95,122.82S3.21,194.14,3.21,126.14,58.18,3.32,125.91,3.32s122.95,54.96,122.95,122.82Z"/>
      <path class="cls-1" d="m1083.22,465.66v572.49c-2.56,128.53-52.75,235.62-151.34,321.26-99.1,85.39-226.23,128.15-381.54,128.15s-293.45-42.76-392.68-128.15C58.45,1273.76,7.62,1166.68,5.06,1038.15V465.66c0-64.2,52.24-116.35,116.38-116.35h257.6c8.45,0,10.88,11.29,3.33,14.85-223.8,104.17-354.01,434.19,121.76,935.37,30.34,32.1,32.65,32.1,61.58,0,489.34-545.46,330.97-839.95,129.83-935.37-7.55-3.68-4.99-14.85,3.33-14.85h267.97c64.4,0,116.38,52.15,116.38,116.35Z"/>
      <path class="cls-1" d="m677.7,627.1c0,78.97-64.08,143.17-143.29,143.17s-143.29-64.2-143.29-143.17,64.2-143.42,143.29-143.42,143.29,64.2,143.29,143.42Z"/>
      <path class="cls-1" d="m957.53,248.9c67.73,0,122.7-54.82,122.7-122.82S1025.25,3.26,957.53,3.26s-122.95,54.96-122.95,122.82,54.97,122.82,122.95,122.82Z"/>
    </g>
  </g>
</svg>