<?xml version="1.0" encoding="UTF-8"?>
<svg id="Layer_2" data-name="Layer 2" xmlns="http://www.w3.org/2000/svg" xmlns:xlink="http://www.w3.org/1999/xlink" viewBox="0 0 1600 740.77">
  <defs>
    <style>
      .cls-1 {
        fill: none;
      }

      .cls-1, .cls-2, .cls-3 {
        stroke-width: 0px;
      }

      .cls-2 {
        fill: url(#blu-icons);
        opacity: .02;
      }

      .cls-3 {
        fill: #fff;
      }
    </style>
    <pattern id="blu-icons" x="0" y="0" width="441.94" height="259.77" patternTransform="translate(-17.97 2389.18)" patternUnits="userSpaceOnUse" viewBox="0 0 441.94 259.77">
      <g>
        <rect class="cls-1" width="441.94" height="259.77"/>
        <g>
          <path class="cls-3" d="m252.52,187.17c.56-.59,1.21-1.19,1.96-1.79,1.66-1.34,3.14-2.93,4.66-4.43.3-.3.62-.58.95-.84.21-.17.45-.31.69-.41,1.18-.52,2.33-.21,3.06.85.95,1.39.88,2.85.11,4.27-.37.67-.85,1.29-1.35,1.87-.88,1.02-1.82,2-2.72,3-.31.34-.6.7-.9,1.06-.36.44-.41.89-.08,1.37.27.38.51.77.77,1.16.83,1.25,1.6,2.54,2.15,3.95.33.83.52,1.7.61,2.58.18,1.72-.24,3.29-1.24,4.71-.22.31-.43.64-.6.98-.05.1.02.33.11.4.09.07.32.07.41,0,.65-.49,1.2-1.09,1.6-1.81.7-1.27,1.16-2.61,1.16-4.07,0-.42,0-.85,0-1.3.45-.02.54.33.7.55,1.75,2.45,3.65,4.78,5.57,7.09.42.5.87.98,1.29,1.48.2.23.36.48.52.69-.08.44-.4.53-.68.64-1.33.52-2.65,1.05-3.99,1.54-1.85.67-1.52.41-2.47,2.02-1.47,2.49-2.94,4.98-4.41,7.47-.33.56-.63,1.15-.98,1.71-.58.93-1.24,1.18-2.25.85-1.46-.49-2.92-.99-4.37-1.5-4.36-1.54-8.72-3.08-13.09-4.62-.18-.06-.37-.11-.55-.19-.89-.38-1.23-1.19-.87-2.08.09-.21.21-.41.35-.6,2-2.79,4.01-5.57,6.02-8.35,2.32-3.23,4.07-5.09,4.33-8.77.3-4.21,1.05-6.88,3.5-9.48Z"/>
          <path class="cls-3" d="m258.78,145.75c-.2.78-.62,1.47-1.05,2.15-.98,1.61-2.17,3.09-3.41,4.51-2.57,2.93-5.63,5.24-8.87,7.36-2.57,1.67-5.34,2.92-8.28,3.78-.26.07-.52.14-.79.17-.31.03-.61,0-1.01,0-.56-.79-.77-1.67-1.06-2.49-.55-1.53-.94-3.09-.94-4.73,0-3.8,1.27-7.1,3.84-9.89.6-.65,1.23-1.29,1.94-1.82,2.01-1.5,4.25-2.45,6.74-2.84,4.26-.68,8.08.45,11.66,2.71.44.28.91.57,1.23,1.09Zm-19.98,11.94c.04-.26-.27-.57-.59-.58-.31-.02-.61.22-.64.53-.03.31.23.66.5.67.31.02.69-.3.73-.61Zm.66-3.72c-.02-.28-.39-.59-.72-.61-.34-.02-.66.28-.68.62-.02.35.26.66.62.67.38,0,.8-.35.78-.68Zm2.15,4.15c.04-.36-.32-.77-.69-.8-.36-.02-.74.32-.79.71-.05.4.28.77.68.78.39,0,.76-.32.8-.69Zm2.02-3.83s0-.05,0-.07c0-.06,0-.1-.03-.16-.04-.13-.12-.25-.22-.36-.03-.04-.06-.08-.11-.11-.1-.09-.21-.18-.34-.23-.05-.03-.09-.05-.15-.06h0s0,0,0,0c-.13-.05-.27-.07-.4-.06-.56.03-1.07.57-1.08,1.14,0,.59.47,1.04,1.12,1.05.33,0,.66-.14.87-.36.06-.04.1-.08.14-.14.09-.12.16-.25.19-.39.02-.07.04-.15.04-.22Zm1.32-4.35c0-.79-.66-1.45-1.46-1.45-.7,0-1.3.57-1.32,1.31-.02.77.57,1.41,1.34,1.43.88.02,1.43-.47,1.45-1.28Zm1.81,2.95c0-.3-.25-.56-.58-.57-.32-.03-.62.23-.63.53-.02.31.23.61.52.65.35.05.68-.24.69-.6Z"/>
          <path class="cls-3" d="m261.63,191.19c.1-.46.46-.66.71-.94.66-.75,1.35-1.48,1.99-2.25.98-1.2,1.78-2.51,2.28-4.01.46-.16.81.04,1.14.2.17.41-.02.67-.14.95-1.05,2.35.6,5.35,2.99,5.98.44.12.9.2,1.34.3.29.25.2.57.15.87-.11.66-.1,1.3.05,1.95.55,2.31,2.65,3.61,4.42,3.57.3,0,.59.02.94.04,0,.41.03.75,0,1.08-.19,1.87,1.41,3.93,3.14,4.55,1.4.5,2.72.35,3.98-.42.46-.28.91-.57,1.42-.88.13.16.28.28.35.44.77,1.77,1.53,3.53,2.27,5.31.34.83.4,1.72.25,2.61-.11.66-.36,1.27-.81,1.76-.55.59-1.11,1.18-1.74,1.69-1.04.85-2.26,1.31-3.62,1.33-1.14.02-2.1-.4-2.87-1.25-1.24-1.37-2.49-2.73-3.74-4.1-.85-.94-1.68-1.91-2.54-2.84-2.71-2.91-5.18-6.02-7.48-9.25-1.48-2.07-2.86-4.2-4.29-6.31-.08-.12-.13-.27-.18-.37Z"/>
          <path class="cls-3" d="m240.02,169.98c-.31,0-.62-.03-.92-.02-1.99.09-3.56-1.68-3.96-3.29-.08-.31.06-.52.36-.62.15-.05.3-.08.45-.11,3.08-.54,5.88-1.8,8.61-3.25,2.8-1.49,5.39-3.3,7.77-5.39,2.06-1.81,4-3.73,5.63-5.95,1.05-1.43,2.09-2.86,2.82-4.5.23-.52.57-.6,1.01-.26,1.14.9,1.86,2.03,1.91,3.54.03.82-.14,1.61-.29,2.4-.29.45-.57.9-.86,1.35-1.84,2.83-4.08,5.31-6.63,7.5-2.04,1.76-4.22,3.34-6.56,4.69-2.57,1.49-5.23,2.78-8.12,3.54-.4.11-.8.24-1.2.36Z"/>
          <path class="cls-3" d="m240.02,169.98c.4-.12.8-.26,1.2-.36,2.89-.76,5.55-2.05,8.12-3.54,2.34-1.35,4.52-2.93,6.56-4.69,2.55-2.19,4.79-4.67,6.63-7.5.29-.45.57-.9.86-1.35.57,1.9.83,3.82.56,5.82-.25,1.93-.71,3.79-1.58,5.53-1.83,3.64-4.63,6.23-8.44,7.67-3.65,1.38-7.32,1.35-10.98.02-1.05-.38-2.02-.95-2.94-1.59Z"/>
          <path class="cls-3" d="m268.81,172.09c-1.62,1.83-3.22,3.65-4.88,5.53-.11-.02-.3-.02-.47-.07-1.69-.51-3.22-.16-4.55.93-.83.68-1.56,1.48-2.32,2.24-.38.38-.72.79-1.27,1.07-.14-.13-.31-.22-.4-.37-1.21-1.92-2.41-3.85-3.61-5.78-.12-.19-.18-.42-.24-.58.17-.45.55-.46.87-.57,1.17-.39,2.35-.75,3.49-1.2,1.73-.69,3.29-1.68,4.72-2.87,1.46-1.22,2.54-2.78,3.58-4.36.2-.31.32-.7.67-.9.74.79,3.93,5.75,4.43,6.93Z"/>
          <path class="cls-3" d="m278.79,176.72c1.28-.06,2.51.86,2.68,2.51.11,1-.17,1.91-.9,2.65-2.02,2.07-4.03,4.14-6.06,6.21-.57.59-1.22,1.05-2.07,1.18-1.79.29-3.38-1.22-3.14-3.04.07-.58.25-1.13.64-1.59.15-.18.28-.37.44-.53,1.99-2.1,3.98-4.19,5.98-6.28.21-.22.44-.43.69-.61.52-.38,1.11-.51,1.73-.49Z"/>
          <path class="cls-3" d="m274.08,193.01c.02-.88.28-1.63.95-2.27,1.78-1.71,3.51-3.47,5.27-5.2.52-.52,1.08-.97,1.83-1.16,1.79-.46,3.54.8,3.46,2.93-.04.93-.45,1.7-1.12,2.33-1.74,1.64-3.47,3.29-5.21,4.93-.48.45-1,.82-1.65,1.02-1.92.61-3.54-.56-3.52-2.58Z"/>
          <path class="cls-3" d="m267.89,182.51c-.09,0-.28-.01-.47-.04-.4-.06-.73-.25-.9-.64-.32-.74-.65-1.48-.93-2.24-.26-.68-.04-1.28.43-1.81,1.04-1.18,2.07-2.38,3.11-3.57.71-.81,1.43-1.61,2.16-2.41.26-.28.53-.56.84-.79.91-.69,1.9-.82,2.92-.28,1.02.54,1.46,1.46,1.44,2.58-.02.91-.31,1.73-.94,2.42-1.77,1.93-3.52,3.87-5.3,5.79-.72.77-1.32,1-2.35.98Z"/>
          <path class="cls-3" d="m289.23,194.87c-.09.78-.21,1.65-.94,2.3-1.29,1.16-2.56,2.33-3.85,3.49-.43.39-.91.7-1.49.85-1.97.5-3.66-1.05-3.33-3.06.12-.75.45-1.39.99-1.91.5-.48,1-.96,1.51-1.43.79-.73,1.58-1.47,2.38-2.19.49-.44,1.02-.82,1.71-.89,1.67-.19,2.98,1,3.01,2.84Z"/>
        </g>
        <g>
          <path class="cls-3" d="m420.82,203.61c0,10.42,0,20.84,0,31.25,0,.27,0,.54-.01.81-.16,1.89-1.48,3.2-3.38,3.33-.27.02-.54,0-.81,0-19.55,0-39.11,0-58.66,0-1.81,0-3.63.02-5.44,0-.46,0-.93-.03-1.37-.15-1.34-.35-2.24-1.18-2.51-2.58-.09-.49-.14-.99-.14-1.49,0-3.55.01-7.1.01-10.65,0-5.63,0-11.27,0-16.9,0-2.89-.02-5.79-.02-8.68,0-2.03,1.29-3.43,3.31-3.62.19-.02.39-.01.58-.01,8.83,0,17.67,0,26.5.02.38,0,.78-.08,1.25.25.01.38.04.76.04,1.15,0,1.04-.03,2.08,0,3.13.04,1.17.65,1.78,1.82,1.8,1.66.03,3.32.04,4.97,0,1.27-.03,1.94-.78,1.99-2.07,0-.27,0-.54,0-.81,0-.81,0-1.62,0-2.43,0-.27.05-.53.07-.79.47-.23.94-.21,1.39-.21,1.5-.01,3.01-.01,4.51-.01,7.25,0,14.5,0,21.75,0,.57,0,1.17.05,1.71.2,1.48.41,2.39,1.61,2.42,3.15.03,1.78.01,3.55.01,5.33Zm-44.66,3.64c.03,1.76,1.23,2.68,2.78,2.73,1.48.04,2.74-1.27,2.79-2.79.05-1.53-1.35-2.71-2.83-2.71-1.2-.03-2.77.89-2.74,2.77Zm-7.89,9.23c0,2.02,1.42,3.1,2.99,3.15,1.69.04,3.1-1.4,3.09-3.08-.05-1.63-1.17-3.05-3.1-3.08-1.39-.02-2.98.92-2.98,3.01Zm-7.57-9.32c-.02,1.49,1.23,2.73,2.8,2.79,1.53.06,2.83-1.19,2.81-2.73.03-1.53-1.18-2.75-2.76-2.76-1.29,0-2.83.89-2.85,2.7Zm21.4,6.74c0-.31,0-.62-.05-.92-.17-.97-.63-1.71-1.6-2.09-.48-.19-.94-.34-1.45-.33-1.35.01-2.7.01-4.05.02-.19,0-.39.01-.58.04-.19.02-.43.07-.44.29,0,.16.09.38.21.5.25.24.54.42.82.63,1.25.9,2.05,2.09,2.3,3.61.25,1.5.18,2.99-.26,4.47-.7,2.36-1.84,4.49-3.36,6.42-.71.9-1.41,1.83-2.39,2.53-.13-.09-.26-.17-.37-.26-.8-.63-1.41-1.43-2.02-2.22-1.51-1.93-2.69-4.04-3.38-6.4-.35-1.2-.54-2.41-.41-3.65.13-1.25.46-2.44,1.32-3.39.44-.48.97-.87,1.47-1.3.31-.27.72-.45.9-.92-.35-.38-.72-.31-1.05-.32-1.24-.03-2.47-.04-3.7-.04-.38,0-.78,0-1.15.1-1.23.3-2.07.98-2.25,2.45-.04.34-.06.69-.06,1.04,0,2.85,0,5.71.01,8.56,0,.66.03,1.31.1,1.96.16,1.53.69,2.91,1.62,4.15,1.25,1.67,2.9,2.74,4.89,3.31,2.74.78,5.49.77,8.22,0,2.66-.75,4.62-2.41,5.82-4.91.63-1.31.83-2.72.83-4.17.01-3.05.04-6.09.05-9.14Zm7.92-4.41c0,.08,0,.15.02.23.09.6.37.91.96.97.34.04.69.02,1.04.02,3.35,0,6.7,0,10.06,0h0c3.2,0,6.4,0,9.59,0,.5,0,1,.01,1.5-.03.64-.06,1.02-.41,1.04-1.03.03-1.27.02-2.55,0-3.82-.01-.55-.41-.9-.97-.96-.27-.03-.54-.01-.81-.01h-20.58c-.19,0-.39,0-.58,0-.95.05-1.25.33-1.28,1.26-.02,1.12,0,2.24,0,3.35Zm17.33,15.73c-.02-.57-.5-.93-1.11-.97-.27-.02-.54,0-.81,0h-6.81s-6.47,0-6.47,0c-.31,0-.62,0-.92,0-.9.04-1.27.39-1.3,1.27-.03.85,0,1.69,0,2.54,0,.15.01.31.05.46.09.46.35.78.83.85.41.06.84.1,1.26.1,3.77,0,7.54,0,11.32,0,.92,0,1.85-.04,2.77-.08.66-.03,1.13-.39,1.17-1.04.07-1.03.08-2.08.03-3.11Zm6.95-9.22c-.03-.59-.47-.95-1.08-1-.23-.02-.46,0-.69,0h-10.41s-9.37-.01-9.37-.01c-.58,0-1.16-.02-1.73.02-.67.04-1.05.44-1.07,1.12-.02.85,0,1.7,0,2.55,0,.15.02.31.05.46.11.51.43.82.93.9.3.05.62.04.92.04,6.9,0,13.8,0,20.7,0,.19,0,.39,0,.58,0,.67-.04,1.12-.41,1.15-1.05.04-1,.05-2.01,0-3.01Z"/>
          <path class="cls-3" d="m382.7,189.4c-.33.07-.59.12-.84.19-1.12.29-1.47.7-1.59,1.83-.05.45-.1.91-.16,1.36-.71.26-1.37.19-2.01.1-.22-.03-.45-.28-.6-.49-.31-.44-.58-.91-.86-1.37-2.04-3.41-4.07-6.81-6.11-10.22-2.84-4.77-5.68-9.53-8.52-14.3-.77-1.29-1.49-2.61-2.3-3.88-.79-1.23-.09-2.11,1.13-2.06,1.35.05,2.7.03,4.05,0,.96-.02,1.6.41,2.04,1.23.46.85.96,1.67,1.45,2.5,2.07,3.57,4.14,7.13,6.2,10.7,1.81,3.14,3.61,6.28,5.41,9.42.82,1.44,1.65,2.87,2.46,4.32.11.19.15.4.25.67Z"/>
          <path class="cls-3" d="m387.01,189.45c.14-.36.22-.62.35-.84.97-1.71,1.94-3.42,2.92-5.12.76-1.34,1.52-2.68,2.3-4.01.95-1.63,1.91-3.26,2.86-4.89,1.16-2,2.3-4.01,3.45-6.01,1.06-1.83,2.14-3.66,3.21-5.49.27-.47.55-.93.81-1.4.41-.74,1-1.12,1.88-1.11,1.27.02,2.54,0,3.82,0,.23,0,.46.01.69.06.59.13,1.02.95.68,1.46-.11.16-.2.33-.3.49-2.43,4.07-4.86,8.13-7.29,12.2-.99,1.65-1.99,3.3-2.98,4.95-2.42,4.03-4.84,8.06-7.26,12.09-.12.2-.24.4-.36.59-.23.35-.55.52-.97.5-.42-.02-.85,0-1.27-.02-.32-.02-.48-.19-.51-.52-.03-.31-.01-.62-.02-.92-.04-1.08-.36-1.48-1.42-1.82-.14-.05-.28-.1-.55-.19Z"/>
          <path class="cls-3" d="m382.17,191.63c.6-.02,1.06-.03,1.51-.04.85,0,1.69-.02,2.54,0,.65.02.8.18.81.85.01,1.39,0,2.77,0,4.16,0,.65,0,1.31-.01,1.96,0,.15-.05.29-.08.47-.16.05-.3.12-.44.12-1.19.01-2.38.02-3.58,0-.66,0-.8-.15-.82-.83-.02-.77,0-1.54,0-2.31,0-1.08-.02-2.15-.01-3.23,0-.34.05-.67.08-1.17Z"/>
        </g>
        <g>
          <path class="cls-3" d="m84.03,68.79c-.01,2.81-.44,5.55-1.58,8.12-.72,1.62-1.54,3.2-2.38,4.76-1.89,3.5-3.98,6.87-6.24,10.14-3.03,4.38-6.18,8.66-9.46,12.86-1.17,1.49-2.3,3-3.47,4.48-.28.36-.61.7-.96,1-.3.26-.66.25-.94-.04-.41-.41-.79-.85-1.14-1.31-2.36-3.1-4.71-6.21-7.06-9.32-2.89-3.81-5.65-7.72-8.21-11.76-1.42-2.25-2.68-4.6-3.99-6.91-.57-1.01-1.06-2.06-1.65-3.06-.74-1.25-1.2-2.59-1.51-3.99-.64-2.89-.76-5.81-.27-8.74.48-2.92,1.49-5.65,2.99-8.22,1.42-2.42,3.15-4.59,5.26-6.41,2.71-2.34,5.76-4.09,9.24-5.1,2.93-.85,5.92-1.08,8.93-.87,3.06.22,5.99,1,8.74,2.43,1.83.95,3.55,2.05,5.1,3.38,1.99,1.72,3.69,3.72,5.02,6.01,1.76,3.04,2.97,6.27,3.41,9.76.12.92.12,1.85.17,2.77Zm-18.99-9c.03,1.64,1.41,3.04,3.02,3.05,1.79.02,3.32-1.46,3.3-3.18-.07-2.08-1.71-3.11-3.23-3.07-1.76.04-3.11,1.31-3.08,3.2Zm-9.12,10.51c-.03,1.83,1.49,3.46,3.29,3.51,1.67.05,3.57-1.17,3.64-3.55.05-1.72-1.65-3.3-3.49-3.34-1.79-.04-3.55,1.77-3.44,3.37Zm-8.66-10.56c0,1.86,1.86,3.19,3.14,3.05,1.57.08,3.25-1.37,3.18-3.25-.07-1.68-1.38-2.93-3.1-2.92-1.76.02-3.23,1.44-3.22,3.12Zm24.67,14.09c0-2.01.02-4.01,0-6.02,0-.54-.03-1.08-.13-1.61-.22-1.21-.93-2.02-2.14-2.32-.56-.14-1.14-.23-1.71-.24-1.62,0-3.24.05-4.86.07-.08,0-.15,0-.23,0-.19.02-.43.03-.43.27,0,.16.13.36.26.47.27.22.58.39.85.6,1.83,1.36,2.89,3.17,3.06,5.46.13,1.69-.2,3.3-.75,4.88-1.19,3.41-3.14,6.34-5.61,8.94-.28.3-.57.62-.99.8-.46-.24-.78-.64-1.11-1-1.52-1.65-2.81-3.48-3.93-5.42-1.03-1.78-1.76-3.69-2.09-5.73-.39-2.39.03-4.61,1.53-6.56.6-.77,1.35-1.37,2.14-1.93.21-.14.38-.33.68-.59-.34-.1-.55-.2-.76-.21-1.66-.03-3.32-.07-4.97-.05-.57,0-1.16.11-1.7.29-1.07.35-1.78,1.08-1.91,2.24-.09.8-.15,1.61-.16,2.42-.03,2.47-.02,4.94-.03,7.41,0,.85-.01,1.7.02,2.55.14,3.75,1.79,6.67,4.95,8.66,1.88,1.19,3.97,1.89,6.21,2.01.96.05,1.93.08,2.89-.03,3.72-.42,6.89-1.84,9.03-5.1,1.1-1.69,1.72-3.53,1.82-5.53.08-1.58.05-3.16.05-4.74Z"/>
          <path class="cls-3" d="m103.3,118.54c-4.17-.19-8.1-.36-12.02-.53-1.92-.08-3.85-.16-5.77-.24-.91-.04-1.26-.29-1.47-1.16-.2-.82-.36-1.66-.53-2.49-.28-1.32-.59-2.63-.81-3.96-.24-1.47-.38-1.72,1.17-2.6,2.41-1.37,4.77-2.84,7.15-4.26,2.08-1.24,4.17-2.48,6.25-3.72.23-.14.47-.28.72-.37.5-.19,1.01,0,1.29.46.16.26.29.54.42.82,1.19,2.42,2.39,4.84,3.57,7.26,1.44,2.94,2.87,5.89,4.3,8.83.15.31.31.63.37.96.12.6-.24,1.07-.85,1.15-.26.04-.54.02-.81,0-.54-.02-1.08-.04-1.62-.07-.54-.03-1.07-.08-1.36-.11Z"/>
          <path class="cls-3" d="m24.75,108.46c-2.27,0-4.55,0-6.82,0-.35,0-.7,0-1.04-.04-.69-.1-1-.58-.82-1.24.08-.29.2-.58.34-.86,1.76-3.65,3.52-7.29,5.28-10.93.79-1.63,1.57-3.27,2.35-4.9.08-.17.15-.36.25-.52.45-.72.95-.8,1.55-.57,3.23,1.25,6.48,2.47,9.72,3.69.83.31,1.67.6,2.49.92.75.29.95.67.67,1.45-.38,1.05-.81,2.08-1.24,3.11-1.26,2.98-2.54,5.96-3.79,8.94-.26.62-.66.9-1.32.9-1.16,0-2.31.03-3.47.03-1.39,0-2.78,0-4.16,0,0,0,0,.02,0,.02Z"/>
          <path class="cls-3" d="m81.4,117.31c.04.87-.12,1.11-.91,1.35-2.18.65-4.36,1.27-6.53,1.94-3.83,1.17-7.65,2.37-11.47,3.55-.33.1-.66.22-1,.28-.41.07-.76-.22-.81-.63-.01-.11-.02-.23,0-.35.27-2.72.54-5.44.81-8.16.02-.15.03-.31.03-.46.06-1.31-.15-1.16,1-2.32.03-.03.05-.06.08-.08,1.29-1.35,1.45-1.4,3.29-1.51,2.3-.14,4.6-.32,6.91-.5,1.65-.13,3.29-.29,4.94-.46.38-.04.76-.14,1.14-.18.61-.06.94.15,1.11.76.15.56.27,1.12.4,1.69.31,1.47.62,2.94.92,4.41.05.26.09.53.11.68Z"/>
          <path class="cls-3" d="m56.95,114.16c-.04.65-.07,1.31-.13,1.96-.02.27-.09.53-.17.79-.09.28-.37.43-.64.35-.29-.09-.58-.21-.86-.34-4.3-2.06-8.6-4.13-12.9-6.2-1.42-.68-2.84-1.38-4.25-2.07-.17-.08-.35-.16-.51-.26-.48-.31-.61-.64-.48-1.18.06-.22.14-.44.23-.65,1.37-3.31,2.75-6.61,4.13-9.92.06-.14.1-.29.17-.43.21-.41.38-.52.84-.4.59.16,1.19.34,1.74.6.26.12.46.4.64.64,2.07,2.83,4.12,5.67,6.2,8.48,1.79,2.41,3.61,4.8,5.42,7.2.33.43.69.84.58,1.44Z"/>
          <path class="cls-3" d="m96.87,95.31c.04.71-.19,1.06-.55,1.31-.34.25-.71.46-1.08.68-3.24,1.94-6.48,3.88-9.73,5.81-.76.45-1.52.91-2.29,1.35-.23.14-.47.27-.72.36-.39.15-.69.02-.84-.36-.1-.25-.17-.51-.22-.78-.51-2.37-1.01-4.75-1.52-7.12-.02-.11-.06-.22-.08-.34-.17-.97-.02-1.31.84-1.79,1.79-.99,3.58-1.97,5.37-2.95,1.86-1.01,3.73-2.02,5.59-3.03.17-.09.33-.2.51-.28.82-.4,1.44-.23,1.82.58.89,1.88,1.74,3.78,2.6,5.68.16.35.25.72.29.87Z"/>
          <path class="cls-3" d="m56.1,122.48c-.04.44-.08.98-.15,1.51-.05.37-.29.55-.64.52-.3-.03-.61-.11-.9-.19-2.53-.68-5.06-1.37-7.59-2.05-4.24-1.14-8.48-2.28-12.73-3.42-.19-.05-.37-.09-.56-.16-.77-.27-.97-.63-.68-1.42.53-1.45,1.1-2.88,1.65-4.32.12-.32.23-.65.37-.97.4-.94.79-1.12,1.72-.73.85.36,1.67.79,2.51,1.19,2.33,1.11,4.66,2.22,6.99,3.34,1.53.74,3.04,1.5,4.57,2.23,1.46.7,2.93,1.37,4.4,2.06.21.1.43.18.63.3.32.19.5.47.48.86-.02.39-.04.77-.06,1.26Z"/>
          <path class="cls-3" d="m22.75,111.42c2.54,0,5.09,0,7.63,0,.31,0,.62,0,.92.03.4.05.6.35.48.75-.16.52-.34,1.02-.53,1.53-.36.97-.74,1.95-1.11,2.92-.33.86-.36.87-1.24.9-2.31.08-4.62.16-6.93.26-3.12.13-6.23.28-9.35.42-.27.01-.54.03-.81,0-.68-.09-1-.57-.82-1.24.06-.22.16-.43.26-.64.63-1.32,1.27-2.64,1.88-3.97.31-.68.76-1,1.52-.99,1.96.03,3.93,0,5.9,0,.73,0,1.46,0,2.2,0v.02Z"/>
          <path class="cls-3" d="m66.52,107.84c.18-.36.25-.57.37-.74,1.18-1.57,2.37-3.13,3.55-4.7,1.25-1.66,2.48-3.33,3.72-5,.09-.12.17-.26.26-.38.58-.77,1.34-1.04,2.22-.75.16.05.33.21.41.37.13.27.23.57.29.87.54,2.6,1.06,5.2,1.59,7.8.28,1.39.09,1.66-1.29,1.76-1.57.12-3.15.21-4.72.33-1.65.13-3.29.29-4.94.43-.42.03-.84,0-1.46,0Z"/>
        </g>
        <g>
          <path class="cls-3" d="m126.77,185.35c-.85,1.35-1.99,2.44-3.26,3.4-2.12,1.6-4.5,2.66-6.99,3.52-1.82.63-1.85.61-2.83,2.29-.64,1.1-1.22,2.23-1.83,3.35-.52.96-.8,1-1.51.21-.41-.46-.75-.98-1.15-1.45-.55-.64-1.13-1.26-1.7-1.89-.36-.4-.81-.54-1.35-.52-.96.02-1.93-.05-2.89,0-1.51.09-3.01-.1-4.5-.24-2.11-.2-4.2-.57-6.24-1.17-.59-.17-1.04-.1-1.49.27-1.46,1.18-3.14,1.94-4.88,2.59-.35.13-.74.19-1.12.24-.24.03-.45-.2-.43-.44.03-.31.07-.61.14-.91.29-1.21.42-2.43.41-3.67,0-.67-.22-1.15-.8-1.55-1.01-.7-2-1.44-2.87-2.32-1.29-1.29-2.16-2.8-2.51-4.6-.18-.89-.16-1.75.06-2.63.56-2.24,1.92-3.91,3.66-5.34,2.27-1.87,4.9-3.05,7.65-3.99,1.46-.5,2.95-.88,4.47-1.18,2.69-.54,5.41-.82,8.16-.75.15,0,.31,0,.46,0v.06c1.08,0,2.16-.05,3.24,0,3.17.17,6.29.64,9.31,1.64,2.57.84,5.07,1.83,7.3,3.42,1.4,1,2.65,2.15,3.57,3.59,1.71,2.67,1.62,5.39-.06,8.05Zm-30.88-3.96c-.02-1.39-1.25-2.81-2.96-2.81-1.61,0-2.96,1.33-2.96,2.92,0,1.9,1.78,2.94,3,2.87,1.57-.03,2.95-1.34,2.92-2.97Zm10.44.1c.06-1.52-1.36-2.95-2.96-2.91-1.89.04-2.89,1.44-2.89,2.97,0,1.39,1.09,2.72,2.83,2.8,1.63.03,2.96-1.24,3.03-2.86Zm7.46-2.91c-1.55.04-2.84,1.45-2.8,2.83.04,1.56,1.31,2.91,2.84,2.93,1.58.02,2.98-1.34,2.98-2.91.11-1.61-1.53-2.89-3.02-2.85Z"/>
          <path class="cls-3" d="m116.64,229.43c.62-.74,1.14-1.34,1.65-1.95.82-.97,1.81-1.69,3.07-1.94.44-.09.93-.13,1.37-.05,1.39.26,2.25,1.42,2.08,2.88-.08.72-.31,1.44-.6,2.1-.48,1.1-1.14,2.1-1.95,2.99-1.41,1.55-2.96,2.91-4.79,3.96-1.21.69-2.44,1.33-3.73,1.83-.39.15-.8.3-1.21.4-.79.2-1.28-.05-1.54-.8-.15-.43-.23-.89-.34-1.34-.06-.22-.12-.43-.22-.78-.18.2-.34.3-.38.44-.07.22-.06.46-.08.69-.04.62-.09,1.23-.09,1.85,0,.89-.37,1.55-1.13,1.99-1,.58-1.99,1.18-3.02,1.7-1.19.6-2.42.69-3.68.15-1.32-.57-2.55-1.28-3.73-2.09-.48-.33-.68-.8-.71-1.38-.05-1.16-.12-2.31-.19-3.46-.02-.26-.06-.53-.12-.93-.16.23-.29.33-.31.46-.09.41-.12.84-.2,1.26-.08.45-.15.92-.29,1.36-.24.79-.67,1.04-1.49.9-.38-.06-.75-.18-1.11-.32-2.37-.88-4.52-2.14-6.49-3.72-1.05-.85-2-1.81-2.86-2.85-.95-1.15-1.65-2.42-1.99-3.87-.1-.4-.14-.84-.09-1.25.14-1.25,1.04-2.11,2.28-2.23,1.27-.13,2.38.29,3.29,1.13.74.67,1.38,1.45,2.06,2.18.18.19.35.39.61.69.08-.28.17-.44.18-.61.07-1.55.33-3.06.65-4.57.34-1.64.91-3.2,1.74-4.64,1.09-1.91,2.54-3.49,4.6-4.41,1.03-.46,2.12-.72,3.25-.76,1.54-.05,3.08-.09,4.62-.05,2.08.05,4.03.55,5.73,1.86,1.41,1.09,2.38,2.5,3.16,4.07,1.17,2.36,1.69,4.86,1.78,7.48.02.49-.06.99.23,1.66Z"/>
          <path class="cls-3" d="m132.14,207.64c1.12-.07,2.34.01,3.55.34,2.73.75,4.57,2.49,5.62,5.07.63,1.54.95,3.17,1.21,4.81.18,1.15.14,2.31.19,3.46.03.67-.25,1.1-.89,1.31-.44.14-.87.32-1.3.47-2.03.74-4.04,1.52-6.08,2.21-1.53.52-3.07,1.04-4.69,1.25-.65.09-1.3.12-1.96.17-.47.04-.82-.15-1.09-.53-.13-.19-.26-.38-.39-.58-.93-1.41-2.25-2.18-3.92-2.37-.15-.02-.31-.01-.46-.03-.61-.05-.99-.42-1.17-.97-.09-.29-.13-.61-.12-.91.02-.81.02-1.63.13-2.43.33-2.26.83-4.48,1.97-6.5.93-1.65,2.16-2.99,3.86-3.88,1.3-.67,2.69-.9,4.14-.93.42,0,.85,0,1.4,0Z"/>
          <path class="cls-3" d="m75.54,207.75c.65,0,1.31-.03,1.96,0,2.89.17,5.13,1.45,6.68,3.92,1.07,1.7,1.56,3.6,1.79,5.56.16,1.41.19,2.84.26,4.27.01.27.01.54-.03.81-.11.59-.4.89-1,.93-1.97.13-3.41,1.11-4.43,2.74-.35.56-.81.74-1.45.74-1.48,0-2.91-.31-4.32-.72-2.88-.85-5.69-1.92-8.48-3.02-.36-.14-.71-.29-1.08-.41-.55-.17-.83-.53-.85-1.1-.15-3.18.38-6.23,1.91-9.05,1.25-2.3,3.09-3.92,5.71-4.52.41-.09.83-.16,1.25-.17.69-.03,1.39,0,2.08,0,0,0,0,.01,0,.02Z"/>
          <path class="cls-3" d="m103.92,198.74c3.7.08,6.83,3.2,6.7,6.73-.15,4.21-2.96,6.64-6.94,6.87-4.04-.43-6.68-3.13-6.63-6.95.06-3.82,2.96-6.63,6.86-6.64Z"/>
          <path class="cls-3" d="m131.79,205.66c-3.04.09-5.78-2.58-5.77-5.86.01-3.92,3.16-5.97,6.08-5.92,3.27.05,5.84,2.58,5.78,5.96-.06,3.13-2.57,5.89-6.08,5.82Z"/>
          <path class="cls-3" d="m75.38,205.68c-3.32.04-5.8-3.06-5.73-5.91.08-3.13,2.4-5.9,6.03-5.87,3.32.03,6.01,2.83,5.87,5.91-.14,3.03-2.16,5.81-6.17,5.87Z"/>
        </g>
        <g>
          <path class="cls-3" d="m229.15,88.33c.01,2.99-2.52,5.24-5.06,5.25-1.08,0-2.16,0-3.24,0h-28.93c-10.53,0-21.06,0-31.59,0-.93,0-1.85-.07-2.71-.47-2-.91-3-2.48-3.01-4.66-.02-3.74,0-7.49,0-11.23,0-15.48,0-30.95,0-46.43,0-.5,0-1.01.11-1.49.31-1.61,1.58-2.74,3.21-2.83.84-.05,1.7-.02,2.54,0,.63.02.9.29.93.95.04.77.03,1.54.03,2.31,0,.62,0,1.24,0,1.85,0,1.07.43,1.94,1.2,2.66,2.12,1.98,5.43,1.55,7.06-.85.47-.68.64-1.48.65-2.31,0-1.08,0-2.16,0-3.24,0-.27,0-.54.01-.81.02-.31.2-.5.5-.55.23-.04.46-.04.69-.04,4.78,0,9.57,0,14.35-.02,1.38,0,1.54.38,1.5,1.56-.04,1.12-.02,2.24-.03,3.36-.03,1.75.88,2.91,2.38,3.65,1.88.91,4.1.48,5.4-1.01.71-.82,1.07-1.78,1.09-2.86.01-1.16,0-2.32,0-3.47,0-1,.22-1.22,1.23-1.22,2.47-.01,4.94,0,7.41,0,2.16,0,4.32,0,6.48,0,.35,0,.7,0,1.04.05.54.08.81.39.86.93.02.23.01.46.01.69,0,1,.04,2.01,0,3.01-.13,2.63,2.04,4.44,4.63,4.36,1.52-.05,2.85-.65,3.66-2.07.38-.66.51-1.37.51-2.11,0-1.16,0-2.31,0-3.47,0-.23,0-.47.01-.69.05-.41.26-.65.67-.66,1.12-.02,2.25-.13,3.35.03,2.07.3,3.07,1.86,3.05,3.61-.05,4.36-.02,8.72-.02,13.08,0,15.05-.03,30.1.03,45.15Zm-2.22-3.05c0-11.77,0-23.54,0-35.31,0-2.97,0-5.94-.01-8.92,0-.37.09-.77-.19-1.15-.13-.02-.28-.07-.43-.07-22.91,0-45.83,0-68.74,0-.11,0-.21.07-.48.15-.01.46-.04.88-.04,1.3,0,13.93,0,27.87,0,41.8,0,1.35,0,2.7,0,4.05,0,.99.4,1.78,1.12,2.44.76.7,1.67.89,2.67.89,20.71,0,41.43,0,62.14,0,.23,0,.46,0,.69,0,1.87-.08,3.09-1.24,3.23-3.11.05-.69.03-1.39.03-2.08Z"/>
          <path class="cls-3" d="m219.98,27.09c0,1.19,0,2.39,0,3.58,0,.27,0,.54-.03.81-.15,1.08-.71,1.64-1.8,1.78-.3.04-.62.04-.92,0-1.17-.12-1.8-.77-1.92-1.93-.02-.23-.01-.46-.02-.69,0-2.42-.02-4.85,0-7.27,0-.46.06-.92.17-1.36.16-.6.57-1.01,1.17-1.16.4-.1.83-.19,1.24-.18,1.23.05,1.98.81,2.09,2.03.02.27,0,.54,0,.81,0,1.19,0,2.39,0,3.58h-.01Z"/>
          <path class="cls-3" d="m194.07,27.08c0,1.12,0,2.23,0,3.35,0,.23,0,.46,0,.69-.1,1.36-.75,2.03-2.1,2.14-.38.03-.77-.02-1.14-.09-.75-.16-1.21-.65-1.36-1.39-.07-.33-.08-.69-.08-1.03,0-2.43-.02-4.85,0-7.28,0-.46.05-.92.15-1.37.14-.61.54-1.02,1.14-1.2.4-.12.84-.25,1.24-.21,1.5.17,2.07.9,2.15,2.11.05.69.02,1.39.02,2.08,0,.73,0,1.46,0,2.19h0Z"/>
          <path class="cls-3" d="m163.41,27.03c0-1.31.07-2.62-.02-3.93-.11-1.75,1.11-2.56,2.75-2.42,1.18.11,1.81.78,1.86,1.97.04.88,0,1.77,0,2.66,0,1.81,0,3.62,0,5.43,0,.27.01.54-.02.81-.1.99-.73,1.65-1.71,1.72-.49.03-1.01.02-1.49-.1-.92-.22-1.36-.79-1.38-1.75-.03-1.46,0-2.93,0-4.39,0,0,0,0,0,0Z"/>
          <path class="cls-3" d="m223.75,70.66c-.03,1.82-.29,3.61-1.07,5.29-1.52,3.27-3.89,5.64-7.37,6.73-4.02,1.26-8.01,1.08-11.84-.71-2.76-1.29-4.72-3.43-5.82-6.3-.62-1.64-.96-3.33-.96-5.09.01-3.9,0-7.8,0-11.7,0-.23,0-.46.03-.69.25-2.01,1.63-3.04,3.3-3.11,1-.04,2-.02,3.01-.02,1.12,0,2.24-.01,3.36-.01.34,0,.68.04,1.13.07-.11.26-.13.46-.24.56-.62.51-1.29.97-1.91,1.5-1.62,1.37-2.37,3.19-2.67,5.23-.31,2.15.13,4.23.82,6.24.93,2.76,2.36,5.28,4.08,7.62.55.74,1.21,1.4,1.82,2.09.12.14.28.24.47.39.26-.23.5-.41.7-.64,2.2-2.56,4.04-5.35,5.37-8.46.81-1.89,1.33-3.86,1.48-5.92.04-.53-.05-1.08-.15-1.61-.32-1.82-.96-3.5-2.35-4.8-.42-.39-.91-.7-1.38-1.04-.25-.18-.53-.32-.76-.51-.1-.08-.18-.28-.15-.4.03-.11.2-.23.33-.26.22-.05.46-.04.69-.04,2.12,0,4.24.02,6.36.02.83,0,1.6.16,2.3.64.6.41,1.03.94,1.2,1.64.13.56.26,1.14.26,1.71,0,3.86.02,7.72-.04,11.58Z"/>
          <path class="cls-3" d="m173.57,66.72v3.24c0,.23,0,.47-.02.69-.1.8-.6,1.34-1.4,1.47-.23.04-.46.04-.69.04-2.16,0-4.32.02-6.48,0-.38,0-.77-.06-1.12-.18-.73-.25-1.11-.8-1.14-1.58,0-.19,0-.39,0-.58v-6.25c0-.19,0-.39,0-.58.06-.82.42-1.28,1.22-1.48.29-.07.61-.09.91-.1,2.2,0,4.4,0,6.59,0,.08,0,.15,0,.23,0,1.36.06,1.89.58,1.89,1.92,0,1.12,0,2.24,0,3.36h0Z"/>
          <path class="cls-3" d="m189.12,69.58c0,.42-.06.85-.15,1.26-.19.82-.7,1.24-1.54,1.32-.23.02-.46,0-.69,0h-3.12c-.96,0-1.93,0-2.89,0-.27,0-.54.02-.81-.02-.97-.14-1.58-.81-1.67-1.79-.01-.15,0-.31,0-.46,0-2.16,0-4.32,0-6.47,0-.23,0-.47.05-.69.12-.57.43-.99,1.02-1.14.33-.08.68-.15,1.02-.15,2.27-.01,4.54,0,6.81,0,.12,0,.23,0,.34.01.99.11,1.44.55,1.52,1.55.03.42.03.85.03,1.27.02,1.77.06,3.54.06,5.31Z"/>
          <path class="cls-3" d="m173.57,54.78c0,.23,0,.46-.03.69-.13.9-.61,1.38-1.51,1.47-.27.03-.54.02-.81.02-1,0-2,0-3,0h0c-1.04,0-2.08,0-3.12-.01-.27,0-.54.01-.81-.02-.98-.14-1.5-.7-1.57-1.69-.01-.19,0-.39,0-.58,0-2.08,0-4.16,0-6.24,0-1.64.48-2.13,2.14-2.14,2.23-.02,4.46-.02,6.7,0,1.5.01,2,.54,2,2.04,0,2.16,0,4.32,0,6.47Z"/>
          <path class="cls-3" d="m173.57,85.06c0,.23.01.46-.01.69-.09.88-.6,1.41-1.47,1.51-.23.03-.46.02-.69.02-2.12,0-4.23.01-6.35.01-.31,0-.62,0-.92-.06-.89-.2-1.37-.81-1.42-1.72-.01-.23,0-.46,0-.69,0-1.92,0-3.85,0-5.77,0-.15,0-.31,0-.46-.09-1.07.34-1.93,1.85-1.94,2.39,0,4.77,0,7.16,0,.12,0,.23,0,.35.02.94.12,1.46.65,1.5,1.59.03.84,0,1.69,0,2.54v4.27Z"/>
          <path class="cls-3" d="m189.09,54.39c0,.42-.04.85-.13,1.26-.17.79-.63,1.19-1.43,1.29-.19.03-.38.02-.58.02-2.12,0-4.24,0-6.36-.02-.38,0-.77-.06-1.14-.15-.66-.17-1.03-.65-1.14-1.32-.04-.26-.05-.54-.05-.81,0-2.08,0-4.16.01-6.25,0-.31.03-.62.09-.92.13-.63.52-1.01,1.15-1.16.19-.04.38-.07.57-.08,1.23,0,2.47,0,3.7,0h0s3.12,0,3.12,0c.19,0,.39,0,.58,0,.93.07,1.39.49,1.53,1.42.03.19.03.38.03.58.02,2.04.04,4.09.04,6.13Z"/>
          <path class="cls-3" d="m189.1,84.75c0,.38-.02.77-.08,1.15-.16.91-.65,1.32-1.57,1.38-.23.01-.46,0-.69,0-2,0-4,0-6,0-.27,0-.54.01-.81-.02-.99-.13-1.59-.76-1.67-1.76-.02-.19,0-.39,0-.58,0-2.04.02-4.08.03-6.12,0-.12,0-.23,0-.35.05-1.28.56-1.78,1.87-1.83.46-.02.92,0,1.39,0h2.19c1.11,0,2.23,0,3.35,0,.27,0,.54,0,.8.04.67.12,1.08.58,1.16,1.26.02.19.02.39.02.58.01,2.08.03,4.16.04,6.24Z"/>
          <path class="cls-3" d="m222.62,49.88c-.02,1.87-1.26,3.37-2.87,3.8-2.22.59-4.56-.83-4.92-3.29-.15-1.05.23-2.01.91-2.78,1.17-1.31,2.7-1.79,4.51-1.15.53.18.93.56,1.28.97.67.78,1.08,1.68,1.09,2.45Z"/>
          <path class="cls-3" d="m209.98,66.69c-1.78.06-3.51-1.39-3.78-3.39-.25-1.9.84-3.59,2.59-4.13,1.45-.44,3.62-.03,4.65,2.05,1.28,2.57-.81,5.55-3.46,5.47Z"/>
          <path class="cls-3" d="m205.07,49.95c0,2.2-1.77,3.97-3.99,3.87-2.36-.1-3.8-2.22-3.72-3.84-.04-1.8,1.51-3.72,3.9-3.79,1.98-.05,3.81,1.82,3.82,3.75Z"/>
        </g>
        <g>
          <path class="cls-3" d="m330.51,77.45c.12.2.17.42.31.51.42.27.84.58,1.3.72,1.88.57,3.78,1.08,5.67,1.62.59.17,1.19.33,1.78.52.45.15.82.42,1.12.79.9,1.11.42,2.65-.94,3.07-.53.16-1.06.17-1.6.03-1.45-.38-2.91-.75-4.36-1.13-1.12-.3-2.23-.62-3.35-.91-.45-.12-.9-.2-1.36-.27-.47-.07-.91.01-1.37.36.16.2.25.43.42.52.51.27,1.03.53,1.57.73,1.84.69,3.69,1.35,5.53,2.05.61.23,1.18.55,1.74.88.45.26.71.69.82,1.21.15.69-.08,1.3-.65,1.72-.69.49-1.44.5-2.21.28-.67-.19-1.33-.41-1.98-.65-3.76-1.39-7.53-2.76-11.27-4.19-1.73-.66-3.43-1.39-5.1-2.17-1.53-.71-3.11-1.12-4.78-1.28-.58-.06-1.15-.1-1.73-.17-1.37-.17-1.79-.62-1.87-2.02-.03-.46-.03-.93-.03-1.39-.01-2.97-.02-5.94-.03-8.91,0-.15,0-.31,0-.46.03-.97.38-1.4,1.31-1.62.97-.23,1.95-.47,2.92-.7,1.19-.29,2.2-.9,3.06-1.77.87-.88,1.75-1.75,2.63-2.61,1.28-1.26,2.77-2.2,4.43-2.88,1.04-.42,2.09-.77,3.17-1.09,1-.3,1.83.4,1.98,1.24.1.54.13,1.07.01,1.61-.19.85-.66,1.47-1.47,1.8-.71.29-1.44.54-2.16.83-.5.2-1,.4-1.32.97.17.15.32.33.5.43,1.19.68,2.52.98,3.84,1.22,2.73.5,5.48.85,8.26,1.03,1.81.12,3.6.38,5.41.56,1.23.12,2.46.21,3.69.31,1.04.09,2.08.14,3.11.26.41.05.83.18,1.21.37.73.36,1.03,1.03,1.02,1.81-.01.79-.57,1.47-1.34,1.71-.48.15-.98.2-1.49.13-.42-.06-.84-.11-1.27-.12-2.7-.07-5.38-.34-8.07-.6-1.04-.1-2.07-.19-3.11-.27-.66-.05-.69-.03-1.37.39-.05.23.1.38.28.44.5.19,1.01.39,1.53.5,2.79.56,5.59,1.11,8.39,1.64.5.1.97.25,1.36.59.62.54,1.02,1.18.79,2.03-.22.83-.98,1.44-1.86,1.51-.3.03-.62,0-.92-.04-2.59-.4-5.18-.82-7.77-1.22-.91-.14-1.83-.27-2.75-.37-.54-.06-1.08-.06-1.62.46Z"/>
          <path class="cls-3" d="m390.75,64.7c-.41-.57-.91-.77-1.4-.99-.53-.23-1.08-.43-1.6-.66-.32-.14-.63-.29-.92-.48-.89-.57-1.11-1.43-1.01-2.41.02-.15.06-.3.11-.45.33-1.23,1.01-1.71,2.23-1.33,2.17.68,4.31,1.49,6.13,2.91.76.59,1.44,1.28,2.14,1.94.48.45.94.92,1.39,1.39.98,1.04,2.18,1.69,3.57,2.03.75.18,1.5.37,2.24.55.96.23,1.24.53,1.32,1.47.03.31.02.62.02.93,0,2.82,0,5.64,0,8.45,0,.69-.03,1.39-.08,2.08-.07.96-.44,1.36-1.43,1.5-.65.1-1.3.15-1.96.19-1.53.08-2.96.5-4.33,1.15-2.68,1.28-5.41,2.45-8.22,3.42-3.31,1.15-6.6,2.37-9.9,3.57-.59.22-1.19.32-1.82.22-.69-.12-1.2-.48-1.49-1.14-.16-.38-.18-.74-.01-1.12.27-.62.65-1.14,1.3-1.41.75-.31,1.49-.63,2.25-.91,1.59-.59,3.19-1.14,4.78-1.74.46-.18.9-.43,1.33-.68.1-.06.18-.28.15-.39-.03-.12-.2-.27-.32-.28-.46-.02-.92-.03-1.38.03-.42.05-.82.19-1.24.3-2.2.55-4.41,1.11-6.61,1.66-.45.11-.9.21-1.36.27-.59.08-1.16-.08-1.64-.43-.86-.63-.96-1.93-.26-2.79.35-.43.81-.7,1.35-.84,1.41-.38,2.83-.77,4.23-1.17,1.04-.29,2.08-.58,3.1-.94.42-.15.82-.42,1.18-.69.27-.2.19-.61-.12-.76-.2-.1-.43-.18-.65-.2-.3-.02-.62,0-.92.04-2.21.33-4.42.67-6.63,1-1.18.18-2.37.35-3.55.53-.55.08-1.06.03-1.58-.19-1.33-.55-1.51-2.48-.34-3.34.41-.3.88-.46,1.38-.55,2.42-.45,4.85-.91,7.27-1.38.68-.13,1.35-.31,2.02-.49.22-.06.44-.15.64-.27.11-.07.24-.24.23-.35,0-.11-.17-.29-.28-.31-.45-.06-.92-.13-1.38-.1-2,.15-3.99.36-5.99.49-2.23.15-4.47.24-6.7.35-.19,0-.39,0-.58-.03-.8-.13-1.33-.57-1.56-1.36-.23-.79-.03-1.44.59-1.98.39-.34.84-.54,1.36-.58,2.61-.24,5.22-.47,7.83-.73,3.72-.38,7.44-.73,11.16-1.19,1.41-.17,2.79-.58,4.17-.93.62-.16,1.25-.37,1.8-.91Z"/>
          <path class="cls-3" d="m377.62,97.01c-.61-.03-1.22-.05-1.83-.11-.22-.02-.45-.1-.66-.19-.76-.34-.94-1.1-.36-1.69.4-.41.86-.79,1.36-1.05,1.23-.64,2.47-1.27,3.75-1.79,3.22-1.31,6.55-2.25,9.96-2.92,1.36-.27,2.75-.39,4.13-.37.42,0,.85.06,1.24.2.73.25.95.99.44,1.58-.39.46-.88.88-1.39,1.19-.96.57-1.94,1.11-2.96,1.56-3.36,1.49-6.84,2.6-10.47,3.18-1.06.17-2.13.27-3.21.41Z"/>
          <path class="cls-3" d="m320.6,88.88c2.33.04,4.58.57,6.81,1.16,3.09.81,6.12,1.84,8.97,3.3.71.37,1.38.83,2.04,1.3.42.3.74.71.61,1.28-.14.62-.65.84-1.2.94-1.07.2-2.15.11-3.22-.03-3.68-.47-7.25-1.39-10.7-2.76-1.57-.63-3.12-1.31-4.57-2.2-.52-.32-1.04-.65-1.39-1.19-.44-.7-.22-1.42.57-1.62.51-.13,1.06-.12,1.6-.17.15-.01.31,0,.46,0Z"/>
          <path class="cls-3" d="m355.94,29.54c0-.81,0-1.61,0-2.42,0-.27.01-.54.08-.8.13-.52.59-.9,1.06-.93.53-.03,1.04.33,1.2.89.06.22.1.45.1.68,0,1.81,0,3.61-.02,5.42,0,.34-.09.68-.2,1.01-.14.44-.46.71-.92.75-.48.04-.84-.21-1-.63-.16-.42-.27-.88-.29-1.33-.04-.88-.01-1.77-.01-2.65h0Z"/>
          <path class="cls-3" d="m372.9,29.06c-.11.23-.26.63-.5.97-.8,1.14-1.62,2.25-2.44,3.37-.34.47-.71.92-1.03,1.39-.37.54-1,.55-1.44.3-.46-.26-.69-.9-.47-1.42.17-.39.38-.76.62-1.11.95-1.31,1.91-2.62,2.88-3.91.21-.27.46-.52.74-.73.34-.25.74-.24,1.09-.02.35.21.54.54.54,1.15Z"/>
          <path class="cls-3" d="m342.38,27.84c.38,0,.76.13,1,.45,1.24,1.67,2.58,3.28,3.58,5.11.11.2.19.43.21.65.03.41-.11.76-.49.98-.41.23-.82.22-1.18-.07-.18-.14-.35-.31-.48-.5-1.09-1.54-2.17-3.09-3.27-4.63-.29-.41-.36-.84-.24-1.32.1-.39.46-.66.87-.67Z"/>
          <path class="cls-3" d="m362.73,34.61c.89.08,1.29.78.92,1.43-.46.81-1.13,1.45-1.85,2.01-.35.27-.87.2-1.18-.06-.3-.26-.41-.75-.18-1.16.44-.77,1.01-1.44,1.68-2.01.18-.16.49-.17.6-.21Z"/>
          <path class="cls-3" d="m351.59,34.65c.29-.02.59.06.8.31.47.55.94,1.11,1.37,1.69.12.17.16.43.17.65,0,.73-.79,1.23-1.37.79-.77-.57-1.42-1.3-1.85-2.16-.31-.62.16-1.26.88-1.28Z"/>
          <g>
            <path class="cls-3" d="m355.8,46.52c0-.75-.36-1.23-1.01-1.54-.59-.28-1.18-.56-1.78-.84-2.98-1.36-6.05-2.51-9.15-3.58-1.97-.68-3.95-1.32-5.94-1.9-1.69-.49-2.13-.29-3.09,1.16-1.29,1.97-2.51,3.98-3.37,6.18-1.18,3-1.94,6.08-1.86,9.34.09,3.54,1.14,6.68,4.13,8.82,4.62,3.3,12.11,3.04,16.38-.77,1.57-1.4,2.76-3.11,3.62-5.03,1.38-3.11,2.02-6.38,2.08-9.77,0-.69,0-1.39,0-2.08Zm-5.75,10.09c-.33,1.26-1.08,2.29-1.88,3.28-2.19,2.71-5.67,3.96-9.12,3.67-2.5-.21-4.68-1.53-5.66-3.88-.92-2.21-.9-4.76-.63-7.1.13-1.11.33-2.2.81-3.22.03-.72.46-1.3.71-1.93.14-.35.52-.48.88-.31.59.27,1.18.57,1.74.9,3.18,1.85,6.58,3.16,10.1,4.17.89.25,1.79.47,2.68.71,1.22.34,1.5.82,1.13,2.04-.14.47-.39.91-.59,1.36-.06.1-.12.2-.18.3,0,0,0,.02,0,.02Z"/>
            <path class="cls-3" d="m349.57,56.62c-.19,1.13-1.04,2.17-1.74,3.04-3.76,4.65-12.58,5.07-14.42-1.53-.76-2.73-.42-5.82.55-8.45,1.47,2.41,3.64,4.38,6.17,5.62,1.46.71,3.04,1.18,4.65,1.39.83.11,1.66.15,2.49.11.73-.03,1.58-.34,2.3-.18Z"/>
          </g>
          <path class="cls-3" d="m350.05,56.49c.06-.1.12-.2.18-.3-.06.1-.12.2-.18.3Z"/>
          <path class="cls-3" d="m380.92,57.56c-.01-.05-.03-.1-.04-.16,0-.02.05-.04.07-.05.04.08.03.15-.03.21Z"/>
          <path class="cls-3" d="m381.01,57.1c0-.05.02-.1.04-.15,0,0,.04.09.04.09l-.08.06Z"/>
          <polygon class="cls-3" points="380.78 58.16 380.79 58.15 380.83 58.14 380.78 58.16"/>
          <g>
            <path class="cls-3" d="m358.79,48.6c.06,3.39.7,6.66,2.08,9.77.86,1.92,2.05,3.63,3.62,5.03,4.27,3.81,11.76,4.07,16.38.77,2.99-2.14,4.04-5.28,4.13-8.82.08-3.26-.68-6.34-1.86-9.34-.87-2.2-2.08-4.21-3.37-6.18-.96-1.46-1.4-1.65-3.09-1.16-2,.58-3.98,1.22-5.94,1.9-3.1,1.07-6.17,2.21-9.15,3.58-.6.27-1.18.56-1.78.84-.65.31-1.02.79-1.01,1.54,0,.69,0,1.39,0,2.08Zm5.75,7.99c-.06-.1-.12-.2-.18-.3-.2-.45-.45-.89-.59-1.36-.37-1.22-.09-1.7,1.13-2.04.89-.25,1.79-.46,2.68-.71,3.52-1.01,6.92-2.32,10.1-4.17.56-.33,1.15-.63,1.74-.9.37-.16.74-.03.88.31.26.64.68,1.21.71,1.93.48,1.02.68,2.12.81,3.22.27,2.34.29,4.89-.63,7.1-.98,2.35-3.16,3.67-5.66,3.88-3.45.29-6.93-.96-9.12-3.67-.79-.98-1.55-2.02-1.88-3.28,0,0,0-.02,0-.02Z"/>
            <path class="cls-3" d="m365.02,56.62c.19,1.13,1.04,2.17,1.74,3.04,3.76,4.65,12.58,5.07,14.42-1.53.76-2.73.42-5.82-.55-8.45-1.47,2.41-3.64,4.38-6.17,5.62-1.46.71-3.04,1.18-4.65,1.39-.83.11-1.66.15-2.49.11-.73-.03-1.58-.34-2.3-.18Z"/>
          </g>
        </g>
      </g>
    </pattern>
  </defs>
  <g id="Layer_1-2" data-name="Layer 1">
    <rect class="cls-2" width="1600" height="740.77"/>
  </g>
</svg>