<?xml version="1.0" encoding="UTF-8"?>
<svg id="Layer_2" data-name="Layer 2" xmlns="http://www.w3.org/2000/svg" viewBox="0 0 281.78 685.56">
  <defs>
    <style>
      .cls-1 {
        opacity: .05;
      }

      .cls-2 {
        fill: #fff;
        stroke-width: 0px;
      }
    </style>
  </defs>
  <g id="Layer_1-2" data-name="Layer 1">
    <g class="cls-1">
      <path class="cls-2" d="m277.86,685.56H0v-109.59c0-20.27,3.08-37.18,9.23-50.72,6.15-13.54,14.58-23.67,25.27-30.41,10.69-6.74,23-10.11,36.92-10.11,10.94,0,20.48,2.16,28.63,6.49,8.14,4.33,14.8,10.23,19.95,17.71,5.16,7.48,8.86,15.98,11.1,25.5h2.8c.37-10.39,3.33-20.18,8.86-29.39,5.53-9.21,13.24-16.69,23.12-22.44,9.88-5.75,21.66-8.62,35.34-8.62,14.67,0,27.79,3.59,39.35,10.76,11.56,7.17,20.67,17.77,27.32,31.8,6.65,14.03,9.98,31.5,9.98,52.39v116.64Zm-161.12-56.56v-44.69c0-8.03-1.46-15.27-4.38-21.7-2.92-6.43-7.09-11.46-12.49-15.11-5.41-3.65-11.84-5.47-19.3-5.47-10.07,0-18.28,3.56-24.62,10.66-6.34,7.11-9.51,17.28-9.51,30.51v45.8h70.31Zm114.32,0v-48.96c0-16.57-3.23-28.68-9.7-36.35-6.46-7.66-14.98-11.5-25.55-11.5-7.83,0-14.76,1.89-20.79,5.66-6.03,3.77-10.75,9.12-14.17,16.04-3.42,6.93-5.13,15.15-5.13,24.66v50.44h75.34Z"/>
      <path class="cls-2" d="m277.86,431.09H0v-56.56h230.68v-119.24h47.18v175.8Z"/>
      <path class="cls-2" d="m281.78,114.23c0,22.75-4.26,42.68-12.77,59.8-8.51,17.12-20.36,30.41-35.53,39.87-15.17,9.46-32.88,14.19-53.15,14.19H0v-56.56h175.67c10.82,0,20.42-2.38,28.81-7.14,8.39-4.76,14.98-11.43,19.77-20.03,4.79-8.59,7.18-18.64,7.18-30.13s-2.39-21.73-7.18-30.32c-4.78-8.59-11.38-15.27-19.77-20.03-8.39-4.76-18-7.14-28.81-7.14H0V0h180.33c20.27,0,37.98,4.76,53.15,14.28,15.17,9.52,27.01,22.84,35.53,39.96,8.52,17.12,12.77,37.12,12.77,59.99Z"/>
    </g>
  </g>
</svg>