<?xml version="1.0" encoding="UTF-8"?>
<svg id="Layer_2" data-name="Layer 2" xmlns="http://www.w3.org/2000/svg" viewBox="0 0 235.26 267.85">
  <defs>
    <style>
      .cls-1 {
        fill-rule: evenodd;
      }

      .cls-1, .cls-2, .cls-3 {
        opacity: .03;
      }

      .cls-1, .cls-3, .cls-4, .cls-5, .cls-6 {
        stroke-width: 0px;
      }

      .cls-1, .cls-3, .cls-5 {
        fill: #f2f0ea;
      }

      .cls-7 {
        opacity: .78;
      }

      .cls-6 {
        fill: #0067b9;
      }
    </style>
  </defs>
  <g id="Layer_1-2" data-name="Layer 1">
    <path class="cls-3" d="m130.93,213.91c0,4.88-3.95,8.83-8.83,8.83s-8.83-3.95-8.83-8.83,3.95-8.83,8.83-8.83,8.83,3.95,8.83,8.83Zm-10.19-4.42c0,.29.1.56.31.8.21.25.51.37.9.37h.01c.44,0,.77-.14,1-.41.22-.27.34-.6.34-.97,0-.29-.1-.55-.31-.79-.21-.23-.51-.35-.9-.35h-.01c-.44,0-.77.13-1,.39-.22.26-.34.58-.34.95Zm3.42,9.49c0-.13-.1-.24-.23-.26l-.4-.06c-.13-.02-.23-.13-.23-.26v-6.28c0-.09-.04-.17-.11-.22l-.31-.22h-.03l-2.58.31c-.13.02-.23.13-.23.26v.62c0,.12.08.22.19.25l.57.16c.11.03.19.14.19.25v4.84c0,.13-.1.24-.23.26l-.43.07c-.13.02-.23.13-.23.26v.43c0,.15.12.26.26.26h3.52c.15,0,.27-.12.27-.26v-.43Z"/>
    <g class="cls-2">
      <path class="cls-5" d="m179.47,160.46l-4.39,20.16c-.24,0-.76,0-1.38-.02-1.32-.02-3.3-.05-5.4-.05l-4.42-20.32,4.03-6.8h7.69l3.87,7.03Zm-5.94-.73h-1.45v-1.92h-.8v1.92h-1.45v.8h1.45v3.34h.8v-3.34h1.45v-.8Z"/>
      <path class="cls-5" d="m181.01,160.03l-4.66,22.02s-.03.05-.06.05h-9.24s-.05-.02-.06-.05l-4.66-22.02s0-.03,0-.04l4.64-8.04s.03-.03.05-.03h9.27s.04.01.05.03l4.64,8.04s0,.03,0,.04Zm-1.18.28l-3.93-7.15c-.04-.08-.13-.13-.22-.13h-7.85c-.09,0-.17.05-.22.12l-4.09,6.91c-.03.05-.04.12-.03.18l4.49,20.68h.16c2.16,0,4.2.03,5.55.05.48,0,.86.01,1.12.02.1,0,.18,0,.24,0,.03,0,.05,0,.07,0,.12,0,.26,0,.29-.16l4.44-20.35h0c.01-.06,0-.12-.03-.17Z"/>
    </g>
    <g class="cls-2">
      <path class="cls-5" d="m35.92,252.37l1.54,10.58c.02.11-.06.2-.16.22l-15.46,2.25c-.1.02-.2-.06-.22-.16l-.37-2.53c-.01-.08.03-.15.1-.19.95-.57,1.52-1.67,1.35-2.84-.03-.18-.07-.35-.12-.51,0-.01,0-.02-.01-.03l-.41-.76s-.01-.02-.02-.03c-.38-.49-.93-.84-1.54-1-.08-.02-.14-.08-.15-.16l-.37-2.53c-.02-.1.06-.2.16-.22l15.46-2.25c.11-.02.2.06.22.16Z"/>
      <path class="cls-5" d="m41.53,256.96c.17,1.17,1.03,2.06,2.11,2.33.08.02.14.08.15.16l.37,2.53c.02.1-.06.2-.16.22l-5.18.75c-.11.02-.2-.06-.22-.16l-1.54-10.58c-.02-.11.06-.2.16-.22l5.18-.75c.1-.02.2.06.22.16l.37,2.53c.01.08-.03.15-.1.19-.95.57-1.52,1.67-1.35,2.84Z"/>
    </g>
    <g id="BgubYx.tif" class="cls-2">
      <g>
        <g>
          <path class="cls-5" d="m127.98,34.47s-.03.09-.08.1c-.94.17-1.88.34-2.81.5-.02,0-.05,0-.07.01-.05,0-.1-.03-.11-.08-.09-.46-.17-.92-.26-1.39-.01-.05-.06-.09-.12-.08-.53.09-1.04.19-1.57.28-.05,0-.11-.03-.12-.08-.1-.53-.19-1.03-.29-1.57-.01-.05-.06-.09-.12-.08-.52.09-1.04.18-1.57.28-.05,0-.11-.03-.12-.08-.1-.52-.19-1.04-.29-1.57-.01-.05-.06-.09-.12-.08-.38.06-.75.11-1.11.2-.38.1-.68.04-.99-.2-.63-.47-1.28-.91-1.94-1.34-.08-.06-.23-.08-.33-.04-2.66,1-5.42-.51-6.02-3.29-.43-2,.73-4.17,2.63-4.93,0,0,0,0,0,0,.07-.03.15.03.14.11-.09.6-.32,1.14-.66,1.62-.13.18-.28.34-.43.51-.48.55-.45,1.36.07,1.83.53.49,1.32.46,1.83-.07,1.1-1.15,1.71-2.52,1.82-4.11,0,0,0-.02,0-.02,0-.06.07-.1.13-.08.79.24,1.49.62,2.06,1.22.85.9,1.25,1.98,1.25,3.21,0,.09.09.2.17.26,2.04,1.41,4.08,2.82,6.12,4.23.69.48,1.39.96,2.09,1.43.16.11.24.24.28.43.16.89.5,2.7.54,2.85,0,0,0,.02,0,.02h0Z"/>
          <path class="cls-5" d="m125.01,35.11s.05,0,.07-.01c.81-.14,1.61-.29,2.42-.43l.39-.07c.06-.01.1-.06.1-.12,0-.01,0-.02,0-.03-.04-.14-.38-1.93-.54-2.85-.03-.2-.12-.33-.29-.44-.52-.35-1.05-.72-1.56-1.07-.17-.12-.35-.24-.52-.36l-.8-.55c-1.75-1.21-3.55-2.45-5.32-3.68-.08-.05-.16-.16-.16-.24,0-1.25-.42-2.34-1.26-3.23-.53-.56-1.21-.97-2.07-1.23-.03-.01-.07,0-.1.01-.03.02-.05.05-.06.09,0,0,0,.02,0,.03-.1,1.57-.71,2.95-1.81,4.09-.5.52-1.27.55-1.8.07-.51-.47-.54-1.26-.07-1.8.04-.04.07-.08.11-.12.11-.12.22-.25.32-.39.36-.5.58-1.04.67-1.63,0-.04-.01-.09-.05-.12-.04-.03-.08-.03-.13-.02-1.91.77-3.07,2.94-2.64,4.96.29,1.35,1.09,2.45,2.25,3.08,1.16.63,2.51.71,3.8.23.08-.03.22-.01.3.04l.17.12c.59.39,1.19.8,1.76,1.23.33.25.63.31,1.01.21.27-.07.54-.11.83-.16.09-.01.18-.03.28-.04.04,0,.08.02.09.06l.29,1.57c.01.07.08.11.14.1l1.57-.28s.08.02.09.06l.29,1.57c.01.07.08.11.15.1l1.57-.28s.08.02.09.06l.26,1.39c.01.06.06.1.12.1,0,0,0,0,.01,0Zm-.49-1.6l-1.57.28s-.08-.02-.09-.06l-.29-1.57c-.01-.07-.08-.11-.14-.1l-1.57.28s-.08-.02-.09-.06l-.29-1.57c-.01-.07-.08-.11-.14-.1-.09.02-.18.03-.28.04-.28.04-.56.09-.83.16-.37.1-.66.04-.97-.2-.57-.43-1.18-.84-1.76-1.23l-.17-.12c-.09-.06-.25-.08-.35-.05-1.28.48-2.61.4-3.76-.22-1.15-.63-1.94-1.71-2.22-3.05-.42-1.99.72-4.14,2.62-4.9.02,0,.05,0,.07.01.02.02.03.04.03.07-.09.59-.3,1.12-.66,1.61-.1.13-.21.26-.32.38-.04.04-.07.08-.11.12-.49.56-.46,1.38.07,1.87.54.5,1.35.47,1.86-.07,1.1-1.15,1.72-2.54,1.82-4.12,0,0,0-.01,0-.02,0-.02.02-.04.03-.05.02-.01.04-.02.06,0,.85.26,1.52.66,2.05,1.22.83.88,1.25,1.96,1.24,3.19,0,.1.11.22.18.28,1.77,1.23,3.58,2.48,5.32,3.68l.8.55c.17.12.35.24.52.36.51.35,1.04.72,1.56,1.07.15.1.23.23.27.41.15.86.5,2.69.54,2.85,0,0,0,.01,0,.02,0,.04-.03.07-.06.07l-.39.07c-.81.14-1.61.29-2.42.43-.02,0-.05,0-.07,0-.04,0-.08-.02-.08-.06l-.26-1.39c-.01-.06-.06-.1-.12-.1,0,0-.01,0-.02,0Z"/>
        </g>
        <g>
          <path class="cls-5" d="m116.74,40.16c-.73-.28-1.47-.55-2.2-.83-.06-.02-.11-.04-.18-.07-.05-.02-.08-.08-.06-.13.14-.39.27-.76.41-1.15.02-.05,0-.11-.06-.13-.43-.16-.86-.32-1.3-.48-.05-.02-.08-.08-.06-.13.16-.44.31-.86.47-1.3.02-.05,0-.11-.06-.13-.43-.16-.86-.31-1.3-.47-.05-.02-.08-.08-.06-.13.16-.44.31-.86.47-1.3.02-.05,0-.11-.06-.13-.39-.14-.77-.29-1.16-.42-.16-.05-.25-.15-.32-.3-.3-.66-.62-1.32-.91-1.98-.09-.2-.21-.27-.41-.31-1.39-.28-2.39-1.06-2.91-2.38-.58-1.48-.33-2.86.71-4.07.37-.43.83-.74,1.36-.98.08-.03.16.03.14.12-.07.3-.15.58-.19.87-.28,2.12.45,3.83,2.15,5.11.9.68,1.95.99,3.08.99.17,0,.26.04.33.2,1.02,2.22,2.06,4.44,3.08,6.66.05.11.05.27.01.39-.27.78-.56,1.55-.84,2.33,0,.03-.01.05-.02.08l-.13.08Z"/>
          <path class="cls-5" d="m116.89,40.09h0s0-.06.02-.09c.09-.23.17-.47.26-.7.2-.53.4-1.08.59-1.63.04-.12.04-.29-.01-.41-.54-1.17-1.09-2.36-1.62-3.5-.48-1.03-.97-2.1-1.46-3.16-.08-.18-.19-.22-.35-.22-1.17,0-2.2-.34-3.06-.99-1.7-1.28-2.42-2.99-2.14-5.09.03-.24.09-.47.15-.71.01-.05.03-.1.04-.16.01-.05,0-.1-.04-.13-.04-.03-.09-.04-.13-.02-.59.27-1.02.58-1.36.99-1.06,1.24-1.3,2.62-.72,4.1.51,1.3,1.49,2.11,2.93,2.39.21.04.31.12.39.3.16.37.34.74.5,1.1.14.29.28.59.41.89.08.17.17.26.33.32.3.1.58.21.89.32.09.03.18.07.27.1.04.01.06.06.05.1l-.47,1.3c-.02.06.01.14.07.16l1.3.47s.06.06.05.1l-.47,1.3c-.02.06.01.14.07.16l1.3.48s.06.06.05.1l-.41,1.15c-.02.06,0,.13.07.16h0c.06.03.12.05.17.07.56.21,1.13.42,1.69.63l.52.2.15-.09Zm-7.67-16.73s.03.05.03.08c-.01.05-.03.1-.04.16-.06.25-.12.48-.15.72-.28,2.11.45,3.84,2.16,5.13.87.66,1.91.99,3.09,1,.17,0,.24.05.31.19.48,1.05.98,2.12,1.46,3.16.53,1.15,1.08,2.33,1.62,3.5.05.1.05.26.01.37-.19.54-.39,1.09-.59,1.62-.09.23-.17.47-.26.7,0,.02-.01.05-.02.07l-.11.07-.5-.19c-.56-.21-1.13-.42-1.69-.63-.05-.02-.11-.04-.17-.07h0s-.06-.06-.04-.1l.41-1.15c.02-.06-.01-.14-.07-.16l-1.3-.48s-.06-.06-.05-.1l.47-1.3c.02-.06-.01-.14-.07-.16l-1.3-.47s-.06-.06-.05-.1l.47-1.3c.02-.06,0-.14-.07-.16-.09-.03-.18-.07-.27-.1-.3-.11-.59-.22-.89-.32-.15-.05-.24-.13-.31-.29-.13-.3-.27-.6-.41-.89-.17-.36-.34-.73-.5-1.1-.09-.19-.2-.28-.42-.33-1.41-.28-2.39-1.08-2.89-2.36-.57-1.46-.34-2.83.71-4.05.34-.4.77-.71,1.35-.97.01,0,.02,0,.03,0,.02,0,.03,0,.05.02Z"/>
        </g>
        <g>
          <path class="cls-5" d="m114.37,19.43c.39,1.87-.12,3.53-1.41,4.94-.22.24-.5.29-.68.11-.21-.2-.19-.45.05-.71.96-1.04,1.4-2.26,1.27-3.67-.18-1.96-1.48-3.51-3.37-4.07-2.71-.81-5.63,1.11-5.92,3.92s1.73,4.28,2.15,4.55c.04.03.06.08.04.13-.07.15-.2.43-.28.6-.02.05-.09.08-.14.04-.59-.36-1.1-.8-1.52-1.35-1.41-1.84-1.14-3.91-1.13-4,.87-6.34,9.66-6.67,10.95-.51Z"/>
          <path class="cls-5" d="m106.16,25.31s.06-.04.08-.07c.08-.18.21-.46.28-.6.03-.06,0-.12-.05-.16-.74-.47-2.42-1.86-2.14-4.53.14-1.33.88-2.53,2.03-3.29,1.16-.77,2.57-1,3.86-.61,1.89.56,3.18,2.12,3.35,4.05.13,1.38-.3,2.61-1.27,3.65-.25.27-.27.54-.05.75.08.08.18.12.29.11.14,0,.3-.09.42-.23,1.33-1.45,1.81-3.12,1.42-4.96-.3-1.44-1.04-2.62-2.13-3.42-.98-.72-2.22-1.09-3.49-1.04-1.29.05-2.51.51-3.46,1.32-1.05.89-1.71,2.15-1.92,3.65-.01.09-.28,2.17,1.13,4.01.41.54.91.98,1.53,1.36.02.01.04.02.06.02.01,0,.02,0,.04,0Zm6.08-9.27c1.08.79,1.81,1.96,2.11,3.39.38,1.83-.09,3.49-1.41,4.92-.12.13-.26.21-.39.21-.1,0-.19-.03-.26-.1-.2-.19-.18-.43.05-.68.98-1.05,1.41-2.29,1.28-3.68-.18-1.95-1.48-3.52-3.39-4.09-1.31-.39-2.73-.17-3.9.62-1.16.77-1.91,1.99-2.05,3.33-.28,2.7,1.42,4.1,2.16,4.57.03.02.04.06.03.1-.07.15-.2.42-.28.6,0,.02-.03.03-.05.04-.02,0-.04,0-.06,0-.61-.37-1.11-.81-1.51-1.34-1.4-1.83-1.13-3.89-1.12-3.98.2-1.48.86-2.73,1.9-3.62.94-.8,2.16-1.26,3.43-1.3.07,0,.14,0,.21,0,1.19,0,2.33.36,3.26,1.04Z"/>
        </g>
      </g>
    </g>
    <g class="cls-2">
      <path class="cls-5" d="m230.65,80.52c.11,0,.2-.09.2-.2-.11-6.5-5.41-11.73-11.93-11.73s-11.83,5.23-11.93,11.73c0,.11.09.2.2.2h23.46Z"/>
      <circle class="cls-5" cx="218.92" cy="61.17" r="5.81"/>
      <path class="cls-5" d="m234.97,65.71h-3.16c-.16,0-.29-.13-.29-.29v-3.16c0-.16-.13-.29-.29-.29h-.96c-.16,0-.29.13-.29.29v3.16c0,.16-.13.29-.29.29h-3.16c-.16,0-.29.13-.29.29v.96c0,.16.13.29.29.29h3.16c.16,0,.29.13.29.29v3.16c0,.16.13.29.29.29h.96c.16,0,.29-.13.29-.29v-3.16c0-.16.13-.29.29-.29h3.16c.16,0,.29-.13.29-.29v-.96c0-.16-.13-.29-.29-.29Z"/>
    </g>
    <path class="cls-3" d="m17.02,106.68c0,4.7-3.81,8.51-8.51,8.51s-8.51-3.81-8.51-8.51,3.81-8.51,8.51-8.51,8.51,3.81,8.51,8.51Zm-4.29-.54c0-.25-.2-.44-.44-.44h-2.23c-.24,0-.44-.2-.44-.44v-3.9c0-.24-.2-.44-.44-.44h-1.28c-.24,0-.44.2-.44.44v6.07c0,.25.2.44.44.44h4.4c.24,0,.44-.2.44-.44v-1.28Z"/>
    <path class="cls-3" d="m213.63,176.99l2.89,5.85c.1.21.31.36.54.39l6.46.94c.59.09.82.81.4,1.23l-4.67,4.55c-.17.17-.25.4-.21.64l1.1,6.43c.1.59-.52,1.03-1.04.76l-5.77-3.04c-.21-.11-.46-.11-.67,0l-5.77,3.04c-.53.28-1.14-.17-1.04-.76l1.1-6.43c.04-.23-.04-.47-.21-.64l-4.67-4.55c-.43-.42-.19-1.14.4-1.23l6.46-.94c.23-.03.44-.18.54-.39l2.89-5.85c.26-.53,1.03-.53,1.29,0Z"/>
    <g id="CmR1iC.tif" class="cls-2">
      <g>
        <path class="cls-5" d="m20.63,194.31c.76.13,1.51.26,2.27.39,1.86.33,3.72.66,5.57.99,1.48.26,2.95.56,4.44.78,1.68.24,2.85,1.73,2.47,3.63-.39,1.94-.7,3.9-1.05,5.85-.12.66-.23,1.32-.39,1.98-.06-.33-.12-.65-.18-.98-.38-2.17-.74-4.35-1.16-6.52-.35-1.81-1.83-3.16-3.65-3.42-.72-.1-1.42.03-2.12.15-2.05.37-4.11.73-6.16,1.09-1.06.19-2.11.37-3.17.56-.04,0-.08,0-.15.02.06-.34.1-.65.16-.97.07-.42.15-.83.23-1.25.22-1.18,1.23-2.12,2.41-2.25.08,0,.16-.03.23-.05.08,0,.16,0,.24,0Z"/>
        <path class="cls-5" d="m31.89,213.62c-.43.38-.94.55-1.47.64-2.36.42-4.72.83-7.09,1.24-1.65.29-3.29.61-4.94.86-1.59.24-2.94-.84-3.2-2.39-.1-.62-.23-1.24-.32-1.87-.02-.14,0-.31.07-.42,1.3-1.87,2.6-3.73,3.91-5.59.28-.4.68-.63,1.17-.56.25.03.51.15.72.29,1.75,1.2,3.48,2.42,5.22,3.64,1.92,1.34,3.83,2.68,5.74,4.03.05.04.1.07.18.13Z"/>
        <path class="cls-5" d="m14.46,209.69c-.11-.61-.21-1.16-.31-1.72-.23-1.32-.47-2.64-.69-3.97-.28-1.64.75-3.06,2.4-3.34,2.54-.43,5.07-.89,7.61-1.33,1.47-.26,2.94-.53,4.42-.77,1.56-.26,2.98.79,3.27,2.38.21,1.18.42,2.36.62,3.54,0,.01,0,.03-.01.08-.32-.22-.62-.44-.93-.64-.9-.59-1.84-.69-2.83-.25-.49.22-.87.59-1.18,1.03-.54.77-1.08,1.55-1.64,2.34-.34-.24-.67-.47-1.01-.7-.93-.64-1.84-1.31-2.79-1.92-1.22-.8-2.87-.47-3.72.71-.4.56-.79,1.12-1.19,1.69-.62.88-1.24,1.77-1.86,2.65-.04.06-.09.12-.17.22Z"/>
        <path class="cls-5" d="m26.44,207.93c.57-.82,1.12-1.61,1.68-2.41.47-.67,1.2-.8,1.89-.32.43.3.87.61,1.3.91.22.15.43.31.65.45.16.1.23.22.26.4.23,1.35.48,2.71.71,4.06.07.44.03.88-.14,1.33-2.11-1.48-4.22-2.94-6.34-4.42Z"/>
      </g>
    </g>
    <g id="Q8Mjlc.tif" class="cls-2">
      <path class="cls-5" d="m23.37,44.1c-1.97-.12-3.72,1.52-3.78,3.48-.11,1.63,1.01,3.23,2.58,3.69,1.12.35,2.4.11,3.32-.62.44-.32.75-.8,1.1-1.2.51-.61,1.17-.69,1.94-.68.74,0,1.48,0,2.22,0,.72,0,1.43,0,2.15.01,1.38,0,2.83.15,3.52,1.51.63,1.21.38,3.01-.73,3.85-1,.77-2.35.61-3.54.64-1.36.01-2.78.18-3.87,1.07-.65.51-1.18,1.18-1.5,1.94-1.09,2.69.21,6.05,3.17,6.77.74.18,1.52.19,2.28.2,1.54.02,3.07.01,4.61.01.25,0,.51.02.74.08.76.18,1.09,1,1.59,1.52,1,1.04,2.71,1.36,4.04.82,1.6-.69,2.65-2.69,2.12-4.4-.61-2.16-3.03-3.29-5.06-2.33-.39.19-.76.44-1.06.75-.31.31-.54.71-.84,1.02-.42.47-.99.57-1.62.56-1.27,0-2.53,0-3.8,0-.97-.01-1.98.07-2.9-.31-1.04-.41-1.64-1.46-1.66-2.56-.07-1.16.53-2.37,1.61-2.81,1.24-.51,2.68-.29,3.99-.39,1.8-.04,3.56-1.13,4.29-2.79.63-1.46.62-3.31-.21-4.72-.68-1.18-1.87-2.06-3.22-2.29-1.32-.19-2.67-.11-4-.14-.87,0-1.74,0-2.61,0-.28,0-.57-.01-.84-.09-.66-.17-.99-.81-1.39-1.31-.63-.77-1.66-1.22-2.65-1.28h-.01Zm1.62,3.75c-.02,1.2-1.21,2.03-2.33,1.6-1.28-.47-1.52-2.3-.39-3.07,1.16-.8,2.76.03,2.72,1.45h0Z"/>
    </g>
    <g class="cls-2">
      <path class="cls-5" d="m81,60.56c.26-.11.55-.18.86-.23v4.03c-.25-.08-.51-.17-.77-.28-.39-.16-.73-.38-1-.65-.27-.27-.41-.63-.41-1.08,0-.4.11-.75.34-1.06.23-.31.55-.56.97-.73Z"/>
      <path class="cls-5" d="m85.16,67.76c.24.26.35.6.35,1.01,0,.45-.14.85-.41,1.19-.27.34-.64.61-1.1.79-.31.12-.65.21-1.02.25v-4.31c.45.12.85.26,1.21.42.4.17.72.39.95.65Z"/>
      <path class="cls-5" d="m93.35,65.65c0,6.05-4.91,10.96-10.96,10.96s-10.96-4.91-10.96-10.96,4.91-10.96,10.96-10.96,10.96,4.91,10.96,10.96Zm-5.71,3.14c0-.64-.12-1.18-.37-1.63-.25-.45-.57-.83-.98-1.13-.4-.31-.84-.55-1.32-.75-.48-.19-.94-.34-1.38-.46l-.59-.16v-4.35c.57.06,1.06.23,1.47.5.53.35.82.85.89,1.49h2.1c-.02-.75-.24-1.42-.66-2-.42-.59-1-1.05-1.73-1.38-.61-.28-1.3-.44-2.07-.49v-1.83h-1.13v1.84c-.68.06-1.31.22-1.88.48-.75.34-1.35.81-1.78,1.42-.44.61-.66,1.32-.66,2.13,0,.96.32,1.75.97,2.35.65.6,1.54,1.06,2.7,1.37l.66.18v4.62c-.33-.04-.64-.11-.93-.21-.46-.16-.83-.41-1.12-.75-.29-.33-.45-.76-.5-1.27h-2.16c.04.86.28,1.59.72,2.21.44.62,1.04,1.1,1.82,1.43.63.27,1.36.43,2.17.48v1.79h1.13v-1.78c.86-.05,1.61-.22,2.25-.52.78-.36,1.37-.85,1.78-1.47.41-.62.61-1.33.61-2.12Z"/>
    </g>
    <path class="cls-3" d="m169.06,119.73c-.15.28-.41.46-.7.46h-.13s-6.95-3.63-6.95-3.63v-4.27c0-.44-.36-.81-.81-.81h-.27c-.44,0-.81.36-.81.81v4.22l-6.97,3.34h-.12c-.29,0-.56-.2-.7-.49-.14-.29-.13-.66.01-.94l8.28-15.92c.15-.29.42-.46.71-.46.29,0,.56.19.7.49l7.76,16.27c.14.29.13.66-.01.94Z"/>
    <g id="HXw4Oa.tif" class="cls-2">
      <path class="cls-5" d="m168.55,212.51c.32,0,.63,0,.95,0,.27.07.55.12.82.22,1.3.45,2.3,1.33,3.21,2.33.15.16.3.33.46.51.24-.26.45-.5.67-.73.86-.9,1.81-1.69,3.02-2.11.27-.09.54-.14.82-.21.3,0,.59,0,.89,0,.09.02.17.05.26.06,1.31.16,2.41.73,3.3,1.68,1.68,1.77,2.01,3.85,1.32,6.14-.61,2.03-1.78,3.74-3.17,5.31-1.75,1.98-3.75,3.69-5.85,5.28-.4.31-.79.63-1.19.95h-.12c-.05-.05-.1-.12-.15-.16-1.46-1.18-2.96-2.32-4.38-3.56-1.76-1.53-3.34-3.24-4.53-5.26-.73-1.23-1.27-2.53-1.43-3.96-.04-.34-.07-.68-.1-1.02,0-.04,0-.08,0-.12.02-.06.05-.13.06-.19.25-2.37,2.12-4.48,4.43-5,.24-.05.48-.09.72-.14Z"/>
    </g>
    <g id="Ncl5mi.tif" class="cls-2">
      <g>
        <path class="cls-5" d="m26.55,22.34v-1.1c-.3.07-.58.17-.87.22-1.24.21-2.6-.5-3.12-1.61-.59-1.28-.33-2.7.68-3.56.27-.23.59-.42.91-.58.2-.1.28-.18.28-.41.02-1.62,1.34-2.93,2.97-2.95,1.68-.02,3.04,1.31,3.04,2.99,0,.19.05.28.23.35,1.14.44,1.8,1.29,1.93,2.49.14,1.22-.36,2.21-1.4,2.86-.81.52-1.72.6-2.64.26-.07-.03-.15-.06-.24-.09v1.12c.09.02.19.04.28.06.41.12.67.51.61.93-.05.42-.4.74-.83.74-.61,0-1.21,0-1.82,0-.51,0-.87-.31-.91-.78-.04-.45.26-.82.74-.92.05,0,.09-.02.15-.03Z"/>
        <path class="cls-5" d="m14.51,8.13c0,.42,0,.8,0,1.17,0,.06.1.16.18.18.51.14.77.47.71.96-.05.44-.42.74-.92.74-.55,0-1.09,0-1.64,0-.54,0-.92-.3-.97-.76-.05-.45.3-.95.8-.95.03,0,.05-.02.09-.04v-1.28c-.24.1-.45.21-.68.29-1.15.42-2.51-.06-3.2-1.13-.64-.99-.53-2.39.32-3.25,1.25-1.27,2.52-2.51,3.78-3.76.42-.42.91-.41,1.34.02,1.21,1.19,2.4,2.41,3.63,3.58,1.12,1.07,1.03,2.71.33,3.61-.85,1.11-2.32,1.41-3.59.71-.04-.02-.09-.04-.19-.09Z"/>
        <path class="cls-5" d="m27.45,2.28c.14-.16.27-.31.41-.46.72-.77,1.6-1.08,2.63-.84,1.01.24,1.65.9,1.95,1.88.37,1.17.1,2.21-.71,3.12-1.18,1.33-2.37,2.65-3.56,3.97-.46.51-.99.52-1.45,0-1.21-1.34-2.43-2.68-3.63-4.03-1.12-1.27-1.08-3.17.07-4.28,1.01-.98,2.65-.99,3.67,0,.21.2.4.42.61.65Z"/>
        <path class="cls-5" d="m13.67,24.16c-.25-.14-.5-.22-.65-.38-1.45-1.57-2.88-3.14-4.31-4.73-.32-.36-.31-.79.01-1.15,1.42-1.57,2.84-3.13,4.26-4.68.39-.42.94-.43,1.33,0,1.43,1.56,2.85,3.12,4.26,4.68.34.38.33.82-.02,1.2-1.4,1.54-2.8,3.08-4.21,4.61-.17.18-.43.29-.69.45Z"/>
      </g>
    </g>
    <g id="KU9j2N.tif" class="cls-2">
      <g>
        <path class="cls-5" d="m61.67,121.56s-.08-.04-.08-.08c.1-1.6.21-3.19.31-4.79.04-.67.08-1.34.12-2.02,0-.07.02-.15.03-.22,0-.04.04-.07.08-.07h.74s.07.03.08.07c.03.5.07.98.1,1.47.11,1.71.21,3.42.32,5.13,0,.14,0,.28,0,.42,0,.04-.03.08-.08.08h-1.62Z"/>
        <path class="cls-5" d="m59.34,110.26s-.08,0-.1-.03c-.86-1.47-2.2-2.23-3.76-2.63-2.17-.55-4.36-.55-6.53,0-1.34.34-2.53.95-3.4,2.07-.13.17-.23.36-.36.56-.02.04-.07.05-.1.03-1.74-1.01-3.49-2.02-5.27-3.05-.05-.03-.05-.1,0-.13.49-.28.95-.54,1.42-.8,3.58-2.03,7.17-4.06,10.75-6.1.16-.09.28-.12.45-.02,4.02,2.29,8.04,4.57,12.07,6.85.04.02.08.05.12.07.05.03.05.1,0,.13-.49.29-.96.57-1.45.84-.17.09-.22.2-.22.39,0,1.29,0,2.57,0,3.86,0,.06,0,.13,0,.2,0,.04.03.08.08.08h.72s.08.03.08.08v.73s-.03.08-.08.08h-2.49s-.08-.03-.08-.08v-.71s.03-.08.08-.08h.7s.08-.03.08-.08v-3.68c0-.06-.06-.1-.12-.07-.86.5-1.71.99-2.57,1.49Z"/>
        <path class="cls-5" d="m52.27,116.11s-.07.03-.1,0c-1.07-.9-2.28-1.48-3.6-1.87-.75-.22-1.5-.15-2.25.02-.08.02-.17.04-.27.07-.05.01-.1-.02-.1-.07,0-.07,0-.13,0-.2,0-1.01,0-2.03,0-3.04,0-.26.07-.47.22-.68.57-.83,1.38-1.32,2.3-1.65,1.74-.62,3.53-.68,5.35-.49,1.08.11,2.11.38,3.06.91.57.32,1.07.73,1.41,1.3.1.17.17.39.17.58.02,1.01,0,2.03,0,3.04,0,.07,0,.14,0,.21,0,.05-.04.08-.09.08-.37-.07-.72-.16-1.07-.16-.51,0-1.04,0-1.52.12-1.15.3-2.22.83-3.18,1.55-.12.09-.22.19-.34.29Z"/>
      </g>
    </g>
    <g class="cls-2">
      <path class="cls-5" d="m81.2,162.23v.02c0,.06,0,.11,0,.17-.07,1.48-1,2.67-2.16,2.8,0,0,0,0,0,0h0c-.07,0-.14.01-.21.01h-19.03c-1.13,0-2.06-1.16-2.06-2.58v-.04c0-.12.02-.23.06-.33,0-.02.01-.03.02-.05h14.97,0s.92,0,.92,0c.09,0,.16.05.2.13l.42.91c.08.17.32.17.4,0l.42-.91c.04-.08.11-.13.2-.13h.78,0s5.08,0,5.08,0Z"/>
      <path class="cls-5" d="m87.82,146.06l-1.85,19.02c0,.07-.07.13-.14.13h-5.14c.69-.66,1.14-1.64,1.19-2.76,0-.07,0-.14,0-.21v-.04c0-.49-.29-.91-.69-1.09v-1.02c0-.41-.13-.79-.35-1.08.22-.3.35-.68.35-1.08v-.92c.4-.09.72-.45.75-.88.07-.92-.05-4.18-4.48-7.43-.6-.44-1.23-.84-1.87-1.18l-.13-1.45c0-.08.06-.15.14-.15h12.08c.08,0,.15.07.14.15Z"/>
      <path class="cls-5" d="m81.53,143.31h6.85c.05,0,.1.04.1.09v1.81c0,.05-.04.09-.1.09h-6.14l-.71-2Z"/>
      <path class="cls-5" d="m81.84,143.54h-.88l-1.98-5.85c-.02-.07-.11-.08-.16-.03l-2.42,2.55s-.09.04-.13,0l-.47-.45s-.04-.09,0-.13l2.83-2.99c.09-.09.17-.18.26-.27.08-.08.33-.43.45-.22,0,0,0,0,0,.01.04.1.08.21.11.32.05.14.09.28.14.41.11.33.22.66.33.99.22.65.44,1.29.66,1.94.27.79.54,1.59.81,2.38.15.44.3.89.45,1.33Z"/>
      <g>
        <path class="cls-6" d="m81.25,155.55c0,.13-.09.23-.22.23h-23.09c-.14,0-.24-.13-.22-.26.16-.79.63-2.15,1.62-3.47,4.25-5.63,10.99-6.73,16.47-3.55h0c.44.25.87.54,1.29.85,3.47,2.55,4.07,5.05,4.14,6.2Zm-20.84-2.24s-.02.02-.03.03c-.49.75.26,1.58.93,1.03,0,0,.02-.02.03-.03.49-.75-.26-1.58-.93-1.03Zm1.92-3.13s-.02.02-.03.03c-.49.75.26,1.57.93,1.03,0,0,.02-.02.03-.03.5-.75-.26-1.58-.93-1.03Zm1.92,1.7c-.35,0-.64.32-.64.71,0,.55.57.95,1.09.53,0,0,.02-.02.03-.03.38-.58.02-1.21-.48-1.21Zm2.85-1.48s.02-.02.03-.03c.49-.75-.26-1.58-.93-1.03,0,0-.02.02-.03.03-.49.75.26,1.58.93,1.03Zm-.77,3.08s-.02.02-.03.03c-.49.75.26,1.58.93,1.03.01,0,.02-.02.03-.03.49-.75-.26-1.58-.93-1.03Zm3.6-1.66s-.02-.02-.03-.03c-.67-.55-1.42.28-.93,1.03,0,.01.02.02.03.03.67.55,1.42-.28.93-1.03Zm.67-3.89s-.02-.02-.03-.03c-.67-.55-1.42.28-.93,1.03,0,.01.02.02.03.03.67.55,1.42-.29.93-1.03Zm1.07,3.44c.67.55,1.42-.29.93-1.03,0-.01-.02-.02-.03-.03-.67-.55-1.42.28-.93,1.03,0,.01.02.02.03.03Zm1.39,2.2s-.02-.02-.03-.03c-.67-.55-1.42.28-.93,1.03,0,.01.02.02.03.03.67.55,1.42-.28.93-1.03Zm2.08-4.09s-.02-.02-.03-.03c-.67-.55-1.42.28-.93,1.03,0,.01.02.02.03.03.67.55,1.42-.29.93-1.03Zm.65,2.52c-.35,0-.64.32-.64.71,0,.55.57.95,1.09.53,0,0,.02-.02.03-.03.38-.58.02-1.21-.48-1.21Zm3.65,1.47s-.02-.02-.03-.03c-.67-.55-1.42.29-.93,1.03,0,.01.02.02.03.03.67.55,1.42-.28.93-1.03Z"/>
        <path class="cls-5" d="m81.25,155.55c0,.13-.09.23-.22.23h-23.09c-.14,0-.24-.13-.22-.26.16-.79.63-2.15,1.62-3.47,4.25-5.63,10.99-6.73,16.47-3.55h0c.44.25.87.54,1.29.85,3.47,2.55,4.07,5.05,4.14,6.2Zm-20.84-2.24s-.02.02-.03.03c-.49.75.26,1.58.93,1.03,0,0,.02-.02.03-.03.49-.75-.26-1.58-.93-1.03Zm1.92-3.13s-.02.02-.03.03c-.49.75.26,1.57.93,1.03,0,0,.02-.02.03-.03.5-.75-.26-1.58-.93-1.03Zm1.92,1.7c-.35,0-.64.32-.64.71,0,.55.57.95,1.09.53,0,0,.02-.02.03-.03.38-.58.02-1.21-.48-1.21Zm2.85-1.48s.02-.02.03-.03c.49-.75-.26-1.58-.93-1.03,0,0-.02.02-.03.03-.49.75.26,1.58.93,1.03Zm-.77,3.08s-.02.02-.03.03c-.49.75.26,1.58.93,1.03.01,0,.02-.02.03-.03.49-.75-.26-1.58-.93-1.03Zm3.6-1.66s-.02-.02-.03-.03c-.67-.55-1.42.28-.93,1.03,0,.01.02.02.03.03.67.55,1.42-.28.93-1.03Zm.67-3.89s-.02-.02-.03-.03c-.67-.55-1.42.28-.93,1.03,0,.01.02.02.03.03.67.55,1.42-.29.93-1.03Zm1.07,3.44c.67.55,1.42-.29.93-1.03,0-.01-.02-.02-.03-.03-.67-.55-1.42.28-.93,1.03,0,.01.02.02.03.03Zm1.39,2.2s-.02-.02-.03-.03c-.67-.55-1.42.28-.93,1.03,0,.01.02.02.03.03.67.55,1.42-.28.93-1.03Zm2.08-4.09s-.02-.02-.03-.03c-.67-.55-1.42.28-.93,1.03,0,.01.02.02.03.03.67.55,1.42-.29.93-1.03Zm.65,2.52c-.35,0-.64.32-.64.71,0,.55.57.95,1.09.53,0,0,.02-.02.03-.03.38-.58.02-1.21-.48-1.21Zm3.65,1.47s-.02-.02-.03-.03c-.67-.55-1.42.29-.93,1.03,0,.01.02.02.03.03.67.55,1.42-.28.93-1.03Z"/>
      </g>
      <g>
        <path class="cls-5" d="m73.36,161.28l.12.25h-15.05v-1.32c0-.22.06-.42.17-.57.08-.12.19-.21.31-.26.07-.03.14-.04.21-.04h13.34l.89,1.93Z"/>
        <path class="cls-5" d="m80.51,160.22v1.32h-4.93l.12-.25.89-1.93h3.22c.05,0,.1,0,.15.02.15.04.28.14.38.28.11.15.17.35.17.57Z"/>
      </g>
      <polygon class="cls-5" points="76.73 158.6 76.72 158.62 72.04 158.62 72.03 158.6 76.73 158.6"/>
      <path class="cls-5" d="m82.56,145.31h-7.66c-.06,0-.11-.04-.11-.09v-1.81c0-.05.05-.09.11-.09h6.89l.77,2Z"/>
      <path class="cls-5" d="m80.51,156.47v1.32c0,.22-.06.42-.17.57-.1.14-.23.24-.38.28-.05.01-.1.02-.15.02h-20.7c-.07,0-.14-.01-.21-.04-.12-.05-.23-.14-.32-.26-.11-.15-.17-.35-.17-.57v-1.32h22.09Z"/>
    </g>
    <g id="l12Q6s.tif" class="cls-2">
      <g>
        <path class="cls-5" d="m194.39,123.9c.28-.68.8-.89,1.5-.87,1.37.03,2.75.02,4.12,0,.42,0,.77.14,1.06.44.81.8,1.62,1.6,2.43,2.4.6.59.61,1.26.02,1.85-.83.84-1.67,1.66-2.51,2.5-.29.29-.62.42-1.04.42-1.36-.01-2.73-.03-4.09,0-.71.02-1.22-.2-1.5-.87v-5.86Z"/>
        <path class="cls-5" d="m202.39,137.77s-.08-.06-.12-.08c-.5-.22-.75-.6-.75-1.15,0-1.46,0-2.93,0-4.39,0-.38.14-.69.4-.95.86-.87,1.71-1.74,2.58-2.6.49-.49,1.14-.5,1.63-.01.88.86,1.75,1.73,2.62,2.6.25.25.37.55.37.91,0,1.49,0,2.99,0,4.48,0,.61-.36.95-.87,1.19h-5.86Z"/>
        <path class="cls-5" d="m205.36,115.9c.84,0,1.69,0,2.53,0,.73,0,1.22.47,1.22,1.19.01,1.5,0,2.99,0,4.49,0,.38-.15.69-.41.95-.83.83-1.65,1.66-2.49,2.48-.58.57-1.22.56-1.8-.02-.83-.83-1.64-1.67-2.47-2.49-.3-.3-.44-.64-.44-1.06.01-1.43,0-2.85,0-4.28,0-.81.46-1.26,1.27-1.26.86,0,1.71,0,2.57,0Z"/>
        <path class="cls-5" d="m216.25,126.87c0,.83,0,1.67,0,2.5,0,.79-.47,1.26-1.25,1.26-1.45,0-2.89,0-4.34,0-.37,0-.67-.13-.93-.38-.87-.86-1.74-1.72-2.59-2.59-.51-.52-.52-1.19,0-1.71.85-.85,1.7-1.69,2.56-2.54.26-.25.57-.38.93-.38,1.47,0,2.93,0,4.4,0,.74,0,1.21.49,1.22,1.23,0,.87,0,1.73,0,2.6Z"/>
      </g>
    </g>
    <g class="cls-2">
      <path class="cls-5" d="m13.15,162.54c-.64.27-1.27.53-1.94.81-.12.05-.23-.07-.18-.18.34-.83.68-1.64,1.01-2.44.04-.09.16-.12.23-.04.32.33.75,1.07.96,1.69.02.07-.01.15-.08.17Z"/>
      <path class="cls-5" d="m16.51,160.85c0,.15-.04.22-.18.28-.71.28-1.41.58-2.11.87-.02,0-.05.02-.07.03-.07.03-.15,0-.18-.08-.05-.12-.1-.24-.15-.35-.28-.66-.67-1.25-1.16-1.77-.08-.08-.12-.14-.07-.27.83-1.98,1.39-3.34,1.59-3.8.04-.09.15-.11.22-.05.58.53,1.03,1.16,1.37,1.86.51,1.03.74,2.14.74,3.29Z"/>
      <path class="cls-5" d="m21.95,158.82c-1.49.63-2.97,1.25-4.45,1.87-.09.04-.19-.02-.2-.12-.06-.5-.1-.98-.19-1.45-.32-1.66-1.08-3.08-2.34-4.21-.16-.14-.18-.25-.1-.44.3-.71.59-1.43.88-2.14.04-.1.16-.12.23-.05,2.07,2.1,4.13,4.19,6.21,6.29.07.07.05.2-.05.24Z"/>
      <path class="cls-5" d="m31.79,152.48v.19c-.18.27-.26.3-.56.21-1.94-.57-3.88-.59-5.82-.02-.93.27-1.81.67-2.63,1.2-.37.24-.74.47-1.11.7-.2.13-.4.09-.52-.08-.11-.17-.07-.36.13-.48.99-.63,1.97-1.29,3.08-1.71,1.7-.64,3.45-.86,5.24-.62.59.08,1.16.21,1.74.35.16.04.29.17.44.27Z"/>
      <path class="cls-5" d="m30.71,155.88c0,.19-.11.3-.29.35-.63.18-1.08.57-1.36,1.16-.06.12-.07.26-.14.37-.07.11-.18.18-.32.31-.13-.14-.28-.22-.31-.34-.25-.78-.75-1.29-1.54-1.53-.1-.03-.22-.21-.23-.33,0-.1.13-.27.23-.3.77-.26,1.29-.76,1.54-1.54.03-.11.2-.22.32-.24.19-.04.29.11.34.28.18.61.56,1.05,1.13,1.33.1.05.22.09.33.12.17.05.29.15.3.34Zm-1.42.02c-.21-.21-.49-.5-.68-.69-.2.2-.49.49-.67.67.19.19.47.49.66.69.21-.2.5-.48.69-.66Z"/>
      <path class="cls-5" d="m30.15,147.16c-.02.21-.14.3-.33.35-.49.13-.92.38-1.3.72-.46.42-.79.92-.95,1.53-.05.18-.13.32-.34.33-.22,0-.31-.13-.37-.32-.36-1.15-1.11-1.91-2.27-2.25-.18-.05-.29-.15-.3-.34,0-.19.12-.3.29-.35,1.18-.35,1.94-1.12,2.29-2.29.05-.16.15-.28.33-.28.19,0,.3.11.35.28.35,1.18,1.11,1.94,2.29,2.3.17.05.28.16.3.34Zm-1.29,0c-.72-.39-1.25-.92-1.64-1.64-.39.7-.92,1.24-1.65,1.63.73.4,1.25.94,1.65,1.64.38-.72.93-1.24,1.64-1.64Z"/>
      <path class="cls-5" d="m29.29,155.9c-.19.18-.48.46-.69.66-.19-.2-.47-.49-.66-.69.18-.18.47-.47.67-.67.19.19.48.48.68.69Z"/>
      <path class="cls-5" d="m28.86,147.17c-.71.4-1.25.92-1.64,1.64-.4-.7-.92-1.24-1.65-1.64.73-.39,1.26-.93,1.65-1.63.39.71.92,1.24,1.64,1.64Z"/>
      <path class="cls-5" d="m25.48,155.18c.23.03.35.18.32.38-.03.22-.18.29-.39.3h-.19c-.59,0-1.1.19-1.53.58-.05.05-.11.12-.16.13-.14,0-.32.02-.4-.06-.08-.08-.05-.26-.06-.4,0-.02.03-.05.05-.08.66-.64,1.43-.96,2.36-.85Z"/>
      <path class="cls-5" d="m24.91,149.83c-.08.13-.12.25-.2.32-.5.51-1,1.01-1.51,1.5-.17.17-.37.18-.52.04-.14-.14-.13-.35.04-.52.51-.51,1.02-1.03,1.55-1.53.08-.08.26-.12.37-.09.1.02.17.17.27.28Z"/>
      <path class="cls-5" d="m22.84,159.32c-4.13,1.7-8.25,3.42-12.38,5.13-.08.03-.16.06-.2.07-.3,0-.46-.23-.36-.49.2-.51.41-1.01.62-1.51,1.53-3.69,3.06-7.39,4.59-11.08.18-.44.4-.48.74-.14,2.38,2.39,4.76,4.78,7.16,7.16.38.38.41.63-.18.87Zm-12.2,4.62l2.92-1.22c.07-.03.1-.1.08-.17l-.04-.12c-.29-.94-.95-1.95-1.34-2.2l-.14-.09c-.07-.05-.17-.02-.21.06l-1.47,3.55c-.05.12.07.23.18.18Zm6.26-2.99c0-1.3-.28-2.51-.81-3.58-.44-.88-.98-1.6-1.67-2.18l-.11-.1c-.07-.06-.18-.04-.22.05-.16.34-.52,1.1-.63,1.38-.4.97-.82,1.98-1.23,2.97-.13.31.05.5.13.58.49.52.89,1.12,1.17,1.78.05.11.09.22.14.33.02.05.04.11.07.16l.05.12c.03.07.11.1.18.08l.13-.05s.05-.02.07-.03c.05-.02.1-.03.15-.05.21-.09.43-.18.64-.27.52-.22,1.05-.44,1.58-.65.25-.1.37-.28.37-.55Zm5.73-1.99c.09-.04.12-.16.05-.23l-7.03-7.01c-.07-.07-.19-.05-.23.05l-.08.19c-.09.21-.18.43-.26.64-.24.57-.48,1.16-.73,1.74-.13.31-.08.55.17.77,1.21,1.06,2,2.45,2.33,4.12.07.36.11.72.15,1.11.02.18.04.36.06.54l.02.18c.01.09.11.15.19.11l5.35-2.21Z"/>
      <path class="cls-5" d="m22.17,143.03c.86,3.1.46,6.04-1.19,8.8-.25.42-.51.82-.77,1.23-.13.21-.32.27-.49.16-.18-.11-.22-.31-.09-.53.39-.66.83-1.29,1.18-1.97,1.23-2.43,1.44-4.96.69-7.57-.07-.24-.04-.43.17-.57h.23c.09.15.23.28.27.44Z"/>
      <path class="cls-5" d="m20.35,146.1c-.43.13-.82.32-1.08.69-.17.24-.29.51-.41.78-.08.17-.15.31-.36.31-.2-.01-.3-.14-.35-.32-.16-.51-.45-.92-.91-1.2-.17-.1-.36-.18-.55-.24-.18-.06-.28-.17-.28-.36,0-.18.11-.28.28-.33.76-.23,1.26-.72,1.48-1.49.05-.17.16-.27.33-.28.18,0,.29.1.34.27.24.79.76,1.28,1.54,1.53.1.03.19.2.22.31.04.16-.08.28-.24.33Zm-1.16-.33c-.2-.2-.49-.48-.69-.67-.2.19-.5.48-.7.67.22.22.5.51.68.7.2-.2.5-.48.7-.69Z"/>
      <path class="cls-5" d="m18.83,148.58c.2-.02.38.09.38.32,0,.38-.03.76-.11,1.13-.1.45-.36.82-.67,1.16-.18.2-.4.23-.55.08-.15-.14-.14-.34.03-.54.4-.44.64-.95.63-1.54,0-.09-.01-.16-.01-.23,0-.22.11-.36.3-.38Z"/>
      <path class="cls-5" d="m18.5,145.09c.2.2.49.48.69.67-.21.2-.5.49-.7.69-.18-.18-.47-.48-.68-.7.2-.19.5-.47.7-.67Z"/>
    </g>
    <path class="cls-3" d="m8.31,105.7l-.16.16.16-.16Z"/>
    <g class="cls-2">
      <path class="cls-5" d="m182.1,63.5c0,.19-.01.43-.08.62-.33.85-.79,1.56-1.37,2.14-.58.58-1.31,1.03-2.15,1.33-.08.03-.19.05-.3.07-.05,0-.09.02-.14.02-.15,0-.26-.04-.3-.08-.05-.05-.07-.16-.07-.32,0-.54.26-1.03.51-1.43.64-1.02,1.48-1.81,2.52-2.33.38-.19.71-.28,1.02-.28.02,0,.05,0,.07,0,.2,0,.29.05.29.28Z"/>
      <path class="cls-5" d="m172.43,67.37c-.44.45-.91.93-1.44,1.45-.23-.21-.46-.44-.69-.68.46-.47.95-.96,1.45-1.45.21.2.43.42.68.68Z"/>
      <path class="cls-5" d="m174.82,71.16c-.21-.2-.43-.42-.64-.65.09.01.18.02.27.02.12,0,.23-.01.35-.03-.03.23-.02.45.01.66Z"/>
      <path class="cls-5" d="m175.08,75.28s-.05.05-.08.08c-.44.45-.85.88-1.4,1.07-.35.12-.69.18-1.01.18-.69,0-1.31-.28-1.89-.84-.46-.45-.91-.91-1.25-1.26-.97-.99-.99-2.57-.06-3.58.2-.21.42-.41.65-.62.01-.01.03-.02.04-.03.28.19.58.28.89.28.28,0,.55-.08.83-.23,1.08,1.38,2.11,2.42,3.2,3.24-.32.58-.3,1.17.07,1.73Z"/>
      <path class="cls-5" d="m178.64,73.58c-.42.44-.88.9-1.44,1.45-.22-.2-.45-.42-.69-.68.44-.45.92-.93,1.45-1.46.24.23.47.46.68.68Z"/>
      <path class="cls-5" d="m189.49,62.72c-.48.49-.96.98-1.45,1.46-.22-.21-.45-.44-.68-.68.48-.49.96-.98,1.44-1.45.24.22.47.45.69.68Z"/>
      <path class="cls-5" d="m183.29,56.52c-.45.46-.92.93-1.45,1.45-.24-.22-.47-.46-.68-.68,0,0,0,0,0,0,.46-.47.93-.94,1.44-1.45.24.23.48.46.69.68Z"/>
      <path class="cls-5" d="m185.92,64.38l-7.06,7.08c-.27-.18-.58-.28-.9-.28-.09,0-.19,0-.29.02-.36.06-.62.24-.84.44-.12-.26-.24-.52-.34-.78,0-.03.01-.08.02-.12.01-.07.03-.15.03-.24,0-.05,0-.11.02-.18.02-.19.04-.41,0-.63-.12-.6-.65-1.02-1.3-1.02-.17,0-.35.03-.52.09-.09.03-.17.05-.25.05-.13,0-.26-.04-.42-.12-.12-.07-.25-.13-.39-.21.57-.66.63-1.3.19-1.99l7.08-7.08c.27.18.57.26.88.26.09,0,.19,0,.28-.02.36-.06.63-.24.85-.44.13.28.25.54.35.82,0,.04-.02.11-.03.16-.01.04-.02.08-.03.13-.17.78.04,1.33.64,1.68.2.12.42.18.65.18.18,0,.36-.04.55-.11.08-.03.15-.05.23-.05.11,0,.23.04.37.11.14.07.29.15.44.23-.55.61-.62,1.35-.19,2.01Zm-2.13-1.02c-.06-.89-.64-1.57-1.49-1.77-.19-.05-.39-.07-.59-.07-.31,0-.64.06-.97.17-1.59.53-2.88,1.58-3.94,3.19-.35.54-.78,1.36-.81,2.18h0c0,.74.2,1.33.6,1.73.35.35.83.54,1.39.54.05,0,.11,0,.16,0,.48-.03.95-.14,1.37-.32,1.7-.73,3-1.98,3.87-3.73.32-.64.46-1.28.41-1.92Z"/>
      <path class="cls-5" d="m185.61,60.36c-.09-.01-.18-.02-.27-.02-.12,0-.24.01-.37.03.03-.22.03-.45-.01-.68.22.21.43.43.65.66Z"/>
      <path class="cls-5" d="m190.29,60.06c-.18.19-.38.37-.58.57,0,0,0,0,0,0-.33-.21-.62-.31-.92-.31-.27,0-.52.08-.8.24-1.09-1.4-2.1-2.42-3.21-3.24.13-.23.23-.52.22-.86-.02-.31-.11-.6-.3-.87.67-.73,1.39-1.33,2.4-1.33.05,0,.1,0,.15,0,.64.04,1.17.25,1.59.63.43.4,1,.93,1.52,1.5.98,1.07.94,2.61-.07,3.66Z"/>
      <path class="cls-5" d="m191.28,60.8c-.31.34-.66.63-.95.91.15.31.3.53.38.77.11.36.02.72-.24.99-.54.57-1.09,1.12-1.66,1.66-.44.42-1.08.4-1.54,0-.05-.04-.09-.09-.13-.11-2.55,2.55-5.1,5.09-7.65,7.65.02.02.06.07.1.12.4.46.43,1.09.01,1.54-.52.56-1.06,1.11-1.62,1.64-.51.48-1.1.43-1.73-.12-.25.25-.5.49-.74.74-.52.55-1.14.92-1.86,1.12-.19.05-.39.09-.58.13h-.82s-.06-.03-.09-.04c-.9-.12-1.67-.51-2.31-1.16-.38-.39-.79-.74-1.14-1.15-.31-.36-.61-.75-.83-1.17-.19-.36-.26-.78-.38-1.18v-.92c.1-.35.18-.72.31-1.06.21-.54.57-.99.99-1.39.23-.22.47-.44.7-.66-.11-.15-.22-.26-.29-.38-.26-.44-.21-.98.16-1.36.53-.55,1.07-1.1,1.62-1.63.4-.39,1.05-.4,1.49-.05.07.06.13.11.18.16,2.55-2.55,5.09-5.09,7.65-7.64-.07-.1-.18-.22-.26-.36-.25-.44-.19-.96.18-1.34.51-.53,1.02-1.06,1.55-1.57.48-.47,1.13-.47,1.63-.03.04.04.08.07.16.14.28-.29.54-.59.83-.86,1.35-1.31,3.3-1.53,4.85-.54.18.12.36.25.51.4.52.5,1.04,1,1.53,1.52,1.37,1.47,1.38,3.75.02,5.24Zm-6.83-.2c-.11.35-.02.42.33.29.43-.15.84-.13,1.24.07.36.17.72.35,1.13.55-.98-1.28-2.02-2.43-3.32-3.32.13.28.27.55.41.83.26.5.38,1.02.21,1.58Zm-3.63-2.99c.23.24.46.47.7.7.08.08.2.12.31.19.11-.06.21-.1.28-.16.51-.5,1.01-1,1.51-1.51.2-.21.2-.41,0-.62-.24-.24-.48-.48-.73-.71-.21-.2-.41-.19-.61.02-.49.48-.97.97-1.45,1.46-.21.22-.21.42,0,.63Zm-10.88,10.83c.25.26.51.52.78.76.18.17.38.16.56-.02.5-.5,1-1,1.5-1.51.07-.08.11-.19.16-.29-.05-.1-.08-.2-.14-.27-.26-.27-.52-.53-.79-.79-.17-.15-.38-.15-.55.01-.51.5-1.02,1.01-1.52,1.52-.19.19-.19.39,0,.58Zm5.75,6.87c-.63-.65-.56-1.27-.06-1.86-1.47-1.02-2.66-2.33-3.74-3.75-.58.49-1.19.58-1.83-.02-.34.31-.69.6-1,.94-1.1,1.2-1.07,3.04.06,4.21.42.43.83.85,1.26,1.27.96.94,2.09,1.2,3.36.77.83-.29,1.34-.97,1.94-1.56Zm.28-2.64c-.09-.17-.19-.33-.28-.5-.32-.6-.59-1.2-.35-1.91.1-.31,0-.4-.31-.28-.42.16-.82.14-1.22-.04-.33-.15-.65-.32-.97-.49-.06-.03-.11-.06-.17-.09.93,1.28,1.99,2.43,3.31,3.31Zm3.01.61c-.23-.24-.47-.48-.72-.72-.2-.19-.41-.19-.6,0-.51.5-1.01,1-1.51,1.51-.19.2-.19.4,0,.6.24.25.49.49.75.73.08.07.19.11.31.17.1-.06.2-.09.27-.16.5-.5,1.01-1,1.5-1.51.19-.2.18-.4,0-.6Zm7.54-8.86s-.02-.03-.04-.05c-.53-.57-.52-1.21.02-1.76.11-.11.24-.21.39-.34-.39-.2-.7-.37-1.02-.53-.31-.16-.63-.22-.97-.08-.26.1-.53.12-.79-.04-.43-.25-.55-.61-.43-1.2.04-.17.11-.37.06-.52-.18-.48-.41-.95-.64-1.45-.37.32-.61.68-1.07.76-.47.08-.83-.11-1.12-.41-2.56,2.56-5.1,5.1-7.64,7.65.6.73.58,1.24-.12,1.93-.07.07-.17.1-.25.15.36.25.66.42.96.57.33.17.66.24,1.04.1.55-.2,1.11.08,1.21.58.04.22,0,.46-.02.69-.01.17-.09.37-.04.52.18.47.41.92.63,1.41.37-.31.61-.68,1.06-.76.47-.08.84.1,1.14.42,2.55-2.56,5.09-5.11,7.64-7.66Zm3.31-1.99c-.25-.25-.5-.5-.76-.74-.07-.07-.18-.1-.28-.15-.1.06-.21.09-.28.16-.51.5-1.01,1-1.5,1.51-.19.2-.19.4,0,.6.24.25.49.5.74.74.19.18.39.18.58,0,.51-.5,1.01-1,1.51-1.51.2-.2.19-.4,0-.6Zm.86-6.34c-.49-.54-1.01-1.04-1.55-1.53-.52-.48-1.16-.71-1.87-.75-1.43-.08-2.33.8-3.18,1.78.26.25.43.53.45.89.02.37-.15.66-.41.94,1.5,1.03,2.68,2.34,3.75,3.76.68-.56,1.13-.54,1.85.04.3-.29.6-.56.88-.85,1.18-1.22,1.22-3.03.08-4.29Z"/>
      <path class="cls-5" d="m182.97,65.07c-.8,1.6-1.99,2.81-3.65,3.51-.38.16-.8.26-1.21.28-1.03.06-1.67-.59-1.66-1.8.02-.61.32-1.31.73-1.95.91-1.39,2.09-2.47,3.7-3,.43-.14.87-.19,1.31-.09.67.16,1.1.67,1.14,1.36.04.6-.11,1.16-.37,1.68Zm-.41-1.57c0-.46-.27-.71-.72-.73-.47-.02-.91.12-1.32.33-1.14.57-2.04,1.42-2.7,2.5-.32.51-.58,1.05-.58,1.67,0,.59.27.85.87.87.19-.04.39-.05.57-.12,1.84-.66,3.08-1.93,3.78-3.73.09-.24.11-.52.11-.78Z"/>
    </g>
    <g id="zGBiHe.tif" class="cls-2">
      <g>
        <path class="cls-5" d="m81.77,203.23c0,.14-.11.33-.23.4-.18.09-.2.2-.2.37,0,2.32,0,4.64,0,6.96,0,1.77-.8,2.93-2.45,3.58-.1.04-.2.19-.22.3-.13.88-.27,1.76-.33,2.64-.07,1.03-.52,1.77-1.47,2.17-.23.1-.49.14-.74.14-1.84.01-3.68,0-5.52,0-1.11,0-2.07-.91-2.18-2.02-.1-.96-.22-1.92-.34-2.88-.03-.22-.15-.33-.37-.41-1.28-.5-2.05-1.42-2.27-2.79-.01-.07-.05-12.83-.05-12.83.11-.36.18-.74.33-1.09.4-.9,1.09-1.51,2.02-1.84.19-.07.3-.16.33-.35.11-.89.27-1.78.33-2.67.08-1.35.99-2.28,2.33-2.28,1.76,0,3.52,0,5.28,0,1.29,0,2.19.87,2.31,2.17.09.91.22,1.82.33,2.73.03.22.15.34.37.42,1.4.49,2.28,1.77,2.31,3.32,0,.39,0,.78,0,1.18,0,.14.02.23.18.32.13.07.25.27.25.42.03.68.02,1.37,0,2.06Zm-13.28-6.98h9.61l.11-.37s.06-.14.04-.28c-.08-.79-.16-1.57-.25-2.36l-.06-.56c-.1-.96-.88-1.68-1.81-1.69-.9,0-1.82,0-2.73,0s-1.85,0-2.79,0c-.91,0-1.72.74-1.81,1.63-.07.7-.13,1.42-.19,2.12-.03.31-.05.62-.08.94l-.05.57Zm9.89,17.93h-9.87v.53s0,.04,0,.05c0,.05,0,.11,0,.19.03.28.06.57.09.85.07.6.14,1.21.18,1.81.08,1.09.86,1.83,1.93,1.83.84,0,1.67,0,2.51,0,.93,0,1.87,0,2.8,0,1.11,0,1.91-.79,1.93-1.91.01-.47.04-.94.1-1.41.03-.29.09-.59.15-.89.03-.14.05-.28.08-.42l.11-.61Zm2.05-14.92c0-1.54-1.11-2.62-2.64-2.62-2.94,0-5.89,0-8.83,0-1.55,0-2.64,1.1-2.64,2.64,0,1.98,0,3.96,0,5.93,0,2,0,4,0,5.99,0,1.5,1.1,2.59,2.6,2.59,2.96,0,5.93,0,8.89,0,1.5,0,2.61-1.09,2.61-2.58.01-3.99.01-7.97,0-11.96Z"/>
        <path class="cls-4" d="m77.75,214.69c-.08.45-.17.9-.23,1.35-.06.48-.09.97-.1,1.46-.02.83-.58,1.4-1.41,1.4-1.77,0-3.54,0-5.31,0-.81,0-1.34-.55-1.4-1.35-.07-.89-.18-1.79-.28-2.68,0-.06,0-.11,0-.18h8.72Z"/>
        <path class="cls-5" d="m77.75,214.69c-.08.45-.17.9-.23,1.35-.06.48-.09.97-.1,1.46-.02.83-.58,1.4-1.41,1.4-1.77,0-3.54,0-5.31,0-.81,0-1.34-.55-1.4-1.35-.07-.89-.18-1.79-.28-2.68,0-.06,0-.11,0-.18h8.72Z"/>
        <path class="cls-4" d="m77.72,195.65s-.01.04-.02.07h-8.64c.09-1.03.17-2.04.27-3.05.06-.62.64-1.15,1.29-1.15,1.84,0,3.68,0,5.52,0,.67,0,1.22.54,1.29,1.22.1.97.2,1.94.31,2.91Z"/>
        <path class="cls-5" d="m77.72,195.65s-.01.04-.02.07h-8.64c.09-1.03.17-2.04.27-3.05.06-.62.64-1.15,1.29-1.15,1.84,0,3.68,0,5.52,0,.67,0,1.22.54,1.29,1.22.1.97.2,1.94.31,2.91Z"/>
        <path class="cls-5" d="m79.79,211.17c0,1.17-.86,1.98-2.08,1.98-2.91,0-5.83,0-8.74,0-.35,0-.73-.08-1.04-.23-.7-.34-1.04-.95-1.04-1.74,0-2.01,0-4.02,0-6.02s0-3.94,0-5.91c0-1.2.79-2.05,1.98-2.05,2.99-.02,5.99-.02,8.98,0,1.16,0,1.96.86,1.96,2.02,0,3.99,0,7.97,0,11.96Zm-1.95-5.73c0-.19-.12-.3-.32-.3-.23,0-.47,0-.7,0-.21,0-.35-.08-.43-.28-.1-.22-.19-.46-.32-.66-.08-.11-.24-.25-.35-.24-.11.01-.25.18-.29.31-.11.34-.18.7-.27,1.05-.2.78-.39,1.57-.61,2.42-.04-.14-.07-.21-.09-.29-.22-.93-.43-1.87-.65-2.8-.26-1.11-.51-2.23-.78-3.34-.03-.13-.18-.32-.29-.33-.2-.03-.28.17-.31.35-.03.22-.06.45-.08.67-.13,1.05-.27,2.1-.41,3.23-.27-.41-.48-.75-.71-1.07-.17-.25-.4-.24-.56.01-.05.07-.08.16-.12.24-.46.94-.21.78-1.24.8-.04,0-.08,0-.12,0-.21,0-.35.09-.34.31,0,.22.14.3.35.3.34,0,.68,0,1.03,0,.21,0,.35-.08.44-.28.09-.21.2-.41.32-.65.3.46.56.89.85,1.29.08.11.28.19.41.18.08,0,.18-.2.22-.33.05-.18.05-.37.07-.55.1-.78.2-1.57.29-2.35.07.1.09.2.12.31.43,1.87.86,3.74,1.28,5.6.04.19.12.38.32.34.13-.03.28-.2.32-.34.13-.39.21-.79.31-1.19.22-.88.43-1.76.67-2.7.1.19.15.33.23.44.07.09.19.19.29.19.39.02.78.01,1.17,0,.2,0,.31-.13.31-.32Z"/>
      </g>
    </g>
    <g class="cls-2">
      <path class="cls-5" d="m106.04,257.99c0,5.33-4.32,9.66-9.66,9.66-1.56,0-3.04-.37-4.34-1.03-.2-.1-.4-.21-.6-.33-.59-.35-1.14-.76-1.64-1.23-.16-.14-.31-.29-.45-.45-1.63-1.73-2.63-4.06-2.63-6.62,0-2.35.84-4.5,2.23-6.17.14-.16.28-.32.42-.48.47-.49.99-.94,1.56-1.33.19-.13.38-.25.58-.36,1.43-.84,3.09-1.32,4.87-1.32,5.33,0,9.66,4.32,9.66,9.66Zm-1.91,0c0-4.28-3.47-7.75-7.75-7.75-1.16,0-2.25.25-3.24.71-.2.09-.39.19-.58.29-.57.32-1.09.71-1.56,1.16-.15.14-.29.29-.43.44-1.21,1.37-1.95,3.17-1.95,5.14,0,2.15.87,4.09,2.28,5.49.15.14.3.28.45.42.49.42,1.04.78,1.63,1.07.19.09.39.18.59.26.87.33,1.81.52,2.79.52,4.28,0,7.75-3.47,7.75-7.75Z"/>
      <path class="cls-5" d="m90.88,266.53c-1.43.84-3.1,1.32-4.87,1.32-5.33,0-9.66-4.32-9.66-9.66s4.32-9.66,9.66-9.66c1.56,0,3.04.37,4.34,1.03-.43.31-.83.66-1.22,1.04-.12.12-.23.23-.34.35-.87-.33-1.81-.52-2.79-.52-4.28,0-7.75,3.47-7.75,7.75s3.47,7.75,7.75,7.75c1.16,0,2.25-.25,3.24-.71.51.49,1.05.93,1.64,1.3Zm4.78-8.34c0,2.35-.84,4.5-2.23,6.17-.59-.27-1.14-.62-1.63-1.03,1.21-1.37,1.95-3.17,1.95-5.14,0-2.15-.87-4.09-2.28-5.49.47-.44.99-.83,1.56-1.13,1.63,1.73,2.63,4.06,2.63,6.62Z"/>
      <path class="cls-5" d="m90.61,245.02l-.12.1-.14.14-1.86,1.86-2.12,2.11-2.12-2.11-1.86-1.86-.14-.14-.12-.1h.01s0-.02,0-.02h.02l.1-.08.14-.12,1.86-1.57h4.23l1.86,1.57.14.12.1.08h.02,0s0,.02,0,.02Zm-2.75-1.18h-1.25l.71.93.03.04h1.58l-1.07-.97Zm-1,.95v-.02s-.47-.6-.47-.6l-.46.6v.02s.93,0,.93,0Zm-3.04.02h1.61l.03-.04.71-.93h-1.27l-1.07.97Zm2.2,3.15l-.81-2.7h-1.72l1.4,1.49,1.13,1.21Zm.35-.36l.66-2.22h-1.33l.66,2.22Zm2.88-2.34h-1.72l-.81,2.7,1.13-1.21,1.4-1.49Z"/>
    </g>
    <g class="cls-2">
      <path class="cls-5" d="m62.81,15.45v.76h-6.36c-.06,0-.1-.05-.1-.1v-.55c0-.06.05-.1.1-.1h6.36Z"/>
      <rect class="cls-5" x="66.51" y="15.45" width=".01" height=".76"/>
      <path class="cls-5" d="m81.86,16.92v4.55c0,.81-.66,1.47-1.47,1.47h-23.94c-.06,0-.1-.05-.1-.1v-.55c0-.06.05-.1.1-.1h23.33c.71,0,1.3-.58,1.3-1.3v-3.39c0-.71-.58-1.3-1.3-1.3h-12.99v-.76h13.6c.81,0,1.47.66,1.47,1.47Z"/>
      <rect class="cls-5" x="57.27" y="16.64" width=".76" height="5.09"/>
      <path class="cls-5" d="m62.81,16.67v.9h-4.2s0,0-.01,0v-.9h4.21Zm3.46.9h-2.96l.81-.9h1.38l.77.9Zm14.24.2v2.85c0,.6-.56,1.09-1.24,1.09h-20.67v-3.33s0,0,.01,0h9.04c.06,0,.12-.05.12-.1v-.6c0-.06-.05-.1-.12-.1h-.86v-.9h12.47c.68,0,1.24.49,1.24,1.09Zm-1.76,2.08c0-.06-.06-.12-.13-.12h-11.62c-.07,0-.13.05-.13.12v.58c0,.06.06.12.13.12h11.62c.07,0,.13-.05.13-.12v-.58Z"/>
      <path class="cls-5" d="m66.69,11.94h-3.76v5.9l1.88-2.12,1.88,2.12v-5.9Zm-.54.54v3.95l-1.06-1.19c-.07-.08-.17-.12-.29-.12h0c-.11,0-.22.04-.29.12l-1.06,1.19v-3.95h2.69Zm-1.46,3.11h0s0,0,0,0Z"/>
      <g>
        <path class="cls-5" d="m81.63,7.28h-23.94c-.81,0-1.47.66-1.47,1.47v4.55c0,.81.66,1.47,1.47,1.47h5.12v-.76h-4.52c-.71,0-1.3-.58-1.3-1.3v-3.39c0-.71.58-1.3,1.3-1.3h23.33c.06,0,.1-.05.1-.1v-.55c0-.06-.05-.1-.1-.1Z"/>
        <rect class="cls-5" x="66.51" y="14.02" width=".01" height=".76"/>
        <path class="cls-5" d="m81.63,14.02h-14.83v.76h14.83c.06,0,.1-.05.1-.1v-.55c0-.06-.05-.1-.1-.1Z"/>
        <rect class="cls-5" x="80.06" y="8.45" width=".76" height="5.09"/>
        <path class="cls-5" d="m70.79,11.14c.07,0,.13.05.13.12v.58c0,.06-.06.12-.13.12h-4v1.57h12.59v-3.33s0,0-.01,0h-9.05c-.06,0-.12-.05-.12-.1v-.6c0-.06.05-.1.12-.1h9.05s0,0,.01,0v-.9h-20.69c-.68,0-1.24.49-1.24,1.09v2.85c0,.6.56,1.09,1.24,1.09h4.11v-1.57h-3.65c-.07,0-.13-.05-.13-.12v-.58c0-.06.06-.12.13-.12h11.63Z"/>
      </g>
    </g>
    <path class="cls-3" d="m146.06,267.79h5.11c.08,0,.14-.07.14-.15l-.48-7.57c0-.12.12-.19.22-.13l6.34,4.24c.07.05.16.02.2-.05l2.53-4.47c.04-.07.01-.16-.06-.19l-6.79-3.33c-.1-.05-.1-.2,0-.25l6.79-3.33c.07-.04.1-.12.06-.19l-2.53-4.53c-.04-.07-.13-.09-.2-.05l-6.34,4.24c-.1.06-.23,0-.22-.13l.48-7.57c0-.08-.06-.15-.14-.15h-5.11c-.08,0-.15.07-.14.15l.51,7.57c0,.12-.12.19-.22.13l-6.34-4.24c-.07-.05-.16-.02-.2.05l-2.58,4.53c-.04.07-.01.16.06.2l6.85,3.33c.11.05.11.2,0,.25l-6.84,3.33c-.07.04-.1.13-.06.2l2.58,4.47c.04.07.13.09.2.05l6.34-4.24c.1-.06.23,0,.22.13l-.51,7.57c0,.08.06.15.14.15Z"/>
    <g class="cls-2">
      <path class="cls-5" d="m132.41,156.83v12.01c0,1.55-1.26,2.82-2.82,2.82s-2.82-1.26-2.82-2.82,1.26-2.82,2.82-2.82c.52,0,.99.15,1.41.39v-4.43l-8.49,2.41v7.26c0,1.55-1.26,2.82-2.82,2.82s-2.82-1.26-2.82-2.82,1.26-2.82,2.82-2.82c.52,0,.99.15,1.41.39v-9.59c0-.15.05-.3.14-.42s.22-.21.37-.25l9.9-2.82c.45-.13.9.21.9.68Z"/>
      <path class="cls-5" d="m119.85,163.34v4.22c0,.39-.31.7-.7.7s-.7-.31-.7-.7c0-2.05-1.27-2.79-2.75-3.65-.5-.29-1.06-.59-1.52-.96v6.72c0,1.55-1.26,2.82-2.82,2.82s-2.82-1.26-2.82-2.82,1.26-2.82,2.82-2.82c.52,0,.99.15,1.41.39v-12.41c0-.39.31-.7.7-.7s.7.31.7.7c0,2.08,1.14,2.8,2.52,3.64,1.48.91,3.16,1.94,3.16,4.85Z"/>
    </g>
    <path class="cls-3" d="m222.34,241.86v2.41c0,.89-.72,1.61-1.61,1.61h-6.42v-.4c0-.05-.01-.1-.03-.15-.02-.05-.05-.09-.09-.13-.04-.04-.08-.07-.13-.09s-.1-.03-.15-.03h-2.41c-.05,0-.1.01-.15.03-.05.02-.09.05-.13.09-.04.04-.07.08-.09.13-.02.05-.03.1-.03.15v.4h-6.42c-.89,0-1.61-.72-1.61-1.61v-2.41c0-.89.72-1.61,1.61-1.61h4.01v-.8c0-.89.72-1.61,1.61-1.61h4.82c.89,0,1.61.72,1.61,1.61v.8h4.01c.89,0,1.61.72,1.61,1.61Zm-7.22-2.41h-4.82v.8h4.82v-.8Zm7.16,7c.04.06.06.14.06.21v5.63c0,.89-.72,1.61-1.61,1.61h-16.05c-.89,0-1.61-.72-1.61-1.61v-5.63c0-.07.02-.15.06-.21.04-.06.1-.11.16-.15.07-.03.14-.05.22-.04.07,0,.15.03.2.08.29.22.62.33.96.33h6.42v1.2c0,.05.01.1.03.15.02.05.05.09.09.13.04.04.08.07.13.09.05.02.1.03.15.03h2.41c.05,0,.1-.01.15-.03.05-.02.09-.05.13-.09s.07-.08.09-.13c.02-.05.03-.1.03-.15v-1.2h6.42c.34,0,.68-.11.96-.33.06-.05.13-.07.2-.08.07,0,.15,0,.22.04.07.03.12.08.16.15Z"/>
    <path class="cls-3" d="m151.1,24.86c-.1,0-.18-.08-.18-.18v-11.27c0-.2.05-.39.15-.56.1-.17.24-.32.41-.42l5.08-3.05c.06-.03.09-.09.09-.16v-2.5c0-.1-.08-.18-.18-.18h-1.92c-.1,0-.18-.08-.18-.18v-1.92c0-.1.08-.18.18-.18h1.92c.1,0,.18-.08.18-.18v-1.92c0-.1.08-.18.18-.18h1.92c.1,0,.18.08.18.18v1.92c0,.1.08.18.18.18h1.92c.1,0,.18.08.18.18v1.92c0,.1-.08.18-.18.18h-1.92c-.1,0-.18.08-.18.18v2.5c0,.06.03.13.09.16l5.08,3.05c.17.1.31.25.41.42.1.17.15.37.15.56v11.27c0,.1-.08.18-.18.18h-4.21c-.1,0-.18-.08-.18-.18v-4.4c0-.61-.24-1.19-.67-1.62-.43-.43-1.01-.67-1.62-.67s-1.19.24-1.62.67c-.43.43-.67,1.01-.67,1.62v4.4c0,.1-.08.18-.18.18h-4.21Zm-3.77,0c-.62-.1-1-.6-1-1.14v-5.73c0-.21.06-.42.17-.6.11-.18.27-.33.46-.42l2.54-1.27c.12-.06.27.03.27.17v8.82c0,.1-.08.18-.18.18h-2.22s-.02,0-.03,0Zm21.91-6.87v5.73c0,.54-.38,1.04-1,1.14-.01,0-.02,0-.03,0h-2.22c-.1,0-.18-.08-.18-.18v-8.82c0-.14.14-.23.27-.17l2.54,1.27c.39.19.63.59.63,1.03Z"/>
    <path class="cls-1" d="m124.99,101.2v20.96c0,.09-.07.16-.16.16h-3.97c-.08,0-.15.06-.18.13l-.07.25-.68,2.45c-.04.14-.21.18-.31.08l-1.78-1.82-1.03-1.05s-.08-.06-.13-.06h-21.24c-.09,0-.16-.07-.16-.16v-20.96c0-.09.07-.16.16-.16h29.39c.09,0,.16.07.16.16Zm-10.81,6.48c-2.05,2.69,1.02,5.76,3.71,3.71.01,0,.02-.02.03-.03,2.05-2.69-1.02-5.76-3.71-3.71-.01,0-.02.02-.03.03Zm-7.45-.48c0,1.88,1.53,3.41,3.41,3.41s3.41-1.53,3.41-3.41-1.53-3.41-3.41-3.41-3.41,1.53-3.41,3.41Zm-4.37.48c-2.05,2.69,1.02,5.76,3.71,3.71.01,0,.02-.02.03-.03,2.05-2.69-1.02-5.76-3.71-3.71-.01,0-.02.02-.03.03Zm1.19,8.62c0-1.15.3-2.23.82-3.17.06-.11-.02-.24-.14-.24h0c-1.02,0-2.01.41-2.73,1.13-.72.72-1.13,1.71-1.13,2.73,0,.63.51,1.14,1.14,1.14h2.24c.12,0,.2-.13.14-.24-.22-.42-.33-.88-.33-1.36Zm11.83,0c0-1.39-.55-2.72-1.53-3.7-.98-.98-2.31-1.53-3.7-1.53s-2.72.55-3.7,1.53-1.53,2.31-1.53,3.7v1.43c0,.09.07.16.16.16h9.62c.18,0,.35-.07.48-.2.13-.13.2-.3.2-.48v-.91Zm4.55.46c0-1.02-.41-2.01-1.13-2.73-.72-.73-1.71-1.13-2.73-1.13h0c-.12,0-.2.13-.14.24.54.97.82,2.06.82,3.17,0,.49-.12.95-.34,1.36-.06.11.02.24.14.24h2.24c.63,0,1.14-.51,1.14-1.14Z"/>
    <g class="cls-2">
      <path class="cls-5" d="m134.17,68.44c0,.25-.25.49-.5.49-.27,0-.5-.26-.49-.53.01-.26.25-.47.52-.46.26.01.48.24.48.5Z"/>
      <path class="cls-5" d="m141.02,63.63c0,.39,0,.79,0,1.2,0,.08-.06.14-.14.14h-1.68c-.08,0-.14-.06-.14-.14v-2.61c0-.07.05-.13.12-.14,1.1-.21,1.84.42,1.85,1.56Z"/>
      <path class="cls-5" d="m141.02,78.42c.01.5.03.99,0,1.49-.05.72-.59,1.22-1.32,1.26-.18,0-.36,0-.55,0-.05,0-.08-.04-.08-.08v-2.68c0-.1.08-.19.19-.19.54,0,1.07,0,1.6,0,.06,0,.17.13.17.2Z"/>
      <rect class="cls-5" x="139.06" y="65.98" width="1.94" height="11.24" rx=".14" ry=".14"/>
      <path class="cls-5" d="m137.58,57.34s0-.02,0-.03h-.88s-.09.04-.09.09c0,1.17,0,2.35,0,3.52h0c0,.06.04.1.09.1h.79c.05,0,.09-.04.09-.09s0-.1,0-.15c0-1.14,0-2.29,0-3.43Z"/>
      <path class="cls-5" d="m130.72,57.35s0-.03,0-.05h-.87s-.09.04-.09.09c.01,1.18,0,2.35,0,3.53h0s.04.09.09.09h.79c.05,0,.09-.04.09-.1,0-.06,0-.11,0-.16,0-1.13,0-2.27,0-3.4Z"/>
      <path class="cls-5" d="m130.18,56.17c.31.04.51-.13.57-.48.07-.39.2-.49.62-.49,1.53,0,3.05,0,4.58,0,.45,0,.54.08.65.54.07.32.28.48.58.43.28-.04.44-.28.41-.6-.08-.8-.68-1.36-1.49-1.37-.81,0-1.61,0-2.42,0s-1.61,0-2.42,0c-.8,0-1.45.6-1.51,1.35-.02.34.15.58.43.62Z"/>
      <g class="cls-7">
        <path class="cls-5" d="m139.19,82.78c0,.43-.33.78-.76.79-.44.01-.78-.31-.79-.75-.01-.46.33-.82.78-.82.43,0,.76.35.77.78Zm-9.11.09c0,.44-.32.78-.76.79-.44.01-.78-.31-.79-.75-.02-.46.33-.82.78-.82.43,0,.76.35.77.78Z"/>
      </g>
      <rect class="cls-5" x="137.11" y="62.07" width=".95" height="19.08" rx=".19" ry=".19"/>
      <path class="cls-5" d="m136.11,78.38v2.65c0,.07-.06.14-.13.14,0,0,0,0,0,0-1.52,0-3.05,0-4.59,0-.08,0-.14-.06-.14-.14v-2.65c0-.08.06-.14.14-.14h4.59c.08,0,.14.06.14.14Z"/>
      <rect class="cls-5" x="131.23" y="62.08" width="4.88" height="2.89" rx=".14" ry=".14"/>
      <path class="cls-5" d="m131.38,65.98h4.59c.08,0,.14.06.14.14v10.97c0,.08-.06.14-.14.14h-4.59c-.08,0-.14-.06-.14-.14v-10.97c0-.08.06-.14.14-.14Zm3.75,2.48c.01-.82-.64-1.49-1.45-1.49-.8,0-1.46.63-1.46,1.41,0,.82.65,1.5,1.45,1.5.78,0,1.46-.65,1.47-1.42Z"/>
      <path class="cls-5" d="m130.18,56.17c-.28-.04-.45-.28-.43-.62.06-.75.71-1.34,1.51-1.35.81,0,1.61,0,2.42,0s1.61,0,2.42,0c.81,0,1.41.57,1.49,1.37.03.32-.13.56-.41.6-.29.04-.5-.11-.58-.43-.11-.46-.2-.54-.65-.54-1.53,0-3.05,0-4.58,0-.42,0-.55.11-.62.49-.06.35-.27.51-.57.48Z"/>
      <rect class="cls-5" x="129.3" y="62.07" width=".94" height="19.08" rx=".19" ry=".19"/>
      <path class="cls-5" d="m128.29,62.2v2.62c0,.08-.06.14-.14.14h-1.63c-.08,0-.14-.06-.14-.14,0-.6-.05-1.21.02-1.8.06-.51.6-.91,1.13-.96.2-.02.41,0,.63,0,.08,0,.14.06.14.14Z"/>
      <path class="cls-5" d="m128.29,78.43v2.57c0,.11-.1.2-.21.19-.32-.03-.63-.04-.91-.13-.5-.17-.79-.57-.82-1.1-.03-.5-.01-1,0-1.52,0-.1.08-.19.19-.19h1.57c.1,0,.19.08.19.19Z"/>
      <rect class="cls-5" x="126.35" y="65.97" width="1.94" height="11.24" rx=".14" ry=".14"/>
    </g>
    <g class="cls-2">
      <path class="cls-5" d="m225.78,11.22c.07.95.06,1.91.05,2.86,0,.67-.03,1.34-.13,2-.16,1.03-.97,1.75-2.01,1.87-.22.03-.45.03-.67.03-4.49,0-8.99,0-13.48,0s-9.05,0-13.57,0c-1.08,0-1.94-.36-2.4-1.38-.14-.3-.2-.66-.21-.99-.02-1.31-.02-2.62,0-3.94,0-1.08.65-1.71,1.74-1.72.31,0,.63,0,.94,0,.98.02,1.68.73,1.7,1.71.01,1.12,0,2.24,0,3.36,0,.64.21.87.85.87,7.36,0,14.72,0,22.08,0,.64,0,.86-.22.86-.86,0-1.12,0-2.24,0-3.36,0-1.16.64-1.79,1.81-1.79.31,0,.63,0,.94,0,.77.03,1.44.57,1.5,1.34Z"/>
      <path class="cls-5" d="m223.17,4.44c0,1.32,0,2.65,0,3.99-1.19.06-2.05.56-2.68,1.5-.09.13-.33.22-.51.22-2.07.02-4.15.03-6.22,0-1.23-.01-2.42.06-3.42.87-.04-.05-.07-.07-.07-.1,0-2.12-.02-4.23,0-6.35.01-1.16,1.05-2.23,2.21-2.32.61-.05,1.22-.04,1.83-.04,2.21,0,4.42,0,6.63,0,1.34,0,2.21.87,2.22,2.21Z"/>
      <path class="cls-5" d="m219.94,19.66c.34,1.2.66,2.41,1.01,3.69-.48,0-.9.01-1.31,0-.09,0-.22-.1-.26-.18-.5-1.22-.99-2.45-1.5-3.74.64,0,1.22-.01,1.8.01.09,0,.24.13.26.23Z"/>
      <path class="cls-5" d="m220,11.63v2.74h-9.67c-.23-1.01.53-2.24,1.64-2.6.31-.1.64-.16.96-.17,2.27-.01,4.54,0,6.81,0,.07,0,.15.01.26.02Z"/>
      <path class="cls-5" d="m208.81,4.65c.06,2.14.02,4.28.02,6.52-.94-.75-1.95-.94-3.05-.93-2.19.02-4.39,0-6.58.01-.29,0-.44-.08-.6-.33-.57-.92-1.43-1.4-2.54-1.48-.01-.04-.05-.1-.05-.15,0-1.4-.02-2.8,0-4.2.02-.96.84-1.82,1.86-1.83,2.85-.03,5.7-.03,8.55.02,1.33.02,2.35,1.04,2.39,2.38Z"/>
      <path class="cls-5" d="m206.25,11.68c1.56.01,2.67,1.24,2.57,2.83h-9.72v-2.8c.12-.01.24-.04.35-.04,2.27,0,4.54-.01,6.8,0Z"/>
      <path class="cls-5" d="m201.24,19.42c-.52,1.3-1,2.51-1.5,3.72-.04.09-.16.2-.25.2-.43.02-.86,0-1.33,0,.35-1.28.67-2.5,1.02-3.71.03-.09.18-.2.28-.21.56-.02,1.13,0,1.77,0Z"/>
    </g>
  </g>
</svg>