<?xml version="1.0" encoding="UTF-8"?>
<svg id="Layer_2" data-name="Layer 2" xmlns="http://www.w3.org/2000/svg" viewBox="0 0 3113.02 3018.29">
  <defs>
    <style>
      .cls-1 {
        fill: none;
        stroke: #2d72ff;
        stroke-miterlimit: 10;
        stroke-width: 20px;
      }
    </style>
  </defs>
  <g id="hair">
    <path class="cls-1" d="m2528.47,2599.78c-29.76,59.68-36.02,136.82-76.11,192.35-37.59,52.06-101.99,79.47-165.8,86.56-143.91,16-287.85-40.33-432.32-4.02-82.44,20.72-153.5,72.39-232.88,102.81-123.27,47.23-266.37,39.83-384.1-19.89-59.39-30.12-112.14-72.59-173.03-99.55-112.18-49.66-248.07-45.17-345.63-119.56-35.15-26.81-62.74-62.22-95.83-91.54-88.66-78.6-223.58-71.8-318.46-141.34-65.99-48.36-103.88-128.04-116.54-208.87-12.67-80.83-2.6-163.46,11.77-244,4.26-23.85,8.61-49.75-2.58-71.24-8.19-15.72-23.37-26.31-36.05-38.71-47.97-46.92-59.44-119.62-58.77-186.71.66-67.1,10.69-135.3-4.75-200.6-12.25-51.84-39.85-98.55-59.21-148.18C-11.27,1280.54-.02,1107.83,107.04,1012.37c109.85-97.95,120.61-250.79,208.73-368.23,90.48-120.58,233.43-234.65,364.88-306.55,86.79-47.47,181.57-79.72,265.9-131.44,119.21-73.11,225.09-187.49,364.7-195.68,97.41-5.72,188.94,42.93,284.63,62.01,108.87,21.71,222.95-28.71,325.35-9.62,106.34,19.84,177.69,118.78,286.09,129.36,131.06,12.79,210.93-9.48,308.92,104.43,55.87,64.96,95.26,142.54,149.17,209.13,54.52,67.34,122.84,122.16,180.94,186.44,58.1,64.29,107.33,142.76,110.53,229.37,2.16,58.52-23.94,125.37.38,181.09,17.05,39.07,63.73,71.76,86.53,109.81,58.99,98.51,82.07,210.93,31.18,317.88-43.75,91.95-111.67,174.77-129.92,274.95-18.58,101.97,37.47,208.01-3.14,307.43-31.23,76.45-109.49,113.24-141.56,195.06-25.13,64.1-46.67,135.94-103.58,174.69-38.39,26.15-87.89,33.03-124.52,61.59-19.38,15.11-33.08,34.27-43.76,55.68Z"/>
  </g>
</svg>