<?xml version="1.0" encoding="UTF-8"?>
<svg id="Layer_2" data-name="Layer 2" xmlns="http://www.w3.org/2000/svg" viewBox="0 0 500 416.67">
  <defs>
    <style>
      .cls-1 {
        fill: #f2f0ea;
        stroke-width: 0px;
      }
    </style>
  </defs>
  <g id="Layer_1-2" data-name="Layer 1">
    <path class="cls-1" d="m458.33,62.5h-104.17v-20.83c0-22.98-18.69-41.67-41.67-41.67h-125c-22.98,0-41.67,18.69-41.67,41.67v20.83H41.67C18.69,62.5,0,81.19,0,104.17v62.5C0,189.65,18.69,208.33,41.67,208.33h166.67v-10.42c0-1.37.27-2.72.79-3.99.52-1.26,1.29-2.41,2.26-3.38.97-.97,2.12-1.73,3.38-2.26,1.26-.52,2.62-.79,3.99-.79h62.5c1.37,0,2.72.27,3.99.79s2.41,1.29,3.38,2.26c.97.97,1.73,2.12,2.26,3.38.52,1.26.79,2.62.79,3.99v10.42h166.67c22.98,0,41.67-18.69,41.67-41.67v-62.5c0-22.98-18.69-41.67-41.67-41.67Zm-145.83,0h-125v-20.83h125v20.83Zm181.72,157.07c-1.74-.86-3.68-1.22-5.61-1.04-1.93.18-3.77.9-5.32,2.07-7.41,5.61-16.03,8.56-24.96,8.56h-166.67v31.25c0,1.37-.27,2.72-.79,3.99-.52,1.26-1.29,2.41-2.26,3.38s-2.12,1.73-3.38,2.26c-1.26.52-2.62.79-3.99.79h-62.5c-1.37,0-2.72-.27-3.99-.79-1.27-.52-2.41-1.29-3.38-2.26-.97-.97-1.73-2.12-2.26-3.38-.52-1.27-.79-2.62-.79-3.99v-31.25H41.67c-8.93,0-17.56-2.96-24.96-8.56-1.54-1.18-3.38-1.9-5.32-2.08-1.93-.18-3.88.18-5.61,1.05-1.74.86-3.2,2.19-4.22,3.84C.54,225.06,0,226.96,0,228.9v146.1C0,397.98,18.69,416.67,41.67,416.67h416.67c22.98,0,41.67-18.69,41.67-41.67v-146.1c0-1.94-.54-3.84-1.56-5.49-1.02-1.65-2.48-2.98-4.22-3.84Z"/>
  </g>
</svg>