<?xml version="1.0" encoding="UTF-8"?>
<svg id="Layer_2" data-name="Layer 2" xmlns="http://www.w3.org/2000/svg" viewBox="0 0 500 305.27">
  <defs>
    <style>
      .cls-1 {
        fill: none;
        stroke: #f2f0ea;
        stroke-miterlimit: 10;
        stroke-width: 10.46px;
      }

      .cls-2 {
        fill: #f2f0ea;
        stroke-width: 0px;
      }
    </style>
  </defs>
  <g id="Layer_1-2" data-name="Layer 1">
    <g>
      <path class="cls-2" d="m128.58,159.21v14.73H4.61c-1.09,0-1.98-.89-1.98-1.98v-10.76c0-1.1.89-1.99,1.98-1.99h123.97Z"/>
      <rect class="cls-2" x="200.73" y="159.21" width=".26" height="14.73"/>
      <path class="cls-2" d="m500,187.9v88.68c0,15.77-12.91,28.69-28.69,28.69H4.61c-1.09,0-1.98-.89-1.98-1.99v-10.76c0-1.1.89-1.98,1.98-1.98h454.92c13.92,0,25.3-11.39,25.3-25.3v-66.01c0-13.91-11.38-25.3-25.3-25.3h-253.31v-14.73h265.09c15.78,0,28.69,12.92,28.69,28.69Z"/>
      <rect class="cls-2" x="20.43" y="182.42" width="14.73" height="99.24"/>
      <path class="cls-2" d="m46.46,183.09v17.52c.08-.01.17-.01.25-.01h81.87v-17.51H46.46Zm134.48,0h-26.9l-15.77,17.51h57.74l-15.07-17.51Zm268.49,0h-243.21v17.51h16.83c1.27,0,2.3.91,2.3,2.03v11.75c0,1.12-1.04,2.03-2.3,2.03H46.71c-.08,0-.17,0-.25-.01v65h402.97c13.28,0,24.14-9.6,24.14-21.33v-55.65c0-11.72-10.86-21.33-24.14-21.33Zm-10.2,73.18c0,1.26-1.17,2.29-2.6,2.29h-226.49c-1.44,0-2.59-1.04-2.59-2.29v-11.23c0-1.26,1.15-2.29,2.59-2.29h226.49c1.43,0,2.6,1.04,2.6,2.29v11.23Z"/>
      <path class="cls-1" d="m198.87,96.16v96l-6.85-7.73-7.81-8.81-15.14-17.08c-.73-.84-2.6-.84-3.34,0l-15.14,17.08-7.81,8.81-6.85,7.73v-96h62.93Z"/>
      <g>
        <path class="cls-2" d="m495.39,0H28.69C12.92,0,0,12.92,0,28.69v88.68c0,15.77,12.92,28.69,28.69,28.69h99.9v-14.73H40.47c-13.91,0-25.3-11.39-25.3-25.31V40.03c0-13.91,11.39-25.3,25.3-25.3h454.92c1.1,0,1.98-.89,1.98-1.98V1.98c0-1.09-.88-1.98-1.98-1.98Z"/>
        <rect class="cls-2" x="200.73" y="131.34" width=".26" height="14.73"/>
        <path class="cls-2" d="m495.39,131.34H206.22v14.73h289.16c1.1,0,1.98-.89,1.98-1.99v-10.76c0-1.1-.88-1.98-1.98-1.98Z"/>
        <rect class="cls-2" x="464.84" y="22.89" width="14.73" height="99.24"/>
        <path class="cls-2" d="m284.15,75.25c1.42,0,2.59,1.03,2.59,2.29v11.22c0,1.27-1.17,2.29-2.59,2.29h-77.93v30.61h245.55V56.66c-.08.01-.18.01-.25.01h-176.54c-1.27,0-2.3-.91-2.3-2.03v-11.75c0-1.12,1.04-2.03,2.3-2.03h176.54c.07,0,.17,0,.25.01v-17.52H48.36c-13.29,0-24.17,9.6-24.17,21.33v55.64c0,11.74,10.88,21.35,24.17,21.35h80.22v-30.61H57.4c-1.42,0-2.59-1.02-2.59-2.29v-11.22c0-1.27,1.17-2.29,2.59-2.29h226.75Z"/>
      </g>
    </g>
  </g>
</svg>