<?xml version="1.0" encoding="UTF-8"?>
<svg id="Layer_2" data-name="Layer 2" xmlns="http://www.w3.org/2000/svg" viewBox="0 0 500 473.6">
  <defs>
    <style>
      .cls-1 {
        fill: #f2f0ea;
      }

      .cls-1, .cls-2 {
        stroke-width: 0px;
      }

      .cls-2 {
        fill: #0067b9;
      }
    </style>
  </defs>
  <g id="Layer_1-2" data-name="Layer 1">
    <g>
      <path class="cls-1" d="m381.71,424.91v.27c0,.91-.02,1.82-.06,2.73-1.07,23.98-16.22,43.43-35.18,45.5,0,0,0,0-.02,0h0c-1.1.13-2.22.19-3.34.19H33.69c-18.38,0-33.42-18.86-33.42-41.91v-.7c0-1.9.35-3.69.97-5.3.1-.27.21-.53.33-.78h243.32v-.02s15.03,0,15.03,0c1.4,0,2.66.81,3.25,2.08l6.82,14.81c1.28,2.77,5.22,2.77,6.5,0l6.82-14.81c.58-1.27,1.85-2.08,3.25-2.08h12.66v.02s82.51,0,82.51,0Z"/>
      <path class="cls-1" d="m486.95,159.66h-196.38c-1.34,0-2.39,1.14-2.26,2.48l2.15,23.6c10.42,5.52,20.57,11.9,30.37,19.1,71.93,52.93,73.92,105.88,72.81,120.84-.49,7.08-5.59,12.87-12.14,14.32v14.94c0,6.62-2.08,12.78-5.63,17.59,3.55,4.81,5.63,10.97,5.63,17.58v16.66c6.57,2.83,11.21,9.71,11.21,17.7v.7c0,1.15-.03,2.28-.07,3.37-.81,18.2-8.22,34.21-19.38,44.86h83.62c1.17,0,2.15-.88,2.26-2.04l30.09-309.22c.13-1.33-.92-2.49-2.26-2.49Z"/>
      <path class="cls-1" d="m398.54,149.83h99.87c.87,0,1.58-.68,1.58-1.51v-29.4c0-.84-.71-1.51-1.58-1.51h-111.36l11.48,32.43Z"/>
      <path class="cls-1" d="m392.05,121.09h-14.33l-32.19-95.1c-.36-1.08-1.75-1.38-2.53-.55l-39.33,41.49c-.57.61-1.53.63-2.14.06l-7.66-7.26c-.6-.57-.63-1.53-.06-2.14l45.99-48.52c1.43-1.44,2.8-2.95,4.19-4.42,1.25-1.32,5.43-6.91,7.35-3.64.04.08.08.15.11.24.64,1.7,1.24,3.43,1.82,5.16.75,2.24,1.47,4.49,2.23,6.72,1.82,5.35,3.63,10.71,5.44,16.07,3.55,10.49,7.1,20.99,10.66,31.48,4.37,12.91,8.74,25.81,13.1,38.72,2.45,7.23,4.9,14.46,7.34,21.69Z"/>
      <g>
        <path class="cls-2" d="m315.13,215.65c-6.83-5.02-13.82-9.61-20.95-13.74h0c-89.1-51.77-198.58-33.91-267.72,57.63C10.27,280.97,2.64,303.09.07,315.91c-.44,2.2,1.26,4.26,3.51,4.26h375.33c2.06,0,3.71-1.73,3.57-3.79-1.22-18.64-11.02-59.27-67.36-100.73ZM58.77,296.71c-.12.18-.27.34-.43.47-10.93,8.88-23.12-4.6-15.11-16.75.12-.18.27-.34.43-.47,10.95-8.88,23.12,4.63,15.11,16.75Zm31.16-50.87c-.12.18-.27.34-.43.47-10.94,8.83-23.07-4.64-15.1-16.76.12-.18.26-.34.42-.47,10.95-8.94,23.18,4.63,15.11,16.76Zm23.8,30.45c-.12.18-.26.34-.42.47-8.48,6.91-17.72.35-17.72-8.6,0-6.34,4.64-11.48,10.36-11.48,8.05,0,13.96,10.2,7.78,19.61Zm23.44-60.48c.13-.18.27-.34.43-.47,10.94-8.92,23.15,4.62,15.12,16.74-.12.18-.26.34-.43.47-10.92,8.87-23.11-4.6-15.12-16.74Zm17.78,83.57c-.12.18-.26.34-.43.47-10.95,8.88-23.12-4.65-15.1-16.76.13-.19.27-.35.43-.47,10.94-8.89,23.13,4.62,15.1,16.76Zm28.38-26.97c-.17-.13-.31-.3-.43-.47-8.03-12.14,4.17-25.65,15.11-16.75.16.13.31.3.43.47,8.01,12.12-4.16,25.63-15.11,16.75Zm10.93-63.22c-.16-.13-.3-.3-.43-.47-8.03-12.13,4.18-25.66,15.11-16.75.16.13.31.29.43.47,8.01,12.11-4.15,25.62-15.11,16.75Zm32.01,38.75c-8.03-12.13,4.17-25.66,15.11-16.75.16.13.3.29.43.46,8.01,12.12-4.16,25.63-15.11,16.76-.16-.13-.31-.29-.43-.47Zm7.94,52.92c-.16-.13-.31-.3-.43-.47-8.02-12.12,4.17-25.63,15.12-16.74.16.13.31.29.43.47,8.01,12.14-4.18,25.63-15.12,16.74Zm33.85-66.5c-.16-.13-.3-.29-.43-.48-8.01-12.13,4.17-25.64,15.11-16.75.17.13.31.29.43.47,8.02,12.12-4.15,25.63-15.11,16.76Zm33.43,43.84c-.13.19-.27.35-.43.47-8.48,6.87-17.69.31-17.69-8.63,0-6.34,4.64-11.48,10.36-11.48,8.07,0,13.99,10.25,7.76,19.63Zm36.39,21.06c-.16-.13-.3-.3-.42-.47-8.03-12.11,4.15-25.65,15.1-16.76.17.13.31.3.43.48,8.02,12.13-4.17,25.64-15.11,16.75Z"/>
        <path class="cls-1" d="m315.13,215.65c-6.83-5.02-13.82-9.61-20.95-13.74h0c-89.1-51.77-198.58-33.91-267.72,57.63C10.27,280.97,2.64,303.09.07,315.91c-.44,2.2,1.26,4.26,3.51,4.26h375.33c2.06,0,3.71-1.73,3.57-3.79-1.22-18.64-11.02-59.27-67.36-100.73ZM58.77,296.71c-.12.18-.27.34-.43.47-10.93,8.88-23.12-4.6-15.11-16.75.12-.18.27-.34.43-.47,10.95-8.88,23.12,4.63,15.11,16.75Zm31.16-50.87c-.12.18-.27.34-.43.47-10.94,8.83-23.07-4.64-15.1-16.76.12-.18.26-.34.42-.47,10.95-8.94,23.18,4.63,15.11,16.76Zm23.8,30.45c-.12.18-.26.34-.42.47-8.48,6.91-17.72.35-17.72-8.6,0-6.34,4.64-11.48,10.36-11.48,8.05,0,13.96,10.2,7.78,19.61Zm23.44-60.48c.13-.18.27-.34.43-.47,10.94-8.92,23.15,4.62,15.12,16.74-.12.18-.26.34-.43.47-10.92,8.87-23.11-4.6-15.12-16.74Zm17.78,83.57c-.12.18-.26.34-.43.47-10.95,8.88-23.12-4.65-15.1-16.76.13-.19.27-.35.43-.47,10.94-8.89,23.13,4.62,15.1,16.76Zm28.38-26.97c-.17-.13-.31-.3-.43-.47-8.03-12.14,4.17-25.65,15.11-16.75.16.13.31.3.43.47,8.01,12.12-4.16,25.63-15.11,16.75Zm10.93-63.22c-.16-.13-.3-.3-.43-.47-8.03-12.13,4.18-25.66,15.11-16.75.16.13.31.29.43.47,8.01,12.11-4.15,25.62-15.11,16.75Zm32.01,38.75c-8.03-12.13,4.17-25.66,15.11-16.75.16.13.3.29.43.46,8.01,12.12-4.16,25.63-15.11,16.76-.16-.13-.31-.29-.43-.47Zm7.94,52.92c-.16-.13-.31-.3-.43-.47-8.02-12.12,4.17-25.63,15.12-16.74.16.13.31.29.43.47,8.01,12.14-4.18,25.63-15.12,16.74Zm33.85-66.5c-.16-.13-.3-.29-.43-.48-8.01-12.13,4.17-25.64,15.11-16.75.17.13.31.29.43.47,8.02,12.12-4.15,25.63-15.11,16.76Zm33.43,43.84c-.13.19-.27.35-.43.47-8.48,6.87-17.69.31-17.69-8.63,0-6.34,4.64-11.48,10.36-11.48,8.07,0,13.99,10.25,7.76,19.63Zm36.39,21.06c-.16-.13-.3-.3-.42-.47-8.03-12.11,4.15-25.65,15.1-16.76.17.13.31.3.43.48,8.02,12.13-4.17,25.64-15.11,16.75Z"/>
      </g>
      <g>
        <path class="cls-1" d="m254.15,409.56l1.9,4.13H11.48v-21.38c0-3.54,1.04-6.79,2.75-9.27,1.35-1.94,3.11-3.42,5.11-4.23,1.09-.44,2.24-.67,3.44-.67h216.88l14.47,31.42Z"/>
        <path class="cls-1" d="m370.5,392.3v21.38h-80.08l1.9-4.13,14.46-31.42h52.41c.84,0,1.65.11,2.44.33,2.42.66,4.55,2.31,6.11,4.58,1.72,2.49,2.75,5.72,2.75,9.26Z"/>
      </g>
      <polygon class="cls-1" points="308.99 365.92 308.81 366.31 232.8 366.31 232.62 365.92 308.99 365.92"/>
      <path class="cls-1" d="m391.29,117.4h-112.06c-.95,0-1.72.68-1.72,1.51v29.4c0,.84.77,1.51,1.72,1.51h124.53l-12.46-32.43Z"/>
      <path class="cls-1" d="m370.5,331.37v21.38c0,3.54-1.04,6.78-2.75,9.26-1.56,2.27-3.68,3.92-6.11,4.58-.79.22-1.6.33-2.44.33H22.79c-1.21,0-2.35-.23-3.44-.67-2.01-.8-3.76-2.29-5.12-4.23-1.71-2.49-2.74-5.73-2.74-9.27v-21.38h359.02Z"/>
    </g>
  </g>
</svg>