<?xml version="1.0" encoding="UTF-8"?>
<svg id="Layer_2" data-name="Layer 2" xmlns="http://www.w3.org/2000/svg" viewBox="0 0 488.74 500">
  <defs>
    <style>
      .cls-1 {
        fill: #f2f0ea;
        stroke-width: 0px;
      }
    </style>
  </defs>
  <g id="Layer_1-2" data-name="Layer 1">
    <path class="cls-1" d="m187.59,496.83l10.72-160.27c.16-2.46-2.56-4.03-4.61-2.67l-134.36,89.76c-1.43.95-3.36.5-4.22-.98L.41,327.93c-.86-1.49-.28-3.4,1.27-4.15l145-70.52c2.23-1.08,2.23-4.26,0-5.34L1.67,177.39c-1.54-.75-2.13-2.65-1.28-4.14l54.73-95.91c.85-1.5,2.8-1.95,4.23-1l134.35,89.76c2.05,1.37,4.78-.21,4.61-2.67L187.59,3.17c-.11-1.71,1.24-3.17,2.96-3.17h108.21c1.71,0,3.07,1.45,2.96,3.16l-10.16,160.3c-.16,2.45,2.57,4.02,4.61,2.66l134.34-89.76c1.44-.96,3.4-.49,4.24,1.02l53.59,95.89c.83,1.49.24,3.36-1.28,4.11l-143.9,70.54c-2.22,1.09-2.22,4.24,0,5.33l143.88,70.53c1.53.75,2.12,2.64,1.28,4.13l-53.56,94.72c-.85,1.5-2.8,1.97-4.23,1.01l-134.36-89.76c-2.04-1.37-4.77.2-4.61,2.66l10.16,160.3c.11,1.71-1.25,3.16-2.96,3.16h-108.21c-1.72,0-3.08-1.45-2.96-3.17Z"/>
  </g>
</svg>