<?xml version="1.0" encoding="UTF-8"?>
<svg id="Layer_2" data-name="Layer 2" xmlns="http://www.w3.org/2000/svg" viewBox="0 0 500 499.97">
  <defs>
    <style>
      .cls-1 {
        fill: #f2f0ea;
        stroke-width: 0px;
      }
    </style>
  </defs>
  <g id="Layer_1-2" data-name="Layer 1">
    <g>
      <path class="cls-1" d="m294.42,211.02c0,3.85-.2,8.75-1.65,12.42-6.73,17.05-16,31.53-27.56,43.02-11.78,11.72-26.34,20.73-43.27,26.79-1.67.6-3.82.95-6.1,1.31-.94.16-1.9.31-2.89.49-2.99-.16-5.21-.76-6.14-1.69-.97-.97-1.5-3.29-1.48-6.54.07-10.93,5.25-20.73,10.3-28.87,12.8-20.62,29.9-36.4,50.82-46.91,7.71-3.87,14.27-5.68,20.65-5.68.49,0,1,.01,1.5.04,3.95.18,5.84,1.07,5.82,5.62Z"/>
      <path class="cls-1" d="m99.6,289.06c-8.8,9.06-18.29,18.64-28.98,29.26-4.6-4.24-9.3-8.83-13.98-13.65,9.28-9.47,19.12-19.32,29.28-29.31,4.19,3.97,8.58,8.37,13.67,13.7Z"/>
      <path class="cls-1" d="m147.79,365.36c-4.33-4.1-8.61-8.45-12.82-13.05,1.84.26,3.68.4,5.52.4,2.35,0,4.72-.21,7.08-.64-.64,4.64-.49,9.06.22,13.3Z"/>
      <path class="cls-1" d="m153.02,448.34c-.53.54-1.05,1.09-1.57,1.62-8.77,9.13-17.05,17.77-28.23,21.62-7.02,2.42-13.84,3.65-20.27,3.65-13.9,0-26.34-5.55-38.02-16.96-9.37-9.16-18.42-18.42-25.25-25.46-19.46-20.04-19.94-51.77-1.11-72.23,3.97-4.31,8.41-8.27,13.1-12.46.26-.23.52-.47.78-.7,5.73,3.76,11.71,5.65,17.85,5.65,5.57,0,11.15-1.58,16.67-4.71,21.78,27.76,42.58,48.78,64.54,65.2-6.52,11.67-6,23.62,1.51,34.78Z"/>
      <path class="cls-1" d="m224.65,414.03c-8.54,8.78-17.8,18.1-29.04,29.24-4.41-4.06-8.99-8.52-13.97-13.62,8.94-9.13,18.54-18.73,29.3-29.33,4.82,4.65,9.42,9.25,13.71,13.71Z"/>
      <path class="cls-1" d="m443.28,195.33c-9.59,9.78-19.44,19.65-29.3,29.35-4.5-4.31-9.11-8.92-13.71-13.72,9.59-9.81,19.36-19.65,29.06-29.24,4.81,4.48,9.51,9.05,13.96,13.61Z"/>
      <path class="cls-1" d="m318.3,70.35c-9.03,9.21-18.62,18.79-29.28,29.28-4.85-4.53-9.47-9.25-13.74-13.67,0,0,.02-.02.03-.03,9.26-9.45,18.76-19.02,29.03-29.27,4.87,4.6,9.57,9.2,13.97,13.68Z"/>
      <path class="cls-1" d="m375.13,188.2c-3.02-1.58-5.89-3.08-8.77-4.59-2.77-1.44-5.19-2.15-7.4-2.15-1.49,0-2.98.31-4.57.94-3.68,1.47-7.38,2.21-11,2.21-4.64,0-9.04-1.21-13.06-3.59-12.05-7.12-16.29-18.21-12.95-33.9.19-.9.41-1.77.62-2.61.25-1.02.63-2.48.7-3.25-2.05-5.46-4.46-10.84-7.02-16.43-4.45,3.99-9.72,7.67-17.05,8.86-1.91.32-3.83.47-5.69.47-6.39,0-12.35-1.79-17.78-5.33l-142.59,142.71c8.79,14.03,7.53,26.78-3.89,40.12,2.77,1.61,5.38,2.99,7.88,4.31,3.21,1.67,5.89,2.46,8.46,2.46,1.64,0,3.32-.32,5.13-.97,3.39-1.22,6.88-1.84,10.38-1.84,13,0,23.74,8.42,26.11,20.48.9,4.55.45,8.89.06,12.72-.13,1.25-.25,2.43-.31,3.53-.11,1.79-.42,3.42-.69,4.87-.13.72-.33,1.75-.38,2.34,2.01,5.2,4.36,10.32,6.85,15.64,4.39-3.99,9.6-7.7,16.92-8.9,1.96-.32,3.91-.49,5.8-.49,6.51,0,12.57,1.86,18.11,5.56l142.33-142.67c-8.63-13.26-7.35-28.15,3.8-40.5Zm-54.98,58.65c-17.55,35.21-43.81,60.5-78.06,75.15-8.35,3.57-17.86,5.77-27.51,6.37-1.1.06-2.21.1-3.28.1-11.25,0-20.92-3.75-27.95-10.85-8-8.09-12.15-20.09-12-34.7v-.22c.56-16.57,9.18-33.03,16.3-43.93,21.26-32.48,47.2-53.49,79.31-64.22,6.62-2.21,13.18-3.33,19.49-3.33,4.04,0,8.05.46,11.93,1.37,17.31,4.05,28.85,17.72,30.11,35.65.89,12.73-1.91,25.72-8.34,38.61Z"/>
      <path class="cls-1" d="m365.09,147.67c-1.82-.26-3.66-.4-5.48-.4-2.44,0-4.9.23-7.37.7.64-4.52.56-9.05-.21-13.69,4.34,4.15,8.68,8.6,13.07,13.38Z"/>
      <path class="cls-1" d="m459.46,141.63c-3.72,3.85-7.59,7.53-11.68,11.43-.06.06-.11.11-.16.16-6.61-4.29-12.52-6.26-18.54-6.26-5.34,0-10.5,1.52-16.03,4.8-21.95-28.15-42.36-48.77-64.58-65.26,2.7-4.65,4.72-10.43,4.39-17.42-.3-6.25-2.31-12.09-5.98-17.43,13.51-14.75,27.97-26.87,48.39-26.87,1,0,2.03.03,3.06.08,12.84.71,23.6,4.97,31.97,12.68,8.71,8.02,20.06,18.71,30.61,30.29,19.65,21.58,19.04,52.61-1.43,73.78Z"/>
      <path class="cls-1" d="m479.15,51.07c-9.88-10.57-20.38-20.56-30.78-30.64-3.13-3.04-6.68-5.74-10.36-8.08-31.21-19.85-70.49-15.46-97.63,10.93-5.69,5.53-11.01,11.44-16.64,17.33-1.56-1.37-2.39-2.1-3.22-2.82-10.21-8.97-23.18-8.93-32.93.56-10.6,10.33-20.98,20.9-31.21,31.6-7.29,7.62-8.55,18.21-3.55,27.05,1.57,2.77,3.72,5.2,5.22,7.26-51.41,51.38-102.69,102.63-154.06,153.97-1-.87-2.32-2.07-3.7-3.18-8.85-7.1-21.82-6.91-29.94.95-11.1,10.75-22.02,21.7-32.73,32.83-7.39,7.68-8.49,18.57-3.2,27.49,1.47,2.48,3.5,4.62,5.82,7.62-4.66,4.43-9.35,8.89-14.05,13.35-8.46,8.04-15.69,17.07-19.89,28.01-2.66,6.92-4.24,14.25-6.3,21.4v18.55c2.49,7.98,3.92,16.51,7.74,23.79,4.45,8.49,10.46,16.35,16.77,23.65,7.09,8.2,15.34,15.41,22.96,23.17,12.85,13.08,28.27,20.94,46.45,23.39.61.08,1.18.47,1.77.72h16.6c3.93-.89,7.9-1.64,11.78-2.7,14.63-3.97,27.11-11.5,37.56-22.53,4.87-5.14,10.02-10,15-14.94,12.8,11.08,24.64,12.13,34.87,2.47,11.23-10.6,22.1-21.64,32.56-32.98,8.35-9.04,7.83-21.86-.29-31.09-.83-.94-1.63-1.9-2.05-2.39,51.53-51.48,102.82-102.71,154.23-154.07.62.56,1.56,1.44,2.53,2.28,9.21,7.97,22.19,8.21,31.03-.18,11.43-10.87,22.53-22.1,33.45-33.5,5.26-5.49,7.23-12.57,4.93-19.9-1.55-4.96-4.54-9.45-7.61-15.61,5.8-5.49,12.94-11.46,19.19-18.25,27.48-29.88,27.37-75.88-.32-105.51Zm-141.52,69.52c-2.8-5.49-5.7-10.91-8.28-16.63,26.2,17.94,47.18,41.09,66.95,66.94-8.23-4.01-15.46-7.55-22.7-11.06-8.15-3.97-16.36-4.47-25.03-1.39-7.13,2.53-8.87,1.09-6.73-5.92,3.49-11.45.97-21.81-4.21-31.94Zm-68.88-41.08c9.69-9.88,19.43-19.7,29.23-29.47,4.19-4.18,8.16-4.29,12.37-.32,4.97,4.69,9.87,9.47,14.65,14.34,4.13,4.21,4.24,8.22.15,12.4-10.02,10.23-20.16,20.34-30.38,30.38-1.41,1.38-3.51,2.07-5.7,3.32-2.29-1.35-4.6-2.22-6.27-3.78-4.87-4.55-9.55-9.31-14.19-14.1-4.19-4.34-4.17-8.39.13-12.77ZM49.59,298.75c10.13-10.34,20.37-20.57,30.69-30.71,3.32-3.25,7.66-3.37,10.99-.25,5.45,5.12,10.7,10.45,15.86,15.88,1.25,1.32,1.78,3.32,2.82,5.37-1.14,2.11-1.81,4.42-3.3,5.94-9.97,10.27-20.06,20.42-30.21,30.5-3.56,3.54-7.57,3.68-11.27.3-5.39-4.95-10.62-10.08-15.71-15.34-3.62-3.76-3.61-7.86.13-11.68Zm76.62,181.51c-25.63,8.84-48.32,3.51-67.7-15.43-8.6-8.41-17.04-16.99-25.42-25.63-22.79-23.49-23.48-60.72-1.28-84.84,6.24-6.78,13.45-12.66,20.23-18.96,12.85,12.15,25.12,10.32,36.84.42,21.71,28.56,45.61,54.99,75.32,75.58-10.12,11.85-11.57,24.49,1.12,37.53-12.01,11.75-22.41,25.58-39.11,31.34Zm-21.94-151.24c1.12.59,2.23,1.18,3.36,1.75,6.52,3.28,12.93,6.78,19.58,9.78,8.01,3.61,16.17,4,24.62.86,6.37-2.36,8.38-.68,6.32,5.6-4.71,14.31.72,26.42,7.13,38.49,1.82,3.42,3.74,6.78,5.62,10.16-26.5-17.78-47.85-40.75-66.63-66.64Zm127.35,91c-9.97,10.26-20.09,20.39-30.26,30.46-1.4,1.39-3.45,2.13-5.41,3.3-2.34-1.26-4.6-1.97-6.18-3.42-5.15-4.73-10.14-9.64-15.02-14.64-3.9-3.99-4.01-8.08-.13-12.04,10.02-10.22,20.15-20.33,30.35-30.37,3.85-3.79,8.1-3.69,12.07.13,4.92,4.74,9.76,9.57,14.49,14.49,3.83,3.99,3.95,8.11.1,12.08Zm-2.1-36.18c-6.11-6.5-13.5-10.04-22.94-8.49-9.16,1.51-13.97,8.98-21.35,15.23-4.48-9.78-9.09-18.86-12.71-28.31-1.14-2.96.49-6.94.71-10.45.28-4.65,1.28-9.49.41-13.93-1.99-10.12-13.25-15.78-24.38-11.77-7.7,2.77-14.27,1.5-20.96-2-6.03-3.16-11.99-6.43-19.25-11.53,1.69-.98,3.69-1.66,5.04-2.99,14.07-13.91,14.59-24.3,2.45-38.97,51.27-51.31,102.5-102.58,154.03-154.15,5.82,6.06,13.14,9.73,22.59,8.19,9.18-1.49,14.08-8.82,21.54-15.25,4.52,10.09,9.18,19.47,12.81,29.23,1.09,2.93-.42,6.97-1.15,10.42-2.49,11.73.07,19.02,8.65,24.09,5.21,3.08,10.8,2.82,15.99.76,7-2.79,13.31-1.69,19.61,1.6,6.32,3.3,12.63,6.61,20.47,10.73-3.1,2.66-5.65,4.57-7.87,6.81-10.99,11.05-11.13,23.82-.5,35.37.43.47.78,1.01.83,1.07-51.35,51.48-102.56,102.81-154,154.38Zm220.67-182.45c-10.02,10.23-20.15,20.36-30.35,30.4-3.83,3.76-7.79,3.72-11.66.04-5.07-4.83-10.01-9.79-14.85-14.85-3.79-3.97-3.83-8.13.01-12.07,10-10.24,20.1-20.4,30.29-30.46,1.4-1.39,3.53-2.03,5.62-3.18,2.07,1.1,4.17,1.74,5.63,3.09,5.26,4.86,10.39,9.85,15.38,14.99,3.85,3.95,3.86,8.03-.07,12.04Zm15.86-53.38c-5.64,5.83-11.63,11.32-17.67,17.16-14.44-11.76-23.56-12.04-37.25-.82-21.64-28.61-45.48-55.11-75.63-75.82,5.13-5.65,8.52-11.57,8.16-19.01-.35-7.24-3.71-13-8.99-18,17.21-19.69,35.26-37.39,64.13-35.81,14.26.78,27.16,5.41,37.69,15.09,10.75,9.9,21.34,20.06,31.17,30.86,23.01,25.27,22.14,61.77-1.62,86.34Z"/>
      <path class="cls-1" d="m319.33,208.88c-.97-13.77-9.59-24.21-23.05-27.36-8.94-2.09-17.84-1.13-26.42,1.74-32.4,10.83-56.18,32.49-74.54,60.55-8.44,12.91-14.39,26.9-14.8,39.21-.25,24.25,12.79,37.48,33.49,36.2,8.26-.52,16.86-2.4,24.46-5.65,33.32-14.25,57.38-38.54,73.46-70.8,5.27-10.59,8.25-21.85,7.4-33.88Zm-18.03,17.94c-14.29,36.21-39.28,61.83-76.26,75.08-3.61,1.29-7.58,1.6-11.39,2.37-12.07-.28-17.57-5.59-17.5-17.5.08-12.52,5.31-23.39,11.68-33.65,13.49-21.75,31.53-38.75,54.5-50.28,8.37-4.2,17.14-7.03,26.67-6.6,9.16.41,14.62,5.57,14.59,14.8-.01,5.28-.39,10.95-2.29,15.78Z"/>
    </g>
  </g>
</svg>