<?xml version="1.0" encoding="UTF-8"?>
<svg id="Layer_2" data-name="Layer 2" xmlns="http://www.w3.org/2000/svg" viewBox="0 0 500 294.75">
  <defs>
    <style>
      .cls-1 {
        fill: #f2f0ea;
        stroke-width: 0px;
      }
    </style>
  </defs>
  <g id="Layer_1-2" data-name="Layer 1">
    <g>
      <path class="cls-1" d="m328.94,23.67l32.01,219.75c.32,2.18-1.19,4.21-3.38,4.53l-320.99,46.75c-2.18.32-4.21-1.2-4.53-3.38l-7.64-52.48c-.24-1.63.57-3.21,1.99-4.05,19.83-11.78,31.64-34.7,28.11-58.94-.53-3.67-1.41-7.23-2.56-10.61-.08-.24-.18-.46-.3-.68l-8.6-15.83c-.12-.22-.25-.43-.41-.62-7.99-10.19-19.21-17.54-31.89-20.74-1.6-.4-2.82-1.68-3.06-3.31L.04,71.58c-.32-2.18,1.2-4.21,3.38-4.53L324.41,20.29c2.18-.32,4.21,1.19,4.53,3.38Z"/>
      <path class="cls-1" d="m445.5,118.91c3.53,24.23,21.39,42.83,43.76,48.47,1.6.4,2.82,1.68,3.06,3.31l7.64,52.48c.32,2.18-1.2,4.21-3.38,4.53l-107.49,15.66c-2.18.32-4.21-1.19-4.53-3.38l-32.01-219.75c-.32-2.18,1.19-4.21,3.38-4.53L463.42.04c2.18-.32,4.21,1.2,4.53,3.38l7.64,52.48c.24,1.63-.57,3.21-1.99,4.05-19.83,11.78-31.64,34.7-28.11,58.96Z"/>
    </g>
  </g>
</svg>