<?xml version="1.0" encoding="UTF-8"?>
<svg id="Layer_2" data-name="Layer 2" xmlns="http://www.w3.org/2000/svg" viewBox="0 0 500 414.53">
  <defs>
    <style>
      .cls-1 {
        fill: #f2f0ea;
        stroke-width: 0px;
      }
    </style>
  </defs>
  <g id="Layer_1-2" data-name="Layer 1">
    <g>
      <path class="cls-1" d="m337.38,85.86c-29.93,0-57.97,8.08-82.05,22.19-3.31,1.94-6.54,3.99-9.69,6.14-9.51,6.51-18.3,14.01-26.21,22.34-2.47,2.6-4.85,5.27-7.14,8.03-23.44,28.18-37.53,64.4-37.53,103.92,0,43.17,16.82,82.4,44.26,111.52,2.46,2.61,5.01,5.14,7.63,7.58,8.4,7.82,17.63,14.75,27.54,20.66,3.27,1.95,6.62,3.79,10.05,5.52,21.99,11.1,46.84,17.34,73.14,17.34,89.82,0,162.62-72.81,162.62-162.62s-72.81-162.62-162.62-162.62Zm0,293.11c-16.56,0-32.4-3.08-46.99-8.71-3.4-1.32-6.73-2.77-9.99-4.36-9.92-4.82-19.14-10.86-27.47-17.94-2.63-2.23-5.17-4.58-7.62-7.01-23.73-23.63-38.42-56.34-38.42-92.47,0-33.21,12.4-63.53,32.84-86.55,2.29-2.58,4.68-5.08,7.17-7.46,7.88-7.59,16.71-14.19,26.29-19.62,3.15-1.79,6.38-3.45,9.69-4.97,16.58-7.64,35.05-11.89,54.5-11.89,72.06,0,130.49,58.42,130.49,130.49s-58.42,130.49-130.49,130.49Z"/>
      <path class="cls-1" d="m217.12,370.51c-16.59,7.63-35.05,11.89-54.5,11.89-72.07,0-130.49-58.42-130.49-130.49S90.55,121.42,162.62,121.42c16.56,0,32.4,3.08,46.98,8.71,1.84-2.02,3.74-4.01,5.68-5.95,6.42-6.42,13.27-12.29,20.48-17.55-21.99-11.1-46.84-17.34-73.14-17.34C72.81,89.29,0,162.09,0,251.91s72.81,162.62,162.62,162.62c29.92,0,57.96-8.08,82.05-22.18-9.79-6.26-19.03-13.55-27.55-21.84Zm63.86-230.11c-9.62,5.14-18.47,11.57-26.3,19.04,23.73,23.63,38.42,56.34,38.42,92.47,0,33.21-12.41,63.52-32.84,86.55,8.28,6.96,17.5,12.83,27.45,17.38,23.43-28.18,37.53-64.4,37.53-103.92,0-43.16-16.82-82.4-44.26-111.51Z"/>
      <path class="cls-1" d="m240.02,29.91l.13-.13h-.28l-1.68-1.41-2.3-1.94L204.53,0h-71.31l-31.37,26.43-2.3,1.95-1.67,1.4h-.29l.14.13-.17.14,1.99,1.68,2.28,2.28,31.4,31.35,35.64,35.58,35.63-35.58,31.4-31.35,2.28-2.28,1.99-1.68-.17-.14Zm-28.16-3.48h-26.62l-.52-.68-11.93-15.61h21.04l18.03,16.28Zm-50.74-.37l.23-.31,7.73-10.1,7.73,10.1.23.31h-15.93Zm-17.2-15.91h21.46l-11.93,15.61-.52.68h-27.04l18.03-16.28Zm.02,48.98l-23.5-25.12h28.96l13.61,45.5-19.06-20.38Zm13.75-23.11h22.38l-11.19,37.39-11.19-37.39Zm36.13,23.11l-19.06,20.38,13.61-45.5h28.96l-23.5,25.12Z"/>
    </g>
  </g>
</svg>